<?xml version="1.0" encoding="utf-8" standalone="no"?>
<!DOCTYPE svg PUBLIC "-//W3C//DTD SVG 1.1//EN"
  "http://www.w3.org/Graphics/SVG/1.1/DTD/svg11.dtd">
<!-- Created with matplotlib (https://matplotlib.org/) -->
<svg height="345.6pt" version="1.1" viewBox="0 0 460.8 345.6" width="460.8pt" xmlns="http://www.w3.org/2000/svg" xmlns:xlink="http://www.w3.org/1999/xlink">
 <metadata>
  <rdf:RDF xmlns:cc="http://creativecommons.org/ns#" xmlns:dc="http://purl.org/dc/elements/1.1/" xmlns:rdf="http://www.w3.org/1999/02/22-rdf-syntax-ns#">
   <cc:Work>
    <dc:type rdf:resource="http://purl.org/dc/dcmitype/StillImage"/>
    <dc:date>2022-07-26T20:55:40.234111</dc:date>
    <dc:format>image/svg+xml</dc:format>
    <dc:creator>
     <cc:Agent>
      <dc:title>Matplotlib v3.3.4, https://matplotlib.org/</dc:title>
     </cc:Agent>
    </dc:creator>
   </cc:Work>
  </rdf:RDF>
 </metadata>
 <defs>
  <style type="text/css">*{stroke-linecap:butt;stroke-linejoin:round;}</style>
 </defs>
 <g id="figure_1">
  <g id="patch_1">
   <path d="M 0 345.6 
L 460.8 345.6 
L 460.8 0 
L 0 0 
z
" style="fill:#ffffff;"/>
  </g>
  <g id="axes_1">
   <g id="patch_2">
    <path d="M 57.6 307.584 
L 414.72 307.584 
L 414.72 41.472 
L 57.6 41.472 
z
" style="fill:#ffffff;"/>
   </g>
   <g id="patch_3">
    <path clip-path="url(#pac2c85704a)" d="M 73.832727 307.584 
L 96.222696 307.584 
L 96.222696 54.144 
L 73.832727 54.144 
z
" style="fill:#ff6347;"/>
   </g>
   <g id="patch_4">
    <path clip-path="url(#pac2c85704a)" d="M 129.807649 307.584 
L 152.197618 307.584 
L 152.197618 148.354681 
L 129.807649 148.354681 
z
" style="fill:#ff6347;"/>
   </g>
   <g id="patch_5">
    <path clip-path="url(#pac2c85704a)" d="M 185.782571 307.584 
L 208.172539 307.584 
L 208.172539 201.43112 
L 185.782571 201.43112 
z
" style="fill:#ff6347;"/>
   </g>
   <g id="patch_6">
    <path clip-path="url(#pac2c85704a)" d="M 241.757492 307.584 
L 264.147461 307.584 
L 264.147461 221.334785 
L 241.757492 221.334785 
z
" style="fill:#ff6347;"/>
   </g>
   <g id="patch_7">
    <path clip-path="url(#pac2c85704a)" d="M 297.732414 307.584 
L 320.122382 307.584 
L 320.122382 176.219812 
L 297.732414 176.219812 
z
" style="fill:#ff6347;"/>
   </g>
   <g id="patch_8">
    <path clip-path="url(#pac2c85704a)" d="M 353.707335 307.584 
L 376.097304 307.584 
L 376.097304 233.276984 
L 353.707335 233.276984 
z
" style="fill:#ff6347;"/>
   </g>
   <g id="matplotlib.axis_1">
    <g id="xtick_1">
     <g id="line2d_1">
      <defs>
       <path d="M 0 0 
L 0 3.5 
" id="m2e2caa0cbb" style="stroke:#000000;stroke-width:0.8;"/>
      </defs>
      <g>
       <use style="stroke:#000000;stroke-width:0.8;" x="96.222696" xlink:href="#m2e2caa0cbb" y="307.584"/>
      </g>
     </g>
     <g id="text_1">
      <!-- 2017 -->
      <g transform="translate(86.222696 321.459)scale(0.1 -0.1)">
       <defs>
        <path d="M 4.6875 3.90625 
Q 5.078125 9.765625 10.15625 14.453125 
Q 15.234375 19.140625 23.046875 29.09375 
Q 30.859375 39.0625 33.203125 44.53125 
Q 35.546875 50 34.953125 53.90625 
Q 34.375 57.8125 31.25 60.34375 
Q 28.125 62.890625 24.015625 62.5 
Q 19.921875 62.109375 16.203125 59.375 
Q 12.5 56.640625 10.546875 51.171875 
L 3.125 52.34375 
Q 6.25 61.328125 11.125 65.421875 
Q 16.015625 69.53125 22.65625 69.921875 
Q 26.5625 70.3125 29.6875 69.71875 
Q 32.8125 69.140625 36.125 66.984375 
Q 39.453125 64.84375 41.59375 60.546875 
Q 43.75 56.25 43.15625 50.1875 
Q 42.578125 44.140625 37.109375 35.734375 
Q 31.640625 27.34375 16.015625 9.375 
L 44.140625 9.375 
L 44.140625 2.34375 
L 4.6875 2.34375 
z
" id="SimHei-50"/>
        <path d="M 3.125 29.296875 
Q 3.90625 50 6.4375 56.046875 
Q 8.984375 62.109375 13.671875 66.015625 
Q 18.359375 69.921875 25.1875 69.921875 
Q 32.03125 69.921875 37.109375 64.25 
Q 42.1875 58.59375 43.75 50 
Q 45.3125 41.40625 44.71875 30.265625 
Q 44.140625 19.140625 40.8125 12.109375 
Q 37.5 5.078125 30.859375 2.34375 
Q 24.21875 -0.390625 17.578125 2.921875 
Q 10.9375 6.25 8.203125 11.71875 
Q 5.46875 17.1875 4.296875 23.234375 
Q 3.125 29.296875 3.90625 50 
z
M 12.890625 52.734375 
Q 10.546875 31.25 12.5 22.84375 
Q 14.453125 14.453125 18.9375 10.9375 
Q 23.4375 7.421875 28.125 9.5625 
Q 32.8125 11.71875 34.953125 18.15625 
Q 37.109375 24.609375 37.109375 32.21875 
Q 37.109375 39.84375 36.515625 46.09375 
Q 35.9375 52.34375 33 57.421875 
Q 30.078125 62.5 25.1875 62.6875 
Q 20.3125 62.890625 16.59375 57.8125 
Q 12.890625 52.734375 10.546875 31.25 
z
" id="SimHei-48"/>
        <path d="M 21.875 56.25 
Q 16.796875 51.171875 8.984375 46.484375 
L 8.984375 53.90625 
Q 18.75 60.546875 25 69.53125 
L 29.6875 69.53125 
L 29.6875 2.34375 
L 21.875 2.34375 
z
" id="SimHei-49"/>
        <path d="M 13.28125 2.34375 
Q 20.3125 32.03125 37.890625 61.328125 
L 4.296875 61.328125 
L 4.296875 68.359375 
L 46.09375 68.359375 
L 46.09375 61.71875 
Q 27.734375 32.03125 21.875 2.34375 
L 13.28125 2.34375 
z
" id="SimHei-55"/>
       </defs>
       <use xlink:href="#SimHei-50"/>
       <use x="50" xlink:href="#SimHei-48"/>
       <use x="100" xlink:href="#SimHei-49"/>
       <use x="150" xlink:href="#SimHei-55"/>
      </g>
     </g>
    </g>
    <g id="xtick_2">
     <g id="line2d_2">
      <g>
       <use style="stroke:#000000;stroke-width:0.8;" x="152.197618" xlink:href="#m2e2caa0cbb" y="307.584"/>
      </g>
     </g>
     <g id="text_2">
      <!-- 2018 -->
      <g transform="translate(142.197618 321.459)scale(0.1 -0.1)">
       <defs>
        <path d="M 2.734375 16.796875 
Q 2.734375 26.171875 5.078125 30.65625 
Q 7.421875 35.15625 12.890625 37.890625 
Q 8.203125 40.625 6.640625 43.9375 
Q 5.078125 47.265625 4.875 51.5625 
Q 4.6875 55.859375 6.046875 58.984375 
Q 7.421875 62.109375 10.15625 64.84375 
Q 12.890625 67.578125 16.203125 68.546875 
Q 19.53125 69.53125 23.4375 69.53125 
Q 27.34375 69.53125 30.46875 68.75 
Q 33.59375 67.96875 37.109375 65.421875 
Q 40.625 62.890625 42.1875 58.203125 
Q 43.75 53.515625 41.984375 47.265625 
Q 40.234375 41.015625 32.8125 37.5 
Q 39.453125 35.546875 42.1875 31.4375 
Q 44.921875 27.34375 44.921875 21.484375 
Q 44.921875 15.625 43.15625 12.109375 
Q 41.40625 8.59375 39.25 6.25 
Q 37.109375 3.90625 33.390625 2.53125 
Q 29.6875 1.171875 24.015625 1.171875 
Q 18.359375 1.171875 14.25 2.53125 
Q 10.15625 3.90625 7.421875 6.640625 
Q 4.6875 9.375 3.703125 13.078125 
Q 2.734375 16.796875 2.734375 26.171875 
z
M 10.9375 26.5625 
Q 10.546875 17.1875 12.296875 13.671875 
Q 14.0625 10.15625 18.75 9.171875 
Q 23.4375 8.203125 28.515625 9.375 
Q 33.59375 10.546875 35.546875 14.84375 
Q 37.5 19.140625 36.90625 23.4375 
Q 36.328125 27.734375 32.03125 30.65625 
Q 27.734375 33.59375 22.65625 33.203125 
Q 17.578125 32.8125 14.25 29.6875 
Q 10.9375 26.5625 10.546875 17.1875 
z
M 12.109375 56.25 
Q 12.109375 48.4375 14.84375 44.921875 
Q 17.578125 41.40625 23.4375 41.40625 
Q 29.296875 41.40625 32.21875 44.921875 
Q 35.15625 48.4375 34.953125 53.3125 
Q 34.765625 58.203125 31.4375 60.546875 
Q 28.125 62.890625 22.453125 62.5 
Q 16.796875 62.109375 14.453125 59.171875 
Q 12.109375 56.25 12.109375 48.4375 
z
" id="SimHei-56"/>
       </defs>
       <use xlink:href="#SimHei-50"/>
       <use x="50" xlink:href="#SimHei-48"/>
       <use x="100" xlink:href="#SimHei-49"/>
       <use x="150" xlink:href="#SimHei-56"/>
      </g>
     </g>
    </g>
    <g id="xtick_3">
     <g id="line2d_3">
      <g>
       <use style="stroke:#000000;stroke-width:0.8;" x="208.172539" xlink:href="#m2e2caa0cbb" y="307.584"/>
      </g>
     </g>
     <g id="text_3">
      <!-- 2019 -->
      <g transform="translate(198.172539 321.459)scale(0.1 -0.1)">
       <defs>
        <path d="M 12.5 1.171875 
Q 21.09375 15.625 26.5625 27.34375 
Q 16.796875 25.78125 10.34375 29.875 
Q 3.90625 33.984375 2.53125 41.015625 
Q 1.171875 48.046875 2.734375 53.703125 
Q 4.296875 59.375 7.609375 63.078125 
Q 10.9375 66.796875 15.625 68.359375 
Q 20.3125 69.921875 24.015625 69.921875 
Q 27.734375 69.921875 31.640625 68.359375 
Q 35.546875 66.796875 38.671875 63.671875 
Q 41.796875 60.546875 42.96875 57.21875 
Q 44.140625 53.90625 44.140625 48.625 
Q 44.140625 43.359375 40.234375 35.15625 
Q 36.328125 26.953125 21.09375 1.171875 
z
M 9.765625 50 
Q 10.9375 39.84375 14.640625 36.515625 
Q 18.359375 33.203125 22.65625 33.59375 
Q 26.953125 33.984375 29.484375 35.9375 
Q 32.03125 37.890625 34.375 42.578125 
Q 35.9375 48.4375 35.15625 52.53125 
Q 34.375 56.640625 31.046875 59.375 
Q 27.734375 62.109375 23.828125 62.109375 
Q 21.484375 62.5 17.765625 60.9375 
Q 14.0625 59.375 11.90625 54.6875 
Q 9.765625 50 10.9375 39.84375 
z
" id="SimHei-57"/>
       </defs>
       <use xlink:href="#SimHei-50"/>
       <use x="50" xlink:href="#SimHei-48"/>
       <use x="100" xlink:href="#SimHei-49"/>
       <use x="150" xlink:href="#SimHei-57"/>
      </g>
     </g>
    </g>
    <g id="xtick_4">
     <g id="line2d_4">
      <g>
       <use style="stroke:#000000;stroke-width:0.8;" x="264.147461" xlink:href="#m2e2caa0cbb" y="307.584"/>
      </g>
     </g>
     <g id="text_4">
      <!-- 2020 -->
      <g transform="translate(254.147461 321.459)scale(0.1 -0.1)">
       <use xlink:href="#SimHei-50"/>
       <use x="50" xlink:href="#SimHei-48"/>
       <use x="100" xlink:href="#SimHei-50"/>
       <use x="150" xlink:href="#SimHei-48"/>
      </g>
     </g>
    </g>
    <g id="xtick_5">
     <g id="line2d_5">
      <g>
       <use style="stroke:#000000;stroke-width:0.8;" x="320.122382" xlink:href="#m2e2caa0cbb" y="307.584"/>
      </g>
     </g>
     <g id="text_5">
      <!-- 2021 -->
      <g transform="translate(310.122382 321.459)scale(0.1 -0.1)">
       <use xlink:href="#SimHei-50"/>
       <use x="50" xlink:href="#SimHei-48"/>
       <use x="100" xlink:href="#SimHei-50"/>
       <use x="150" xlink:href="#SimHei-49"/>
      </g>
     </g>
    </g>
    <g id="xtick_6">
     <g id="line2d_6">
      <g>
       <use style="stroke:#000000;stroke-width:0.8;" x="376.097304" xlink:href="#m2e2caa0cbb" y="307.584"/>
      </g>
     </g>
     <g id="text_6">
      <!-- 2022 -->
      <g transform="translate(366.097304 321.459)scale(0.1 -0.1)">
       <use xlink:href="#SimHei-50"/>
       <use x="50" xlink:href="#SimHei-48"/>
       <use x="100" xlink:href="#SimHei-50"/>
       <use x="150" xlink:href="#SimHei-50"/>
      </g>
     </g>
    </g>
    <g id="text_7">
     <!-- 年份 -->
     <g transform="translate(226.16 334.67775)scale(0.1 -0.1)">
      <defs>
       <path d="M 5.46875 45.703125 
Q 14.0625 53.90625 21.484375 65.625 
Q 28.90625 77.34375 29.6875 82.421875 
Q 35.546875 80.078125 40.625 78.90625 
Q 37.109375 75.390625 32.8125 67.578125 
L 72.265625 67.578125 
Q 80.859375 67.578125 89.84375 67.96875 
L 89.84375 61.328125 
Q 81.640625 61.71875 72.265625 61.71875 
L 59.375 61.71875 
L 59.375 45.703125 
Q 74.21875 45.703125 85.546875 46.09375 
L 85.546875 39.453125 
Q 73.828125 39.84375 59.375 39.84375 
L 59.375 21.484375 
L 79.296875 21.484375 
Q 87.890625 21.484375 95.3125 21.875 
L 95.3125 15.234375 
Q 88.28125 15.625 79.296875 15.625 
L 59.375 15.625 
L 59.375 6.640625 
Q 59.375 -2.34375 59.765625 -9.765625 
L 51.171875 -9.765625 
Q 51.5625 -2.34375 51.5625 5.859375 
L 51.5625 15.625 
L 25 15.625 
Q 14.0625 15.625 4.296875 15.234375 
L 4.296875 21.875 
Q 13.671875 21.484375 22.65625 21.484375 
Q 22.65625 36.71875 22.265625 45.703125 
L 51.5625 45.703125 
L 51.5625 61.71875 
L 29.296875 61.71875 
Q 21.09375 49.21875 14.453125 41.40625 
Q 10.15625 44.921875 5.46875 45.703125 
z
M 51.5625 21.484375 
L 51.5625 39.84375 
L 30.078125 39.84375 
L 30.078125 21.484375 
z
" id="SimHei-24180"/>
       <path d="M 74.21875 79.6875 
Q 76.171875 68.359375 82.03125 57.03125 
Q 87.890625 45.703125 96.875 38.28125 
Q 94.140625 37.109375 90.234375 32.421875 
Q 87.5 35.546875 83.59375 40.234375 
Q 82.8125 35.546875 82.421875 20.5 
Q 82.03125 5.46875 81.046875 0.390625 
Q 80.078125 -4.6875 75.78125 -6.25 
Q 71.484375 -7.8125 63.671875 -8.59375 
Q 62.5 -3.90625 60.546875 0 
Q 68.75 -0.390625 71.484375 0.390625 
Q 74.21875 1.171875 74.609375 9.171875 
Q 75 17.1875 75.390625 35.15625 
L 57.8125 35.15625 
Q 57.421875 20.3125 53.515625 10.15625 
Q 49.609375 0 37.109375 -9.765625 
Q 33.984375 -5.46875 31.25 -3.515625 
Q 42.96875 3.515625 46.671875 12.5 
Q 50.390625 21.484375 50.390625 35.15625 
Q 46.875 35.15625 41.796875 34.765625 
L 41.796875 40.234375 
Q 38.671875 35.9375 33.59375 30.46875 
Q 31.25 33.59375 27.34375 35.9375 
Q 44.921875 51.171875 50.390625 76.171875 
Q 53.90625 74.609375 58.59375 73.046875 
Q 56.640625 68.75 53.515625 60.734375 
Q 50.390625 52.734375 43.359375 42.1875 
Q 47.65625 41.796875 53.125 41.796875 
L 82.8125 41.796875 
Q 71.484375 56.640625 66.796875 77.734375 
Q 71.484375 78.515625 74.21875 79.6875 
z
M 3.515625 39.453125 
Q 8.984375 44.921875 16.015625 57.609375 
Q 23.046875 70.3125 25.78125 81.640625 
Q 30.859375 79.296875 34.375 77.734375 
Q 32.03125 74.21875 25 58.984375 
L 25 9.765625 
Q 25 1.171875 25.390625 -8.984375 
L 17.1875 -8.984375 
Q 17.578125 0.78125 17.578125 9.765625 
L 17.578125 45.703125 
Q 12.109375 37.5 8.984375 33.984375 
Q 6.640625 36.71875 3.515625 39.453125 
z
" id="SimHei-20221"/>
      </defs>
      <use xlink:href="#SimHei-24180"/>
      <use x="100" xlink:href="#SimHei-20221"/>
     </g>
    </g>
   </g>
   <g id="matplotlib.axis_2">
    <g id="ytick_1">
     <g id="line2d_7">
      <defs>
       <path d="M 0 0 
L -3.5 0 
" id="m0befb8298f" style="stroke:#000000;stroke-width:0.8;"/>
      </defs>
      <g>
       <use style="stroke:#000000;stroke-width:0.8;" x="57.6" xlink:href="#m0befb8298f" y="307.584"/>
      </g>
     </g>
     <g id="text_8">
      <!-- 0 -->
      <g transform="translate(45.6 311.0215)scale(0.1 -0.1)">
       <use xlink:href="#SimHei-48"/>
      </g>
     </g>
    </g>
    <g id="ytick_2">
     <g id="line2d_8">
      <g>
       <use style="stroke:#000000;stroke-width:0.8;" x="57.6" xlink:href="#m0befb8298f" y="274.411225"/>
      </g>
     </g>
     <g id="text_9">
      <!-- 25 -->
      <g transform="translate(40.6 277.848725)scale(0.1 -0.1)">
       <defs>
        <path d="M 8.59375 20.703125 
Q 11.328125 10.15625 17.96875 8.984375 
Q 24.609375 7.8125 28.703125 10.34375 
Q 32.8125 12.890625 34.5625 16.984375 
Q 36.328125 21.09375 36.125 26.171875 
Q 35.9375 31.25 33.390625 34.765625 
Q 30.859375 38.28125 26.953125 39.453125 
Q 23.046875 40.625 18.15625 39.453125 
Q 13.28125 38.28125 10.15625 33.984375 
L 3.515625 34.765625 
Q 4.296875 37.109375 10.9375 68.359375 
L 41.796875 68.359375 
L 41.796875 61.328125 
L 16.796875 61.328125 
Q 14.84375 50.78125 12.890625 44.53125 
Q 18.75 47.265625 23.828125 47.0625 
Q 28.90625 46.875 33.59375 44.71875 
Q 38.28125 42.578125 40.421875 38.859375 
Q 42.578125 35.15625 43.546875 31.4375 
Q 44.53125 27.734375 44.328125 23.4375 
Q 44.140625 19.140625 42.578125 14.640625 
Q 41.015625 10.15625 37.890625 7.21875 
Q 34.765625 4.296875 30.265625 2.53125 
Q 25.78125 0.78125 19.921875 1.171875 
Q 14.0625 1.5625 8.78125 5.46875 
Q 3.515625 9.375 1.5625 18.75 
z
" id="SimHei-53"/>
       </defs>
       <use xlink:href="#SimHei-50"/>
       <use x="50" xlink:href="#SimHei-53"/>
      </g>
     </g>
    </g>
    <g id="ytick_3">
     <g id="line2d_9">
      <g>
       <use style="stroke:#000000;stroke-width:0.8;" x="57.6" xlink:href="#m0befb8298f" y="241.23845"/>
      </g>
     </g>
     <g id="text_10">
      <!-- 50 -->
      <g transform="translate(40.6 244.67595)scale(0.1 -0.1)">
       <use xlink:href="#SimHei-53"/>
       <use x="50" xlink:href="#SimHei-48"/>
      </g>
     </g>
    </g>
    <g id="ytick_4">
     <g id="line2d_10">
      <g>
       <use style="stroke:#000000;stroke-width:0.8;" x="57.6" xlink:href="#m0befb8298f" y="208.065675"/>
      </g>
     </g>
     <g id="text_11">
      <!-- 75 -->
      <g transform="translate(40.6 211.503175)scale(0.1 -0.1)">
       <use xlink:href="#SimHei-55"/>
       <use x="50" xlink:href="#SimHei-53"/>
      </g>
     </g>
    </g>
    <g id="ytick_5">
     <g id="line2d_11">
      <g>
       <use style="stroke:#000000;stroke-width:0.8;" x="57.6" xlink:href="#m0befb8298f" y="174.892901"/>
      </g>
     </g>
     <g id="text_12">
      <!-- 100 -->
      <g transform="translate(35.6 178.330401)scale(0.1 -0.1)">
       <use xlink:href="#SimHei-49"/>
       <use x="50" xlink:href="#SimHei-48"/>
       <use x="100" xlink:href="#SimHei-48"/>
      </g>
     </g>
    </g>
    <g id="ytick_6">
     <g id="line2d_12">
      <g>
       <use style="stroke:#000000;stroke-width:0.8;" x="57.6" xlink:href="#m0befb8298f" y="141.720126"/>
      </g>
     </g>
     <g id="text_13">
      <!-- 125 -->
      <g transform="translate(35.6 145.157626)scale(0.1 -0.1)">
       <use xlink:href="#SimHei-49"/>
       <use x="50" xlink:href="#SimHei-50"/>
       <use x="100" xlink:href="#SimHei-53"/>
      </g>
     </g>
    </g>
    <g id="ytick_7">
     <g id="line2d_13">
      <g>
       <use style="stroke:#000000;stroke-width:0.8;" x="57.6" xlink:href="#m0befb8298f" y="108.547351"/>
      </g>
     </g>
     <g id="text_14">
      <!-- 150 -->
      <g transform="translate(35.6 111.984851)scale(0.1 -0.1)">
       <use xlink:href="#SimHei-49"/>
       <use x="50" xlink:href="#SimHei-53"/>
       <use x="100" xlink:href="#SimHei-48"/>
      </g>
     </g>
    </g>
    <g id="ytick_8">
     <g id="line2d_14">
      <g>
       <use style="stroke:#000000;stroke-width:0.8;" x="57.6" xlink:href="#m0befb8298f" y="75.374576"/>
      </g>
     </g>
     <g id="text_15">
      <!-- 175 -->
      <g transform="translate(35.6 78.812076)scale(0.1 -0.1)">
       <use xlink:href="#SimHei-49"/>
       <use x="50" xlink:href="#SimHei-55"/>
       <use x="100" xlink:href="#SimHei-53"/>
      </g>
     </g>
    </g>
    <g id="ytick_9">
     <g id="line2d_15">
      <g>
       <use style="stroke:#000000;stroke-width:0.8;" x="57.6" xlink:href="#m0befb8298f" y="42.201801"/>
      </g>
     </g>
     <g id="text_16">
      <!-- 200 -->
      <g transform="translate(35.6 45.639301)scale(0.1 -0.1)">
       <use xlink:href="#SimHei-50"/>
       <use x="50" xlink:href="#SimHei-48"/>
       <use x="100" xlink:href="#SimHei-48"/>
      </g>
     </g>
    </g>
    <g id="text_17">
     <!-- 投资数量/起 -->
     <g transform="translate(30.35 202.028)rotate(-90)scale(0.1 -0.1)">
      <defs>
       <path d="M 41.40625 40.625 
Q 50 40.234375 56.640625 40.234375 
L 85.9375 40.234375 
Q 84.375 32.421875 80.078125 24.015625 
Q 75.78125 15.625 69.53125 8.203125 
Q 74.21875 4.296875 82.03125 2.140625 
Q 89.84375 0 96.875 -0.390625 
Q 93.359375 -4.296875 91.796875 -8.984375 
Q 83.984375 -7.03125 77.140625 -4.09375 
Q 70.3125 -1.171875 63.671875 3.125 
Q 57.8125 -1.171875 52.34375 -4.09375 
Q 46.875 -7.03125 38.28125 -10.15625 
Q 36.71875 -6.640625 32.8125 -2.734375 
Q 37.890625 -1.5625 44.140625 0.390625 
Q 50.390625 2.34375 58.203125 8.203125 
Q 50.390625 18.359375 47.65625 33.59375 
L 41.40625 33.59375 
z
M 18.75 59.765625 
Q 18.75 72.265625 18.359375 81.25 
L 26.171875 81.25 
Q 25.78125 73.046875 25.78125 59.765625 
Q 32.03125 59.765625 37.890625 60.15625 
L 37.890625 52.734375 
Q 32.03125 53.125 25.78125 53.125 
L 25.78125 36.71875 
Q 29.296875 37.5 36.71875 40.625 
Q 36.71875 37.109375 37.5 32.8125 
Q 33.984375 32.03125 25.78125 28.90625 
L 25.78125 -0.78125 
Q 25.390625 -5.859375 22.265625 -7.03125 
Q 19.140625 -8.203125 9.765625 -9.375 
Q 9.765625 -4.6875 7.421875 -0.390625 
Q 14.453125 -0.78125 16.40625 -0.390625 
Q 18.359375 0 18.75 3.515625 
L 18.75 26.953125 
Q 10.546875 23.828125 6.640625 21.09375 
Q 5.46875 26.171875 3.125 30.078125 
Q 9.375 30.859375 18.75 33.984375 
L 18.75 53.125 
Q 10.546875 53.125 5.46875 52.734375 
L 5.46875 60.15625 
Q 10.546875 59.765625 18.75 59.765625 
z
M 83.984375 48.4375 
Q 78.90625 48.4375 75 48.828125 
Q 71.09375 49.21875 71.09375 55.46875 
L 71.09375 71.484375 
L 57.03125 71.484375 
Q 57.03125 60.546875 54.484375 54.296875 
Q 51.953125 48.046875 46.484375 42.578125 
Q 43.359375 45.703125 39.0625 47.265625 
Q 47.265625 53.90625 48.234375 60.9375 
Q 49.21875 67.96875 48.828125 77.734375 
L 78.515625 77.734375 
Q 78.125 73.828125 78.125 67.1875 
L 78.125 57.8125 
Q 78.125 55.078125 80.859375 55.078125 
L 86.71875 55.078125 
Q 90.234375 55.078125 92.1875 55.46875 
Q 91.40625 52.34375 91.40625 48.4375 
z
M 54.296875 33.59375 
Q 57.8125 19.53125 64.0625 12.890625 
Q 67.578125 16.796875 70.5 21.09375 
Q 73.4375 25.390625 76.171875 33.59375 
L 54.296875 33.59375 
z
" id="SimHei-25237"/>
       <path d="M 82.8125 33.59375 
Q 82.421875 28.515625 82.421875 22.65625 
Q 82.421875 16.796875 82.8125 8.984375 
L 75 8.984375 
L 75 26.953125 
L 26.5625 26.953125 
L 26.5625 6.640625 
L 18.75 6.640625 
Q 19.140625 15.625 19.140625 21.484375 
Q 19.140625 27.734375 18.75 33.59375 
L 82.8125 33.59375 
z
M 66.015625 63.671875 
Q 63.28125 58.984375 65.625 55.65625 
Q 67.96875 52.34375 72.0625 49.40625 
Q 76.171875 46.484375 82.21875 44.53125 
Q 88.28125 42.578125 95.703125 42.1875 
Q 92.578125 37.890625 91.015625 33.984375 
Q 81.25 35.9375 73.625 39.84375 
Q 66.015625 43.75 60.9375 52.34375 
Q 57.421875 43.359375 50.78125 39.84375 
Q 44.140625 36.328125 36.328125 33.984375 
Q 33.203125 37.5 30.078125 40.234375 
Q 46.484375 43.359375 51.5625 49.609375 
Q 56.640625 55.859375 57.03125 64.84375 
L 66.015625 63.671875 
z
M 48.828125 66.40625 
Q 44.140625 60.15625 39.84375 57.03125 
Q 37.109375 59.765625 33.984375 61.71875 
Q 38.671875 64.84375 42.765625 70.109375 
Q 46.875 75.390625 49.21875 81.25 
Q 52.734375 79.6875 57.8125 78.90625 
Q 55.859375 75.390625 53.125 72.65625 
L 89.84375 72.65625 
Q 88.671875 70.3125 82.8125 57.421875 
Q 78.125 58.59375 75 58.984375 
Q 76.953125 63.28125 78.515625 66.40625 
L 48.828125 66.40625 
z
M 55.078125 21.484375 
Q 53.125 17.1875 52.140625 12.890625 
Q 51.171875 8.59375 47.0625 4.09375 
Q 42.96875 -0.390625 35.15625 -4.296875 
Q 27.34375 -8.203125 12.5 -10.546875 
Q 11.328125 -6.640625 7.8125 -3.125 
Q 19.140625 -2.734375 26.75 -0.1875 
Q 34.375 2.34375 38.28125 5.46875 
Q 42.1875 8.59375 43.9375 13.078125 
Q 45.703125 17.578125 45.703125 22.65625 
Q 50.390625 21.875 55.078125 21.484375 
z
M 59.765625 10.9375 
Q 67.1875 8.203125 74.21875 5.46875 
Q 81.25 2.734375 91.015625 -1.5625 
Q 88.671875 -4.6875 86.71875 -9.375 
Q 79.296875 -5.078125 72.0625 -1.953125 
Q 64.84375 1.171875 56.640625 3.90625 
Q 58.59375 7.03125 59.765625 10.9375 
z
M 32.421875 51.953125 
Q 22.65625 42.96875 13.671875 32.03125 
Q 9.765625 36.328125 7.421875 37.890625 
Q 19.921875 47.65625 26.953125 56.640625 
Q 28.90625 54.6875 32.421875 51.953125 
z
M 26.5625 62.109375 
Q 20.3125 66.796875 9.765625 73.046875 
Q 12.5 75.78125 14.453125 78.515625 
Q 17.96875 76.171875 31.25 67.96875 
Q 28.90625 65.625 26.5625 62.109375 
z
" id="SimHei-36164"/>
       <path d="M 70.703125 76.953125 
Q 69.921875 75 68.75 71.671875 
Q 67.578125 68.359375 65.234375 59.765625 
L 83.203125 59.765625 
Q 87.109375 59.765625 92.578125 60.15625 
L 92.578125 53.125 
Q 88.28125 53.515625 85.9375 53.515625 
Q 85.9375 47.265625 83.78125 33.78125 
Q 81.640625 20.3125 76.171875 10.546875 
Q 80.078125 5.859375 84.953125 2.140625 
Q 89.84375 -1.5625 94.140625 -3.125 
Q 89.453125 -6.640625 87.890625 -9.765625 
Q 83.203125 -7.03125 79.296875 -3.515625 
Q 75.390625 0 71.484375 5.078125 
Q 67.1875 0.390625 62.296875 -2.921875 
Q 57.421875 -6.25 50 -10.15625 
Q 48.046875 -6.640625 44.53125 -4.6875 
Q 50.390625 -2.34375 57.03125 1.953125 
Q 63.671875 6.25 67.1875 10.546875 
Q 64.453125 16.015625 61.90625 22.265625 
Q 59.375 28.515625 57.421875 38.671875 
Q 56.25 35.546875 53.515625 30.46875 
Q 50.78125 32.03125 46.875 33.59375 
Q 53.125 44.53125 57.03125 57.421875 
Q 60.9375 70.3125 62.109375 79.6875 
Q 66.796875 77.734375 70.703125 76.953125 
z
M 32.8125 35.15625 
Q 31.25 33.59375 29.296875 30.078125 
L 50.78125 30.078125 
Q 48.4375 20.3125 42.578125 10.546875 
Q 48.828125 8.203125 52.34375 6.25 
Q 50.390625 3.515625 48.828125 0.390625 
Q 45.3125 2.734375 38.28125 5.078125 
Q 30.46875 -3.515625 11.328125 -10.15625 
Q 9.375 -5.859375 6.25 -4.296875 
Q 24.609375 0 31.25 7.421875 
Q 20.3125 10.15625 13.28125 12.109375 
Q 15.625 15.625 19.53125 23.828125 
Q 15.625 23.828125 6.640625 23.4375 
L 6.640625 30.46875 
Q 14.0625 30.078125 21.875 30.078125 
Q 23.4375 33.59375 24.21875 37.890625 
Q 28.515625 36.328125 32.8125 35.15625 
z
M 27.734375 61.71875 
Q 27.734375 71.09375 27.34375 79.6875 
L 35.15625 79.6875 
Q 34.765625 71.484375 34.765625 61.71875 
Q 48.046875 61.71875 53.515625 62.109375 
L 53.515625 55.078125 
Q 48.046875 55.46875 34.765625 55.46875 
Q 34.765625 44.140625 35.15625 37.890625 
L 27.34375 37.890625 
Q 27.734375 43.359375 27.734375 51.5625 
Q 25.78125 48.4375 20.3125 43.546875 
Q 14.84375 38.671875 10.15625 35.9375 
Q 8.203125 39.453125 4.296875 41.015625 
Q 7.8125 42.1875 13.671875 46.484375 
Q 19.53125 50.78125 22.65625 55.46875 
Q 14.84375 55.46875 7.8125 55.078125 
L 7.8125 62.109375 
Q 14.453125 61.71875 27.734375 61.71875 
z
M 62.109375 49.609375 
Q 65.625 26.5625 71.875 17.578125 
Q 75.78125 26.5625 77.140625 35.734375 
Q 78.515625 44.921875 78.90625 53.515625 
L 63.671875 53.515625 
L 62.109375 49.609375 
z
M 22.65625 15.625 
Q 27.34375 14.453125 35.546875 12.5 
Q 38.671875 16.40625 41.40625 23.828125 
L 26.953125 23.828125 
Q 25 19.921875 22.65625 15.625 
z
M 51.953125 75.390625 
Q 50 72.265625 48.828125 69.53125 
Q 47.65625 66.796875 45.703125 62.890625 
Q 42.578125 64.453125 39.453125 65.234375 
Q 42.578125 70.3125 45.3125 78.125 
Q 49.21875 76.171875 51.953125 75.390625 
z
M 40.234375 52.734375 
Q 45.3125 47.65625 50 42.578125 
Q 47.65625 40.625 44.921875 37.890625 
Q 39.453125 44.53125 35.9375 48.4375 
Q 38.28125 50.390625 40.234375 52.734375 
z
M 14.453125 78.125 
Q 19.921875 72.65625 23.4375 67.1875 
L 17.578125 63.671875 
Q 14.84375 69.140625 9.375 73.828125 
Q 12.890625 76.171875 14.453125 78.125 
z
" id="SimHei-25968"/>
       <path d="M 82.03125 39.0625 
Q 81.640625 34.375 81.640625 26.5625 
Q 81.640625 19.140625 82.03125 14.84375 
L 53.515625 14.84375 
L 53.515625 9.765625 
L 71.484375 9.765625 
Q 78.125 9.765625 83.984375 10.15625 
L 83.984375 4.296875 
Q 78.515625 4.6875 71.484375 4.6875 
L 53.515625 4.6875 
L 53.515625 -1.171875 
L 80.078125 -1.171875 
Q 86.328125 -1.171875 92.578125 -0.78125 
L 92.578125 -6.640625 
Q 86.328125 -6.25 80.078125 -6.25 
L 19.921875 -6.25 
Q 14.0625 -6.25 7.421875 -6.640625 
L 7.421875 -0.78125 
Q 14.453125 -0.78125 19.921875 -1.171875 
L 46.484375 -1.171875 
L 46.484375 4.6875 
L 26.953125 4.6875 
Q 21.09375 4.6875 15.234375 3.90625 
L 15.234375 10.15625 
Q 21.484375 9.765625 26.953125 9.765625 
L 46.484375 9.765625 
L 46.484375 14.84375 
L 17.96875 14.84375 
Q 18.359375 21.484375 18.359375 27.734375 
Q 18.359375 33.984375 17.96875 39.0625 
L 82.03125 39.0625 
z
M 81.25 77.34375 
Q 80.859375 71.484375 80.859375 66.40625 
Q 80.859375 61.328125 81.25 53.125 
L 18.75 53.125 
Q 19.140625 61.328125 19.140625 66.40625 
Q 19.140625 71.484375 18.75 77.34375 
L 81.25 77.34375 
z
M 76.5625 48.4375 
Q 85.9375 48.828125 93.75 49.21875 
L 93.75 42.96875 
Q 85.9375 43.359375 76.953125 43.359375 
L 25.78125 43.359375 
Q 15.234375 43.359375 5.078125 42.96875 
L 5.078125 49.21875 
Q 15.234375 48.828125 25.78125 48.4375 
z
M 73.828125 57.8125 
L 73.828125 62.890625 
L 26.171875 62.890625 
L 26.171875 57.8125 
z
M 73.828125 67.96875 
L 73.828125 72.65625 
L 26.171875 72.65625 
L 26.171875 67.96875 
z
M 74.21875 29.296875 
L 74.21875 33.984375 
L 53.515625 33.984375 
L 53.515625 29.296875 
z
M 46.484375 29.296875 
L 46.484375 33.984375 
L 25.78125 33.984375 
L 25.78125 29.296875 
z
M 46.484375 19.921875 
L 46.484375 24.21875 
L 25.78125 24.21875 
L 25.78125 19.921875 
z
M 74.21875 19.921875 
L 74.21875 24.21875 
L 53.515625 24.21875 
L 53.515625 19.921875 
z
" id="SimHei-37327"/>
       <path d="M 46.875 71.09375 
L 5.46875 -2.734375 
L 1.5625 -0.390625 
L 42.96875 73.4375 
z
" id="SimHei-47"/>
       <path d="M 3.515625 -3.125 
Q 6.640625 1.171875 8.390625 5.65625 
Q 10.15625 10.15625 11.328125 16.015625 
Q 12.5 21.875 13.671875 30.46875 
Q 17.1875 29.296875 22.65625 28.90625 
Q 17.96875 21.09375 21.484375 15.8125 
Q 25 10.546875 27.734375 8.203125 
L 27.734375 39.84375 
Q 12.5 39.84375 7.421875 39.453125 
L 7.421875 46.484375 
Q 12.5 46.09375 26.171875 46.09375 
L 26.171875 61.328125 
Q 17.578125 61.328125 10.546875 60.9375 
L 10.546875 67.96875 
Q 15.625 67.578125 26.171875 67.578125 
Q 26.171875 75 25.78125 81.640625 
L 33.59375 81.640625 
Q 33.203125 74.609375 33.203125 67.578125 
Q 42.1875 67.578125 46.484375 67.96875 
L 46.484375 60.9375 
Q 42.1875 61.328125 33.203125 61.328125 
L 33.203125 46.09375 
Q 44.140625 46.09375 50.390625 46.484375 
L 50.390625 39.453125 
Q 44.140625 39.84375 34.765625 39.84375 
L 34.765625 27.34375 
Q 41.796875 27.34375 49.21875 27.734375 
L 49.21875 20.703125 
Q 42.1875 21.09375 34.765625 21.09375 
L 34.765625 4.296875 
Q 39.84375 0 60.734375 -0.78125 
Q 81.640625 -1.5625 96.875 0.78125 
Q 94.53125 -3.125 93.359375 -8.59375 
Q 75 -8.59375 62.890625 -8.390625 
Q 50.78125 -8.203125 41.984375 -6.25 
Q 33.203125 -4.296875 27.734375 -0.1875 
Q 22.265625 3.90625 17.578125 10.546875 
Q 13.671875 0 9.765625 -8.984375 
Q 6.640625 -4.296875 3.515625 -3.125 
z
M 93.75 23.046875 
Q 91.40625 13.28125 89.453125 10.15625 
Q 87.5 7.03125 81.640625 7.03125 
L 62.890625 7.03125 
Q 54.6875 7.03125 54.6875 16.015625 
L 54.6875 34.765625 
Q 54.6875 40.234375 54.296875 46.875 
L 80.46875 46.875 
L 80.46875 66.796875 
Q 57.8125 66.796875 51.953125 66.40625 
L 51.953125 73.046875 
Q 57.8125 72.65625 64.453125 72.65625 
L 88.28125 72.65625 
Q 87.890625 66.796875 87.890625 56.25 
Q 87.890625 46.09375 88.28125 40.234375 
L 62.109375 40.234375 
L 62.109375 19.53125 
Q 61.71875 13.671875 67.96875 13.671875 
L 78.90625 13.671875 
Q 82.03125 13.671875 83 16.40625 
Q 83.984375 19.140625 84.765625 26.5625 
Q 88.28125 24.21875 93.75 23.046875 
z
" id="SimHei-36215"/>
      </defs>
      <use xlink:href="#SimHei-25237"/>
      <use x="100" xlink:href="#SimHei-36164"/>
      <use x="200" xlink:href="#SimHei-25968"/>
      <use x="300" xlink:href="#SimHei-37327"/>
      <use x="400" xlink:href="#SimHei-47"/>
      <use x="450" xlink:href="#SimHei-36215"/>
     </g>
    </g>
   </g>
   <g id="patch_9">
    <path d="M 57.6 307.584 
L 57.6 41.472 
" style="fill:none;stroke:#000000;stroke-linecap:square;stroke-linejoin:miter;stroke-width:0.8;"/>
   </g>
   <g id="patch_10">
    <path d="M 414.72 307.584 
L 414.72 41.472 
" style="fill:none;stroke:#000000;stroke-linecap:square;stroke-linejoin:miter;stroke-width:0.8;"/>
   </g>
   <g id="patch_11">
    <path d="M 57.6 307.584 
L 414.72 307.584 
" style="fill:none;stroke:#000000;stroke-linecap:square;stroke-linejoin:miter;stroke-width:0.8;"/>
   </g>
   <g id="legend_1">
    <g id="patch_12">
     <path d="M 64.6 63.651688 
L 136.6 63.651688 
Q 138.6 63.651688 138.6 61.651688 
L 138.6 48.472 
Q 138.6 46.472 136.6 46.472 
L 64.6 46.472 
Q 62.6 46.472 62.6 48.472 
L 62.6 61.651688 
Q 62.6 63.651688 64.6 63.651688 
z
" style="fill:#ffffff;opacity:0.8;stroke:#cccccc;stroke-linejoin:miter;"/>
    </g>
    <g id="patch_13">
     <path d="M 66.6 58.401688 
L 86.6 58.401688 
L 86.6 51.401688 
L 66.6 51.401688 
z
" style="fill:#ff6347;"/>
    </g>
    <g id="text_18">
     <!-- 投资数量 -->
     <g transform="translate(94.6 58.401688)scale(0.1 -0.1)">
      <use xlink:href="#SimHei-25237"/>
      <use x="100" xlink:href="#SimHei-36164"/>
      <use x="200" xlink:href="#SimHei-25968"/>
      <use x="300" xlink:href="#SimHei-37327"/>
     </g>
    </g>
   </g>
  </g>
  <g id="axes_2">
   <g id="patch_14">
    <path clip-path="url(#pac2c85704a)" d="M 96.222696 307.584 
L 118.612665 307.584 
L 118.612665 233.672308 
L 96.222696 233.672308 
z
" style="fill:#4682b4;"/>
   </g>
   <g id="patch_15">
    <path clip-path="url(#pac2c85704a)" d="M 152.197618 307.584 
L 174.587586 307.584 
L 174.587586 222.332979 
L 152.197618 222.332979 
z
" style="fill:#4682b4;"/>
   </g>
   <g id="patch_16">
    <path clip-path="url(#pac2c85704a)" d="M 208.172539 307.584 
L 230.562508 307.584 
L 230.562508 242.406118 
L 208.172539 242.406118 
z
" style="fill:#4682b4;"/>
   </g>
   <g id="patch_17">
    <path clip-path="url(#pac2c85704a)" d="M 264.147461 307.584 
L 286.537429 307.584 
L 286.537429 54.144 
L 264.147461 54.144 
z
" style="fill:#4682b4;"/>
   </g>
   <g id="patch_18">
    <path clip-path="url(#pac2c85704a)" d="M 320.122382 307.584 
L 342.512351 307.584 
L 342.512351 162.206615 
L 320.122382 162.206615 
z
" style="fill:#4682b4;"/>
   </g>
   <g id="patch_19">
    <path clip-path="url(#pac2c85704a)" d="M 376.097304 307.584 
L 398.487273 307.584 
L 398.487273 160.544932 
L 376.097304 160.544932 
z
" style="fill:#4682b4;"/>
   </g>
   <g id="matplotlib.axis_3">
    <g id="ytick_10">
     <g id="line2d_16">
      <defs>
       <path d="M 0 0 
L 3.5 0 
" id="m34e2530900" style="stroke:#000000;stroke-width:0.8;"/>
      </defs>
      <g>
       <use style="stroke:#000000;stroke-width:0.8;" x="414.72" xlink:href="#m34e2530900" y="307.584"/>
      </g>
     </g>
     <g id="text_19">
      <!-- 0 -->
      <g transform="translate(421.72 311.0215)scale(0.1 -0.1)">
       <use xlink:href="#SimHei-48"/>
      </g>
     </g>
    </g>
    <g id="ytick_11">
     <g id="line2d_17">
      <g>
       <use style="stroke:#000000;stroke-width:0.8;" x="414.72" xlink:href="#m34e2530900" y="274.350326"/>
      </g>
     </g>
     <g id="text_20">
      <!-- 25 -->
      <g transform="translate(421.72 277.787826)scale(0.1 -0.1)">
       <use xlink:href="#SimHei-50"/>
       <use x="50" xlink:href="#SimHei-53"/>
      </g>
     </g>
    </g>
    <g id="ytick_12">
     <g id="line2d_18">
      <g>
       <use style="stroke:#000000;stroke-width:0.8;" x="414.72" xlink:href="#m34e2530900" y="241.116651"/>
      </g>
     </g>
     <g id="text_21">
      <!-- 50 -->
      <g transform="translate(421.72 244.554151)scale(0.1 -0.1)">
       <use xlink:href="#SimHei-53"/>
       <use x="50" xlink:href="#SimHei-48"/>
      </g>
     </g>
    </g>
    <g id="ytick_13">
     <g id="line2d_19">
      <g>
       <use style="stroke:#000000;stroke-width:0.8;" x="414.72" xlink:href="#m34e2530900" y="207.882977"/>
      </g>
     </g>
     <g id="text_22">
      <!-- 75 -->
      <g transform="translate(421.72 211.320477)scale(0.1 -0.1)">
       <use xlink:href="#SimHei-55"/>
       <use x="50" xlink:href="#SimHei-53"/>
      </g>
     </g>
    </g>
    <g id="ytick_14">
     <g id="line2d_20">
      <g>
       <use style="stroke:#000000;stroke-width:0.8;" x="414.72" xlink:href="#m34e2530900" y="174.649303"/>
      </g>
     </g>
     <g id="text_23">
      <!-- 100 -->
      <g transform="translate(421.72 178.086803)scale(0.1 -0.1)">
       <use xlink:href="#SimHei-49"/>
       <use x="50" xlink:href="#SimHei-48"/>
       <use x="100" xlink:href="#SimHei-48"/>
      </g>
     </g>
    </g>
    <g id="ytick_15">
     <g id="line2d_21">
      <g>
       <use style="stroke:#000000;stroke-width:0.8;" x="414.72" xlink:href="#m34e2530900" y="141.415629"/>
      </g>
     </g>
     <g id="text_24">
      <!-- 125 -->
      <g transform="translate(421.72 144.853129)scale(0.1 -0.1)">
       <use xlink:href="#SimHei-49"/>
       <use x="50" xlink:href="#SimHei-50"/>
       <use x="100" xlink:href="#SimHei-53"/>
      </g>
     </g>
    </g>
    <g id="ytick_16">
     <g id="line2d_22">
      <g>
       <use style="stroke:#000000;stroke-width:0.8;" x="414.72" xlink:href="#m34e2530900" y="108.181954"/>
      </g>
     </g>
     <g id="text_25">
      <!-- 150 -->
      <g transform="translate(421.72 111.619454)scale(0.1 -0.1)">
       <use xlink:href="#SimHei-49"/>
       <use x="50" xlink:href="#SimHei-53"/>
       <use x="100" xlink:href="#SimHei-48"/>
      </g>
     </g>
    </g>
    <g id="ytick_17">
     <g id="line2d_23">
      <g>
       <use style="stroke:#000000;stroke-width:0.8;" x="414.72" xlink:href="#m34e2530900" y="74.94828"/>
      </g>
     </g>
     <g id="text_26">
      <!-- 175 -->
      <g transform="translate(421.72 78.38578)scale(0.1 -0.1)">
       <use xlink:href="#SimHei-49"/>
       <use x="50" xlink:href="#SimHei-55"/>
       <use x="100" xlink:href="#SimHei-53"/>
      </g>
     </g>
    </g>
    <g id="ytick_18">
     <g id="line2d_24">
      <g>
       <use style="stroke:#000000;stroke-width:0.8;" x="414.72" xlink:href="#m34e2530900" y="41.714606"/>
      </g>
     </g>
     <g id="text_27">
      <!-- 200 -->
      <g transform="translate(421.72 45.152106)scale(0.1 -0.1)">
       <use xlink:href="#SimHei-50"/>
       <use x="50" xlink:href="#SimHei-48"/>
       <use x="100" xlink:href="#SimHei-48"/>
      </g>
     </g>
    </g>
    <g id="text_28">
     <!-- 投资金额/亿元 -->
     <g transform="translate(448.727813 207.028)rotate(-90)scale(0.1 -0.1)">
      <defs>
       <path d="M 28.125 19.53125 
Q 34.375 10.9375 39.0625 3.515625 
Q 36.328125 1.953125 33.59375 -0.78125 
L 45.703125 -0.78125 
L 45.703125 21.875 
L 32.421875 21.875 
Q 26.953125 21.875 17.1875 21.484375 
L 17.1875 28.90625 
Q 26.953125 28.515625 32.03125 28.515625 
L 45.703125 28.515625 
L 45.703125 40.625 
Q 32.8125 40.625 25.390625 40.234375 
L 25.390625 46.484375 
Q 19.140625 41.796875 10.15625 36.71875 
Q 7.8125 40.234375 4.296875 43.359375 
Q 11.71875 46.09375 19.53125 51.5625 
Q 27.34375 57.03125 34.765625 65.03125 
Q 42.1875 73.046875 46.875 82.03125 
Q 47.65625 81.25 55.078125 77.734375 
L 52.734375 75.390625 
Q 57.03125 70.703125 63.28125 64.84375 
Q 69.53125 58.984375 78.125 54.484375 
Q 86.71875 50 96.09375 47.265625 
Q 92.96875 44.140625 91.015625 39.84375 
Q 83.203125 42.578125 75 46.875 
L 75 40.234375 
Q 67.1875 40.625 62.5 40.625 
L 53.125 40.625 
L 53.125 28.515625 
L 66.796875 28.515625 
Q 73.4375 28.515625 83.203125 28.90625 
L 83.203125 21.484375 
Q 73.828125 21.875 66.796875 21.875 
L 53.125 21.875 
L 53.125 -0.78125 
L 60.546875 -0.78125 
Q 69.53125 14.84375 70.3125 20.3125 
Q 73.828125 17.96875 78.90625 15.625 
Q 76.171875 12.109375 68.359375 -0.78125 
Q 80.46875 -0.78125 91.796875 -0.390625 
L 91.796875 -7.8125 
Q 80.46875 -7.421875 73.4375 -7.421875 
L 26.953125 -7.421875 
Q 18.75 -7.421875 10.9375 -7.8125 
L 10.9375 -0.390625 
Q 19.140625 -0.78125 26.953125 -0.78125 
L 31.640625 -0.78125 
Q 28.90625 5.46875 21.875 14.84375 
Q 25.390625 17.1875 28.125 19.53125 
z
M 26.5625 47.65625 
Q 32.421875 47.265625 37.5 47.265625 
L 60.9375 47.265625 
Q 66.796875 47.65625 73.4375 47.65625 
Q 66.796875 52.34375 59.953125 58.78125 
Q 53.125 65.234375 48.828125 70.703125 
Q 44.53125 64.84375 38.46875 58.78125 
Q 32.421875 52.734375 26.5625 47.65625 
z
" id="SimHei-37329"/>
       <path d="M 30.078125 57.8125 
Q 26.953125 55.46875 24.21875 52.34375 
L 46.09375 52.34375 
Q 44.921875 49.21875 42.1875 44.921875 
Q 39.453125 40.625 35.9375 35.9375 
Q 39.0625 34.375 42.375 32.421875 
Q 45.703125 30.46875 51.171875 26.953125 
Q 48.828125 24.609375 46.09375 20.703125 
Q 42.1875 23.828125 38.671875 25.96875 
Q 35.15625 28.125 30.46875 30.46875 
Q 24.609375 25.78125 17.96875 21.484375 
L 43.75 21.484375 
Q 43.359375 14.84375 43.359375 7.8125 
Q 43.359375 0.78125 43.75 -7.03125 
L 36.328125 -7.03125 
L 36.328125 -0.78125 
L 20.703125 -0.78125 
L 20.703125 -8.984375 
L 13.671875 -8.984375 
Q 14.0625 -1.171875 14.0625 4.296875 
L 14.0625 18.359375 
Q 10.546875 16.796875 8.59375 15.625 
Q 6.25 19.140625 3.515625 21.875 
Q 9.765625 24.21875 15.234375 27.53125 
Q 20.703125 30.859375 24.21875 34.375 
Q 20.3125 36.71875 16.796875 38.671875 
Q 18.359375 41.015625 21.09375 43.75 
Q 25.390625 41.40625 30.078125 39.0625 
Q 33.59375 42.96875 35.9375 46.875 
L 20.3125 46.875 
Q 18.75 44.921875 16.015625 41.984375 
Q 13.28125 39.0625 10.15625 35.546875 
Q 7.421875 37.890625 3.90625 40.234375 
Q 10.15625 44.921875 14.640625 50.578125 
Q 19.140625 56.25 21.484375 61.328125 
Q 25.78125 59.375 30.078125 57.8125 
z
M 64.84375 68.75 
Q 58.984375 68.75 52.734375 68.359375 
L 52.734375 75.390625 
Q 58.59375 75 65.625 75 
L 82.8125 75 
Q 87.5 75 93.75 75.390625 
L 93.75 68.359375 
Q 87.890625 68.75 82.8125 68.75 
L 77.34375 68.75 
Q 75.78125 62.109375 73.828125 55.078125 
L 89.84375 55.078125 
Q 89.453125 48.828125 89.453125 43.359375 
L 89.453125 25.390625 
Q 89.453125 20.3125 89.84375 12.890625 
L 82.8125 12.890625 
L 82.8125 49.609375 
L 61.328125 49.609375 
L 61.328125 12.5 
L 53.90625 12.5 
Q 54.296875 19.921875 54.296875 25.78125 
L 54.296875 43.75 
Q 54.296875 49.609375 53.90625 55.078125 
L 67.1875 55.078125 
Q 68.75 62.890625 69.53125 68.75 
z
M 32.03125 79.6875 
Q 32.8125 75.390625 34.375 69.921875 
L 50.390625 69.921875 
Q 50 66.796875 50 63.671875 
Q 50 60.546875 50.390625 57.421875 
L 43.359375 57.421875 
L 43.359375 64.0625 
L 13.671875 64.0625 
L 13.671875 54.6875 
L 6.25 54.6875 
Q 6.640625 58.984375 6.640625 62.5 
Q 6.640625 66.40625 6.25 69.921875 
L 25.78125 69.921875 
Q 24.21875 74.21875 23.046875 78.125 
Q 28.125 78.90625 32.03125 79.6875 
z
M 76.953125 42.578125 
Q 75.78125 37.890625 75.578125 31.640625 
Q 75.390625 25.390625 73.625 18.359375 
Q 71.875 11.328125 66.59375 3.90625 
Q 61.328125 -3.515625 50.78125 -10.546875 
Q 47.65625 -6.640625 44.53125 -3.90625 
Q 52.734375 -0.390625 57.609375 4.09375 
Q 62.5 8.59375 65.03125 14.640625 
Q 67.578125 20.703125 67.96875 27.34375 
Q 68.359375 33.984375 68.359375 43.359375 
Q 71.484375 42.96875 76.953125 42.578125 
z
M 36.328125 5.078125 
L 36.328125 16.015625 
L 20.703125 16.015625 
L 20.703125 5.078125 
z
M 79.296875 12.5 
Q 82.8125 8.984375 85.734375 6.25 
Q 88.671875 3.515625 94.140625 -1.5625 
Q 90.625 -4.296875 87.5 -7.8125 
Q 85.15625 -4.296875 82.421875 -1.359375 
Q 79.6875 1.5625 73.046875 6.25 
Q 76.171875 8.984375 79.296875 12.5 
z
" id="SimHei-39069"/>
       <path d="M 81.640625 70.3125 
L 81.640625 63.671875 
Q 76.171875 60.15625 64.640625 43.359375 
Q 53.125 26.5625 48.046875 14.453125 
Q 42.96875 2.34375 50.390625 1.171875 
Q 57.8125 0 69.140625 0.390625 
Q 80.46875 0.78125 82.03125 4.09375 
Q 83.59375 7.421875 84.375 16.40625 
Q 89.0625 13.28125 93.359375 12.5 
Q 91.40625 3.515625 90.234375 0.578125 
Q 89.0625 -2.34375 85.546875 -4.296875 
Q 82.03125 -6.25 62.890625 -6.4375 
Q 43.75 -6.640625 39.84375 -0.578125 
Q 35.9375 5.46875 40.234375 16.015625 
Q 44.53125 26.5625 53.515625 40.234375 
Q 62.5 53.90625 68.75 62.5 
L 51.953125 62.5 
Q 42.578125 62.5 37.109375 62.109375 
L 37.109375 70.703125 
Q 42.1875 70.3125 51.953125 70.3125 
z
M 36.328125 76.953125 
Q 35.15625 75.390625 32.8125 70.703125 
Q 30.46875 66.015625 28.125 59.765625 
L 28.125 9.375 
Q 28.125 -3.125 28.515625 -9.765625 
L 19.921875 -9.765625 
Q 20.3125 -3.515625 20.3125 8.984375 
L 20.3125 46.09375 
Q 15.234375 37.5 9.765625 29.6875 
Q 7.03125 33.984375 4.296875 36.328125 
Q 12.890625 46.484375 18.9375 59.171875 
Q 25 71.875 27.734375 81.25 
Q 31.640625 78.90625 36.328125 76.953125 
z
" id="SimHei-20159"/>
       <path d="M 76.5625 49.609375 
Q 81.25 49.609375 88.28125 50 
L 88.28125 41.796875 
Q 81.25 42.1875 76.5625 42.1875 
L 63.671875 42.1875 
L 63.671875 6.640625 
Q 63.671875 1.171875 69.53125 1.171875 
L 80.859375 1.171875 
Q 84.765625 1.171875 86.328125 12.109375 
Q 90.625 9.375 94.921875 8.59375 
Q 92.96875 -5.078125 82.8125 -5.859375 
L 64.84375 -5.859375 
Q 55.859375 -5.859375 55.859375 3.515625 
L 55.859375 42.1875 
L 41.796875 42.1875 
Q 43.359375 6.25 14.0625 -9.375 
Q 11.328125 -5.859375 6.25 -2.734375 
Q 35.15625 7.8125 33.59375 42.1875 
L 23.4375 42.1875 
Q 17.578125 42.1875 10.15625 41.796875 
L 10.15625 50 
Q 17.578125 49.609375 23.4375 49.609375 
z
M 69.53125 74.609375 
Q 73.046875 74.609375 80.46875 75 
L 80.46875 67.578125 
Q 73.4375 67.96875 69.53125 67.96875 
L 29.296875 67.96875 
Q 24.609375 67.96875 18.75 67.578125 
L 18.75 75 
Q 24.609375 74.609375 28.90625 74.609375 
z
" id="SimHei-20803"/>
      </defs>
      <use xlink:href="#SimHei-25237"/>
      <use x="100" xlink:href="#SimHei-36164"/>
      <use x="200" xlink:href="#SimHei-37329"/>
      <use x="300" xlink:href="#SimHei-39069"/>
      <use x="400" xlink:href="#SimHei-47"/>
      <use x="450" xlink:href="#SimHei-20159"/>
      <use x="550" xlink:href="#SimHei-20803"/>
     </g>
    </g>
   </g>
   <g id="patch_20">
    <path d="M 57.6 307.584 
L 57.6 41.472 
" style="fill:none;stroke:#000000;stroke-linecap:square;stroke-linejoin:miter;stroke-width:0.8;"/>
   </g>
   <g id="patch_21">
    <path d="M 414.72 307.584 
L 414.72 41.472 
" style="fill:none;stroke:#000000;stroke-linecap:square;stroke-linejoin:miter;stroke-width:0.8;"/>
   </g>
   <g id="patch_22">
    <path d="M 57.6 307.584 
L 414.72 307.584 
" style="fill:none;stroke:#000000;stroke-linecap:square;stroke-linejoin:miter;stroke-width:0.8;"/>
   </g>
   <g id="text_29">
    <!-- 2017-2022年上半年我国VR/AR行业投资情况统计 -->
    <g transform="translate(110.16 35.472)scale(0.12 -0.12)">
     <defs>
      <path d="M 46.484375 33.203125 
L 1.953125 33.203125 
L 1.953125 39.453125 
L 46.484375 39.453125 
z
" id="SimHei-45"/>
      <path d="M 50.78125 79.296875 
Q 50.390625 72.65625 50.390625 66.796875 
L 50.390625 50.390625 
L 72.65625 50.390625 
Q 80.46875 50.390625 87.5 50.78125 
L 87.5 42.1875 
Q 79.6875 42.578125 71.875 42.578125 
L 50.390625 42.578125 
L 50.390625 3.125 
L 81.25 3.125 
Q 87.109375 3.125 94.921875 3.515625 
L 94.921875 -4.6875 
Q 87.5 -4.296875 81.25 -4.296875 
L 19.53125 -4.296875 
Q 13.28125 -4.296875 5.46875 -4.6875 
L 5.46875 3.515625 
Q 12.890625 3.125 19.53125 3.125 
L 42.1875 3.125 
L 42.1875 66.40625 
Q 42.1875 72.265625 41.796875 79.296875 
L 50.78125 79.296875 
z
" id="SimHei-19978"/>
      <path d="M 45.3125 45.703125 
L 45.3125 70.3125 
Q 45.3125 75 44.921875 79.6875 
L 53.90625 79.6875 
Q 53.515625 75.78125 53.515625 68.75 
L 53.515625 45.703125 
L 72.265625 45.703125 
Q 80.078125 45.703125 87.890625 46.09375 
L 87.890625 38.671875 
Q 80.078125 39.0625 70.703125 39.0625 
L 53.515625 39.0625 
L 53.515625 24.609375 
L 78.515625 24.609375 
Q 87.109375 24.609375 94.53125 25 
L 94.53125 17.578125 
Q 87.109375 17.96875 78.90625 17.96875 
L 53.515625 17.96875 
L 53.515625 3.125 
Q 53.515625 -1.953125 53.90625 -8.984375 
L 44.53125 -8.984375 
Q 45.3125 -1.5625 45.3125 3.125 
L 45.3125 17.96875 
L 20.3125 17.96875 
Q 12.109375 17.96875 3.90625 17.578125 
L 3.90625 25 
Q 12.109375 24.609375 24.609375 24.609375 
L 45.3125 24.609375 
L 45.3125 39.0625 
L 27.734375 39.0625 
Q 19.53125 39.0625 10.546875 38.671875 
L 10.546875 46.09375 
Q 19.140625 45.703125 25.78125 45.703125 
z
M 20.3125 75.390625 
Q 28.515625 65.625 34.765625 57.421875 
Q 31.640625 55.46875 26.953125 51.953125 
Q 21.09375 61.328125 12.890625 69.921875 
Q 16.796875 71.875 20.3125 75.390625 
z
M 64.453125 55.859375 
Q 71.484375 64.0625 76.953125 75 
Q 80.859375 71.875 85.546875 69.921875 
Q 84.375 68.75 79.6875 62.109375 
Q 75 55.46875 71.875 51.171875 
Q 68.75 53.90625 64.453125 55.859375 
z
" id="SimHei-21322"/>
      <path d="M 44.53125 76.953125 
Q 48.4375 71.484375 49.609375 69.53125 
Q 46.09375 68.359375 34.765625 66.015625 
L 34.765625 51.171875 
L 55.078125 51.171875 
Q 55.078125 61.71875 54.6875 80.46875 
Q 58.984375 79.6875 63.28125 79.6875 
Q 62.5 73.828125 62.5 66.40625 
L 62.5 51.171875 
L 80.078125 51.171875 
Q 85.9375 51.171875 93.75 51.5625 
L 93.75 44.53125 
Q 85.9375 44.921875 80.46875 44.921875 
L 62.890625 44.921875 
Q 64.0625 26.171875 67.96875 17.96875 
Q 76.171875 25.78125 82.03125 41.015625 
Q 85.15625 38.28125 90.234375 35.9375 
Q 87.109375 32.421875 82.03125 24.40625 
Q 76.953125 16.40625 71.484375 10.9375 
Q 74.609375 6.25 78.125 3.125 
Q 81.640625 0 83.78125 -0.578125 
Q 85.9375 -1.171875 86.90625 1.75 
Q 87.890625 4.6875 88.28125 10.15625 
Q 92.1875 7.421875 96.484375 5.46875 
Q 93.359375 -5.46875 89.84375 -8.203125 
Q 86.328125 -10.9375 79.6875 -7.421875 
Q 73.046875 -3.90625 66.015625 5.859375 
Q 52.734375 -3.515625 44.921875 -7.421875 
Q 42.578125 -3.125 39.0625 -0.390625 
Q 50.78125 3.515625 62.109375 12.5 
Q 56.640625 23.4375 55.46875 44.921875 
L 34.765625 44.921875 
L 34.765625 29.6875 
Q 43.75 31.640625 48.4375 33.59375 
Q 48.828125 29.6875 49.21875 26.171875 
Q 44.140625 25 34.765625 22.65625 
L 34.765625 2.734375 
Q 35.15625 -4.6875 30.078125 -6.828125 
Q 25 -8.984375 18.359375 -10.15625 
Q 17.96875 -5.859375 14.453125 -1.171875 
Q 22.265625 -1.171875 24.796875 -0.1875 
Q 27.34375 0.78125 27.34375 4.296875 
L 27.34375 20.703125 
Q 12.5 16.796875 7.8125 15.234375 
Q 7.421875 20.703125 5.46875 24.21875 
Q 12.5 25 27.34375 28.125 
L 27.34375 44.921875 
Q 12.109375 44.921875 6.25 44.53125 
L 6.25 51.5625 
Q 12.5 51.171875 27.34375 51.171875 
L 27.34375 64.0625 
L 10.9375 60.546875 
Q 9.765625 64.84375 7.8125 67.96875 
Q 13.671875 67.96875 25.96875 70.703125 
Q 38.28125 73.4375 44.53125 76.953125 
z
M 73.4375 75.78125 
Q 83.59375 66.40625 87.890625 61.71875 
Q 84.765625 59.375 81.640625 56.25 
Q 75.390625 64.84375 68.359375 70.3125 
Q 71.484375 73.046875 73.4375 75.78125 
z
" id="SimHei-25105"/>
      <path d="M 90.234375 77.734375 
Q 89.84375 67.96875 89.84375 55.859375 
L 89.84375 14.0625 
Q 89.84375 1.953125 90.234375 -9.765625 
L 82.421875 -9.765625 
L 82.421875 -4.296875 
L 17.578125 -4.296875 
L 17.578125 -10.15625 
L 9.765625 -10.15625 
Q 10.15625 1.953125 10.15625 14.84375 
L 10.15625 55.859375 
Q 10.15625 67.578125 9.765625 77.734375 
L 90.234375 77.734375 
z
M 82.421875 1.5625 
L 82.421875 71.875 
L 17.578125 71.875 
L 17.578125 1.5625 
z
M 62.109375 61.328125 
Q 67.96875 61.328125 74.609375 61.71875 
L 74.609375 54.6875 
Q 68.75 55.078125 62.109375 55.078125 
L 52.34375 55.078125 
L 52.34375 42.1875 
L 59.375 42.1875 
Q 66.40625 42.1875 72.65625 42.578125 
L 72.65625 35.546875 
Q 66.40625 35.9375 59.375 35.9375 
L 52.34375 35.9375 
L 52.34375 18.359375 
L 63.28125 18.359375 
Q 70.3125 18.359375 76.5625 18.75 
L 76.5625 11.71875 
Q 70.703125 12.109375 63.28125 12.109375 
L 36.71875 12.109375 
Q 30.078125 12.109375 23.4375 11.71875 
L 23.4375 18.75 
Q 30.078125 18.359375 36.71875 18.359375 
L 45.3125 18.359375 
L 45.3125 35.9375 
L 39.84375 35.9375 
Q 33.203125 35.9375 27.34375 35.546875 
L 27.34375 42.578125 
Q 33.203125 42.1875 39.84375 42.1875 
L 45.3125 42.1875 
L 45.3125 55.078125 
L 39.453125 55.078125 
Q 32.421875 55.078125 25.78125 54.6875 
L 25.78125 61.71875 
Q 32.421875 61.328125 39.453125 61.328125 
z
M 63.28125 33.203125 
Q 65.234375 31.25 71.09375 25 
Q 67.1875 22.65625 64.453125 20.703125 
Q 63.28125 22.265625 57.8125 28.90625 
Q 60.9375 31.25 63.28125 33.203125 
z
" id="SimHei-22269"/>
      <path d="M 47.65625 68.75 
L 28.125 1.171875 
L 20.3125 1.171875 
L 0.78125 68.75 
L 10.15625 68.75 
L 23.828125 17.578125 
L 24.609375 17.578125 
L 38.28125 68.75 
z
" id="SimHei-86"/>
      <path d="M 46.875 1.953125 
L 37.5 1.953125 
L 23.4375 30.859375 
L 13.28125 30.859375 
L 13.28125 1.953125 
L 4.296875 1.953125 
L 4.296875 68.75 
L 23.828125 68.75 
Q 33.203125 68.75 39.0625 64.25 
Q 44.921875 59.765625 44.921875 49.609375 
Q 44.921875 41.796875 41.015625 37.5 
Q 37.109375 33.203125 32.03125 32.03125 
z
M 35.9375 49.609375 
Q 35.9375 55.078125 32.609375 58.203125 
Q 29.296875 61.328125 21.875 61.328125 
L 13.28125 61.328125 
L 13.28125 38.28125 
L 24.21875 38.28125 
Q 28.90625 38.28125 32.421875 40.8125 
Q 35.9375 43.359375 35.9375 49.609375 
z
" id="SimHei-82"/>
      <path d="M 48.046875 1.953125 
L 38.671875 1.953125 
L 33.203125 22.65625 
L 16.015625 22.65625 
L 10.546875 1.953125 
L 1.171875 1.953125 
L 20.703125 69.53125 
L 28.515625 69.53125 
z
M 31.25 30.078125 
L 25 53.90625 
L 24.21875 53.90625 
L 17.96875 30.078125 
z
" id="SimHei-65"/>
      <path d="M 82.8125 48.4375 
Q 90.234375 48.4375 96.484375 48.828125 
L 96.484375 41.015625 
Q 90.234375 41.40625 83.203125 41.40625 
L 77.734375 41.40625 
L 77.734375 -1.171875 
Q 78.125 -5.859375 74.796875 -7.609375 
Q 71.484375 -9.375 61.71875 -10.546875 
Q 60.9375 -5.859375 57.421875 -1.171875 
Q 64.0625 -1.953125 66.796875 -1.75 
Q 69.53125 -1.5625 69.921875 2.34375 
L 69.921875 41.40625 
L 54.296875 41.40625 
Q 46.875 41.40625 40.234375 41.015625 
L 40.234375 48.828125 
Q 47.265625 48.4375 54.296875 48.4375 
z
M 35.9375 53.125 
Q 32.421875 51.171875 30.65625 48.046875 
Q 28.90625 44.921875 25.78125 40.234375 
L 25.78125 5.078125 
Q 25.78125 0 26.171875 -10.546875 
L 17.96875 -10.546875 
Q 18.359375 1.171875 18.359375 7.03125 
L 18.359375 32.03125 
Q 14.84375 26.171875 8.984375 20.3125 
Q 6.25 24.21875 3.90625 26.953125 
Q 12.890625 35.546875 17.96875 43.359375 
Q 23.046875 51.171875 26.953125 58.203125 
Q 30.859375 55.859375 35.9375 53.125 
z
M 76.171875 75 
Q 82.8125 75 89.84375 75.390625 
L 89.84375 67.96875 
Q 82.8125 68.359375 75.390625 68.359375 
L 60.9375 68.359375 
Q 52.34375 68.359375 46.09375 67.96875 
L 46.09375 75.390625 
Q 52.34375 75 60.9375 75 
z
M 32.421875 76.953125 
Q 29.296875 76.5625 24.21875 68.546875 
Q 19.140625 60.546875 10.15625 50.78125 
Q 7.8125 53.90625 5.078125 56.640625 
Q 11.328125 62.890625 16.40625 70.109375 
Q 21.484375 77.34375 23.828125 82.8125 
Q 27.734375 80.46875 32.421875 76.953125 
z
" id="SimHei-34892"/>
      <path d="M 44.140625 78.515625 
Q 43.359375 67.578125 43.359375 59.765625 
L 43.359375 2.34375 
L 56.25 2.34375 
L 56.25 64.453125 
Q 56.25 70.703125 55.46875 78.515625 
L 65.234375 78.515625 
Q 64.453125 72.265625 64.453125 65.234375 
L 64.453125 2.34375 
L 79.6875 2.34375 
Q 85.9375 2.34375 94.921875 3.125 
L 94.921875 -5.46875 
Q 85.9375 -4.6875 80.078125 -4.6875 
L 20.703125 -4.6875 
Q 15.234375 -4.6875 5.078125 -5.46875 
L 5.078125 3.125 
Q 15.234375 2.34375 20.3125 2.34375 
L 34.765625 2.34375 
L 34.765625 60.15625 
Q 34.765625 68.359375 33.59375 78.515625 
z
M 16.015625 58.984375 
Q 20.703125 46.875 28.90625 23.4375 
Q 24.609375 22.65625 19.921875 20.3125 
Q 12.890625 42.96875 7.421875 55.46875 
Q 11.328125 57.03125 16.015625 58.984375 
z
M 91.40625 56.640625 
Q 86.328125 43.359375 77.34375 19.53125 
Q 73.4375 21.875 69.140625 23.046875 
Q 77.34375 38.28125 81.640625 59.765625 
Q 85.9375 58.203125 91.40625 56.640625 
z
" id="SimHei-19994"/>
      <path d="M 43.359375 23.046875 
Q 43.359375 32.03125 42.96875 39.453125 
L 87.5 39.453125 
Q 87.109375 32.8125 87.109375 26.953125 
L 87.109375 -2.34375 
Q 87.109375 -6.640625 83.984375 -7.8125 
Q 80.859375 -8.984375 76.171875 -9.765625 
Q 75.78125 -6.25 73.4375 -2.34375 
Q 78.90625 -2.34375 79.6875 -1.171875 
Q 80.46875 0 80.46875 7.421875 
L 50.390625 7.421875 
L 50.390625 -9.765625 
L 42.96875 -9.765625 
Q 43.359375 -0.78125 43.359375 5.859375 
z
M 37.109375 50.78125 
Q 46.484375 50.390625 54.296875 50.390625 
L 62.109375 50.390625 
L 62.109375 56.640625 
L 54.6875 56.640625 
Q 48.046875 56.640625 41.015625 56.25 
L 41.015625 62.890625 
Q 48.046875 62.5 54.6875 62.5 
L 62.109375 62.5 
L 62.109375 67.96875 
L 53.90625 67.96875 
Q 47.65625 67.96875 38.671875 67.578125 
L 38.671875 74.21875 
Q 48.046875 73.828125 53.90625 73.828125 
L 62.109375 73.828125 
Q 62.109375 77.734375 61.71875 81.640625 
L 69.921875 81.640625 
Q 69.53125 77.734375 69.53125 73.828125 
L 80.078125 73.828125 
Q 86.71875 73.828125 92.578125 74.21875 
L 92.578125 67.578125 
Q 86.71875 67.96875 80.078125 67.96875 
L 69.53125 67.96875 
L 69.53125 62.5 
L 76.953125 62.5 
Q 83.203125 62.5 89.84375 62.890625 
L 89.84375 56.25 
Q 82.8125 56.640625 76.953125 56.640625 
L 69.53125 56.640625 
L 69.53125 50.390625 
L 80.859375 50.390625 
Q 90.234375 50.390625 96.09375 50.78125 
L 96.09375 44.140625 
Q 90.234375 44.53125 80.46875 44.53125 
L 54.6875 44.53125 
Q 44.53125 44.53125 37.109375 44.140625 
z
M 26.171875 81.640625 
Q 25.78125 75 25.78125 68.75 
L 25.78125 6.640625 
Q 25.78125 -1.5625 26.171875 -9.375 
L 17.96875 -9.375 
Q 18.75 -1.5625 18.75 6.640625 
L 18.75 67.578125 
Q 18.75 75.390625 17.96875 81.640625 
L 26.171875 81.640625 
z
M 80.078125 13.28125 
L 80.078125 20.703125 
L 50.390625 20.703125 
L 50.390625 13.28125 
z
M 80.078125 26.5625 
L 80.078125 33.59375 
L 50.390625 33.59375 
L 50.390625 26.5625 
z
M 16.40625 60.9375 
Q 15.625 57.421875 11.328125 35.546875 
Q 7.8125 36.71875 3.90625 37.109375 
Q 6.640625 42.96875 8.984375 62.109375 
Q 12.5 61.328125 16.40625 60.9375 
z
M 30.859375 48.828125 
Q 30.078125 53.515625 27.734375 62.109375 
Q 30.46875 62.5 34.375 63.671875 
Q 36.71875 55.46875 38.28125 51.171875 
Q 33.984375 50 30.859375 48.828125 
z
" id="SimHei-24773"/>
      <path d="M 85.15625 76.171875 
Q 84.765625 70.3125 84.765625 57.421875 
Q 84.765625 44.53125 85.15625 37.109375 
L 71.484375 37.109375 
L 71.484375 6.25 
Q 71.484375 0.78125 74.40625 0.390625 
Q 77.34375 0 81.25 0.1875 
Q 85.15625 0.390625 85.9375 2.921875 
Q 86.71875 5.46875 87.109375 12.890625 
Q 91.40625 10.546875 96.09375 9.375 
Q 93.359375 -2.734375 90.234375 -4.484375 
Q 87.109375 -6.25 80.859375 -6.4375 
Q 74.609375 -6.640625 69.328125 -5.65625 
Q 64.0625 -4.6875 64.0625 3.125 
L 64.0625 37.109375 
L 54.296875 37.109375 
Q 54.6875 2.34375 25 -9.765625 
Q 23.828125 -5.859375 19.921875 -2.34375 
Q 46.875 5.859375 46.875 37.109375 
L 36.328125 37.109375 
Q 36.71875 44.53125 36.71875 57.421875 
Q 36.71875 70.703125 36.328125 76.171875 
L 85.15625 76.171875 
z
M 76.5625 43.359375 
L 76.5625 69.921875 
L 44.53125 69.921875 
L 44.53125 43.359375 
z
M 31.640625 34.375 
Q 27.34375 26.953125 21.09375 15.625 
Q 14.84375 4.296875 12.109375 0 
Q 8.203125 2.734375 4.6875 4.6875 
Q 12.5 15.234375 25 39.0625 
Q 28.90625 35.9375 31.640625 34.375 
z
M 14.84375 77.34375 
Q 17.1875 74.609375 21.09375 69.71875 
Q 25 64.84375 28.90625 59.375 
Q 24.609375 56.640625 21.484375 53.90625 
Q 16.796875 62.890625 8.203125 71.875 
Q 12.109375 75.390625 14.84375 77.34375 
z
" id="SimHei-20917"/>
      <path d="M 80.46875 67.1875 
Q 86.328125 67.1875 92.96875 67.578125 
L 92.96875 60.546875 
Q 86.71875 60.9375 80.859375 60.9375 
L 58.984375 60.9375 
Q 62.109375 58.59375 66.40625 56.25 
Q 63.28125 53.90625 59.953125 49.40625 
Q 56.640625 44.921875 50.390625 37.109375 
Q 59.375 37.109375 78.515625 39.0625 
Q 76.953125 41.015625 72.265625 46.484375 
Q 75.78125 48.4375 78.515625 50.78125 
Q 85.15625 43.75 92.96875 32.8125 
Q 89.0625 30.46875 86.328125 27.734375 
Q 83.984375 30.859375 82.421875 33.203125 
Q 76.953125 32.8125 75.390625 32.421875 
L 75.390625 3.125 
Q 75.390625 -1.5625 79.296875 -1.5625 
L 83.203125 -1.5625 
Q 86.71875 -1.5625 87.890625 8.984375 
Q 91.40625 6.25 96.09375 5.078125 
Q 92.578125 -8.203125 86.328125 -8.203125 
L 75.78125 -8.203125 
Q 67.96875 -8.203125 67.96875 0 
L 67.96875 31.640625 
Q 62.5 31.25 60.546875 30.859375 
Q 60.9375 16.40625 56.828125 7.21875 
Q 52.734375 -1.953125 41.015625 -10.9375 
Q 39.0625 -7.8125 33.984375 -5.859375 
Q 40.234375 -1.953125 44.53125 2.734375 
Q 48.828125 7.421875 51.171875 13.28125 
Q 53.515625 19.140625 53.125 30.078125 
Q 47.265625 29.6875 42.578125 28.515625 
Q 41.40625 34.375 39.453125 38.671875 
Q 44.140625 39.0625 49.796875 46.484375 
Q 55.46875 53.90625 57.421875 60.9375 
L 51.171875 60.9375 
Q 46.09375 60.9375 38.671875 60.546875 
L 38.671875 67.578125 
Q 44.921875 67.1875 50.78125 67.1875 
z
M 29.296875 75.390625 
Q 26.5625 71.875 23.4375 66.40625 
Q 20.3125 60.9375 14.0625 50.78125 
Q 21.484375 51.171875 25.78125 51.171875 
Q 28.90625 56.640625 30.859375 62.109375 
Q 35.15625 59.375 39.84375 57.421875 
Q 37.109375 54.6875 32.421875 47.453125 
Q 27.734375 40.234375 19.140625 26.953125 
Q 30.46875 28.125 39.0625 29.6875 
Q 37.109375 25 37.109375 22.265625 
Q 33.59375 21.875 24.796875 20.703125 
Q 16.015625 19.53125 9.375 17.578125 
Q 8.203125 21.484375 6.640625 25.390625 
Q 10.9375 26.5625 14.84375 32.421875 
Q 18.75 38.28125 22.65625 45.3125 
Q 19.140625 44.921875 14.453125 44.328125 
Q 9.765625 43.75 6.640625 42.96875 
Q 5.078125 46.875 3.125 50.390625 
Q 7.8125 51.5625 13.46875 62.890625 
Q 19.140625 74.21875 19.921875 79.296875 
Q 24.609375 76.953125 29.296875 75.390625 
z
M 39.84375 12.890625 
Q 39.453125 8.984375 39.84375 5.46875 
Q 30.859375 3.125 22.0625 0.578125 
Q 13.28125 -1.953125 8.59375 -3.90625 
Q 7.03125 0 4.296875 4.296875 
Q 14.0625 5.859375 22.65625 7.8125 
Q 31.25 9.765625 39.84375 12.890625 
z
M 64.0625 82.421875 
Q 68.359375 75.390625 70.3125 71.484375 
Q 67.578125 70.3125 62.890625 67.96875 
Q 59.765625 75.390625 57.03125 79.296875 
Q 61.71875 80.859375 64.0625 82.421875 
z
" id="SimHei-32479"/>
      <path d="M 61.328125 48.4375 
L 61.328125 67.96875 
Q 61.328125 75.78125 60.9375 80.078125 
L 69.140625 80.078125 
Q 68.75 75 68.75 71.09375 
L 68.75 48.4375 
L 84.765625 48.4375 
Q 89.453125 48.4375 94.921875 48.828125 
L 94.921875 41.40625 
Q 89.0625 41.796875 85.15625 41.796875 
L 68.75 41.796875 
L 68.75 2.734375 
Q 68.75 -1.953125 69.140625 -8.59375 
L 60.9375 -8.59375 
Q 61.328125 -1.953125 61.328125 2.34375 
L 61.328125 41.796875 
L 46.09375 41.796875 
Q 40.234375 41.796875 34.375 41.40625 
L 34.375 48.828125 
Q 40.234375 48.4375 45.3125 48.4375 
z
M 27.734375 49.21875 
Q 27.34375 41.796875 27.34375 33.59375 
L 27.34375 9.765625 
Q 33.984375 16.40625 37.890625 21.875 
Q 40.234375 18.75 43.359375 15.625 
L 32.421875 4.6875 
Q 27.34375 -0.390625 22.65625 -5.46875 
Q 19.921875 -1.953125 17.578125 0.78125 
Q 20.3125 3.90625 19.921875 10.15625 
L 19.921875 42.578125 
Q 9.375 42.578125 4.296875 42.1875 
L 4.296875 49.609375 
Q 10.546875 49.21875 12.890625 49.21875 
z
M 17.96875 78.90625 
Q 23.046875 73.828125 33.984375 62.5 
Q 30.46875 59.375 27.34375 56.640625 
Q 22.265625 64.0625 12.109375 74.21875 
Q 14.84375 76.171875 17.96875 78.90625 
z
" id="SimHei-35745"/>
     </defs>
     <use xlink:href="#SimHei-50"/>
     <use x="50" xlink:href="#SimHei-48"/>
     <use x="100" xlink:href="#SimHei-49"/>
     <use x="150" xlink:href="#SimHei-55"/>
     <use x="200" xlink:href="#SimHei-45"/>
     <use x="250" xlink:href="#SimHei-50"/>
     <use x="300" xlink:href="#SimHei-48"/>
     <use x="350" xlink:href="#SimHei-50"/>
     <use x="400" xlink:href="#SimHei-50"/>
     <use x="450" xlink:href="#SimHei-24180"/>
     <use x="550" xlink:href="#SimHei-19978"/>
     <use x="650" xlink:href="#SimHei-21322"/>
     <use x="750" xlink:href="#SimHei-24180"/>
     <use x="850" xlink:href="#SimHei-25105"/>
     <use x="950" xlink:href="#SimHei-22269"/>
     <use x="1050" xlink:href="#SimHei-86"/>
     <use x="1100" xlink:href="#SimHei-82"/>
     <use x="1150" xlink:href="#SimHei-47"/>
     <use x="1200" xlink:href="#SimHei-65"/>
     <use x="1250" xlink:href="#SimHei-82"/>
     <use x="1300" xlink:href="#SimHei-34892"/>
     <use x="1400" xlink:href="#SimHei-19994"/>
     <use x="1500" xlink:href="#SimHei-25237"/>
     <use x="1600" xlink:href="#SimHei-36164"/>
     <use x="1700" xlink:href="#SimHei-24773"/>
     <use x="1800" xlink:href="#SimHei-20917"/>
     <use x="1900" xlink:href="#SimHei-32479"/>
     <use x="2000" xlink:href="#SimHei-35745"/>
    </g>
   </g>
   <g id="legend_2">
    <g id="patch_23">
     <path d="M 335.72 63.729813 
L 407.72 63.729813 
Q 409.72 63.729813 409.72 61.729813 
L 409.72 48.472 
Q 409.72 46.472 407.72 46.472 
L 335.72 46.472 
Q 333.72 46.472 333.72 48.472 
L 333.72 61.729813 
Q 333.72 63.729813 335.72 63.729813 
z
" style="fill:#ffffff;opacity:0.8;stroke:#cccccc;stroke-linejoin:miter;"/>
    </g>
    <g id="patch_24">
     <path d="M 337.72 58.479813 
L 357.72 58.479813 
L 357.72 51.479813 
L 337.72 51.479813 
z
" style="fill:#4682b4;"/>
    </g>
    <g id="text_30">
     <!-- 投资金额 -->
     <g transform="translate(365.72 58.479813)scale(0.1 -0.1)">
      <use xlink:href="#SimHei-25237"/>
      <use x="100" xlink:href="#SimHei-36164"/>
      <use x="200" xlink:href="#SimHei-37329"/>
      <use x="300" xlink:href="#SimHei-39069"/>
     </g>
    </g>
   </g>
  </g>
 </g>
 <defs>
  <clipPath id="pac2c85704a">
   <rect height="266.112" width="357.12" x="57.6" y="41.472"/>
  </clipPath>
 </defs>
</svg>
