<?xml version="1.0" encoding="utf-8" standalone="no"?>
<!DOCTYPE svg PUBLIC "-//W3C//DTD SVG 1.1//EN"
  "http://www.w3.org/Graphics/SVG/1.1/DTD/svg11.dtd">
<!-- Created with matplotlib (https://matplotlib.org/) -->
<svg height="345.6pt" version="1.1" viewBox="0 0 460.8 345.6" width="460.8pt" xmlns="http://www.w3.org/2000/svg" xmlns:xlink="http://www.w3.org/1999/xlink">
 <metadata>
  <rdf:RDF xmlns:cc="http://creativecommons.org/ns#" xmlns:dc="http://purl.org/dc/elements/1.1/" xmlns:rdf="http://www.w3.org/1999/02/22-rdf-syntax-ns#">
   <cc:Work>
    <dc:type rdf:resource="http://purl.org/dc/dcmitype/StillImage"/>
    <dc:date>2022-07-26T15:41:16.490647</dc:date>
    <dc:format>image/svg+xml</dc:format>
    <dc:creator>
     <cc:Agent>
      <dc:title>Matplotlib v3.3.4, https://matplotlib.org/</dc:title>
     </cc:Agent>
    </dc:creator>
   </cc:Work>
  </rdf:RDF>
 </metadata>
 <defs>
  <style type="text/css">*{stroke-linecap:butt;stroke-linejoin:round;}</style>
 </defs>
 <g id="figure_1">
  <g id="patch_1">
   <path d="M 0 345.6 
L 460.8 345.6 
L 460.8 0 
L 0 0 
z
" style="fill:#ffffff;"/>
  </g>
  <g id="axes_1">
   <g id="patch_2">
    <path d="M 57.6 307.584 
L 414.72 307.584 
L 414.72 41.472 
L 57.6 41.472 
z
" style="fill:#ffffff;"/>
   </g>
   <g id="patch_3">
    <path clip-path="url(#pf33205dcbb)" d="M 57.6 295.488 
L 68.177945 295.488 
L 68.177945 262.119724 
L 57.6 262.119724 
z
" style="fill:#1f77b4;"/>
   </g>
   <g id="patch_4">
    <path clip-path="url(#pf33205dcbb)" d="M 57.6 253.777655 
L 84.378401 253.777655 
L 84.378401 220.409379 
L 57.6 220.409379 
z
" style="fill:#1f77b4;"/>
   </g>
   <g id="patch_5">
    <path clip-path="url(#pf33205dcbb)" d="M 57.6 212.06731 
L 120.114702 212.06731 
L 120.114702 178.699034 
L 57.6 178.699034 
z
" style="fill:#1f77b4;"/>
   </g>
   <g id="patch_6">
    <path clip-path="url(#pf33205dcbb)" d="M 57.6 170.356966 
L 167.381916 170.356966 
L 167.381916 136.98869 
L 57.6 136.98869 
z
" style="fill:#1f77b4;"/>
   </g>
   <g id="patch_7">
    <path clip-path="url(#pf33205dcbb)" d="M 57.6 128.646621 
L 264.489357 128.646621 
L 264.489357 95.278345 
L 57.6 95.278345 
z
" style="fill:#1f77b4;"/>
   </g>
   <g id="patch_8">
    <path clip-path="url(#pf33205dcbb)" d="M 57.6 86.936276 
L 397.714286 86.936276 
L 397.714286 53.568 
L 57.6 53.568 
z
" style="fill:#1f77b4;"/>
   </g>
   <g id="matplotlib.axis_1">
    <g id="xtick_1">
     <g id="line2d_1">
      <defs>
       <path d="M 0 0 
L 0 3.5 
" id="m66e9bedb29" style="stroke:#000000;stroke-width:0.8;"/>
      </defs>
      <g>
       <use style="stroke:#000000;stroke-width:0.8;" x="57.6" xlink:href="#m66e9bedb29" y="307.584"/>
      </g>
     </g>
     <g id="text_1">
      <!-- 0 -->
      <g transform="translate(55.1 321.459)scale(0.1 -0.1)">
       <defs>
        <path d="M 3.125 29.296875 
Q 3.90625 50 6.4375 56.046875 
Q 8.984375 62.109375 13.671875 66.015625 
Q 18.359375 69.921875 25.1875 69.921875 
Q 32.03125 69.921875 37.109375 64.25 
Q 42.1875 58.59375 43.75 50 
Q 45.3125 41.40625 44.71875 30.265625 
Q 44.140625 19.140625 40.8125 12.109375 
Q 37.5 5.078125 30.859375 2.34375 
Q 24.21875 -0.390625 17.578125 2.921875 
Q 10.9375 6.25 8.203125 11.71875 
Q 5.46875 17.1875 4.296875 23.234375 
Q 3.125 29.296875 3.90625 50 
z
M 12.890625 52.734375 
Q 10.546875 31.25 12.5 22.84375 
Q 14.453125 14.453125 18.9375 10.9375 
Q 23.4375 7.421875 28.125 9.5625 
Q 32.8125 11.71875 34.953125 18.15625 
Q 37.109375 24.609375 37.109375 32.21875 
Q 37.109375 39.84375 36.515625 46.09375 
Q 35.9375 52.34375 33 57.421875 
Q 30.078125 62.5 25.1875 62.6875 
Q 20.3125 62.890625 16.59375 57.8125 
Q 12.890625 52.734375 10.546875 31.25 
z
" id="SimHei-48"/>
       </defs>
       <use xlink:href="#SimHei-48"/>
      </g>
     </g>
    </g>
    <g id="xtick_2">
     <g id="line2d_2">
      <g>
       <use style="stroke:#000000;stroke-width:0.8;" x="105.248401" xlink:href="#m66e9bedb29" y="307.584"/>
      </g>
     </g>
     <g id="text_2">
      <!-- 50 -->
      <g transform="translate(100.248401 321.459)scale(0.1 -0.1)">
       <defs>
        <path d="M 8.59375 20.703125 
Q 11.328125 10.15625 17.96875 8.984375 
Q 24.609375 7.8125 28.703125 10.34375 
Q 32.8125 12.890625 34.5625 16.984375 
Q 36.328125 21.09375 36.125 26.171875 
Q 35.9375 31.25 33.390625 34.765625 
Q 30.859375 38.28125 26.953125 39.453125 
Q 23.046875 40.625 18.15625 39.453125 
Q 13.28125 38.28125 10.15625 33.984375 
L 3.515625 34.765625 
Q 4.296875 37.109375 10.9375 68.359375 
L 41.796875 68.359375 
L 41.796875 61.328125 
L 16.796875 61.328125 
Q 14.84375 50.78125 12.890625 44.53125 
Q 18.75 47.265625 23.828125 47.0625 
Q 28.90625 46.875 33.59375 44.71875 
Q 38.28125 42.578125 40.421875 38.859375 
Q 42.578125 35.15625 43.546875 31.4375 
Q 44.53125 27.734375 44.328125 23.4375 
Q 44.140625 19.140625 42.578125 14.640625 
Q 41.015625 10.15625 37.890625 7.21875 
Q 34.765625 4.296875 30.265625 2.53125 
Q 25.78125 0.78125 19.921875 1.171875 
Q 14.0625 1.5625 8.78125 5.46875 
Q 3.515625 9.375 1.5625 18.75 
z
" id="SimHei-53"/>
       </defs>
       <use xlink:href="#SimHei-53"/>
       <use x="50" xlink:href="#SimHei-48"/>
      </g>
     </g>
    </g>
    <g id="xtick_3">
     <g id="line2d_3">
      <g>
       <use style="stroke:#000000;stroke-width:0.8;" x="152.896802" xlink:href="#m66e9bedb29" y="307.584"/>
      </g>
     </g>
     <g id="text_3">
      <!-- 100 -->
      <g transform="translate(145.396802 321.459)scale(0.1 -0.1)">
       <defs>
        <path d="M 21.875 56.25 
Q 16.796875 51.171875 8.984375 46.484375 
L 8.984375 53.90625 
Q 18.75 60.546875 25 69.53125 
L 29.6875 69.53125 
L 29.6875 2.34375 
L 21.875 2.34375 
z
" id="SimHei-49"/>
       </defs>
       <use xlink:href="#SimHei-49"/>
       <use x="50" xlink:href="#SimHei-48"/>
       <use x="100" xlink:href="#SimHei-48"/>
      </g>
     </g>
    </g>
    <g id="xtick_4">
     <g id="line2d_4">
      <g>
       <use style="stroke:#000000;stroke-width:0.8;" x="200.545203" xlink:href="#m66e9bedb29" y="307.584"/>
      </g>
     </g>
     <g id="text_4">
      <!-- 150 -->
      <g transform="translate(193.045203 321.459)scale(0.1 -0.1)">
       <use xlink:href="#SimHei-49"/>
       <use x="50" xlink:href="#SimHei-53"/>
       <use x="100" xlink:href="#SimHei-48"/>
      </g>
     </g>
    </g>
    <g id="xtick_5">
     <g id="line2d_5">
      <g>
       <use style="stroke:#000000;stroke-width:0.8;" x="248.193604" xlink:href="#m66e9bedb29" y="307.584"/>
      </g>
     </g>
     <g id="text_5">
      <!-- 200 -->
      <g transform="translate(240.693604 321.459)scale(0.1 -0.1)">
       <defs>
        <path d="M 4.6875 3.90625 
Q 5.078125 9.765625 10.15625 14.453125 
Q 15.234375 19.140625 23.046875 29.09375 
Q 30.859375 39.0625 33.203125 44.53125 
Q 35.546875 50 34.953125 53.90625 
Q 34.375 57.8125 31.25 60.34375 
Q 28.125 62.890625 24.015625 62.5 
Q 19.921875 62.109375 16.203125 59.375 
Q 12.5 56.640625 10.546875 51.171875 
L 3.125 52.34375 
Q 6.25 61.328125 11.125 65.421875 
Q 16.015625 69.53125 22.65625 69.921875 
Q 26.5625 70.3125 29.6875 69.71875 
Q 32.8125 69.140625 36.125 66.984375 
Q 39.453125 64.84375 41.59375 60.546875 
Q 43.75 56.25 43.15625 50.1875 
Q 42.578125 44.140625 37.109375 35.734375 
Q 31.640625 27.34375 16.015625 9.375 
L 44.140625 9.375 
L 44.140625 2.34375 
L 4.6875 2.34375 
z
" id="SimHei-50"/>
       </defs>
       <use xlink:href="#SimHei-50"/>
       <use x="50" xlink:href="#SimHei-48"/>
       <use x="100" xlink:href="#SimHei-48"/>
      </g>
     </g>
    </g>
    <g id="xtick_6">
     <g id="line2d_6">
      <g>
       <use style="stroke:#000000;stroke-width:0.8;" x="295.842005" xlink:href="#m66e9bedb29" y="307.584"/>
      </g>
     </g>
     <g id="text_6">
      <!-- 250 -->
      <g transform="translate(288.342005 321.459)scale(0.1 -0.1)">
       <use xlink:href="#SimHei-50"/>
       <use x="50" xlink:href="#SimHei-53"/>
       <use x="100" xlink:href="#SimHei-48"/>
      </g>
     </g>
    </g>
    <g id="xtick_7">
     <g id="line2d_7">
      <g>
       <use style="stroke:#000000;stroke-width:0.8;" x="343.490405" xlink:href="#m66e9bedb29" y="307.584"/>
      </g>
     </g>
     <g id="text_7">
      <!-- 300 -->
      <g transform="translate(335.990405 321.459)scale(0.1 -0.1)">
       <defs>
        <path d="M 3.90625 19.140625 
L 10.9375 20.3125 
Q 12.5 15.234375 16.015625 11.90625 
Q 19.53125 8.59375 24.796875 8.78125 
Q 30.078125 8.984375 33.203125 13.078125 
Q 36.328125 17.1875 35.9375 22.453125 
Q 35.546875 27.734375 31.828125 30.65625 
Q 28.125 33.59375 19.921875 34.765625 
L 19.921875 39.84375 
Q 28.125 40.625 31.828125 44.140625 
Q 35.546875 47.65625 35.15625 53.3125 
Q 34.765625 58.984375 30.078125 61.515625 
Q 25.390625 64.0625 20.109375 62.109375 
Q 14.84375 60.15625 11.71875 51.171875 
L 4.6875 52.34375 
Q 7.03125 59.375 11.125 64.0625 
Q 15.234375 68.75 22.265625 69.53125 
Q 29.296875 70.3125 34.5625 67.765625 
Q 39.84375 65.234375 41.984375 59.953125 
Q 44.140625 54.6875 42.578125 48.4375 
Q 41.015625 42.1875 33.59375 37.5 
Q 39.0625 35.15625 41.984375 30.46875 
Q 44.921875 25.78125 43.9375 18.15625 
Q 42.96875 10.546875 37.109375 5.859375 
Q 31.25 1.171875 23.828125 1.359375 
Q 16.40625 1.5625 10.9375 6.046875 
Q 5.46875 10.546875 3.90625 19.140625 
z
" id="SimHei-51"/>
       </defs>
       <use xlink:href="#SimHei-51"/>
       <use x="50" xlink:href="#SimHei-48"/>
       <use x="100" xlink:href="#SimHei-48"/>
      </g>
     </g>
    </g>
    <g id="xtick_8">
     <g id="line2d_8">
      <g>
       <use style="stroke:#000000;stroke-width:0.8;" x="391.138806" xlink:href="#m66e9bedb29" y="307.584"/>
      </g>
     </g>
     <g id="text_8">
      <!-- 350 -->
      <g transform="translate(383.638806 321.459)scale(0.1 -0.1)">
       <use xlink:href="#SimHei-51"/>
       <use x="50" xlink:href="#SimHei-53"/>
       <use x="100" xlink:href="#SimHei-48"/>
      </g>
     </g>
    </g>
    <g id="text_9">
     <!-- 年份 -->
     <g transform="translate(226.16 334.67775)scale(0.1 -0.1)">
      <defs>
       <path d="M 5.46875 45.703125 
Q 14.0625 53.90625 21.484375 65.625 
Q 28.90625 77.34375 29.6875 82.421875 
Q 35.546875 80.078125 40.625 78.90625 
Q 37.109375 75.390625 32.8125 67.578125 
L 72.265625 67.578125 
Q 80.859375 67.578125 89.84375 67.96875 
L 89.84375 61.328125 
Q 81.640625 61.71875 72.265625 61.71875 
L 59.375 61.71875 
L 59.375 45.703125 
Q 74.21875 45.703125 85.546875 46.09375 
L 85.546875 39.453125 
Q 73.828125 39.84375 59.375 39.84375 
L 59.375 21.484375 
L 79.296875 21.484375 
Q 87.890625 21.484375 95.3125 21.875 
L 95.3125 15.234375 
Q 88.28125 15.625 79.296875 15.625 
L 59.375 15.625 
L 59.375 6.640625 
Q 59.375 -2.34375 59.765625 -9.765625 
L 51.171875 -9.765625 
Q 51.5625 -2.34375 51.5625 5.859375 
L 51.5625 15.625 
L 25 15.625 
Q 14.0625 15.625 4.296875 15.234375 
L 4.296875 21.875 
Q 13.671875 21.484375 22.65625 21.484375 
Q 22.65625 36.71875 22.265625 45.703125 
L 51.5625 45.703125 
L 51.5625 61.71875 
L 29.296875 61.71875 
Q 21.09375 49.21875 14.453125 41.40625 
Q 10.15625 44.921875 5.46875 45.703125 
z
M 51.5625 21.484375 
L 51.5625 39.84375 
L 30.078125 39.84375 
L 30.078125 21.484375 
z
" id="SimHei-24180"/>
       <path d="M 74.21875 79.6875 
Q 76.171875 68.359375 82.03125 57.03125 
Q 87.890625 45.703125 96.875 38.28125 
Q 94.140625 37.109375 90.234375 32.421875 
Q 87.5 35.546875 83.59375 40.234375 
Q 82.8125 35.546875 82.421875 20.5 
Q 82.03125 5.46875 81.046875 0.390625 
Q 80.078125 -4.6875 75.78125 -6.25 
Q 71.484375 -7.8125 63.671875 -8.59375 
Q 62.5 -3.90625 60.546875 0 
Q 68.75 -0.390625 71.484375 0.390625 
Q 74.21875 1.171875 74.609375 9.171875 
Q 75 17.1875 75.390625 35.15625 
L 57.8125 35.15625 
Q 57.421875 20.3125 53.515625 10.15625 
Q 49.609375 0 37.109375 -9.765625 
Q 33.984375 -5.46875 31.25 -3.515625 
Q 42.96875 3.515625 46.671875 12.5 
Q 50.390625 21.484375 50.390625 35.15625 
Q 46.875 35.15625 41.796875 34.765625 
L 41.796875 40.234375 
Q 38.671875 35.9375 33.59375 30.46875 
Q 31.25 33.59375 27.34375 35.9375 
Q 44.921875 51.171875 50.390625 76.171875 
Q 53.90625 74.609375 58.59375 73.046875 
Q 56.640625 68.75 53.515625 60.734375 
Q 50.390625 52.734375 43.359375 42.1875 
Q 47.65625 41.796875 53.125 41.796875 
L 82.8125 41.796875 
Q 71.484375 56.640625 66.796875 77.734375 
Q 71.484375 78.515625 74.21875 79.6875 
z
M 3.515625 39.453125 
Q 8.984375 44.921875 16.015625 57.609375 
Q 23.046875 70.3125 25.78125 81.640625 
Q 30.859375 79.296875 34.375 77.734375 
Q 32.03125 74.21875 25 58.984375 
L 25 9.765625 
Q 25 1.171875 25.390625 -8.984375 
L 17.1875 -8.984375 
Q 17.578125 0.78125 17.578125 9.765625 
L 17.578125 45.703125 
Q 12.109375 37.5 8.984375 33.984375 
Q 6.640625 36.71875 3.515625 39.453125 
z
" id="SimHei-20221"/>
      </defs>
      <use xlink:href="#SimHei-24180"/>
      <use x="100" xlink:href="#SimHei-20221"/>
     </g>
    </g>
   </g>
   <g id="matplotlib.axis_2">
    <g id="ytick_1">
     <g id="line2d_9">
      <defs>
       <path d="M 0 0 
L -3.5 0 
" id="m7fdd44726a" style="stroke:#000000;stroke-width:0.8;"/>
      </defs>
      <g>
       <use style="stroke:#000000;stroke-width:0.8;" x="57.6" xlink:href="#m7fdd44726a" y="278.803862"/>
      </g>
     </g>
     <g id="text_10">
      <!-- 2017 -->
      <g transform="translate(30.6 282.241362)scale(0.1 -0.1)">
       <defs>
        <path d="M 13.28125 2.34375 
Q 20.3125 32.03125 37.890625 61.328125 
L 4.296875 61.328125 
L 4.296875 68.359375 
L 46.09375 68.359375 
L 46.09375 61.71875 
Q 27.734375 32.03125 21.875 2.34375 
L 13.28125 2.34375 
z
" id="SimHei-55"/>
       </defs>
       <use xlink:href="#SimHei-50"/>
       <use x="50" xlink:href="#SimHei-48"/>
       <use x="100" xlink:href="#SimHei-49"/>
       <use x="150" xlink:href="#SimHei-55"/>
      </g>
     </g>
    </g>
    <g id="ytick_2">
     <g id="line2d_10">
      <g>
       <use style="stroke:#000000;stroke-width:0.8;" x="57.6" xlink:href="#m7fdd44726a" y="237.093517"/>
      </g>
     </g>
     <g id="text_11">
      <!-- 2018 -->
      <g transform="translate(30.6 240.531017)scale(0.1 -0.1)">
       <defs>
        <path d="M 2.734375 16.796875 
Q 2.734375 26.171875 5.078125 30.65625 
Q 7.421875 35.15625 12.890625 37.890625 
Q 8.203125 40.625 6.640625 43.9375 
Q 5.078125 47.265625 4.875 51.5625 
Q 4.6875 55.859375 6.046875 58.984375 
Q 7.421875 62.109375 10.15625 64.84375 
Q 12.890625 67.578125 16.203125 68.546875 
Q 19.53125 69.53125 23.4375 69.53125 
Q 27.34375 69.53125 30.46875 68.75 
Q 33.59375 67.96875 37.109375 65.421875 
Q 40.625 62.890625 42.1875 58.203125 
Q 43.75 53.515625 41.984375 47.265625 
Q 40.234375 41.015625 32.8125 37.5 
Q 39.453125 35.546875 42.1875 31.4375 
Q 44.921875 27.34375 44.921875 21.484375 
Q 44.921875 15.625 43.15625 12.109375 
Q 41.40625 8.59375 39.25 6.25 
Q 37.109375 3.90625 33.390625 2.53125 
Q 29.6875 1.171875 24.015625 1.171875 
Q 18.359375 1.171875 14.25 2.53125 
Q 10.15625 3.90625 7.421875 6.640625 
Q 4.6875 9.375 3.703125 13.078125 
Q 2.734375 16.796875 2.734375 26.171875 
z
M 10.9375 26.5625 
Q 10.546875 17.1875 12.296875 13.671875 
Q 14.0625 10.15625 18.75 9.171875 
Q 23.4375 8.203125 28.515625 9.375 
Q 33.59375 10.546875 35.546875 14.84375 
Q 37.5 19.140625 36.90625 23.4375 
Q 36.328125 27.734375 32.03125 30.65625 
Q 27.734375 33.59375 22.65625 33.203125 
Q 17.578125 32.8125 14.25 29.6875 
Q 10.9375 26.5625 10.546875 17.1875 
z
M 12.109375 56.25 
Q 12.109375 48.4375 14.84375 44.921875 
Q 17.578125 41.40625 23.4375 41.40625 
Q 29.296875 41.40625 32.21875 44.921875 
Q 35.15625 48.4375 34.953125 53.3125 
Q 34.765625 58.203125 31.4375 60.546875 
Q 28.125 62.890625 22.453125 62.5 
Q 16.796875 62.109375 14.453125 59.171875 
Q 12.109375 56.25 12.109375 48.4375 
z
" id="SimHei-56"/>
       </defs>
       <use xlink:href="#SimHei-50"/>
       <use x="50" xlink:href="#SimHei-48"/>
       <use x="100" xlink:href="#SimHei-49"/>
       <use x="150" xlink:href="#SimHei-56"/>
      </g>
     </g>
    </g>
    <g id="ytick_3">
     <g id="line2d_11">
      <g>
       <use style="stroke:#000000;stroke-width:0.8;" x="57.6" xlink:href="#m7fdd44726a" y="195.383172"/>
      </g>
     </g>
     <g id="text_12">
      <!-- 2019 -->
      <g transform="translate(30.6 198.820672)scale(0.1 -0.1)">
       <defs>
        <path d="M 12.5 1.171875 
Q 21.09375 15.625 26.5625 27.34375 
Q 16.796875 25.78125 10.34375 29.875 
Q 3.90625 33.984375 2.53125 41.015625 
Q 1.171875 48.046875 2.734375 53.703125 
Q 4.296875 59.375 7.609375 63.078125 
Q 10.9375 66.796875 15.625 68.359375 
Q 20.3125 69.921875 24.015625 69.921875 
Q 27.734375 69.921875 31.640625 68.359375 
Q 35.546875 66.796875 38.671875 63.671875 
Q 41.796875 60.546875 42.96875 57.21875 
Q 44.140625 53.90625 44.140625 48.625 
Q 44.140625 43.359375 40.234375 35.15625 
Q 36.328125 26.953125 21.09375 1.171875 
z
M 9.765625 50 
Q 10.9375 39.84375 14.640625 36.515625 
Q 18.359375 33.203125 22.65625 33.59375 
Q 26.953125 33.984375 29.484375 35.9375 
Q 32.03125 37.890625 34.375 42.578125 
Q 35.9375 48.4375 35.15625 52.53125 
Q 34.375 56.640625 31.046875 59.375 
Q 27.734375 62.109375 23.828125 62.109375 
Q 21.484375 62.5 17.765625 60.9375 
Q 14.0625 59.375 11.90625 54.6875 
Q 9.765625 50 10.9375 39.84375 
z
" id="SimHei-57"/>
       </defs>
       <use xlink:href="#SimHei-50"/>
       <use x="50" xlink:href="#SimHei-48"/>
       <use x="100" xlink:href="#SimHei-49"/>
       <use x="150" xlink:href="#SimHei-57"/>
      </g>
     </g>
    </g>
    <g id="ytick_4">
     <g id="line2d_12">
      <g>
       <use style="stroke:#000000;stroke-width:0.8;" x="57.6" xlink:href="#m7fdd44726a" y="153.672828"/>
      </g>
     </g>
     <g id="text_13">
      <!-- 2020 -->
      <g transform="translate(30.6 157.110328)scale(0.1 -0.1)">
       <use xlink:href="#SimHei-50"/>
       <use x="50" xlink:href="#SimHei-48"/>
       <use x="100" xlink:href="#SimHei-50"/>
       <use x="150" xlink:href="#SimHei-48"/>
      </g>
     </g>
    </g>
    <g id="ytick_5">
     <g id="line2d_13">
      <g>
       <use style="stroke:#000000;stroke-width:0.8;" x="57.6" xlink:href="#m7fdd44726a" y="111.962483"/>
      </g>
     </g>
     <g id="text_14">
      <!-- 2021 -->
      <g transform="translate(30.6 115.399983)scale(0.1 -0.1)">
       <use xlink:href="#SimHei-50"/>
       <use x="50" xlink:href="#SimHei-48"/>
       <use x="100" xlink:href="#SimHei-50"/>
       <use x="150" xlink:href="#SimHei-49"/>
      </g>
     </g>
    </g>
    <g id="ytick_6">
     <g id="line2d_14">
      <g>
       <use style="stroke:#000000;stroke-width:0.8;" x="57.6" xlink:href="#m7fdd44726a" y="70.252138"/>
      </g>
     </g>
     <g id="text_15">
      <!-- 2022 -->
      <g transform="translate(30.6 73.689638)scale(0.1 -0.1)">
       <use xlink:href="#SimHei-50"/>
       <use x="50" xlink:href="#SimHei-48"/>
       <use x="100" xlink:href="#SimHei-50"/>
       <use x="150" xlink:href="#SimHei-50"/>
      </g>
     </g>
    </g>
    <g id="text_16">
     <!-- 市场规模/亿元 -->
     <g transform="translate(25.35 207.028)rotate(-90)scale(0.1 -0.1)">
      <defs>
       <path d="M 74.21875 65.625 
Q 83.59375 65.625 94.53125 66.015625 
L 94.53125 58.203125 
Q 83.59375 58.59375 74.21875 58.59375 
L 53.90625 58.59375 
L 53.90625 45.3125 
L 83.984375 45.3125 
Q 83.59375 38.28125 83.59375 30.859375 
L 83.59375 11.71875 
Q 83.59375 5.078125 79.09375 2.734375 
Q 74.609375 0.390625 66.40625 -0.390625 
Q 65.625 4.296875 62.890625 8.984375 
Q 71.09375 8.984375 73.234375 9.375 
Q 75.390625 9.765625 75.390625 13.28125 
L 75.390625 38.28125 
L 53.90625 38.28125 
L 53.90625 7.421875 
Q 53.90625 -2.34375 54.296875 -9.375 
L 45.3125 -9.375 
Q 45.703125 -2.34375 45.703125 7.421875 
L 45.703125 38.28125 
L 23.828125 38.28125 
L 23.828125 0 
L 15.234375 0 
Q 15.625 6.25 15.625 14.84375 
L 15.625 29.296875 
Q 15.625 38.28125 15.234375 45.3125 
L 45.703125 45.3125 
L 45.703125 58.59375 
L 25.390625 58.59375 
Q 15.234375 58.59375 5.078125 58.203125 
L 5.078125 66.015625 
Q 15.234375 65.625 25.390625 65.625 
z
M 46.09375 82.421875 
Q 50.78125 77.734375 55.859375 69.921875 
Q 51.5625 67.96875 48.828125 66.015625 
Q 45.3125 72.265625 39.84375 78.125 
Q 42.96875 80.46875 46.09375 82.421875 
z
" id="SimHei-24066"/>
       <path d="M 87.890625 78.125 
L 87.890625 71.875 
Q 82.421875 70.703125 75.96875 64.84375 
Q 69.53125 58.984375 58.59375 48.4375 
L 93.75 48.4375 
Q 93.359375 45.703125 92.96875 35.9375 
L 91.40625 6.640625 
Q 91.015625 -3.125 87.296875 -5.46875 
Q 83.59375 -7.8125 74.21875 -8.59375 
Q 73.4375 -3.90625 70.703125 0.78125 
Q 78.90625 0 81.25 1.171875 
Q 83.59375 2.34375 83.984375 6.25 
L 85.546875 41.796875 
L 78.125 41.796875 
Q 76.171875 30.078125 73.4375 22.265625 
Q 70.703125 14.453125 66.984375 8.78125 
Q 63.28125 3.125 58.59375 -0.96875 
Q 53.90625 -5.078125 46.875 -9.375 
Q 44.921875 -5.46875 41.40625 -2.734375 
Q 48.046875 0.78125 53.515625 5.46875 
Q 58.984375 10.15625 62.5 16.40625 
Q 66.015625 22.65625 67.765625 29.6875 
Q 69.53125 36.71875 70.3125 41.796875 
L 62.5 41.796875 
Q 61.71875 35.9375 59.171875 29.875 
Q 56.640625 23.828125 51.953125 17.96875 
Q 47.265625 12.109375 39.84375 6.640625 
Q 38.28125 9.375 33.984375 12.5 
Q 43.359375 17.578125 48.625 26.171875 
Q 53.90625 34.765625 54.6875 41.796875 
Q 50.390625 41.40625 48.828125 41.015625 
Q 47.265625 40.625 43.75 39.453125 
Q 42.578125 44.140625 41.40625 47.265625 
Q 48.046875 48.046875 56.828125 56.046875 
Q 65.625 64.0625 72.65625 71.484375 
L 57.8125 71.484375 
Q 49.21875 71.484375 41.796875 71.09375 
L 41.796875 78.515625 
Q 48.828125 78.125 57.421875 78.125 
z
M 18.75 68.359375 
Q 18.75 72.65625 18.359375 79.296875 
L 26.5625 79.296875 
Q 26.171875 72.265625 26.171875 68.359375 
L 26.171875 53.90625 
Q 32.03125 53.90625 38.28125 54.296875 
L 38.28125 47.265625 
Q 31.25 47.65625 26.171875 47.65625 
L 26.171875 19.140625 
Q 30.46875 20.703125 39.0625 24.609375 
Q 39.0625 21.09375 39.453125 17.578125 
Q 32.8125 14.453125 23.4375 10.734375 
Q 14.0625 7.03125 7.8125 3.515625 
Q 6.25 7.03125 3.125 11.328125 
Q 10.15625 13.28125 18.75 16.40625 
L 18.75 47.65625 
Q 10.15625 47.65625 5.078125 47.265625 
L 5.078125 54.296875 
Q 11.71875 53.90625 18.75 53.90625 
z
" id="SimHei-22330"/>
       <path d="M 29.296875 26.953125 
Q 38.671875 19.921875 46.875 12.890625 
Q 43.75 9.375 41.015625 5.859375 
Q 35.546875 13.28125 27.34375 19.53125 
Q 24.609375 13.28125 20.5 6.046875 
Q 16.40625 -1.171875 10.9375 -8.203125 
Q 7.8125 -4.296875 3.125 -2.34375 
Q 8.203125 1.171875 12.296875 7.03125 
Q 16.40625 12.890625 19.328125 20.109375 
Q 22.265625 27.34375 22.65625 35.15625 
L 19.140625 35.15625 
Q 13.28125 35.15625 6.25 34.765625 
L 6.25 41.796875 
Q 13.28125 41.40625 19.53125 41.40625 
L 23.046875 41.40625 
L 23.046875 58.203125 
Q 15.234375 58.203125 10.15625 57.8125 
L 10.15625 64.84375 
Q 15.625 64.453125 23.046875 64.453125 
Q 23.046875 77.734375 22.65625 82.8125 
Q 26.953125 82.421875 32.03125 81.640625 
Q 30.46875 79.296875 30.265625 74.015625 
Q 30.078125 68.75 30.078125 64.453125 
Q 38.671875 64.453125 42.1875 64.84375 
L 42.1875 57.8125 
Q 37.5 58.203125 30.078125 58.203125 
L 30.078125 41.40625 
Q 40.625 41.40625 44.140625 41.796875 
L 44.140625 34.765625 
Q 40.625 35.15625 29.6875 35.15625 
Q 29.6875 32.03125 29.296875 26.953125 
z
M 73.046875 57.8125 
Q 71.875 53.125 71.09375 43.359375 
Q 70.3125 33.59375 69.140625 26.171875 
L 75.78125 26.171875 
Q 75.390625 22.265625 75.390625 15.625 
L 75.390625 4.6875 
Q 75.390625 -0.390625 77.921875 -1.171875 
Q 80.46875 -1.953125 83.203125 -1.75 
Q 85.9375 -1.5625 86.90625 0.390625 
Q 87.890625 2.34375 89.0625 10.546875 
Q 92.1875 7.8125 96.875 6.25 
Q 93.75 -4.296875 91.59375 -6.4375 
Q 89.453125 -8.59375 84.375 -8.59375 
L 76.953125 -8.59375 
Q 68.359375 -8.59375 68.359375 0.390625 
L 68.359375 24.21875 
Q 66.796875 18.359375 64.25 13.671875 
Q 61.71875 8.984375 55.65625 3.125 
Q 49.609375 -2.734375 37.109375 -9.765625 
Q 34.765625 -6.25 30.46875 -3.515625 
Q 42.578125 1.5625 49.796875 8.203125 
Q 57.03125 14.84375 59.953125 21.484375 
Q 62.890625 28.125 63.671875 38.46875 
Q 64.453125 48.828125 64.453125 59.375 
Q 69.53125 58.203125 73.046875 57.8125 
z
M 89.0625 76.171875 
Q 88.671875 69.921875 88.671875 51.171875 
Q 88.671875 32.421875 89.0625 24.609375 
L 81.640625 24.609375 
L 81.640625 69.53125 
L 53.90625 69.53125 
L 53.90625 24.21875 
L 46.875 24.21875 
Q 47.265625 33.203125 47.265625 51.171875 
Q 47.265625 69.140625 46.875 76.171875 
L 89.0625 76.171875 
z
" id="SimHei-35268"/>
       <path d="M 89.0625 57.421875 
Q 88.671875 53.125 88.671875 42.578125 
Q 88.671875 32.03125 89.0625 26.953125 
L 68.359375 26.953125 
Q 67.96875 22.65625 67.578125 18.75 
L 81.640625 18.75 
Q 89.84375 18.75 94.140625 19.140625 
L 94.140625 12.890625 
Q 89.453125 13.28125 81.640625 13.28125 
L 73.4375 13.28125 
Q 79.296875 5.859375 84.953125 2.140625 
Q 90.625 -1.5625 96.875 -3.125 
Q 93.359375 -5.859375 91.40625 -9.765625 
Q 82.421875 -6.25 75.96875 0.390625 
Q 69.53125 7.03125 67.1875 12.109375 
L 66.015625 12.109375 
Q 62.5 4.296875 55.265625 -0.96875 
Q 48.046875 -6.25 38.671875 -9.765625 
Q 36.71875 -5.859375 33.203125 -3.125 
Q 43.359375 -1.171875 50 3.125 
Q 56.640625 7.421875 58.984375 13.28125 
L 51.953125 13.28125 
Q 43.75 13.28125 37.5 12.890625 
L 37.5 19.140625 
Q 43.75 18.75 52.34375 18.75 
L 60.546875 18.75 
Q 61.328125 23.046875 61.328125 26.953125 
L 42.96875 26.953125 
Q 43.359375 32.421875 43.359375 42.1875 
Q 43.359375 52.34375 42.96875 57.421875 
L 89.0625 57.421875 
z
M 33.984375 25.78125 
Q 31.640625 30.859375 26.171875 39.453125 
L 26.171875 4.6875 
Q 26.171875 -4.6875 26.5625 -8.59375 
L 18.359375 -8.59375 
Q 18.75 -4.296875 18.75 3.90625 
L 18.75 34.765625 
Q 17.578125 31.25 15.03125 26.75 
Q 12.5 22.265625 9.375 16.40625 
Q 7.03125 19.921875 3.125 22.265625 
Q 9.375 28.515625 13.28125 37.890625 
Q 17.1875 47.265625 18.359375 53.515625 
L 14.84375 53.515625 
Q 10.9375 53.515625 6.25 53.125 
L 6.25 59.765625 
Q 10.546875 59.375 12.890625 59.375 
L 18.75 59.375 
L 18.75 67.96875 
Q 18.75 74.609375 18.359375 80.46875 
L 26.5625 80.46875 
Q 26.171875 75.390625 26.171875 69.140625 
L 26.171875 59.375 
Q 32.421875 59.375 37.109375 59.765625 
L 37.109375 53.125 
Q 32.03125 53.515625 26.171875 53.515625 
L 26.171875 40.234375 
Q 28.90625 41.796875 31.25 43.359375 
Q 33.59375 39.453125 35.734375 36.328125 
Q 37.890625 33.203125 39.84375 30.078125 
Q 36.328125 27.734375 33.984375 25.78125 
z
M 52.734375 67.1875 
L 49.609375 67.1875 
Q 42.1875 67.1875 37.890625 66.796875 
L 37.890625 73.046875 
Q 42.1875 72.65625 49.21875 72.65625 
L 52.734375 72.65625 
Q 52.734375 78.125 52.34375 81.640625 
L 59.765625 81.640625 
Q 59.375 78.125 59.375 72.65625 
L 71.09375 72.65625 
Q 71.09375 77.734375 70.703125 81.25 
L 78.515625 81.25 
Q 78.125 76.953125 78.125 72.65625 
L 83.984375 72.65625 
Q 88.28125 72.65625 92.96875 73.046875 
L 92.96875 66.796875 
Q 88.28125 67.1875 83.984375 67.1875 
L 78.125 67.1875 
L 78.125 60.15625 
L 71.09375 60.15625 
L 71.09375 67.1875 
L 59.375 67.1875 
L 59.375 60.546875 
L 52.734375 60.546875 
z
M 82.421875 32.421875 
L 82.421875 39.453125 
L 50 39.453125 
L 50 32.421875 
z
M 82.421875 44.921875 
L 82.421875 51.953125 
L 50 51.953125 
L 50 44.921875 
z
" id="SimHei-27169"/>
       <path d="M 46.875 71.09375 
L 5.46875 -2.734375 
L 1.5625 -0.390625 
L 42.96875 73.4375 
z
" id="SimHei-47"/>
       <path d="M 81.640625 70.3125 
L 81.640625 63.671875 
Q 76.171875 60.15625 64.640625 43.359375 
Q 53.125 26.5625 48.046875 14.453125 
Q 42.96875 2.34375 50.390625 1.171875 
Q 57.8125 0 69.140625 0.390625 
Q 80.46875 0.78125 82.03125 4.09375 
Q 83.59375 7.421875 84.375 16.40625 
Q 89.0625 13.28125 93.359375 12.5 
Q 91.40625 3.515625 90.234375 0.578125 
Q 89.0625 -2.34375 85.546875 -4.296875 
Q 82.03125 -6.25 62.890625 -6.4375 
Q 43.75 -6.640625 39.84375 -0.578125 
Q 35.9375 5.46875 40.234375 16.015625 
Q 44.53125 26.5625 53.515625 40.234375 
Q 62.5 53.90625 68.75 62.5 
L 51.953125 62.5 
Q 42.578125 62.5 37.109375 62.109375 
L 37.109375 70.703125 
Q 42.1875 70.3125 51.953125 70.3125 
z
M 36.328125 76.953125 
Q 35.15625 75.390625 32.8125 70.703125 
Q 30.46875 66.015625 28.125 59.765625 
L 28.125 9.375 
Q 28.125 -3.125 28.515625 -9.765625 
L 19.921875 -9.765625 
Q 20.3125 -3.515625 20.3125 8.984375 
L 20.3125 46.09375 
Q 15.234375 37.5 9.765625 29.6875 
Q 7.03125 33.984375 4.296875 36.328125 
Q 12.890625 46.484375 18.9375 59.171875 
Q 25 71.875 27.734375 81.25 
Q 31.640625 78.90625 36.328125 76.953125 
z
" id="SimHei-20159"/>
       <path d="M 76.5625 49.609375 
Q 81.25 49.609375 88.28125 50 
L 88.28125 41.796875 
Q 81.25 42.1875 76.5625 42.1875 
L 63.671875 42.1875 
L 63.671875 6.640625 
Q 63.671875 1.171875 69.53125 1.171875 
L 80.859375 1.171875 
Q 84.765625 1.171875 86.328125 12.109375 
Q 90.625 9.375 94.921875 8.59375 
Q 92.96875 -5.078125 82.8125 -5.859375 
L 64.84375 -5.859375 
Q 55.859375 -5.859375 55.859375 3.515625 
L 55.859375 42.1875 
L 41.796875 42.1875 
Q 43.359375 6.25 14.0625 -9.375 
Q 11.328125 -5.859375 6.25 -2.734375 
Q 35.15625 7.8125 33.59375 42.1875 
L 23.4375 42.1875 
Q 17.578125 42.1875 10.15625 41.796875 
L 10.15625 50 
Q 17.578125 49.609375 23.4375 49.609375 
z
M 69.53125 74.609375 
Q 73.046875 74.609375 80.46875 75 
L 80.46875 67.578125 
Q 73.4375 67.96875 69.53125 67.96875 
L 29.296875 67.96875 
Q 24.609375 67.96875 18.75 67.578125 
L 18.75 75 
Q 24.609375 74.609375 28.90625 74.609375 
z
" id="SimHei-20803"/>
      </defs>
      <use xlink:href="#SimHei-24066"/>
      <use x="100" xlink:href="#SimHei-22330"/>
      <use x="200" xlink:href="#SimHei-35268"/>
      <use x="300" xlink:href="#SimHei-27169"/>
      <use x="400" xlink:href="#SimHei-47"/>
      <use x="450" xlink:href="#SimHei-20159"/>
      <use x="550" xlink:href="#SimHei-20803"/>
     </g>
    </g>
   </g>
   <g id="patch_9">
    <path d="M 57.6 307.584 
L 57.6 41.472 
" style="fill:none;stroke:#000000;stroke-linecap:square;stroke-linejoin:miter;stroke-width:0.8;"/>
   </g>
   <g id="patch_10">
    <path d="M 57.6 307.584 
L 414.72 307.584 
" style="fill:none;stroke:#000000;stroke-linecap:square;stroke-linejoin:miter;stroke-width:0.8;"/>
   </g>
   <g id="text_17">
    <!-- 2017-2022年中国VR/AR内容和服务市场规模及预测趋势图 -->
    <g transform="translate(86.16 35.472)scale(0.12 -0.12)">
     <defs>
      <path d="M 46.484375 33.203125 
L 1.953125 33.203125 
L 1.953125 39.453125 
L 46.484375 39.453125 
z
" id="SimHei-45"/>
      <path d="M 54.296875 81.25 
Q 53.90625 70.3125 53.90625 60.546875 
L 87.890625 60.546875 
Q 87.5 52.734375 87.5 39.0625 
Q 87.5 25.78125 87.890625 19.140625 
L 79.296875 19.140625 
L 79.296875 25 
L 53.90625 25 
L 53.90625 8.203125 
Q 53.90625 3.515625 54.296875 -9.375 
L 44.921875 -9.375 
Q 45.703125 -2.34375 45.703125 7.03125 
L 45.703125 25 
L 20.3125 25 
L 20.3125 19.140625 
L 11.71875 19.140625 
Q 12.109375 25 12.109375 39.0625 
Q 12.109375 53.515625 11.71875 60.546875 
L 45.703125 60.546875 
Q 45.703125 71.09375 45.3125 81.25 
z
M 79.296875 31.25 
L 79.296875 54.296875 
L 53.90625 54.296875 
L 53.90625 31.25 
z
M 45.703125 31.25 
L 45.703125 54.296875 
L 20.3125 54.296875 
L 20.3125 31.25 
z
" id="SimHei-20013"/>
      <path d="M 90.234375 77.734375 
Q 89.84375 67.96875 89.84375 55.859375 
L 89.84375 14.0625 
Q 89.84375 1.953125 90.234375 -9.765625 
L 82.421875 -9.765625 
L 82.421875 -4.296875 
L 17.578125 -4.296875 
L 17.578125 -10.15625 
L 9.765625 -10.15625 
Q 10.15625 1.953125 10.15625 14.84375 
L 10.15625 55.859375 
Q 10.15625 67.578125 9.765625 77.734375 
L 90.234375 77.734375 
z
M 82.421875 1.5625 
L 82.421875 71.875 
L 17.578125 71.875 
L 17.578125 1.5625 
z
M 62.109375 61.328125 
Q 67.96875 61.328125 74.609375 61.71875 
L 74.609375 54.6875 
Q 68.75 55.078125 62.109375 55.078125 
L 52.34375 55.078125 
L 52.34375 42.1875 
L 59.375 42.1875 
Q 66.40625 42.1875 72.65625 42.578125 
L 72.65625 35.546875 
Q 66.40625 35.9375 59.375 35.9375 
L 52.34375 35.9375 
L 52.34375 18.359375 
L 63.28125 18.359375 
Q 70.3125 18.359375 76.5625 18.75 
L 76.5625 11.71875 
Q 70.703125 12.109375 63.28125 12.109375 
L 36.71875 12.109375 
Q 30.078125 12.109375 23.4375 11.71875 
L 23.4375 18.75 
Q 30.078125 18.359375 36.71875 18.359375 
L 45.3125 18.359375 
L 45.3125 35.9375 
L 39.84375 35.9375 
Q 33.203125 35.9375 27.34375 35.546875 
L 27.34375 42.578125 
Q 33.203125 42.1875 39.84375 42.1875 
L 45.3125 42.1875 
L 45.3125 55.078125 
L 39.453125 55.078125 
Q 32.421875 55.078125 25.78125 54.6875 
L 25.78125 61.71875 
Q 32.421875 61.328125 39.453125 61.328125 
z
M 63.28125 33.203125 
Q 65.234375 31.25 71.09375 25 
Q 67.1875 22.65625 64.453125 20.703125 
Q 63.28125 22.265625 57.8125 28.90625 
Q 60.9375 31.25 63.28125 33.203125 
z
" id="SimHei-22269"/>
      <path d="M 47.65625 68.75 
L 28.125 1.171875 
L 20.3125 1.171875 
L 0.78125 68.75 
L 10.15625 68.75 
L 23.828125 17.578125 
L 24.609375 17.578125 
L 38.28125 68.75 
z
" id="SimHei-86"/>
      <path d="M 46.875 1.953125 
L 37.5 1.953125 
L 23.4375 30.859375 
L 13.28125 30.859375 
L 13.28125 1.953125 
L 4.296875 1.953125 
L 4.296875 68.75 
L 23.828125 68.75 
Q 33.203125 68.75 39.0625 64.25 
Q 44.921875 59.765625 44.921875 49.609375 
Q 44.921875 41.796875 41.015625 37.5 
Q 37.109375 33.203125 32.03125 32.03125 
z
M 35.9375 49.609375 
Q 35.9375 55.078125 32.609375 58.203125 
Q 29.296875 61.328125 21.875 61.328125 
L 13.28125 61.328125 
L 13.28125 38.28125 
L 24.21875 38.28125 
Q 28.90625 38.28125 32.421875 40.8125 
Q 35.9375 43.359375 35.9375 49.609375 
z
" id="SimHei-82"/>
      <path d="M 48.046875 1.953125 
L 38.671875 1.953125 
L 33.203125 22.65625 
L 16.015625 22.65625 
L 10.546875 1.953125 
L 1.171875 1.953125 
L 20.703125 69.53125 
L 28.515625 69.53125 
z
M 31.25 30.078125 
L 25 53.90625 
L 24.21875 53.90625 
L 17.96875 30.078125 
z
" id="SimHei-65"/>
      <path d="M 22.265625 20.3125 
Q 33.984375 28.515625 39.640625 37.109375 
Q 45.3125 45.703125 45.703125 58.59375 
L 19.140625 58.59375 
L 19.140625 -7.8125 
L 10.15625 -7.8125 
Q 10.9375 0 10.9375 5.46875 
L 10.9375 48.828125 
Q 10.9375 56.640625 10.546875 65.234375 
L 46.09375 65.234375 
Q 46.09375 75.78125 45.703125 80.859375 
Q 51.953125 80.46875 55.46875 80.46875 
Q 53.515625 75.390625 53.515625 65.234375 
L 90.234375 65.234375 
Q 89.453125 57.03125 89.453125 48.828125 
L 89.453125 1.171875 
Q 89.453125 -4.6875 84.765625 -6.046875 
Q 80.078125 -7.421875 71.875 -8.59375 
Q 70.703125 -4.6875 66.40625 0 
Q 75.78125 0 78.515625 0.578125 
Q 81.25 1.171875 81.25 4.296875 
L 81.25 58.59375 
L 53.125 58.59375 
Q 53.125 51.5625 51.953125 44.921875 
Q 55.46875 42.1875 64.453125 35.34375 
Q 73.4375 28.515625 77.34375 24.609375 
Q 73.046875 21.09375 70.703125 18.359375 
Q 64.0625 26.171875 49.609375 37.890625 
Q 42.578125 25.78125 31.25 15.234375 
Q 26.5625 19.140625 22.265625 20.3125 
z
" id="SimHei-20869"/>
      <path d="M 52.34375 42.578125 
Q 62.890625 33.59375 73.234375 28.90625 
Q 83.59375 24.21875 95.3125 22.265625 
Q 91.796875 19.53125 90.625 14.84375 
Q 83.203125 16.796875 75.78125 19.921875 
Q 75.78125 -3.125 76.171875 -8.984375 
L 68.75 -8.984375 
L 68.75 -3.515625 
L 32.03125 -3.515625 
L 32.03125 -10.15625 
L 24.609375 -10.15625 
Q 25 -5.078125 25 19.921875 
Q 17.578125 16.40625 8.59375 12.890625 
Q 7.03125 16.015625 3.515625 19.53125 
Q 20.703125 23.4375 33.390625 33.390625 
Q 46.09375 43.359375 48.828125 51.171875 
Q 52.734375 48.828125 56.25 47.265625 
z
M 89.84375 67.96875 
Q 89.453125 64.453125 89.453125 60.546875 
Q 89.453125 56.640625 89.84375 53.125 
L 82.03125 53.125 
L 82.03125 62.5 
L 18.75 62.5 
L 18.75 52.734375 
L 10.9375 52.734375 
Q 11.328125 57.03125 11.328125 60.546875 
Q 11.328125 64.453125 10.9375 67.96875 
z
M 68.75 2.34375 
L 68.75 16.015625 
L 32.03125 16.015625 
L 32.03125 2.34375 
z
M 72.265625 21.875 
Q 60.546875 26.5625 48.4375 37.890625 
Q 39.453125 28.90625 27.34375 21.875 
z
M 62.5 58.203125 
Q 80.859375 48.046875 86.71875 44.53125 
Q 83.984375 41.40625 82.03125 38.28125 
Q 68.75 47.265625 58.203125 52.734375 
Q 61.328125 55.859375 62.5 58.203125 
z
M 12.109375 43.359375 
Q 29.296875 50.390625 36.328125 57.8125 
Q 37.5 55.859375 41.40625 51.953125 
Q 26.953125 42.1875 17.1875 37.890625 
Q 15.234375 41.015625 12.109375 43.359375 
z
M 41.40625 78.515625 
Q 44.53125 80.078125 48.828125 82.8125 
Q 53.125 77.34375 55.859375 71.875 
Q 50.390625 69.921875 48.046875 68.359375 
Q 47.65625 69.921875 41.40625 78.515625 
z
" id="SimHei-23481"/>
      <path d="M 91.796875 65.625 
Q 91.40625 57.8125 91.40625 51.171875 
L 91.40625 10.9375 
Q 91.40625 3.90625 91.796875 -0.390625 
L 83.984375 -0.390625 
L 83.984375 8.984375 
L 65.234375 8.984375 
L 65.234375 -1.171875 
L 57.8125 -1.171875 
Q 58.203125 7.8125 58.203125 9.765625 
L 58.203125 51.171875 
Q 58.203125 57.8125 57.8125 65.625 
L 91.796875 65.625 
z
M 51.171875 69.53125 
Q 47.65625 69.53125 35.15625 67.578125 
L 35.15625 50 
L 41.015625 50 
Q 46.875 50 53.515625 50.390625 
L 53.515625 43.359375 
Q 46.875 43.75 41.40625 43.75 
L 35.15625 43.75 
L 35.15625 3.515625 
Q 35.15625 -3.125 35.546875 -8.59375 
L 27.734375 -8.59375 
Q 28.125 -2.34375 28.125 3.515625 
L 28.125 28.90625 
Q 22.265625 17.96875 10.546875 3.90625 
Q 8.59375 6.640625 4.296875 9.375 
Q 12.890625 17.578125 19.328125 28.3125 
Q 25.78125 39.0625 26.5625 43.75 
L 19.53125 43.75 
Q 10.9375 43.75 7.03125 43.359375 
L 7.03125 50.390625 
Q 11.328125 50 19.53125 50 
L 28.125 50 
L 28.125 66.40625 
Q 23.046875 65.625 12.109375 64.453125 
Q 11.328125 68.359375 9.765625 71.484375 
Q 17.1875 71.875 28.515625 73.4375 
Q 39.84375 75 47.65625 78.125 
Q 48.4375 73.828125 51.171875 69.53125 
z
M 83.984375 15.234375 
L 83.984375 58.984375 
L 65.234375 58.984375 
L 65.234375 15.234375 
z
M 48.046875 15.625 
Q 42.96875 25.390625 36.328125 32.8125 
Q 38.671875 34.375 42.1875 37.5 
Q 49.609375 29.296875 54.6875 20.703125 
Q 50.78125 18.359375 48.046875 15.625 
z
" id="SimHei-21644"/>
      <path d="M 57.8125 -8.984375 
L 50.390625 -8.984375 
Q 50.78125 0.390625 50.78125 8.59375 
L 50.78125 62.890625 
Q 50.78125 69.53125 50.390625 77.34375 
L 86.71875 77.34375 
Q 86.328125 71.875 85.9375 65.421875 
Q 85.546875 58.984375 84.765625 55.65625 
Q 83.984375 52.34375 80.078125 50.78125 
Q 76.171875 49.21875 69.921875 48.4375 
Q 68.75 53.125 66.40625 56.25 
Q 76.171875 56.25 77.34375 58.390625 
Q 78.515625 60.546875 78.515625 70.703125 
L 57.8125 70.703125 
L 57.8125 44.53125 
L 90.234375 44.53125 
Q 88.671875 34.375 86.328125 26.359375 
Q 83.984375 18.359375 80.078125 10.546875 
Q 86.71875 2.734375 95.3125 -1.171875 
Q 92.578125 -3.515625 89.84375 -7.8125 
Q 82.421875 -2.734375 75.78125 4.6875 
Q 71.09375 -1.953125 62.890625 -9.375 
Q 60.9375 -5.859375 58.59375 -3.125 
Q 64.0625 0.78125 70.703125 10.15625 
Q 65.625 16.796875 60.546875 37.890625 
L 57.8125 37.890625 
z
M 41.796875 76.953125 
Q 41.40625 73.828125 41.40625 62.5 
L 41.40625 4.6875 
Q 41.40625 -3.515625 37.890625 -5.265625 
Q 34.375 -7.03125 28.125 -8.59375 
Q 26.5625 -2.734375 24.21875 0.78125 
Q 29.6875 0.78125 32.03125 1.171875 
Q 34.375 1.5625 34.375 7.03125 
L 34.375 26.5625 
L 19.140625 26.5625 
Q 18.359375 16.796875 16.40625 8.59375 
Q 14.453125 0.390625 10.9375 -7.421875 
Q 7.8125 -4.6875 3.515625 -2.734375 
Q 8.203125 5.859375 9.953125 13.46875 
Q 11.71875 21.09375 12.296875 28.90625 
Q 12.890625 36.71875 12.890625 53.515625 
Q 12.890625 70.3125 12.5 76.953125 
L 41.796875 76.953125 
z
M 34.375 33.203125 
L 34.375 48.828125 
L 19.921875 48.828125 
L 19.53125 33.203125 
z
M 34.375 55.46875 
L 34.375 70.3125 
L 19.921875 70.3125 
L 19.921875 55.46875 
z
M 67.578125 37.890625 
Q 70.703125 23.046875 75 16.40625 
Q 79.6875 25.390625 81.640625 37.890625 
L 67.578125 37.890625 
z
" id="SimHei-26381"/>
      <path d="M 44.53125 77.34375 
Q 41.40625 74.609375 39.0625 71.09375 
L 82.421875 71.09375 
Q 78.90625 65.234375 73.234375 58.59375 
Q 67.578125 51.953125 58.984375 46.09375 
Q 64.453125 42.578125 73.828125 40.8125 
Q 83.203125 39.0625 96.09375 38.671875 
Q 92.96875 35.15625 91.796875 30.46875 
Q 80.859375 31.25 70.3125 34.375 
Q 59.765625 37.5 52.734375 41.796875 
Q 40.234375 35.9375 30.078125 33.203125 
Q 19.921875 30.46875 10.15625 28.90625 
Q 8.59375 33.59375 5.46875 37.109375 
Q 14.0625 37.109375 25 39.453125 
Q 35.9375 41.796875 46.484375 46.09375 
Q 38.28125 53.90625 32.421875 62.109375 
Q 25.78125 53.90625 18.75 48.4375 
Q 16.015625 51.5625 11.71875 53.125 
Q 22.65625 60.9375 27.734375 68.15625 
Q 32.8125 75.390625 35.15625 81.640625 
Q 40.234375 78.90625 44.53125 77.34375 
z
M 43.75 25.78125 
Q 44.53125 30.46875 44.53125 36.71875 
Q 49.21875 35.9375 53.90625 35.546875 
Q 52.734375 33.203125 51.5625 25.78125 
L 83.203125 25.78125 
Q 82.8125 21.09375 82.421875 15.03125 
Q 82.03125 8.984375 81.046875 1.953125 
Q 80.078125 -5.078125 75.390625 -6.25 
Q 70.703125 -7.421875 60.546875 -8.59375 
Q 59.765625 -3.515625 56.640625 0 
Q 67.96875 0 70.3125 0.78125 
Q 72.65625 1.5625 73.4375 5.078125 
L 74.609375 19.921875 
L 50.78125 19.921875 
Q 45.3125 3.125 35.34375 -1.953125 
Q 25.390625 -7.03125 14.0625 -10.9375 
Q 12.890625 -7.421875 8.59375 -2.734375 
Q 17.96875 -1.953125 28.125 3.125 
Q 38.28125 8.203125 42.578125 19.921875 
L 33.59375 19.921875 
Q 21.875 19.921875 16.40625 19.140625 
L 16.40625 26.171875 
Q 22.265625 25.78125 33.984375 25.78125 
z
M 53.125 50.390625 
Q 60.9375 55.078125 68.359375 65.234375 
L 39.0625 65.234375 
Q 46.484375 55.46875 53.125 50.390625 
z
" id="SimHei-21153"/>
      <path d="M 80.46875 75 
Q 78.125 70.703125 74.40625 63.078125 
Q 70.703125 55.46875 66.796875 48.828125 
L 85.546875 48.828125 
Q 80.078125 32.8125 75.578125 25.1875 
Q 71.09375 17.578125 66.40625 12.109375 
Q 70.703125 8.984375 79.09375 5.46875 
Q 87.5 1.953125 96.09375 0 
Q 91.796875 -4.6875 90.625 -8.203125 
Q 76.171875 -3.515625 60.9375 7.03125 
Q 52.734375 0.78125 44.328125 -2.53125 
Q 35.9375 -5.859375 26.171875 -8.59375 
Q 25.390625 -6.640625 21.484375 -1.953125 
Q 43.75 2.734375 55.078125 11.71875 
Q 49.609375 17.578125 44.53125 24.796875 
Q 39.453125 32.03125 35.546875 39.0625 
Q 33.984375 32.421875 31.640625 26.359375 
Q 29.296875 20.3125 26.359375 15.03125 
Q 23.4375 9.765625 19.921875 5.265625 
Q 16.40625 0.78125 9.765625 -6.25 
Q 7.8125 -3.515625 3.90625 0.390625 
Q 13.671875 7.8125 19.53125 17.96875 
Q 25.390625 28.125 27.734375 37.296875 
Q 30.078125 46.484375 31.046875 54.875 
Q 32.03125 63.28125 32.03125 68.75 
L 27.34375 68.75 
Q 21.484375 68.75 14.453125 68.359375 
L 14.453125 75.390625 
Q 21.484375 75 27.34375 75 
z
M 37.5 48.828125 
Q 41.015625 41.796875 48.4375 31.25 
Q 55.859375 20.703125 60.546875 16.796875 
Q 64.0625 20.3125 67.96875 26.75 
Q 71.875 33.203125 75.390625 42.578125 
L 55.078125 42.578125 
Q 57.8125 46.875 60.9375 52.921875 
Q 64.0625 58.984375 68.359375 68.75 
L 39.453125 68.75 
Q 39.0625 62.5 37.5 48.828125 
z
" id="SimHei-21450"/>
      <path d="M 81.25 75 
Q 87.109375 75 92.96875 75.390625 
L 92.96875 68.75 
Q 87.109375 69.140625 81.25 69.140625 
L 70.3125 69.140625 
Q 69.140625 63.28125 67.96875 56.25 
L 89.453125 56.25 
Q 89.0625 50.390625 89.0625 43.75 
L 89.0625 26.953125 
Q 89.0625 20.3125 89.453125 13.28125 
L 82.03125 13.28125 
L 82.03125 50.390625 
L 55.46875 50.390625 
L 55.46875 12.5 
L 48.046875 12.5 
Q 48.4375 21.484375 48.4375 26.953125 
L 48.4375 43.359375 
Q 48.4375 49.609375 48.046875 56.25 
L 60.9375 56.25 
Q 62.5 64.84375 62.5 69.140625 
L 58.203125 69.140625 
Q 51.5625 69.140625 44.53125 68.75 
L 44.53125 75.390625 
Q 51.953125 75 58.203125 75 
z
M 40.625 27.734375 
Q 36.71875 28.515625 33.59375 28.515625 
Q 35.15625 35.15625 35.9375 38.28125 
L 27.34375 38.28125 
L 27.34375 1.953125 
Q 26.953125 -4.6875 22.265625 -6.25 
Q 17.578125 -7.8125 11.71875 -7.8125 
Q 10.9375 -3.515625 8.984375 0.390625 
Q 17.578125 -0.390625 18.9375 0.578125 
Q 20.3125 1.5625 20.3125 5.46875 
L 20.3125 38.28125 
L 16.015625 38.28125 
Q 10.9375 38.28125 5.46875 37.890625 
L 5.46875 44.53125 
Q 10.9375 44.140625 15.625 44.140625 
L 44.53125 44.140625 
Q 42.578125 36.328125 40.625 27.734375 
z
M 73.828125 44.921875 
Q 72.265625 40.234375 71.875 32.8125 
Q 71.484375 25.390625 69.71875 16.203125 
Q 67.96875 7.03125 61.90625 0.96875 
Q 55.859375 -5.078125 45.703125 -10.546875 
Q 42.1875 -7.8125 38.671875 -5.46875 
Q 48.046875 -1.953125 53.703125 3.125 
Q 59.375 8.203125 61.71875 14.640625 
Q 64.0625 21.09375 64.640625 28.90625 
Q 65.234375 36.71875 65.234375 45.703125 
L 73.828125 44.921875 
z
M 25.390625 45.3125 
Q 19.921875 51.171875 12.5 57.03125 
Q 14.453125 58.984375 16.796875 61.71875 
Q 19.53125 59.765625 22.265625 57.421875 
Q 27.34375 64.84375 30.46875 68.359375 
L 21.875 68.359375 
Q 14.0625 68.359375 7.03125 67.96875 
L 7.03125 74.609375 
Q 14.0625 74.21875 21.484375 74.21875 
L 40.234375 74.21875 
L 40.234375 68.359375 
Q 34.375 64.0625 26.953125 53.125 
L 30.46875 50 
Q 27.34375 47.265625 25.390625 45.3125 
z
M 74.609375 11.328125 
Q 89.453125 0 94.921875 -5.078125 
Q 91.40625 -7.8125 89.453125 -10.15625 
Q 84.375 -5.078125 80.265625 -1.359375 
Q 76.171875 2.34375 70.703125 5.46875 
Q 72.65625 8.203125 74.609375 11.328125 
z
" id="SimHei-39044"/>
      <path d="M 62.890625 73.828125 
Q 62.5 69.921875 62.5 62.5 
L 62.5 34.765625 
Q 62.5 27.734375 62.890625 21.09375 
L 55.46875 21.09375 
L 55.46875 67.578125 
L 36.71875 67.578125 
L 36.71875 20.703125 
L 29.6875 20.703125 
Q 30.078125 27.734375 30.078125 34.765625 
L 30.078125 62.5 
Q 30.078125 65.625 29.6875 73.828125 
L 62.890625 73.828125 
z
M 92.1875 79.296875 
Q 91.796875 75 91.796875 68.359375 
L 91.796875 0 
Q 91.796875 -5.078125 88.28125 -6.640625 
Q 84.765625 -8.203125 77.734375 -9.375 
Q 76.953125 -5.078125 74.609375 -0.78125 
Q 80.078125 -0.78125 82.21875 -0.390625 
Q 84.375 0 84.375 3.90625 
L 84.375 68.359375 
Q 84.375 74.609375 83.984375 79.296875 
L 92.1875 79.296875 
z
M 51.171875 58.203125 
Q 50.390625 53.125 50 36.328125 
Q 49.609375 19.53125 44.328125 8.59375 
Q 39.0625 -2.34375 32.421875 -9.375 
Q 28.90625 -6.25 25 -5.078125 
Q 34.375 3.90625 38.671875 15.03125 
Q 42.96875 26.171875 43.15625 38.671875 
Q 43.359375 51.171875 42.578125 59.375 
Q 46.875 58.59375 51.171875 58.203125 
z
M 77.34375 66.796875 
Q 76.953125 62.5 76.953125 55.859375 
L 76.953125 28.515625 
Q 76.953125 20.3125 77.34375 13.28125 
L 69.53125 13.28125 
Q 69.921875 17.96875 69.921875 28.515625 
L 69.921875 55.859375 
Q 69.921875 62.5 69.53125 66.796875 
L 77.34375 66.796875 
z
M 26.5625 26.171875 
Q 21.484375 16.796875 17.375 7.609375 
Q 13.28125 -1.5625 11.328125 -6.25 
Q 7.8125 -3.125 3.125 -0.390625 
Q 7.421875 4.6875 11.90625 13.28125 
Q 16.40625 21.875 19.53125 31.25 
Q 23.046875 28.515625 26.5625 26.171875 
z
M 53.125 16.40625 
Q 59.375 10.15625 67.1875 -1.953125 
Q 64.0625 -3.515625 60.546875 -7.03125 
Q 54.296875 4.296875 47.265625 11.71875 
Q 50.390625 13.671875 53.125 16.40625 
z
M 9.375 55.078125 
Q 17.578125 48.828125 23.4375 43.359375 
Q 20.3125 40.234375 17.96875 37.109375 
Q 12.890625 43.359375 4.6875 49.21875 
Q 7.03125 51.5625 9.375 55.078125 
z
M 21.09375 62.5 
Q 14.84375 68.359375 7.421875 73.046875 
Q 9.765625 75.78125 12.109375 78.90625 
Q 20.3125 73.4375 26.171875 68.359375 
Q 23.4375 66.40625 21.09375 62.5 
z
" id="SimHei-27979"/>
      <path d="M 93.75 -7.8125 
Q 77.34375 -8.203125 66.203125 -7.8125 
Q 55.078125 -7.421875 46.09375 -5.46875 
Q 37.109375 -3.515625 30.46875 0.390625 
Q 23.828125 4.296875 17.1875 10.9375 
Q 13.671875 -2.34375 9.765625 -9.375 
Q 6.25 -4.6875 3.515625 -3.515625 
Q 7.8125 2.734375 9.375 9.171875 
Q 10.9375 15.625 11.515625 21.484375 
Q 12.109375 27.34375 12.109375 31.640625 
Q 16.015625 30.46875 20.703125 30.078125 
Q 18.75 24.21875 18.75 19.53125 
Q 18.75 14.84375 26.5625 9.765625 
L 26.5625 40.625 
Q 13.28125 40.625 6.25 40.234375 
L 6.25 46.484375 
Q 13.671875 46.09375 24.609375 46.09375 
L 24.609375 61.328125 
Q 16.40625 61.328125 9.375 60.9375 
L 9.375 67.578125 
Q 16.40625 67.1875 24.609375 67.1875 
Q 24.609375 74.21875 24.21875 81.25 
L 32.03125 81.25 
Q 31.640625 75 31.640625 67.1875 
Q 37.5 67.1875 43.75 67.578125 
L 43.75 60.9375 
Q 37.109375 61.328125 31.640625 61.328125 
L 31.640625 46.09375 
Q 39.84375 46.09375 46.875 46.484375 
L 46.875 40.234375 
Q 39.84375 40.625 33.59375 40.625 
L 33.59375 27.734375 
Q 38.671875 27.734375 44.53125 28.125 
L 44.53125 21.875 
Q 39.0625 22.265625 33.59375 22.265625 
L 33.59375 5.46875 
Q 45.703125 -0.78125 64.84375 -0.78125 
Q 84.375 -0.78125 96.875 1.171875 
Q 94.140625 -3.125 93.75 -7.8125 
z
M 92.1875 7.03125 
Q 58.59375 7.03125 51.171875 6.640625 
L 51.171875 13.671875 
Q 58.59375 13.28125 84.375 13.28125 
L 84.375 25.390625 
Q 60.15625 25.390625 54.296875 25 
L 54.296875 31.640625 
Q 60.15625 31.25 84.375 31.25 
L 84.375 44.921875 
L 63.671875 44.921875 
Q 58.984375 44.921875 53.515625 44.53125 
L 53.515625 49.21875 
L 52.34375 47.265625 
Q 49.21875 51.5625 45.703125 52.734375 
Q 51.953125 60.546875 55.859375 68.546875 
Q 59.765625 76.5625 61.328125 82.03125 
Q 66.015625 80.078125 69.921875 79.296875 
Q 67.96875 76.5625 64.84375 70.3125 
L 89.84375 70.3125 
Q 82.03125 57.421875 78.515625 50.390625 
L 92.1875 50.390625 
Q 91.796875 43.359375 91.796875 28.125 
Q 91.796875 13.28125 92.1875 7.03125 
z
M 54.296875 50.78125 
Q 58.984375 50.390625 64.0625 50.390625 
L 70.703125 50.390625 
Q 73.046875 55.078125 78.515625 64.84375 
L 62.109375 64.84375 
Q 57.03125 55.078125 54.296875 50.78125 
z
" id="SimHei-36235"/>
      <path d="M 42.1875 23.4375 
Q 42.578125 26.5625 42.578125 30.078125 
Q 48.046875 28.90625 51.171875 28.515625 
Q 50.390625 26.5625 50 23.4375 
L 83.203125 23.4375 
Q 82.8125 17.96875 81.828125 10.34375 
Q 80.859375 2.734375 79.296875 -0.96875 
Q 77.734375 -4.6875 74.015625 -5.859375 
Q 70.3125 -7.03125 59.765625 -8.203125 
Q 59.375 -4.296875 55.46875 0.390625 
Q 67.578125 -0.390625 69.921875 0.96875 
Q 72.265625 2.34375 73.046875 5.46875 
Q 73.828125 8.59375 74.609375 17.1875 
L 48.828125 17.1875 
Q 44.53125 5.078125 35.15625 -0.1875 
Q 25.78125 -5.46875 12.109375 -9.375 
Q 10.546875 -5.078125 6.25 -1.953125 
Q 16.40625 -0.78125 26.359375 3.515625 
Q 36.328125 7.8125 40.625 17.1875 
L 24.21875 17.1875 
Q 16.796875 17.1875 10.15625 16.796875 
L 10.15625 23.828125 
Q 16.796875 23.4375 24.21875 23.4375 
z
M 36.71875 35.15625 
Q 47.265625 39.0625 52.34375 47.65625 
Q 49.609375 49.609375 44.53125 51.953125 
Q 47.265625 54.296875 48.4375 57.421875 
L 54.6875 53.515625 
Q 55.46875 56.640625 56.25 63.671875 
Q 50.390625 63.671875 45.703125 62.890625 
L 44.921875 69.140625 
L 56.25 69.140625 
Q 56.25 76.5625 55.46875 81.25 
Q 58.984375 80.46875 64.453125 80.078125 
Q 63.28125 76.171875 63.28125 69.53125 
L 82.421875 69.921875 
Q 81.25 62.109375 80.859375 53.90625 
Q 80.46875 45.703125 82.21875 41.40625 
Q 83.984375 37.109375 85.734375 36.515625 
Q 87.5 35.9375 87.5 45.703125 
Q 90.625 42.578125 95.703125 41.796875 
Q 93.359375 32.421875 91.796875 30.078125 
Q 90.234375 27.734375 87.5 27.34375 
Q 84.765625 26.953125 79.875 31.25 
Q 75 35.546875 73.828125 43.75 
Q 72.65625 51.953125 73.828125 64.0625 
L 63.28125 63.671875 
Q 62.5 55.078125 61.71875 50 
Q 64.84375 48.046875 69.53125 45.3125 
Q 66.015625 42.578125 64.0625 39.84375 
Q 61.328125 42.1875 58.984375 43.75 
Q 53.125 36.328125 44.53125 30.46875 
Q 41.796875 33.203125 36.71875 35.15625 
z
M 39.453125 51.5625 
Q 33.203125 50 30.46875 49.609375 
L 30.46875 35.15625 
Q 30.078125 30.859375 25.96875 29.6875 
Q 21.875 28.515625 15.625 27.34375 
Q 15.234375 31.640625 12.5 35.9375 
Q 21.09375 35.546875 22.265625 36.328125 
Q 23.4375 37.109375 23.4375 41.015625 
L 23.4375 48.046875 
Q 13.671875 45.3125 7.03125 43.359375 
Q 5.859375 47.65625 3.515625 50.390625 
Q 10.546875 51.171875 23.4375 53.90625 
L 23.4375 62.890625 
Q 12.5 62.890625 6.640625 62.5 
L 6.640625 69.53125 
Q 12.5 69.140625 23.4375 69.140625 
Q 23.4375 76.171875 23.046875 80.46875 
L 31.640625 80.46875 
Q 30.46875 76.5625 30.46875 69.140625 
Q 34.375 69.140625 40.234375 69.53125 
L 40.234375 62.5 
Q 34.375 62.890625 30.46875 62.890625 
L 30.46875 55.46875 
Q 35.15625 56.25 39.84375 57.8125 
Q 39.453125 55.078125 39.453125 51.5625 
z
" id="SimHei-21183"/>
      <path d="M 90.625 77.734375 
Q 90.234375 67.96875 90.234375 56.25 
L 90.234375 14.453125 
Q 90.234375 2.34375 90.625 -9.375 
L 82.8125 -9.375 
L 82.8125 -4.296875 
L 17.578125 -4.296875 
L 17.578125 -10.15625 
L 9.765625 -10.15625 
Q 10.15625 1.953125 10.15625 14.84375 
L 10.15625 56.25 
Q 10.15625 67.578125 9.765625 77.734375 
L 90.625 77.734375 
z
M 82.8125 2.34375 
L 82.8125 71.484375 
L 17.578125 71.484375 
L 17.578125 2.34375 
z
M 50.390625 66.40625 
Q 48.046875 64.0625 46.09375 61.328125 
L 72.265625 61.328125 
Q 70.703125 57.8125 67.1875 52.734375 
Q 63.671875 47.65625 56.25 40.625 
Q 67.96875 34.765625 79.296875 33.59375 
Q 76.5625 30.078125 74.609375 26.171875 
Q 60.15625 30.46875 50.390625 36.71875 
Q 39.0625 29.296875 26.171875 25.78125 
Q 25 29.296875 21.875 32.421875 
Q 34.375 34.375 44.921875 40.625 
Q 39.453125 45.703125 37.109375 49.21875 
Q 33.59375 45.3125 29.6875 41.40625 
Q 26.953125 44.53125 23.828125 46.09375 
Q 30.46875 51.5625 35.15625 58.390625 
Q 39.84375 65.234375 41.796875 69.921875 
Q 45.703125 67.96875 50.390625 66.40625 
z
M 38.28125 19.921875 
Q 55.46875 14.84375 64.0625 11.328125 
Q 62.109375 8.203125 60.15625 4.6875 
Q 44.140625 11.328125 35.546875 13.28125 
Q 37.109375 16.40625 38.28125 19.921875 
z
M 45.703125 32.03125 
Q 58.984375 26.5625 63.671875 25 
Q 61.71875 21.875 60.15625 17.96875 
Q 46.875 24.21875 42.1875 25.78125 
Q 44.140625 28.515625 45.703125 32.03125 
z
M 41.015625 53.90625 
Q 46.875 47.265625 51.171875 44.53125 
Q 56.25 48.4375 60.546875 55.078125 
L 41.796875 55.078125 
L 41.015625 53.90625 
z
" id="SimHei-22270"/>
     </defs>
     <use xlink:href="#SimHei-50"/>
     <use x="50" xlink:href="#SimHei-48"/>
     <use x="100" xlink:href="#SimHei-49"/>
     <use x="150" xlink:href="#SimHei-55"/>
     <use x="200" xlink:href="#SimHei-45"/>
     <use x="250" xlink:href="#SimHei-50"/>
     <use x="300" xlink:href="#SimHei-48"/>
     <use x="350" xlink:href="#SimHei-50"/>
     <use x="400" xlink:href="#SimHei-50"/>
     <use x="450" xlink:href="#SimHei-24180"/>
     <use x="550" xlink:href="#SimHei-20013"/>
     <use x="650" xlink:href="#SimHei-22269"/>
     <use x="750" xlink:href="#SimHei-86"/>
     <use x="800" xlink:href="#SimHei-82"/>
     <use x="850" xlink:href="#SimHei-47"/>
     <use x="900" xlink:href="#SimHei-65"/>
     <use x="950" xlink:href="#SimHei-82"/>
     <use x="1000" xlink:href="#SimHei-20869"/>
     <use x="1100" xlink:href="#SimHei-23481"/>
     <use x="1200" xlink:href="#SimHei-21644"/>
     <use x="1300" xlink:href="#SimHei-26381"/>
     <use x="1400" xlink:href="#SimHei-21153"/>
     <use x="1500" xlink:href="#SimHei-24066"/>
     <use x="1600" xlink:href="#SimHei-22330"/>
     <use x="1700" xlink:href="#SimHei-35268"/>
     <use x="1800" xlink:href="#SimHei-27169"/>
     <use x="1900" xlink:href="#SimHei-21450"/>
     <use x="2000" xlink:href="#SimHei-39044"/>
     <use x="2100" xlink:href="#SimHei-27979"/>
     <use x="2200" xlink:href="#SimHei-36235"/>
     <use x="2300" xlink:href="#SimHei-21183"/>
     <use x="2400" xlink:href="#SimHei-22270"/>
    </g>
   </g>
  </g>
 </g>
 <defs>
  <clipPath id="pf33205dcbb">
   <rect height="266.112" width="357.12" x="57.6" y="41.472"/>
  </clipPath>
 </defs>
</svg>
