<?xml version="1.0" encoding="utf-8" standalone="no"?>
<!DOCTYPE svg PUBLIC "-//W3C//DTD SVG 1.1//EN"
  "http://www.w3.org/Graphics/SVG/1.1/DTD/svg11.dtd">
<!-- Created with matplotlib (https://matplotlib.org/) -->
<svg height="345.6pt" version="1.1" viewBox="0 0 460.8 345.6" width="460.8pt" xmlns="http://www.w3.org/2000/svg" xmlns:xlink="http://www.w3.org/1999/xlink">
 <metadata>
  <rdf:RDF xmlns:cc="http://creativecommons.org/ns#" xmlns:dc="http://purl.org/dc/elements/1.1/" xmlns:rdf="http://www.w3.org/1999/02/22-rdf-syntax-ns#">
   <cc:Work>
    <dc:type rdf:resource="http://purl.org/dc/dcmitype/StillImage"/>
    <dc:date>2022-07-26T20:55:40.149109</dc:date>
    <dc:format>image/svg+xml</dc:format>
    <dc:creator>
     <cc:Agent>
      <dc:title>Matplotlib v3.3.4, https://matplotlib.org/</dc:title>
     </cc:Agent>
    </dc:creator>
   </cc:Work>
  </rdf:RDF>
 </metadata>
 <defs>
  <style type="text/css">*{stroke-linecap:butt;stroke-linejoin:round;}</style>
 </defs>
 <g id="figure_1">
  <g id="patch_1">
   <path d="M 0 345.6 
L 460.8 345.6 
L 460.8 0 
L 0 0 
z
" style="fill:#ffffff;"/>
  </g>
  <g id="axes_1">
   <g id="patch_2">
    <path d="M 57.6 307.584 
L 414.72 307.584 
L 414.72 41.472 
L 57.6 41.472 
z
" style="fill:#ffffff;"/>
   </g>
   <g id="patch_3">
    <path clip-path="url(#p0592097708)" d="M 57.6 295.488 
L 187.12166 295.488 
L 187.12166 273.495273 
L 57.6 273.495273 
z
" style="fill:#1f77b4;"/>
   </g>
   <g id="patch_4">
    <path clip-path="url(#p0592097708)" d="M 57.6 267.997091 
L 189.52021 267.997091 
L 189.52021 246.004364 
L 57.6 246.004364 
z
" style="fill:#1f77b4;"/>
   </g>
   <g id="patch_5">
    <path clip-path="url(#p0592097708)" d="M 57.6 240.506182 
L 207.269474 240.506182 
L 207.269474 218.513455 
L 57.6 218.513455 
z
" style="fill:#1f77b4;"/>
   </g>
   <g id="patch_6">
    <path clip-path="url(#p0592097708)" d="M 57.6 213.015273 
L 250.443361 213.015273 
L 250.443361 191.022545 
L 57.6 191.022545 
z
" style="fill:#1f77b4;"/>
   </g>
   <g id="patch_7">
    <path clip-path="url(#p0592097708)" d="M 57.6 185.524364 
L 250.443361 185.524364 
L 250.443361 163.531636 
L 57.6 163.531636 
z
" style="fill:#1f77b4;"/>
   </g>
   <g id="patch_8">
    <path clip-path="url(#p0592097708)" d="M 57.6 158.033455 
L 252.3622 158.033455 
L 252.3622 136.040727 
L 57.6 136.040727 
z
" style="fill:#1f77b4;"/>
   </g>
   <g id="patch_9">
    <path clip-path="url(#p0592097708)" d="M 57.6 130.542545 
L 304.650574 130.542545 
L 304.650574 108.549818 
L 57.6 108.549818 
z
" style="fill:#1f77b4;"/>
   </g>
   <g id="patch_10">
    <path clip-path="url(#p0592097708)" d="M 57.6 103.051636 
L 309.927383 103.051636 
L 309.927383 81.058909 
L 57.6 81.058909 
z
" style="fill:#1f77b4;"/>
   </g>
   <g id="patch_11">
    <path clip-path="url(#p0592097708)" d="M 57.6 75.560727 
L 397.714286 75.560727 
L 397.714286 53.568 
L 57.6 53.568 
z
" style="fill:#1f77b4;"/>
   </g>
   <g id="matplotlib.axis_1">
    <g id="xtick_1">
     <g id="line2d_1">
      <defs>
       <path d="M 0 0 
L 0 3.5 
" id="m6466e049bb" style="stroke:#000000;stroke-width:0.8;"/>
      </defs>
      <g>
       <use style="stroke:#000000;stroke-width:0.8;" x="57.6" xlink:href="#m6466e049bb" y="307.584"/>
      </g>
     </g>
     <g id="text_1">
      <!-- 0 -->
      <g transform="translate(55.1 321.459)scale(0.1 -0.1)">
       <defs>
        <path d="M 3.125 29.296875 
Q 3.90625 50 6.4375 56.046875 
Q 8.984375 62.109375 13.671875 66.015625 
Q 18.359375 69.921875 25.1875 69.921875 
Q 32.03125 69.921875 37.109375 64.25 
Q 42.1875 58.59375 43.75 50 
Q 45.3125 41.40625 44.71875 30.265625 
Q 44.140625 19.140625 40.8125 12.109375 
Q 37.5 5.078125 30.859375 2.34375 
Q 24.21875 -0.390625 17.578125 2.921875 
Q 10.9375 6.25 8.203125 11.71875 
Q 5.46875 17.1875 4.296875 23.234375 
Q 3.125 29.296875 3.90625 50 
z
M 12.890625 52.734375 
Q 10.546875 31.25 12.5 22.84375 
Q 14.453125 14.453125 18.9375 10.9375 
Q 23.4375 7.421875 28.125 9.5625 
Q 32.8125 11.71875 34.953125 18.15625 
Q 37.109375 24.609375 37.109375 32.21875 
Q 37.109375 39.84375 36.515625 46.09375 
Q 35.9375 52.34375 33 57.421875 
Q 30.078125 62.5 25.1875 62.6875 
Q 20.3125 62.890625 16.59375 57.8125 
Q 12.890625 52.734375 10.546875 31.25 
z
" id="SimHei-48"/>
       </defs>
       <use xlink:href="#SimHei-48"/>
      </g>
     </g>
    </g>
    <g id="xtick_2">
     <g id="line2d_2">
      <g>
       <use style="stroke:#000000;stroke-width:0.8;" x="105.570985" xlink:href="#m6466e049bb" y="307.584"/>
      </g>
     </g>
     <g id="text_2">
      <!-- 100 -->
      <g transform="translate(98.070985 321.459)scale(0.1 -0.1)">
       <defs>
        <path d="M 21.875 56.25 
Q 16.796875 51.171875 8.984375 46.484375 
L 8.984375 53.90625 
Q 18.75 60.546875 25 69.53125 
L 29.6875 69.53125 
L 29.6875 2.34375 
L 21.875 2.34375 
z
" id="SimHei-49"/>
       </defs>
       <use xlink:href="#SimHei-49"/>
       <use x="50" xlink:href="#SimHei-48"/>
       <use x="100" xlink:href="#SimHei-48"/>
      </g>
     </g>
    </g>
    <g id="xtick_3">
     <g id="line2d_3">
      <g>
       <use style="stroke:#000000;stroke-width:0.8;" x="153.541971" xlink:href="#m6466e049bb" y="307.584"/>
      </g>
     </g>
     <g id="text_3">
      <!-- 200 -->
      <g transform="translate(146.041971 321.459)scale(0.1 -0.1)">
       <defs>
        <path d="M 4.6875 3.90625 
Q 5.078125 9.765625 10.15625 14.453125 
Q 15.234375 19.140625 23.046875 29.09375 
Q 30.859375 39.0625 33.203125 44.53125 
Q 35.546875 50 34.953125 53.90625 
Q 34.375 57.8125 31.25 60.34375 
Q 28.125 62.890625 24.015625 62.5 
Q 19.921875 62.109375 16.203125 59.375 
Q 12.5 56.640625 10.546875 51.171875 
L 3.125 52.34375 
Q 6.25 61.328125 11.125 65.421875 
Q 16.015625 69.53125 22.65625 69.921875 
Q 26.5625 70.3125 29.6875 69.71875 
Q 32.8125 69.140625 36.125 66.984375 
Q 39.453125 64.84375 41.59375 60.546875 
Q 43.75 56.25 43.15625 50.1875 
Q 42.578125 44.140625 37.109375 35.734375 
Q 31.640625 27.34375 16.015625 9.375 
L 44.140625 9.375 
L 44.140625 2.34375 
L 4.6875 2.34375 
z
" id="SimHei-50"/>
       </defs>
       <use xlink:href="#SimHei-50"/>
       <use x="50" xlink:href="#SimHei-48"/>
       <use x="100" xlink:href="#SimHei-48"/>
      </g>
     </g>
    </g>
    <g id="xtick_4">
     <g id="line2d_4">
      <g>
       <use style="stroke:#000000;stroke-width:0.8;" x="201.512956" xlink:href="#m6466e049bb" y="307.584"/>
      </g>
     </g>
     <g id="text_4">
      <!-- 300 -->
      <g transform="translate(194.012956 321.459)scale(0.1 -0.1)">
       <defs>
        <path d="M 3.90625 19.140625 
L 10.9375 20.3125 
Q 12.5 15.234375 16.015625 11.90625 
Q 19.53125 8.59375 24.796875 8.78125 
Q 30.078125 8.984375 33.203125 13.078125 
Q 36.328125 17.1875 35.9375 22.453125 
Q 35.546875 27.734375 31.828125 30.65625 
Q 28.125 33.59375 19.921875 34.765625 
L 19.921875 39.84375 
Q 28.125 40.625 31.828125 44.140625 
Q 35.546875 47.65625 35.15625 53.3125 
Q 34.765625 58.984375 30.078125 61.515625 
Q 25.390625 64.0625 20.109375 62.109375 
Q 14.84375 60.15625 11.71875 51.171875 
L 4.6875 52.34375 
Q 7.03125 59.375 11.125 64.0625 
Q 15.234375 68.75 22.265625 69.53125 
Q 29.296875 70.3125 34.5625 67.765625 
Q 39.84375 65.234375 41.984375 59.953125 
Q 44.140625 54.6875 42.578125 48.4375 
Q 41.015625 42.1875 33.59375 37.5 
Q 39.0625 35.15625 41.984375 30.46875 
Q 44.921875 25.78125 43.9375 18.15625 
Q 42.96875 10.546875 37.109375 5.859375 
Q 31.25 1.171875 23.828125 1.359375 
Q 16.40625 1.5625 10.9375 6.046875 
Q 5.46875 10.546875 3.90625 19.140625 
z
" id="SimHei-51"/>
       </defs>
       <use xlink:href="#SimHei-51"/>
       <use x="50" xlink:href="#SimHei-48"/>
       <use x="100" xlink:href="#SimHei-48"/>
      </g>
     </g>
    </g>
    <g id="xtick_5">
     <g id="line2d_5">
      <g>
       <use style="stroke:#000000;stroke-width:0.8;" x="249.483941" xlink:href="#m6466e049bb" y="307.584"/>
      </g>
     </g>
     <g id="text_5">
      <!-- 400 -->
      <g transform="translate(241.983941 321.459)scale(0.1 -0.1)">
       <defs>
        <path d="M 31.25 17.1875 
L 1.171875 17.1875 
L 1.171875 23.828125 
L 32.8125 69.53125 
L 38.671875 69.53125 
L 38.671875 23.828125 
L 48.046875 23.828125 
L 48.046875 17.1875 
L 38.671875 17.1875 
L 38.671875 2.34375 
L 31.25 2.34375 
z
M 31.25 23.828125 
L 31.25 54.6875 
L 9.375 23.828125 
z
" id="SimHei-52"/>
       </defs>
       <use xlink:href="#SimHei-52"/>
       <use x="50" xlink:href="#SimHei-48"/>
       <use x="100" xlink:href="#SimHei-48"/>
      </g>
     </g>
    </g>
    <g id="xtick_6">
     <g id="line2d_6">
      <g>
       <use style="stroke:#000000;stroke-width:0.8;" x="297.454926" xlink:href="#m6466e049bb" y="307.584"/>
      </g>
     </g>
     <g id="text_6">
      <!-- 500 -->
      <g transform="translate(289.954926 321.459)scale(0.1 -0.1)">
       <defs>
        <path d="M 8.59375 20.703125 
Q 11.328125 10.15625 17.96875 8.984375 
Q 24.609375 7.8125 28.703125 10.34375 
Q 32.8125 12.890625 34.5625 16.984375 
Q 36.328125 21.09375 36.125 26.171875 
Q 35.9375 31.25 33.390625 34.765625 
Q 30.859375 38.28125 26.953125 39.453125 
Q 23.046875 40.625 18.15625 39.453125 
Q 13.28125 38.28125 10.15625 33.984375 
L 3.515625 34.765625 
Q 4.296875 37.109375 10.9375 68.359375 
L 41.796875 68.359375 
L 41.796875 61.328125 
L 16.796875 61.328125 
Q 14.84375 50.78125 12.890625 44.53125 
Q 18.75 47.265625 23.828125 47.0625 
Q 28.90625 46.875 33.59375 44.71875 
Q 38.28125 42.578125 40.421875 38.859375 
Q 42.578125 35.15625 43.546875 31.4375 
Q 44.53125 27.734375 44.328125 23.4375 
Q 44.140625 19.140625 42.578125 14.640625 
Q 41.015625 10.15625 37.890625 7.21875 
Q 34.765625 4.296875 30.265625 2.53125 
Q 25.78125 0.78125 19.921875 1.171875 
Q 14.0625 1.5625 8.78125 5.46875 
Q 3.515625 9.375 1.5625 18.75 
z
" id="SimHei-53"/>
       </defs>
       <use xlink:href="#SimHei-53"/>
       <use x="50" xlink:href="#SimHei-48"/>
       <use x="100" xlink:href="#SimHei-48"/>
      </g>
     </g>
    </g>
    <g id="xtick_7">
     <g id="line2d_7">
      <g>
       <use style="stroke:#000000;stroke-width:0.8;" x="345.425912" xlink:href="#m6466e049bb" y="307.584"/>
      </g>
     </g>
     <g id="text_7">
      <!-- 600 -->
      <g transform="translate(337.925912 321.459)scale(0.1 -0.1)">
       <defs>
        <path d="M 3.515625 19.53125 
Q 4.296875 30.859375 6.046875 34.765625 
Q 7.8125 38.671875 11.328125 44.53125 
L 27.34375 69.53125 
L 36.328125 69.53125 
L 19.921875 43.75 
Q 30.46875 46.484375 36.71875 42.96875 
Q 42.96875 39.453125 45.109375 34.953125 
Q 47.265625 30.46875 47.453125 25.1875 
Q 47.65625 19.921875 45.890625 14.84375 
Q 44.140625 9.765625 39.640625 5.65625 
Q 35.15625 1.5625 27.140625 1.171875 
Q 19.140625 0.78125 13.46875 4.09375 
Q 7.8125 7.421875 5.65625 13.46875 
Q 3.515625 19.53125 4.296875 30.859375 
z
M 12.5 16.015625 
Q 19.53125 8.59375 25.390625 8.203125 
Q 31.25 7.8125 35.15625 12.109375 
Q 39.0625 16.40625 39.0625 24.609375 
Q 39.0625 32.8125 34.171875 35.9375 
Q 29.296875 39.0625 23.234375 38.28125 
Q 17.1875 37.5 14.453125 32.421875 
Q 11.71875 27.34375 12.109375 21.671875 
Q 12.5 16.015625 19.53125 8.59375 
z
" id="SimHei-54"/>
       </defs>
       <use xlink:href="#SimHei-54"/>
       <use x="50" xlink:href="#SimHei-48"/>
       <use x="100" xlink:href="#SimHei-48"/>
      </g>
     </g>
    </g>
    <g id="xtick_8">
     <g id="line2d_8">
      <g>
       <use style="stroke:#000000;stroke-width:0.8;" x="393.396897" xlink:href="#m6466e049bb" y="307.584"/>
      </g>
     </g>
     <g id="text_8">
      <!-- 700 -->
      <g transform="translate(385.896897 321.459)scale(0.1 -0.1)">
       <defs>
        <path d="M 13.28125 2.34375 
Q 20.3125 32.03125 37.890625 61.328125 
L 4.296875 61.328125 
L 4.296875 68.359375 
L 46.09375 68.359375 
L 46.09375 61.71875 
Q 27.734375 32.03125 21.875 2.34375 
L 13.28125 2.34375 
z
" id="SimHei-55"/>
       </defs>
       <use xlink:href="#SimHei-55"/>
       <use x="50" xlink:href="#SimHei-48"/>
       <use x="100" xlink:href="#SimHei-48"/>
      </g>
     </g>
    </g>
    <g id="text_9">
     <!-- 数量/项 -->
     <g transform="translate(218.66 334.482437)scale(0.1 -0.1)">
      <defs>
       <path d="M 70.703125 76.953125 
Q 69.921875 75 68.75 71.671875 
Q 67.578125 68.359375 65.234375 59.765625 
L 83.203125 59.765625 
Q 87.109375 59.765625 92.578125 60.15625 
L 92.578125 53.125 
Q 88.28125 53.515625 85.9375 53.515625 
Q 85.9375 47.265625 83.78125 33.78125 
Q 81.640625 20.3125 76.171875 10.546875 
Q 80.078125 5.859375 84.953125 2.140625 
Q 89.84375 -1.5625 94.140625 -3.125 
Q 89.453125 -6.640625 87.890625 -9.765625 
Q 83.203125 -7.03125 79.296875 -3.515625 
Q 75.390625 0 71.484375 5.078125 
Q 67.1875 0.390625 62.296875 -2.921875 
Q 57.421875 -6.25 50 -10.15625 
Q 48.046875 -6.640625 44.53125 -4.6875 
Q 50.390625 -2.34375 57.03125 1.953125 
Q 63.671875 6.25 67.1875 10.546875 
Q 64.453125 16.015625 61.90625 22.265625 
Q 59.375 28.515625 57.421875 38.671875 
Q 56.25 35.546875 53.515625 30.46875 
Q 50.78125 32.03125 46.875 33.59375 
Q 53.125 44.53125 57.03125 57.421875 
Q 60.9375 70.3125 62.109375 79.6875 
Q 66.796875 77.734375 70.703125 76.953125 
z
M 32.8125 35.15625 
Q 31.25 33.59375 29.296875 30.078125 
L 50.78125 30.078125 
Q 48.4375 20.3125 42.578125 10.546875 
Q 48.828125 8.203125 52.34375 6.25 
Q 50.390625 3.515625 48.828125 0.390625 
Q 45.3125 2.734375 38.28125 5.078125 
Q 30.46875 -3.515625 11.328125 -10.15625 
Q 9.375 -5.859375 6.25 -4.296875 
Q 24.609375 0 31.25 7.421875 
Q 20.3125 10.15625 13.28125 12.109375 
Q 15.625 15.625 19.53125 23.828125 
Q 15.625 23.828125 6.640625 23.4375 
L 6.640625 30.46875 
Q 14.0625 30.078125 21.875 30.078125 
Q 23.4375 33.59375 24.21875 37.890625 
Q 28.515625 36.328125 32.8125 35.15625 
z
M 27.734375 61.71875 
Q 27.734375 71.09375 27.34375 79.6875 
L 35.15625 79.6875 
Q 34.765625 71.484375 34.765625 61.71875 
Q 48.046875 61.71875 53.515625 62.109375 
L 53.515625 55.078125 
Q 48.046875 55.46875 34.765625 55.46875 
Q 34.765625 44.140625 35.15625 37.890625 
L 27.34375 37.890625 
Q 27.734375 43.359375 27.734375 51.5625 
Q 25.78125 48.4375 20.3125 43.546875 
Q 14.84375 38.671875 10.15625 35.9375 
Q 8.203125 39.453125 4.296875 41.015625 
Q 7.8125 42.1875 13.671875 46.484375 
Q 19.53125 50.78125 22.65625 55.46875 
Q 14.84375 55.46875 7.8125 55.078125 
L 7.8125 62.109375 
Q 14.453125 61.71875 27.734375 61.71875 
z
M 62.109375 49.609375 
Q 65.625 26.5625 71.875 17.578125 
Q 75.78125 26.5625 77.140625 35.734375 
Q 78.515625 44.921875 78.90625 53.515625 
L 63.671875 53.515625 
L 62.109375 49.609375 
z
M 22.65625 15.625 
Q 27.34375 14.453125 35.546875 12.5 
Q 38.671875 16.40625 41.40625 23.828125 
L 26.953125 23.828125 
Q 25 19.921875 22.65625 15.625 
z
M 51.953125 75.390625 
Q 50 72.265625 48.828125 69.53125 
Q 47.65625 66.796875 45.703125 62.890625 
Q 42.578125 64.453125 39.453125 65.234375 
Q 42.578125 70.3125 45.3125 78.125 
Q 49.21875 76.171875 51.953125 75.390625 
z
M 40.234375 52.734375 
Q 45.3125 47.65625 50 42.578125 
Q 47.65625 40.625 44.921875 37.890625 
Q 39.453125 44.53125 35.9375 48.4375 
Q 38.28125 50.390625 40.234375 52.734375 
z
M 14.453125 78.125 
Q 19.921875 72.65625 23.4375 67.1875 
L 17.578125 63.671875 
Q 14.84375 69.140625 9.375 73.828125 
Q 12.890625 76.171875 14.453125 78.125 
z
" id="SimHei-25968"/>
       <path d="M 82.03125 39.0625 
Q 81.640625 34.375 81.640625 26.5625 
Q 81.640625 19.140625 82.03125 14.84375 
L 53.515625 14.84375 
L 53.515625 9.765625 
L 71.484375 9.765625 
Q 78.125 9.765625 83.984375 10.15625 
L 83.984375 4.296875 
Q 78.515625 4.6875 71.484375 4.6875 
L 53.515625 4.6875 
L 53.515625 -1.171875 
L 80.078125 -1.171875 
Q 86.328125 -1.171875 92.578125 -0.78125 
L 92.578125 -6.640625 
Q 86.328125 -6.25 80.078125 -6.25 
L 19.921875 -6.25 
Q 14.0625 -6.25 7.421875 -6.640625 
L 7.421875 -0.78125 
Q 14.453125 -0.78125 19.921875 -1.171875 
L 46.484375 -1.171875 
L 46.484375 4.6875 
L 26.953125 4.6875 
Q 21.09375 4.6875 15.234375 3.90625 
L 15.234375 10.15625 
Q 21.484375 9.765625 26.953125 9.765625 
L 46.484375 9.765625 
L 46.484375 14.84375 
L 17.96875 14.84375 
Q 18.359375 21.484375 18.359375 27.734375 
Q 18.359375 33.984375 17.96875 39.0625 
L 82.03125 39.0625 
z
M 81.25 77.34375 
Q 80.859375 71.484375 80.859375 66.40625 
Q 80.859375 61.328125 81.25 53.125 
L 18.75 53.125 
Q 19.140625 61.328125 19.140625 66.40625 
Q 19.140625 71.484375 18.75 77.34375 
L 81.25 77.34375 
z
M 76.5625 48.4375 
Q 85.9375 48.828125 93.75 49.21875 
L 93.75 42.96875 
Q 85.9375 43.359375 76.953125 43.359375 
L 25.78125 43.359375 
Q 15.234375 43.359375 5.078125 42.96875 
L 5.078125 49.21875 
Q 15.234375 48.828125 25.78125 48.4375 
z
M 73.828125 57.8125 
L 73.828125 62.890625 
L 26.171875 62.890625 
L 26.171875 57.8125 
z
M 73.828125 67.96875 
L 73.828125 72.65625 
L 26.171875 72.65625 
L 26.171875 67.96875 
z
M 74.21875 29.296875 
L 74.21875 33.984375 
L 53.515625 33.984375 
L 53.515625 29.296875 
z
M 46.484375 29.296875 
L 46.484375 33.984375 
L 25.78125 33.984375 
L 25.78125 29.296875 
z
M 46.484375 19.921875 
L 46.484375 24.21875 
L 25.78125 24.21875 
L 25.78125 19.921875 
z
M 74.21875 19.921875 
L 74.21875 24.21875 
L 53.515625 24.21875 
L 53.515625 19.921875 
z
" id="SimHei-37327"/>
       <path d="M 46.875 71.09375 
L 5.46875 -2.734375 
L 1.5625 -0.390625 
L 42.96875 73.4375 
z
" id="SimHei-47"/>
       <path d="M 81.25 75 
Q 87.5 75 93.75 75.390625 
L 93.75 68.75 
Q 87.5 69.140625 81.25 69.140625 
L 68.75 69.140625 
Q 67.578125 62.890625 66.015625 56.640625 
L 87.5 56.640625 
Q 87.109375 50.78125 87.109375 43.75 
L 87.109375 24.21875 
Q 87.109375 19.140625 87.5 11.71875 
L 80.078125 11.71875 
L 80.078125 50.78125 
L 50.390625 50.78125 
L 50.390625 11.328125 
L 42.578125 11.328125 
Q 42.96875 18.359375 42.96875 23.828125 
L 42.96875 43.75 
Q 42.96875 49.609375 42.578125 56.640625 
L 58.984375 56.640625 
Q 60.15625 63.28125 60.546875 69.140625 
L 50.78125 69.140625 
Q 44.921875 69.140625 38.671875 68.75 
L 38.671875 75.390625 
Q 44.921875 75 50.78125 75 
z
M 34.765625 20.3125 
Q 27.34375 18.359375 21.09375 16.203125 
Q 14.84375 14.0625 7.03125 10.546875 
Q 6.25 15.234375 3.90625 19.140625 
Q 10.15625 20.3125 16.015625 21.875 
L 16.015625 65.234375 
Q 10.9375 65.234375 5.078125 64.84375 
L 5.078125 71.484375 
Q 11.71875 71.09375 20.3125 71.09375 
Q 28.90625 71.09375 34.375 71.484375 
L 34.375 64.84375 
Q 30.078125 65.234375 23.4375 65.234375 
L 23.4375 24.21875 
Q 28.515625 25.390625 35.15625 28.125 
Q 34.375 24.21875 34.765625 20.3125 
z
M 70.3125 41.015625 
Q 69.53125 36.328125 68.75 30.078125 
Q 67.96875 23.828125 65.8125 16.015625 
Q 63.671875 8.203125 55.859375 1.75 
Q 48.046875 -4.6875 35.15625 -10.546875 
Q 33.203125 -6.640625 28.90625 -3.125 
Q 41.796875 0.390625 48.234375 4.6875 
Q 54.6875 8.984375 57.609375 14.84375 
Q 60.546875 20.703125 60.9375 27.53125 
Q 61.328125 34.375 61.328125 42.578125 
Q 65.234375 41.796875 70.3125 41.015625 
z
M 72.265625 14.84375 
Q 85.9375 4.296875 93.359375 -2.734375 
Q 89.453125 -5.078125 87.109375 -8.984375 
Q 82.8125 -3.125 66.40625 8.59375 
Q 70.3125 12.109375 72.265625 14.84375 
z
" id="SimHei-39033"/>
      </defs>
      <use xlink:href="#SimHei-25968"/>
      <use x="100" xlink:href="#SimHei-37327"/>
      <use x="200" xlink:href="#SimHei-47"/>
      <use x="250" xlink:href="#SimHei-39033"/>
     </g>
    </g>
   </g>
   <g id="matplotlib.axis_2">
    <g id="ytick_1">
     <g id="line2d_9">
      <defs>
       <path d="M 0 0 
L -3.5 0 
" id="m42a7ac0617" style="stroke:#000000;stroke-width:0.8;"/>
      </defs>
      <g>
       <use style="stroke:#000000;stroke-width:0.8;" x="57.6" xlink:href="#m42a7ac0617" y="284.491636"/>
      </g>
     </g>
     <g id="text_10">
      <!-- 谷歌 -->
      <g transform="translate(30.6 288.436949)scale(0.1 -0.1)">
       <defs>
        <path d="M 53.515625 57.421875 
Q 56.25 53.125 60.734375 49.21875 
Q 65.234375 45.3125 71.09375 41.59375 
Q 76.953125 37.890625 83.59375 35.546875 
Q 90.234375 33.203125 96.484375 32.03125 
Q 92.578125 28.125 91.015625 22.65625 
L 76.953125 28.515625 
Q 76.5625 22.265625 76.5625 10.546875 
Q 76.5625 -0.78125 76.953125 -8.984375 
L 68.75 -8.984375 
L 68.75 -1.5625 
L 30.078125 -1.5625 
L 30.078125 -10.15625 
L 21.875 -10.15625 
Q 22.265625 -1.953125 22.265625 9.375 
Q 22.265625 21.09375 21.875 27.34375 
Q 15.234375 23.4375 10.546875 21.09375 
Q 6.25 27.34375 3.90625 28.90625 
Q 12.109375 31.640625 18.9375 35.34375 
Q 25.78125 39.0625 31.25 43.9375 
Q 36.71875 48.828125 40.8125 54.484375 
Q 44.921875 60.15625 48.046875 66.796875 
Q 52.734375 64.453125 58.203125 62.890625 
Q 55.859375 60.546875 53.515625 57.421875 
z
M 68.75 5.078125 
L 68.75 22.65625 
L 30.078125 22.65625 
L 30.078125 5.078125 
z
M 73.828125 29.296875 
Q 66.015625 33.984375 58.78125 40.8125 
Q 51.5625 47.65625 49.609375 51.5625 
Q 44.140625 45.3125 38.28125 39.640625 
Q 32.421875 33.984375 25 29.296875 
z
M 40.625 76.5625 
Q 35.15625 73.046875 28.125 65.625 
Q 21.09375 58.203125 14.0625 52.734375 
Q 11.328125 56.25 7.03125 58.59375 
Q 14.0625 62.890625 20.109375 68.359375 
Q 26.171875 73.828125 30.859375 81.25 
Q 34.375 78.515625 40.625 76.5625 
z
M 90.625 62.890625 
Q 86.71875 59.765625 84.765625 56.25 
Q 78.125 61.328125 59.375 74.609375 
Q 60.9375 77.34375 64.84375 81.25 
Q 70.703125 76.171875 90.625 62.890625 
z
" id="SimHei-35895"/>
        <path d="M 89.453125 -7.421875 
Q 83.59375 -1.953125 79.484375 4.296875 
Q 75.390625 10.546875 72.65625 18.359375 
Q 70.3125 11.71875 66.203125 5.078125 
Q 62.109375 -1.5625 54.296875 -8.984375 
Q 51.5625 -5.859375 48.046875 -3.125 
Q 53.515625 0.78125 58.390625 6.828125 
Q 63.28125 12.890625 65.421875 19.140625 
Q 67.578125 25.390625 67.578125 33.203125 
Q 67.578125 41.40625 67.1875 46.484375 
L 75.78125 46.484375 
Q 75.390625 41.40625 75.390625 35.9375 
Q 75.390625 30.859375 77.140625 24.21875 
Q 78.90625 17.578125 84.375 10.546875 
Q 89.84375 3.515625 96.484375 -0.390625 
Q 91.796875 -3.515625 89.453125 -7.421875 
z
M 47.65625 39.453125 
Q 53.515625 39.453125 58.203125 39.84375 
L 58.203125 33.203125 
Q 53.515625 33.59375 47.265625 33.59375 
L 47.265625 0.390625 
Q 47.265625 -5.46875 43.359375 -7.21875 
Q 39.453125 -8.984375 32.03125 -9.765625 
Q 31.25 -5.859375 28.515625 -1.5625 
Q 35.9375 -1.953125 38.078125 -1.359375 
Q 40.234375 -0.78125 40.234375 2.734375 
L 40.234375 33.59375 
L 16.796875 33.59375 
Q 11.328125 33.59375 5.46875 33.203125 
L 5.46875 39.84375 
Q 10.9375 39.453125 16.40625 39.453125 
L 47.65625 39.453125 
z
M 26.5625 3.125 
L 26.5625 5.859375 
L 16.796875 5.859375 
L 16.796875 -3.125 
L 9.375 -3.125 
Q 9.765625 3.90625 9.765625 11.71875 
Q 9.765625 19.921875 9.375 26.953125 
L 33.59375 26.953125 
Q 33.203125 21.09375 33.203125 15.234375 
Q 33.203125 9.375 33.59375 3.125 
z
M 65.234375 56.640625 
Q 62.109375 50.390625 58.59375 42.96875 
Q 55.078125 44.921875 50.78125 46.09375 
Q 55.46875 52.734375 60.15625 63.46875 
Q 64.84375 74.21875 66.015625 81.25 
Q 70.703125 79.296875 75 78.125 
Q 73.046875 75.390625 70.890625 69.921875 
Q 68.75 64.453125 67.578125 62.109375 
L 93.75 62.109375 
Q 91.40625 54.296875 89.0625 43.359375 
Q 84.765625 44.140625 82.03125 44.53125 
Q 83.59375 51.953125 84.765625 56.640625 
z
M 40.234375 69.53125 
L 17.1875 69.53125 
Q 11.328125 69.53125 5.859375 69.140625 
L 5.859375 75.78125 
Q 11.328125 75.390625 17.1875 75.390625 
L 44.921875 75.390625 
Q 50.390625 75.390625 55.46875 75.78125 
L 55.46875 69.53125 
Q 50.78125 69.921875 47.265625 69.921875 
L 47.265625 42.96875 
L 40.234375 42.96875 
z
M 33.984375 63.671875 
Q 33.59375 58.984375 33.59375 54.296875 
Q 33.59375 49.609375 33.984375 44.53125 
L 9.765625 44.53125 
Q 10.15625 49.609375 10.15625 53.90625 
Q 10.15625 58.59375 9.765625 63.671875 
L 33.984375 63.671875 
z
M 26.5625 10.9375 
L 26.5625 21.484375 
L 16.796875 21.484375 
L 16.796875 10.9375 
z
M 26.953125 50.390625 
L 26.953125 58.203125 
L 17.1875 58.203125 
L 17.1875 50.390625 
z
" id="SimHei-27468"/>
       </defs>
       <use xlink:href="#SimHei-35895"/>
       <use x="100" xlink:href="#SimHei-27468"/>
      </g>
     </g>
    </g>
    <g id="ytick_2">
     <g id="line2d_10">
      <g>
       <use style="stroke:#000000;stroke-width:0.8;" x="57.6" xlink:href="#m42a7ac0617" y="257.000727"/>
      </g>
     </g>
     <g id="text_11">
      <!-- 脸书 -->
      <g transform="translate(30.6 260.94604)scale(0.1 -0.1)">
       <defs>
        <path d="M 3.515625 -5.078125 
Q 7.8125 1.5625 10.34375 9.765625 
Q 12.890625 17.96875 12.890625 27.34375 
L 12.890625 63.28125 
Q 12.890625 70.3125 12.5 76.953125 
L 39.0625 76.953125 
Q 38.671875 70.703125 38.671875 62.5 
L 38.671875 -0.390625 
Q 38.28125 -7.421875 24.609375 -8.203125 
Q 24.609375 -4.296875 21.875 0.78125 
Q 32.03125 0 31.640625 2.734375 
L 31.640625 23.4375 
L 20.3125 23.4375 
Q 19.921875 17.96875 18.15625 9.171875 
Q 16.40625 0.390625 11.328125 -8.59375 
Q 7.421875 -6.640625 3.515625 -5.078125 
z
M 71.484375 76.953125 
Q 76.5625 64.84375 83.203125 58 
Q 89.84375 51.171875 96.875 48.4375 
Q 92.578125 45.703125 90.625 40.625 
Q 86.328125 43.359375 83.59375 46.09375 
L 83.59375 39.84375 
Q 79.296875 40.625 76.171875 40.625 
L 61.71875 40.625 
Q 57.421875 40.625 53.515625 39.84375 
L 53.515625 46.484375 
Q 50.390625 42.96875 46.484375 39.453125 
Q 44.921875 42.578125 40.625 45.703125 
Q 45.3125 49.21875 49.21875 53.90625 
Q 53.125 58.59375 55.859375 63.46875 
Q 58.59375 68.359375 60.734375 73.4375 
Q 62.890625 78.515625 63.671875 82.421875 
Q 67.578125 80.859375 73.046875 80.078125 
Q 71.875 78.515625 71.484375 76.953125 
z
M 89.453125 32.8125 
Q 87.5 30.078125 86.328125 26.359375 
Q 85.15625 22.65625 83.203125 16.203125 
Q 81.25 9.765625 78.90625 -0.78125 
L 82.8125 -0.78125 
Q 88.671875 -0.78125 94.921875 -0.390625 
L 94.921875 -7.8125 
Q 88.671875 -7.421875 82.8125 -7.421875 
L 51.5625 -7.421875 
Q 46.484375 -7.421875 41.40625 -7.8125 
L 41.40625 -0.390625 
Q 46.484375 -0.78125 51.5625 -0.78125 
L 72.65625 -0.78125 
Q 75.78125 13.28125 77.734375 21.875 
Q 79.6875 30.46875 80.078125 35.9375 
Q 86.328125 33.59375 89.453125 32.8125 
z
M 76.171875 46.875 
Q 79.296875 47.265625 82.421875 47.265625 
Q 78.125 51.171875 73.625 58.203125 
Q 69.140625 65.234375 67.578125 70.3125 
Q 64.84375 63.671875 60.9375 57.21875 
Q 57.03125 50.78125 53.90625 47.265625 
Q 57.8125 47.265625 62.109375 46.875 
z
M 31.640625 53.125 
L 31.640625 70.703125 
L 19.921875 70.703125 
L 19.921875 53.125 
z
M 31.640625 29.296875 
L 31.640625 46.875 
L 19.921875 46.875 
L 19.921875 29.296875 
z
M 53.125 32.421875 
Q 53.515625 28.125 54.875 22.265625 
Q 56.25 16.40625 58.203125 8.203125 
Q 54.296875 7.8125 50.78125 6.640625 
Q 49.609375 13.671875 48.4375 19.328125 
Q 47.265625 25 45.703125 29.6875 
Q 49.21875 31.25 53.125 32.421875 
z
M 67.96875 35.15625 
Q 68.359375 30.46875 69.53125 24.40625 
Q 70.703125 18.359375 71.875 12.890625 
Q 67.578125 12.5 64.84375 10.9375 
Q 63.28125 19.140625 62.296875 24.015625 
Q 61.328125 28.90625 60.15625 33.59375 
Q 64.453125 34.375 67.96875 35.15625 
z
" id="SimHei-33080"/>
        <path d="M 40.234375 60.9375 
Q 40.234375 74.21875 39.84375 81.25 
L 48.828125 81.25 
Q 48.046875 75.390625 48.046875 60.9375 
L 77.734375 60.9375 
Q 76.953125 57.421875 75 34.375 
L 89.84375 34.375 
Q 87.890625 8.984375 86.71875 5.265625 
Q 85.546875 1.5625 80.65625 0.1875 
Q 75.78125 -1.171875 69.53125 -1.953125 
Q 68.359375 4.296875 66.015625 7.03125 
Q 73.046875 6.640625 76.359375 7.421875 
Q 79.6875 8.203125 80.078125 12.5 
L 81.25 26.953125 
L 48.046875 26.953125 
L 48.046875 6.25 
Q 48.046875 -1.5625 48.4375 -8.984375 
L 39.0625 -8.984375 
Q 40.234375 -1.953125 40.234375 5.859375 
L 40.234375 26.953125 
L 21.875 26.953125 
Q 16.40625 26.953125 7.03125 26.5625 
L 7.03125 34.765625 
Q 15.234375 34.375 22.65625 34.375 
L 40.234375 34.375 
L 40.234375 54.296875 
L 25 54.296875 
Q 22.65625 54.296875 14.453125 53.90625 
L 14.453125 61.328125 
Q 22.265625 60.9375 27.734375 60.9375 
z
M 67.1875 34.375 
L 68.75 54.296875 
L 48.046875 54.296875 
L 48.046875 34.375 
z
M 72.265625 81.25 
Q 77.34375 76.953125 81.640625 72.84375 
Q 85.9375 68.75 90.234375 64.0625 
Q 85.546875 60.15625 83.984375 58.59375 
Q 80.46875 64.0625 66.40625 76.171875 
Q 70.3125 79.296875 72.265625 81.25 
z
" id="SimHei-20070"/>
       </defs>
       <use xlink:href="#SimHei-33080"/>
       <use x="100" xlink:href="#SimHei-20070"/>
      </g>
     </g>
    </g>
    <g id="ytick_3">
     <g id="line2d_11">
      <g>
       <use style="stroke:#000000;stroke-width:0.8;" x="57.6" xlink:href="#m42a7ac0617" y="229.509818"/>
      </g>
     </g>
     <g id="text_12">
      <!-- 微软 -->
      <g transform="translate(30.6 233.513724)scale(0.1 -0.1)">
       <defs>
        <path d="M 63.28125 32.421875 
Q 60.15625 35.15625 57.421875 35.9375 
Q 63.28125 47.265625 66.59375 59.953125 
Q 69.921875 72.65625 70.3125 80.859375 
Q 74.609375 79.296875 78.515625 78.90625 
Q 76.171875 73.4375 73.828125 60.15625 
L 86.328125 60.15625 
Q 90.625 60.15625 94.53125 60.546875 
L 94.53125 54.296875 
Q 88.671875 54.6875 87.5 54.6875 
Q 87.5 43.75 86.328125 33.78125 
Q 85.15625 23.828125 79.6875 12.109375 
Q 81.640625 8.203125 85.734375 4.875 
Q 89.84375 1.5625 95.703125 -1.171875 
Q 91.015625 -4.296875 90.625 -8.203125 
Q 80.859375 -2.34375 75 6.25 
Q 66.796875 -2.734375 56.640625 -9.375 
Q 53.90625 -6.25 49.21875 -3.515625 
Q 57.421875 0 62.109375 3.515625 
Q 66.796875 7.03125 71.09375 12.5 
Q 66.796875 23.046875 65.625 38.28125 
z
M 29.296875 55.46875 
Q 25.78125 52.734375 21.484375 44.921875 
L 21.484375 7.421875 
Q 21.484375 0.390625 21.875 -8.59375 
L 14.84375 -8.59375 
Q 15.234375 0.390625 15.234375 7.421875 
L 15.234375 35.9375 
Q 11.71875 31.25 8.59375 26.5625 
Q 6.640625 30.46875 4.296875 32.8125 
Q 8.984375 37.5 14.453125 45.3125 
Q 19.921875 53.125 23.046875 61.328125 
Q 25.78125 57.03125 29.296875 55.46875 
z
M 53.90625 30.859375 
Q 53.515625 23.4375 53.515625 11.328125 
Q 57.03125 14.0625 60.15625 17.578125 
L 63.28125 11.328125 
Q 60.546875 9.765625 56.828125 6.640625 
Q 53.125 3.515625 49.609375 0 
L 45.703125 5.859375 
Q 47.65625 7.421875 47.65625 10.9375 
L 47.65625 25.78125 
L 39.0625 25.78125 
Q 39.0625 17.1875 37.6875 10.34375 
Q 36.328125 3.515625 31.25 -4.296875 
Q 28.515625 -1.171875 25 0.390625 
Q 30.859375 7.03125 31.828125 16.203125 
Q 32.8125 25.390625 32.421875 30.859375 
L 53.90625 30.859375 
z
M 36.71875 71.875 
Q 36.328125 65.234375 36.328125 55.859375 
L 42.1875 55.859375 
Q 42.1875 71.484375 41.796875 79.6875 
L 48.4375 79.6875 
Q 48.046875 71.875 48.046875 55.859375 
L 54.6875 55.859375 
Q 54.6875 63.671875 54.296875 71.875 
L 60.546875 71.875 
Q 60.15625 67.578125 60.15625 61.328125 
Q 60.15625 55.46875 60.546875 50.78125 
L 29.6875 50.78125 
Q 30.078125 56.25 30.078125 61.328125 
Q 30.078125 66.40625 29.6875 71.875 
L 36.71875 71.875 
z
M 70.703125 44.140625 
Q 72.265625 27.734375 75.78125 18.75 
Q 78.90625 26.5625 79.875 34.5625 
Q 80.859375 42.578125 81.25 54.6875 
L 72.265625 54.6875 
Q 70.703125 49.609375 67.96875 43.359375 
z
M 26.5625 75.78125 
Q 19.921875 67.1875 10.546875 56.640625 
Q 8.203125 59.375 4.6875 61.328125 
Q 16.015625 71.484375 20.3125 80.46875 
Q 22.65625 78.125 26.5625 75.78125 
z
M 57.8125 38.671875 
Q 51.953125 39.0625 42.96875 39.0625 
Q 33.984375 39.0625 28.125 38.671875 
L 28.125 44.53125 
Q 33.984375 44.140625 42.96875 44.140625 
Q 51.953125 44.140625 57.8125 44.53125 
z
" id="SimHei-24494"/>
        <path d="M 48.4375 14.84375 
Q 44.140625 14.453125 33.203125 12.890625 
Q 33.203125 -3.125 33.59375 -10.15625 
L 25.78125 -10.15625 
Q 26.171875 -0.390625 26.171875 11.71875 
Q 12.5 9.375 7.8125 8.203125 
Q 6.640625 12.890625 4.6875 15.625 
Q 10.546875 16.015625 26.171875 17.96875 
L 26.171875 32.03125 
Q 14.84375 31.640625 8.59375 30.46875 
L 5.46875 37.5 
Q 8.984375 39.453125 12.109375 46.875 
Q 15.234375 54.296875 17.1875 61.328125 
Q 11.71875 61.328125 5.46875 60.9375 
L 5.46875 67.578125 
Q 12.5 67.1875 18.75 67.1875 
Q 21.09375 75 21.875 82.421875 
Q 26.5625 80.46875 30.859375 79.6875 
Q 29.296875 77.734375 26.171875 67.1875 
L 31.25 67.1875 
Q 39.453125 67.1875 46.484375 67.578125 
L 46.484375 60.9375 
Q 39.453125 61.328125 31.640625 61.328125 
L 24.609375 61.328125 
Q 18.359375 42.96875 16.015625 37.890625 
L 26.171875 37.890625 
Q 26.171875 46.875 25.78125 52.734375 
L 33.984375 52.734375 
Q 33.203125 47.65625 33.203125 37.890625 
L 48.828125 37.890625 
L 48.828125 32.03125 
L 33.203125 32.03125 
L 33.203125 19.140625 
Q 42.96875 20.3125 48.828125 21.484375 
Q 48.4375 18.359375 48.4375 14.84375 
z
M 39.84375 -3.515625 
Q 47.65625 1.171875 53.703125 9.5625 
Q 59.765625 17.96875 62.109375 28.3125 
Q 64.453125 38.671875 63.671875 48.828125 
Q 67.1875 48.046875 72.265625 48.046875 
Q 71.484375 39.453125 71.875 33.59375 
Q 72.265625 27.734375 74.796875 21.09375 
Q 77.34375 14.453125 82.421875 8.984375 
Q 87.5 3.515625 96.875 -0.78125 
Q 92.1875 -4.296875 90.234375 -8.203125 
Q 78.515625 0.78125 74.015625 8.203125 
Q 69.53125 15.625 67.96875 20.703125 
Q 64.84375 12.109375 59.953125 4.875 
Q 55.078125 -2.34375 46.875 -9.765625 
Q 44.53125 -5.859375 39.84375 -3.515625 
z
M 79.6875 44.921875 
Q 81.640625 50.78125 83.59375 57.421875 
L 58.984375 57.421875 
Q 55.078125 49.609375 51.953125 43.75 
Q 48.828125 46.484375 44.53125 47.265625 
Q 50 55.078125 53.703125 64.0625 
Q 57.421875 73.046875 58.984375 81.25 
Q 64.0625 79.296875 68.75 78.515625 
Q 65.625 75.78125 60.9375 63.28125 
L 93.75 63.28125 
Q 91.015625 55.859375 87.5 43.359375 
Q 83.203125 44.53125 79.6875 44.921875 
z
" id="SimHei-36719"/>
       </defs>
       <use xlink:href="#SimHei-24494"/>
       <use x="100" xlink:href="#SimHei-36719"/>
      </g>
     </g>
    </g>
    <g id="ytick_4">
     <g id="line2d_12">
      <g>
       <use style="stroke:#000000;stroke-width:0.8;" x="57.6" xlink:href="#m42a7ac0617" y="202.018909"/>
      </g>
     </g>
     <g id="text_13">
      <!-- 国家电网 -->
      <g transform="translate(10.6 206.042347)scale(0.1 -0.1)">
       <defs>
        <path d="M 90.234375 77.734375 
Q 89.84375 67.96875 89.84375 55.859375 
L 89.84375 14.0625 
Q 89.84375 1.953125 90.234375 -9.765625 
L 82.421875 -9.765625 
L 82.421875 -4.296875 
L 17.578125 -4.296875 
L 17.578125 -10.15625 
L 9.765625 -10.15625 
Q 10.15625 1.953125 10.15625 14.84375 
L 10.15625 55.859375 
Q 10.15625 67.578125 9.765625 77.734375 
L 90.234375 77.734375 
z
M 82.421875 1.5625 
L 82.421875 71.875 
L 17.578125 71.875 
L 17.578125 1.5625 
z
M 62.109375 61.328125 
Q 67.96875 61.328125 74.609375 61.71875 
L 74.609375 54.6875 
Q 68.75 55.078125 62.109375 55.078125 
L 52.34375 55.078125 
L 52.34375 42.1875 
L 59.375 42.1875 
Q 66.40625 42.1875 72.65625 42.578125 
L 72.65625 35.546875 
Q 66.40625 35.9375 59.375 35.9375 
L 52.34375 35.9375 
L 52.34375 18.359375 
L 63.28125 18.359375 
Q 70.3125 18.359375 76.5625 18.75 
L 76.5625 11.71875 
Q 70.703125 12.109375 63.28125 12.109375 
L 36.71875 12.109375 
Q 30.078125 12.109375 23.4375 11.71875 
L 23.4375 18.75 
Q 30.078125 18.359375 36.71875 18.359375 
L 45.3125 18.359375 
L 45.3125 35.9375 
L 39.84375 35.9375 
Q 33.203125 35.9375 27.34375 35.546875 
L 27.34375 42.578125 
Q 33.203125 42.1875 39.84375 42.1875 
L 45.3125 42.1875 
L 45.3125 55.078125 
L 39.453125 55.078125 
Q 32.421875 55.078125 25.78125 54.6875 
L 25.78125 61.71875 
Q 32.421875 61.328125 39.453125 61.328125 
z
M 63.28125 33.203125 
Q 65.234375 31.25 71.09375 25 
Q 67.1875 22.65625 64.453125 20.703125 
Q 63.28125 22.265625 57.8125 28.90625 
Q 60.9375 31.25 63.28125 33.203125 
z
" id="SimHei-22269"/>
        <path d="M 53.515625 17.578125 
Q 40.625 7.421875 29.6875 1.5625 
Q 18.75 -4.296875 10.9375 -8.203125 
Q 7.8125 -4.296875 5.078125 -1.171875 
Q 24.21875 5.078125 35.34375 12.109375 
Q 46.484375 19.140625 51.171875 24.21875 
Q 49.609375 26.953125 48.046875 28.90625 
Q 35.9375 20.3125 26.5625 15.234375 
Q 17.1875 10.15625 11.71875 8.203125 
Q 8.984375 12.109375 5.859375 14.84375 
Q 21.484375 19.53125 30.65625 25 
Q 39.84375 30.46875 43.75 33.984375 
Q 42.1875 35.9375 40.234375 38.28125 
Q 33.984375 34.765625 26.75 31.4375 
Q 19.53125 28.125 11.328125 24.609375 
Q 8.984375 28.515625 5.859375 32.421875 
Q 21.875 36.328125 30.46875 40.625 
Q 39.0625 44.921875 42.96875 49.21875 
L 37.5 49.21875 
Q 32.03125 49.21875 24.609375 48.828125 
L 24.609375 55.859375 
Q 32.03125 55.46875 37.5 55.46875 
L 64.0625 55.46875 
Q 69.140625 55.46875 76.5625 55.859375 
L 76.5625 48.828125 
Q 69.140625 49.21875 64.0625 49.21875 
L 53.515625 49.21875 
Q 50 46.09375 45.703125 42.1875 
Q 48.828125 39.453125 51.5625 36.515625 
Q 54.296875 33.59375 57.421875 28.515625 
Q 62.109375 30.859375 67.96875 34.953125 
Q 73.828125 39.0625 78.515625 45.3125 
Q 84.375 39.84375 86.328125 37.890625 
Q 81.640625 35.9375 78.125 33.984375 
Q 74.609375 32.03125 72.265625 29.6875 
Q 75.78125 17.96875 81.25 12.890625 
Q 86.71875 7.8125 96.484375 3.125 
Q 92.578125 0.390625 89.453125 -4.296875 
Q 78.515625 2.734375 73.4375 10.34375 
Q 68.359375 17.96875 66.40625 26.171875 
Q 63.28125 24.21875 60.15625 22.65625 
Q 62.109375 12.109375 61.90625 5.078125 
Q 61.71875 -1.953125 56.046875 -5.65625 
Q 50.390625 -9.375 42.578125 -10.546875 
Q 41.015625 -5.46875 39.0625 -1.5625 
Q 45.703125 -1.5625 49.609375 -0.390625 
Q 53.515625 0.78125 54.09375 5.46875 
Q 54.6875 10.15625 53.515625 17.578125 
z
M 52.34375 82.421875 
Q 53.125 78.515625 55.859375 70.703125 
L 91.796875 70.703125 
Q 91.40625 64.453125 91.40625 60.546875 
Q 91.40625 57.03125 91.796875 51.5625 
L 83.59375 51.5625 
L 83.59375 64.453125 
L 15.625 64.453125 
L 15.625 49.609375 
L 7.421875 49.609375 
Q 7.8125 55.859375 7.8125 60.546875 
Q 7.8125 65.625 7.421875 70.703125 
L 46.484375 70.703125 
Q 44.921875 75.78125 42.96875 79.6875 
Q 48.046875 80.859375 52.34375 82.421875 
z
" id="SimHei-23478"/>
        <path d="M 96.09375 5.078125 
Q 93.359375 -3.90625 91.015625 -6.4375 
Q 88.671875 -8.984375 83.203125 -8.984375 
L 52.734375 -8.984375 
Q 42.1875 -9.375 41.796875 1.5625 
L 41.796875 15.234375 
L 19.140625 15.234375 
L 19.140625 7.8125 
L 10.15625 7.8125 
Q 10.546875 11.71875 10.546875 34.765625 
Q 10.546875 57.8125 10.15625 64.84375 
L 41.796875 64.84375 
Q 41.796875 75.390625 41.40625 81.25 
L 50 81.25 
Q 49.609375 76.171875 49.609375 64.84375 
L 81.25 64.84375 
Q 80.859375 58.984375 80.859375 40.625 
Q 80.859375 22.65625 81.25 15.234375 
L 49.609375 15.234375 
L 49.609375 4.6875 
Q 49.609375 -2.34375 57.03125 -2.34375 
L 77.734375 -2.34375 
Q 83.984375 -2.34375 85.15625 0.390625 
Q 86.328125 3.125 87.109375 8.984375 
Q 91.015625 6.25 96.09375 5.078125 
z
M 73.046875 21.875 
L 73.046875 37.5 
L 49.609375 37.5 
L 49.609375 21.875 
z
M 41.796875 21.875 
L 41.796875 37.5 
L 19.140625 37.5 
L 19.140625 21.875 
z
M 73.046875 43.75 
L 73.046875 58.203125 
L 49.609375 58.203125 
L 49.609375 43.75 
z
M 41.796875 43.75 
L 41.796875 58.203125 
L 19.140625 58.203125 
L 19.140625 43.75 
z
" id="SimHei-30005"/>
        <path d="M 91.796875 76.5625 
Q 91.015625 71.484375 91.015625 62.109375 
L 91.015625 0 
Q 91.015625 -6.25 86.515625 -7.21875 
Q 82.03125 -8.203125 74.609375 -9.375 
Q 73.828125 -5.46875 70.703125 -0.78125 
Q 78.515625 -1.171875 80.859375 -0.390625 
Q 83.203125 0.390625 83.203125 3.90625 
L 83.203125 69.921875 
L 17.1875 69.921875 
L 17.1875 -9.375 
L 8.59375 -9.375 
Q 9.375 -1.5625 9.375 3.90625 
L 9.375 62.109375 
Q 9.375 68.359375 8.59375 76.5625 
L 91.796875 76.5625 
z
M 57.421875 55.078125 
Q 63.28125 43.75 65.234375 40.625 
Q 69.921875 56.640625 71.09375 63.28125 
Q 75.390625 60.9375 79.6875 58.984375 
Q 77.734375 56.25 75.390625 49.21875 
Q 73.046875 42.1875 69.53125 32.8125 
Q 73.828125 24.609375 80.078125 13.671875 
Q 75.78125 12.5 72.265625 10.546875 
L 65.234375 24.609375 
Q 62.5 19.140625 59.765625 15.03125 
Q 57.03125 10.9375 52.34375 4.6875 
Q 49.609375 7.8125 44.53125 8.984375 
Q 48.046875 12.5 52.140625 17.578125 
Q 56.25 22.65625 61.328125 32.421875 
Q 55.859375 43.75 50 51.5625 
Q 53.125 52.734375 57.421875 55.078125 
z
M 26.953125 59.375 
Q 29.296875 55.078125 31.828125 50.578125 
Q 34.375 46.09375 37.109375 41.796875 
Q 41.796875 57.421875 42.578125 63.28125 
Q 46.875 61.71875 51.953125 60.15625 
Q 49.609375 57.421875 47.65625 51.75 
Q 45.703125 46.09375 41.40625 34.375 
Q 44.921875 28.90625 50 20.3125 
Q 46.09375 17.96875 43.359375 15.234375 
Q 39.453125 23.4375 37.5 26.5625 
Q 30.46875 12.109375 25 5.078125 
Q 21.875 7.8125 18.359375 8.984375 
Q 24.609375 15.625 33.59375 33.984375 
Q 24.21875 50.78125 19.53125 56.25 
Q 23.046875 57.8125 26.953125 59.375 
z
" id="SimHei-32593"/>
       </defs>
       <use xlink:href="#SimHei-22269"/>
       <use x="100" xlink:href="#SimHei-23478"/>
       <use x="200" xlink:href="#SimHei-30005"/>
       <use x="300" xlink:href="#SimHei-32593"/>
      </g>
     </g>
    </g>
    <g id="ytick_5">
     <g id="line2d_13">
      <g>
       <use style="stroke:#000000;stroke-width:0.8;" x="57.6" xlink:href="#m42a7ac0617" y="174.528"/>
      </g>
     </g>
     <g id="text_14">
      <!-- 京东方 -->
      <g transform="translate(20.6 178.570969)scale(0.1 -0.1)">
       <defs>
        <path d="M 79.6875 53.90625 
Q 79.296875 47.65625 79.296875 38.671875 
Q 79.296875 30.078125 79.6875 25.390625 
L 55.078125 25.390625 
L 55.078125 1.5625 
Q 55.078125 -5.078125 51.5625 -7.03125 
Q 48.046875 -8.984375 38.28125 -10.15625 
Q 37.109375 -5.46875 34.375 -1.5625 
Q 42.96875 -1.953125 45.109375 -1.171875 
Q 47.265625 -0.390625 47.265625 4.296875 
L 47.265625 25.390625 
L 21.484375 25.390625 
Q 21.875 32.03125 21.875 40.234375 
Q 21.875 48.4375 21.484375 53.90625 
L 79.6875 53.90625 
z
M 49.21875 82.421875 
Q 53.125 76.171875 56.640625 68.75 
L 78.125 68.75 
Q 87.109375 68.75 93.75 69.140625 
L 93.75 61.71875 
Q 87.109375 62.109375 78.125 62.109375 
L 22.265625 62.109375 
Q 14.84375 62.109375 6.640625 61.71875 
L 6.640625 69.140625 
Q 14.453125 68.75 22.265625 68.75 
L 47.265625 68.75 
Q 46.09375 72.265625 41.796875 79.296875 
Q 46.484375 80.859375 49.21875 82.421875 
z
M 71.484375 32.03125 
L 71.484375 47.265625 
L 29.6875 47.265625 
L 29.6875 32.03125 
z
M 36.328125 16.796875 
Q 29.296875 9.765625 13.28125 -5.078125 
Q 10.15625 -1.5625 7.03125 1.171875 
Q 23.4375 13.28125 30.078125 23.046875 
Q 32.8125 19.53125 36.328125 16.796875 
z
M 68.75 21.484375 
Q 76.953125 15.234375 83 10.34375 
Q 89.0625 5.46875 92.1875 2.34375 
Q 89.0625 -0.78125 85.9375 -4.296875 
Q 80.46875 1.953125 63.671875 15.234375 
Q 66.015625 17.96875 68.75 21.484375 
z
" id="SimHei-20140"/>
        <path d="M 35.15625 64.0625 
Q 41.40625 75.390625 43.359375 82.03125 
L 52.34375 78.125 
Q 49.21875 74.21875 43.75 64.0625 
L 71.09375 64.0625 
Q 79.6875 64.0625 87.890625 64.453125 
L 87.890625 57.03125 
Q 82.421875 57.421875 76.5625 57.421875 
L 41.015625 57.421875 
Q 35.546875 48.828125 26.171875 35.9375 
L 49.21875 35.9375 
Q 49.21875 43.75 48.828125 50.78125 
L 57.8125 50.78125 
Q 57.421875 46.484375 57.421875 35.9375 
L 72.65625 35.9375 
Q 79.296875 35.9375 86.71875 36.328125 
L 86.71875 29.296875 
Q 80.46875 29.6875 73.046875 29.6875 
L 57.421875 29.6875 
L 57.421875 1.171875 
Q 57.421875 -5.078125 52.734375 -6.828125 
Q 48.046875 -8.59375 40.625 -9.765625 
Q 39.453125 -4.6875 36.328125 -0.78125 
Q 44.921875 -0.78125 47.0625 0 
Q 49.21875 0.78125 49.21875 5.46875 
L 49.21875 29.6875 
L 32.03125 29.6875 
Q 22.65625 29.6875 16.40625 28.515625 
Q 15.234375 32.421875 13.28125 36.328125 
Q 17.578125 37.890625 21.875 43.15625 
Q 26.171875 48.4375 31.640625 57.421875 
L 20.703125 57.421875 
Q 14.0625 57.421875 10.546875 57.03125 
L 10.546875 64.453125 
Q 13.671875 64.0625 19.53125 64.0625 
z
M 26.953125 6.640625 
Q 20.3125 0 14.0625 -6.640625 
Q 11.71875 -3.515625 7.8125 -0.78125 
Q 23.046875 12.5 28.90625 22.65625 
Q 31.640625 19.53125 36.71875 16.40625 
z
M 72.265625 21.875 
Q 76.171875 18.359375 82.421875 12.5 
Q 88.671875 6.640625 93.359375 1.5625 
Q 91.796875 0.390625 86.328125 -4.6875 
Q 80.46875 2.734375 66.40625 16.015625 
Q 70.703125 19.53125 72.265625 21.875 
z
" id="SimHei-19996"/>
        <path d="M 6.640625 62.109375 
Q 12.890625 61.71875 20.3125 61.71875 
L 78.515625 61.71875 
Q 87.890625 61.71875 93.75 62.109375 
L 93.75 54.296875 
Q 88.671875 54.6875 79.6875 54.6875 
L 39.453125 54.6875 
Q 39.453125 50.390625 39.0625 39.0625 
L 82.8125 39.0625 
Q 82.03125 33.984375 81.25 24.21875 
L 78.90625 2.734375 
Q 78.125 -4.296875 72.265625 -6.4375 
Q 66.40625 -8.59375 55.078125 -9.765625 
Q 54.6875 -4.6875 51.953125 -0.78125 
Q 60.9375 -1.171875 65.625 0 
Q 70.3125 1.171875 71.484375 6.640625 
L 73.828125 32.03125 
L 38.671875 32.03125 
Q 37.109375 21.09375 33.78125 13.671875 
Q 30.46875 6.25 24.609375 0 
Q 18.75 -6.25 12.890625 -10.9375 
Q 11.328125 -8.59375 5.859375 -5.46875 
Q 10.9375 -2.734375 16.59375 3.125 
Q 22.265625 8.984375 25.96875 16.40625 
Q 29.6875 23.828125 30.65625 32.8125 
Q 31.640625 41.796875 31.640625 54.6875 
L 20.703125 54.6875 
Q 12.109375 54.6875 6.640625 54.296875 
z
M 48.046875 63.671875 
Q 44.53125 71.484375 40.234375 78.125 
Q 43.75 80.078125 47.265625 82.421875 
Q 51.5625 75.78125 55.859375 67.96875 
Q 51.953125 66.40625 48.046875 63.671875 
z
" id="SimHei-26041"/>
       </defs>
       <use xlink:href="#SimHei-20140"/>
       <use x="100" xlink:href="#SimHei-19996"/>
       <use x="200" xlink:href="#SimHei-26041"/>
      </g>
     </g>
    </g>
    <g id="ytick_6">
     <g id="line2d_14">
      <g>
       <use style="stroke:#000000;stroke-width:0.8;" x="57.6" xlink:href="#m42a7ac0617" y="147.037091"/>
      </g>
     </g>
     <g id="text_15">
      <!-- 三星 -->
      <g transform="translate(30.6 150.787091)scale(0.1 -0.1)">
       <defs>
        <path d="M 93.75 -3.125 
Q 86.71875 -2.734375 81.25 -2.734375 
L 20.3125 -2.734375 
Q 14.0625 -2.734375 5.859375 -3.125 
L 5.859375 5.46875 
Q 13.28125 5.078125 20.3125 5.078125 
L 81.25 5.078125 
Q 87.109375 5.078125 93.75 5.859375 
z
M 14.0625 71.875 
Q 21.875 71.484375 28.515625 71.484375 
L 71.875 71.484375 
Q 79.296875 71.484375 85.546875 71.875 
L 85.546875 63.671875 
Q 79.6875 64.0625 71.875 64.0625 
L 28.125 64.0625 
Q 21.484375 64.0625 14.0625 63.671875 
z
M 32.421875 32.8125 
Q 26.5625 32.8125 19.921875 32.421875 
L 19.921875 41.015625 
Q 26.171875 40.625 32.421875 40.625 
L 66.015625 40.625 
Q 71.875 40.625 78.90625 41.015625 
L 78.90625 32.421875 
Q 71.09375 32.8125 66.015625 32.8125 
z
" id="SimHei-19977"/>
        <path d="M 15.625 43.75 
Q 16.015625 50.390625 16.015625 60.15625 
Q 16.015625 69.921875 15.625 77.34375 
L 83.984375 77.34375 
Q 83.59375 69.921875 83.59375 60.15625 
Q 83.59375 50.390625 83.984375 43.75 
L 15.625 43.75 
z
M 55.078125 39.453125 
Q 54.6875 34.765625 54.6875 30.078125 
Q 78.90625 30.078125 86.71875 30.46875 
L 86.71875 23.046875 
Q 78.90625 23.4375 54.6875 23.4375 
L 54.6875 14.0625 
Q 76.953125 14.0625 83.59375 14.453125 
L 83.59375 7.421875 
Q 76.953125 7.8125 54.6875 7.8125 
L 54.6875 -2.734375 
L 79.296875 -2.734375 
Q 85.9375 -2.734375 94.140625 -1.953125 
L 94.140625 -9.765625 
Q 85.9375 -9.375 79.296875 -9.375 
L 21.09375 -9.375 
Q 13.28125 -9.375 5.859375 -10.15625 
L 5.859375 -1.953125 
Q 13.28125 -2.34375 21.09375 -2.734375 
L 46.484375 -2.734375 
L 46.484375 7.8125 
Q 26.5625 7.8125 20.703125 7.421875 
L 20.703125 14.453125 
Q 26.5625 14.0625 46.484375 14.0625 
L 46.484375 23.4375 
L 21.09375 23.4375 
Q 18.75 21.09375 16.59375 17.96875 
Q 14.453125 14.84375 10.15625 10.15625 
Q 7.8125 12.109375 3.515625 15.625 
Q 8.59375 20.3125 13.28125 26.5625 
Q 17.96875 32.8125 21.09375 39.453125 
Q 25 37.109375 30.46875 35.15625 
Q 26.953125 32.421875 25 30.078125 
L 46.484375 30.078125 
Q 46.484375 34.765625 46.09375 39.453125 
L 55.078125 39.453125 
z
M 75.390625 63.671875 
L 75.390625 71.09375 
L 24.21875 71.09375 
L 24.21875 63.671875 
z
M 75.390625 50 
L 75.390625 57.421875 
L 24.21875 57.421875 
L 24.21875 50 
z
" id="SimHei-26143"/>
       </defs>
       <use xlink:href="#SimHei-19977"/>
       <use x="100" xlink:href="#SimHei-26143"/>
      </g>
     </g>
    </g>
    <g id="ytick_7">
     <g id="line2d_15">
      <g>
       <use style="stroke:#000000;stroke-width:0.8;" x="57.6" xlink:href="#m42a7ac0617" y="119.546182"/>
      </g>
     </g>
     <g id="text_16">
      <!-- 歌尔光学 -->
      <g transform="translate(10.6 123.608682)scale(0.1 -0.1)">
       <defs>
        <path d="M 75.390625 45.3125 
Q 78.515625 50.78125 80.859375 57.03125 
L 29.296875 57.03125 
Q 21.484375 47.265625 14.453125 40.625 
Q 12.5 43.75 8.203125 46.09375 
Q 17.96875 53.515625 25 65.03125 
Q 32.03125 76.5625 34.375 82.03125 
Q 40.234375 78.90625 42.1875 78.515625 
Q 38.28125 72.265625 33.203125 64.0625 
L 92.578125 64.0625 
Q 86.71875 50.390625 83.203125 42.578125 
Q 78.90625 44.53125 75.390625 45.3125 
z
M 55.46875 50.390625 
Q 55.078125 44.53125 55.078125 39.0625 
L 55.078125 5.859375 
Q 55.078125 -3.515625 50.390625 -6.046875 
Q 45.703125 -8.59375 36.71875 -9.765625 
Q 35.9375 -5.46875 33.203125 -0.390625 
Q 42.578125 -0.78125 44.71875 0.390625 
Q 46.875 1.5625 46.875 5.859375 
L 46.875 38.28125 
Q 46.875 44.140625 46.484375 50.390625 
z
M 71.484375 35.9375 
Q 86.71875 17.578125 95.3125 7.421875 
Q 91.796875 5.46875 87.890625 1.5625 
Q 72.265625 23.046875 65.234375 30.46875 
Q 68.75 33.203125 71.484375 35.9375 
z
M 36.328125 31.640625 
Q 33.203125 28.125 27.140625 20.3125 
Q 21.09375 12.5 11.328125 1.953125 
Q 9.765625 5.078125 5.078125 8.203125 
Q 10.546875 12.5 17.1875 20.5 
Q 23.828125 28.515625 28.90625 37.5 
Q 33.203125 33.203125 36.328125 31.640625 
z
" id="SimHei-23572"/>
        <path d="M 94.53125 35.9375 
Q 90.234375 36.328125 80.46875 36.328125 
L 63.28125 36.328125 
L 63.28125 6.25 
Q 63.28125 0.78125 69.140625 0.78125 
L 77.734375 0.78125 
Q 82.8125 0.78125 83.984375 3.3125 
Q 85.15625 5.859375 85.9375 13.28125 
Q 89.84375 9.765625 95.3125 8.203125 
Q 93.75 2.734375 91.203125 -1.5625 
Q 88.671875 -5.859375 83.203125 -5.859375 
L 64.0625 -5.859375 
Q 55.46875 -5.859375 55.46875 2.734375 
L 55.46875 36.328125 
L 43.359375 36.328125 
Q 44.140625 1.953125 8.984375 -8.984375 
Q 6.25 -4.296875 3.515625 -0.78125 
Q 19.140625 2.34375 27.140625 10.734375 
Q 35.15625 19.140625 35.546875 36.328125 
L 22.65625 36.328125 
Q 9.765625 36.328125 5.859375 35.9375 
L 5.859375 43.359375 
Q 9.765625 42.96875 22.265625 42.96875 
L 46.09375 42.96875 
L 46.09375 67.1875 
Q 46.09375 74.21875 45.703125 80.46875 
L 55.078125 80.46875 
Q 54.296875 76.5625 54.296875 67.1875 
L 54.296875 42.96875 
L 80.46875 42.96875 
Q 89.453125 42.96875 94.53125 43.359375 
z
M 64.0625 51.953125 
Q 73.4375 63.28125 76.171875 71.484375 
Q 81.25 68.359375 85.546875 66.796875 
Q 82.8125 64.0625 79.296875 58.78125 
Q 75.78125 53.515625 71.484375 47.65625 
Q 67.1875 50 64.0625 51.953125 
z
M 27.734375 46.875 
Q 25 52.734375 16.015625 64.84375 
Q 19.921875 67.1875 24.21875 69.53125 
Q 28.125 64.0625 30.65625 60.15625 
Q 33.203125 56.25 35.9375 51.5625 
Q 31.640625 49.609375 27.734375 46.875 
z
" id="SimHei-20809"/>
        <path d="M 76.171875 41.796875 
L 76.171875 33.59375 
Q 70.703125 32.421875 66.203125 29.875 
Q 61.71875 27.34375 55.859375 24.609375 
L 55.859375 21.09375 
L 80.46875 21.09375 
Q 85.15625 21.09375 92.578125 21.484375 
L 92.578125 13.671875 
Q 84.765625 14.0625 80.46875 14.0625 
L 55.859375 14.0625 
L 55.859375 -1.953125 
Q 55.859375 -7.421875 51.5625 -8.78125 
Q 47.265625 -10.15625 37.5 -10.9375 
Q 36.328125 -6.640625 33.59375 -2.34375 
L 44.140625 -2.34375 
Q 48.046875 -2.34375 48.046875 1.953125 
L 48.046875 14.0625 
L 21.09375 14.0625 
Q 14.84375 14.0625 7.03125 13.671875 
L 7.03125 21.484375 
Q 15.234375 21.09375 20.703125 21.09375 
L 48.046875 21.09375 
Q 48.046875 24.21875 47.265625 28.125 
L 61.328125 35.15625 
L 39.84375 35.15625 
Q 32.421875 35.15625 23.046875 34.765625 
L 23.046875 42.1875 
Q 31.640625 41.796875 39.453125 41.796875 
z
M 83.59375 77.734375 
Q 75.78125 68.75 70.3125 59.375 
L 91.796875 59.375 
Q 91.40625 55.859375 91.40625 51.171875 
Q 91.40625 46.484375 91.796875 42.1875 
L 83.59375 42.1875 
L 83.59375 52.734375 
L 16.015625 52.734375 
L 16.015625 41.796875 
L 7.8125 41.796875 
Q 8.203125 46.484375 8.203125 51.171875 
Q 8.203125 55.859375 7.8125 59.375 
L 62.109375 59.375 
Q 65.234375 64.84375 68.546875 70.890625 
Q 71.875 76.953125 73.828125 82.8125 
Q 80.078125 79.296875 83.59375 77.734375 
z
M 46.09375 81.640625 
Q 53.515625 72.265625 55.859375 67.96875 
Q 52.34375 65.234375 48.4375 62.890625 
Q 45.3125 69.140625 39.0625 76.953125 
Q 42.96875 79.6875 46.09375 81.640625 
z
M 19.53125 78.90625 
Q 26.5625 73.046875 31.640625 66.796875 
Q 27.34375 63.671875 25 60.9375 
Q 19.921875 68.359375 13.28125 73.828125 
Q 17.578125 76.953125 19.53125 78.90625 
z
" id="SimHei-23398"/>
       </defs>
       <use xlink:href="#SimHei-27468"/>
       <use x="100" xlink:href="#SimHei-23572"/>
       <use x="200" xlink:href="#SimHei-20809"/>
       <use x="300" xlink:href="#SimHei-23398"/>
      </g>
     </g>
    </g>
    <g id="ytick_8">
     <g id="line2d_16">
      <g>
       <use style="stroke:#000000;stroke-width:0.8;" x="57.6" xlink:href="#m42a7ac0617" y="92.055273"/>
      </g>
     </g>
     <g id="text_17">
      <!-- LG -->
      <g transform="translate(40.6 95.492773)scale(0.1 -0.1)">
       <defs>
        <path d="M 45.3125 1.953125 
L 4.6875 1.953125 
L 4.6875 68.75 
L 13.671875 68.75 
L 13.671875 9.375 
L 45.3125 9.375 
z
" id="SimHei-76"/>
        <path d="M 44.53125 1.171875 
L 37.890625 1.171875 
L 36.71875 6.640625 
Q 35.15625 4.296875 31.828125 2.734375 
Q 28.515625 1.171875 24.609375 1.171875 
Q 16.40625 1.171875 9.953125 8.78125 
Q 3.515625 16.40625 3.515625 33.203125 
Q 3.515625 51.5625 9.375 60.546875 
Q 15.234375 69.53125 25.390625 69.53125 
Q 34.375 69.53125 39.453125 62.890625 
Q 44.53125 56.25 44.53125 45.703125 
L 35.9375 45.703125 
Q 35.9375 53.90625 33.203125 58 
Q 30.46875 62.109375 25.390625 62.109375 
Q 19.140625 62.109375 16.015625 55.65625 
Q 12.890625 49.21875 12.890625 33.984375 
Q 12.890625 19.53125 16.796875 14.0625 
Q 20.703125 8.59375 25.78125 8.59375 
Q 30.859375 8.59375 33.78125 12.296875 
Q 36.71875 16.015625 36.71875 23.828125 
L 36.71875 28.125 
L 24.609375 28.125 
L 24.609375 35.546875 
L 44.53125 35.546875 
z
" id="SimHei-71"/>
       </defs>
       <use xlink:href="#SimHei-76"/>
       <use x="50" xlink:href="#SimHei-71"/>
      </g>
     </g>
    </g>
    <g id="ytick_9">
     <g id="line2d_17">
      <g>
       <use style="stroke:#000000;stroke-width:0.8;" x="57.6" xlink:href="#m42a7ac0617" y="64.564364"/>
      </g>
     </g>
     <g id="text_18">
      <!-- 腾讯 -->
      <g transform="translate(30.6 68.56827)scale(0.1 -0.1)">
       <defs>
        <path d="M 69.140625 79.296875 
Q 67.1875 75.390625 65.625 63.671875 
L 77.34375 63.671875 
Q 82.421875 63.671875 89.453125 64.0625 
L 89.453125 57.421875 
Q 82.421875 57.8125 77.34375 57.8125 
L 64.84375 57.8125 
L 62.5 50.78125 
L 82.03125 50.78125 
Q 87.5 50.78125 94.53125 51.171875 
L 94.53125 44.921875 
Q 87.5 45.3125 82.421875 45.3125 
L 77.34375 45.3125 
Q 80.46875 39.84375 85.546875 36.328125 
Q 90.625 32.8125 96.875 30.46875 
Q 92.96875 26.953125 91.015625 23.828125 
Q 83.203125 28.90625 78.125 33.984375 
Q 77.34375 24.609375 76.5625 18.75 
L 91.40625 18.75 
Q 90.234375 8.59375 89.84375 3.515625 
Q 89.453125 -1.5625 88.46875 -5.078125 
Q 87.5 -8.59375 82.421875 -9.5625 
Q 77.34375 -10.546875 73.046875 -10.9375 
Q 72.65625 -7.03125 70.3125 -1.953125 
Q 75.78125 -2.734375 78.703125 -2.53125 
Q 81.640625 -2.34375 82.21875 -0.390625 
Q 82.8125 1.5625 83.59375 13.28125 
L 47.65625 13.28125 
Q 48.828125 16.40625 49.40625 19.71875 
Q 50 23.046875 50 27.734375 
Q 54.296875 26.5625 58.59375 26.171875 
Q 56.25 22.265625 55.859375 18.75 
L 69.921875 18.75 
Q 70.703125 25.78125 71.09375 31.640625 
L 53.515625 31.640625 
L 53.515625 34.375 
Q 47.65625 26.953125 41.015625 22.265625 
Q 39.0625 25.390625 36.328125 27.734375 
Q 47.265625 34.765625 53.125 45.3125 
Q 43.75 45.3125 37.890625 44.921875 
L 37.890625 51.171875 
Q 43.75 50.78125 55.46875 50.78125 
Q 57.03125 54.296875 57.8125 57.8125 
Q 46.09375 57.8125 41.015625 57.421875 
L 41.015625 64.0625 
Q 46.484375 63.671875 58.59375 63.671875 
Q 59.765625 74.609375 59.765625 81.640625 
Q 64.0625 80.078125 69.140625 79.296875 
z
M 3.125 -4.6875 
Q 7.03125 2.734375 8.984375 10.15625 
Q 10.9375 17.578125 10.9375 26.5625 
L 10.9375 62.109375 
Q 10.9375 68.75 10.546875 75 
L 35.546875 75 
Q 35.15625 69.140625 35.15625 62.890625 
L 35.15625 0 
Q 35.15625 -7.421875 22.265625 -8.203125 
Q 22.265625 -3.90625 19.921875 0.78125 
Q 28.90625 0 28.515625 2.734375 
L 28.515625 22.65625 
L 17.578125 22.65625 
Q 17.1875 16.015625 15.625 8.390625 
Q 14.0625 0.78125 9.375 -8.203125 
Q 6.25 -5.46875 3.125 -4.6875 
z
M 64.0625 6.25 
Q 69.140625 6.25 74.609375 6.640625 
L 74.609375 0.390625 
Q 69.140625 0.78125 64.453125 0.78125 
L 50 0.78125 
Q 45.3125 0.78125 39.453125 0.390625 
L 39.453125 6.640625 
Q 45.3125 6.25 50 6.25 
z
M 28.515625 28.90625 
L 28.515625 46.484375 
L 17.578125 46.484375 
L 17.578125 28.90625 
z
M 28.515625 52.34375 
L 28.515625 69.140625 
L 17.578125 69.140625 
L 17.578125 52.34375 
z
M 75 37.109375 
Q 72.265625 41.015625 70.3125 45.3125 
L 60.546875 45.3125 
Q 58.203125 40.625 55.859375 37.109375 
z
M 86.328125 75 
Q 84.765625 73.828125 83 71.875 
Q 81.25 69.921875 77.734375 65.234375 
Q 75 67.1875 71.875 68.75 
Q 76.953125 74.609375 79.296875 80.078125 
Q 82.421875 77.34375 86.328125 75 
z
M 48.4375 78.90625 
Q 49.609375 76.953125 54.296875 69.921875 
Q 50.390625 67.96875 47.65625 66.015625 
Q 44.921875 71.875 42.1875 75 
Q 44.921875 76.171875 48.4375 78.90625 
z
" id="SimHei-33150"/>
        <path d="M 89.0625 14.84375 
Q 91.796875 12.5 96.875 10.9375 
Q 95.3125 -1.953125 92.96875 -5.859375 
Q 90.625 -9.765625 85.34375 -7.421875 
Q 80.078125 -5.078125 77.34375 1.359375 
Q 74.609375 7.8125 73.4375 17.578125 
Q 72.265625 27.34375 72.265625 40.625 
Q 72.265625 54.296875 72.65625 68.359375 
L 54.296875 68.359375 
L 54.296875 39.84375 
Q 58.984375 39.84375 68.359375 40.234375 
L 68.359375 33.59375 
Q 62.5 33.984375 54.296875 33.984375 
L 54.296875 6.25 
Q 54.296875 1.171875 54.6875 -8.59375 
L 46.875 -8.59375 
Q 47.265625 1.5625 47.265625 6.25 
L 47.265625 33.984375 
L 44.140625 33.984375 
Q 38.671875 33.984375 33.59375 33.59375 
L 33.59375 40.234375 
Q 38.671875 39.84375 44.53125 39.84375 
L 47.265625 39.84375 
L 47.265625 68.359375 
Q 41.015625 68.359375 35.15625 67.96875 
L 35.15625 75 
Q 41.40625 74.609375 47.65625 74.609375 
L 80.46875 74.609375 
Q 80.078125 63.28125 79.6875 47.65625 
Q 79.296875 32.03125 80.859375 18.9375 
Q 82.421875 5.859375 84.765625 3.703125 
Q 87.109375 1.5625 88.28125 3.703125 
Q 89.453125 5.859375 89.0625 14.84375 
z
M 26.171875 50.390625 
Q 25.78125 39.453125 25.78125 33.59375 
L 25.78125 8.59375 
Q 29.6875 12.109375 34.765625 18.359375 
Q 35.546875 14.84375 37.890625 10.15625 
Q 34.765625 7.421875 29.484375 2.34375 
Q 24.21875 -2.734375 21.09375 -7.03125 
Q 17.578125 -3.515625 14.84375 -0.390625 
Q 18.75 3.125 18.75 8.984375 
L 18.75 43.75 
Q 10.546875 43.75 6.640625 43.359375 
L 6.640625 50.78125 
Q 12.109375 50.390625 26.171875 50.390625 
z
M 15.625 80.859375 
Q 21.09375 76.171875 30.078125 66.40625 
Q 26.953125 64.453125 23.828125 61.328125 
Q 20.3125 66.40625 10.546875 75.390625 
Q 12.890625 77.734375 15.625 80.859375 
z
" id="SimHei-35759"/>
       </defs>
       <use xlink:href="#SimHei-33150"/>
       <use x="100" xlink:href="#SimHei-35759"/>
      </g>
     </g>
    </g>
   </g>
   <g id="patch_12">
    <path d="M 57.6 307.584 
L 57.6 41.472 
" style="fill:none;stroke:#000000;stroke-linecap:square;stroke-linejoin:miter;stroke-width:0.8;"/>
   </g>
   <g id="patch_13">
    <path d="M 57.6 307.584 
L 414.72 307.584 
" style="fill:none;stroke:#000000;stroke-linecap:square;stroke-linejoin:miter;stroke-width:0.8;"/>
   </g>
   <g id="text_19">
    <!-- 2021年9月全球虚拟现实行业专利申请数量统计 -->
    <g transform="translate(113.16 35.472)scale(0.12 -0.12)">
     <defs>
      <path d="M 5.46875 45.703125 
Q 14.0625 53.90625 21.484375 65.625 
Q 28.90625 77.34375 29.6875 82.421875 
Q 35.546875 80.078125 40.625 78.90625 
Q 37.109375 75.390625 32.8125 67.578125 
L 72.265625 67.578125 
Q 80.859375 67.578125 89.84375 67.96875 
L 89.84375 61.328125 
Q 81.640625 61.71875 72.265625 61.71875 
L 59.375 61.71875 
L 59.375 45.703125 
Q 74.21875 45.703125 85.546875 46.09375 
L 85.546875 39.453125 
Q 73.828125 39.84375 59.375 39.84375 
L 59.375 21.484375 
L 79.296875 21.484375 
Q 87.890625 21.484375 95.3125 21.875 
L 95.3125 15.234375 
Q 88.28125 15.625 79.296875 15.625 
L 59.375 15.625 
L 59.375 6.640625 
Q 59.375 -2.34375 59.765625 -9.765625 
L 51.171875 -9.765625 
Q 51.5625 -2.34375 51.5625 5.859375 
L 51.5625 15.625 
L 25 15.625 
Q 14.0625 15.625 4.296875 15.234375 
L 4.296875 21.875 
Q 13.671875 21.484375 22.65625 21.484375 
Q 22.65625 36.71875 22.265625 45.703125 
L 51.5625 45.703125 
L 51.5625 61.71875 
L 29.296875 61.71875 
Q 21.09375 49.21875 14.453125 41.40625 
Q 10.15625 44.921875 5.46875 45.703125 
z
M 51.5625 21.484375 
L 51.5625 39.84375 
L 30.078125 39.84375 
L 30.078125 21.484375 
z
" id="SimHei-24180"/>
      <path d="M 12.5 1.171875 
Q 21.09375 15.625 26.5625 27.34375 
Q 16.796875 25.78125 10.34375 29.875 
Q 3.90625 33.984375 2.53125 41.015625 
Q 1.171875 48.046875 2.734375 53.703125 
Q 4.296875 59.375 7.609375 63.078125 
Q 10.9375 66.796875 15.625 68.359375 
Q 20.3125 69.921875 24.015625 69.921875 
Q 27.734375 69.921875 31.640625 68.359375 
Q 35.546875 66.796875 38.671875 63.671875 
Q 41.796875 60.546875 42.96875 57.21875 
Q 44.140625 53.90625 44.140625 48.625 
Q 44.140625 43.359375 40.234375 35.15625 
Q 36.328125 26.953125 21.09375 1.171875 
z
M 9.765625 50 
Q 10.9375 39.84375 14.640625 36.515625 
Q 18.359375 33.203125 22.65625 33.59375 
Q 26.953125 33.984375 29.484375 35.9375 
Q 32.03125 37.890625 34.375 42.578125 
Q 35.9375 48.4375 35.15625 52.53125 
Q 34.375 56.640625 31.046875 59.375 
Q 27.734375 62.109375 23.828125 62.109375 
Q 21.484375 62.5 17.765625 60.9375 
Q 14.0625 59.375 11.90625 54.6875 
Q 9.765625 50 10.9375 39.84375 
z
" id="SimHei-57"/>
      <path d="M 82.03125 75.390625 
Q 81.25 66.015625 81.25 58.59375 
L 81.25 3.125 
Q 81.25 -4.296875 77.34375 -5.859375 
Q 73.4375 -7.421875 62.109375 -8.203125 
Q 61.328125 -3.515625 58.59375 0.78125 
Q 67.1875 0.390625 70.5 0.78125 
Q 73.828125 1.171875 73.828125 6.25 
L 73.828125 25 
L 28.90625 25 
Q 26.953125 12.109375 22.65625 3.515625 
Q 18.359375 -5.078125 14.0625 -8.984375 
Q 10.9375 -6.25 6.25 -5.078125 
Q 12.5 0.390625 16.203125 8 
Q 19.921875 15.625 20.890625 23.046875 
Q 21.875 30.46875 21.875 39.453125 
L 21.875 56.640625 
Q 21.875 65.234375 21.484375 75.390625 
L 82.03125 75.390625 
z
M 73.828125 53.125 
L 73.828125 69.53125 
L 29.296875 69.53125 
L 29.296875 53.125 
z
M 73.828125 31.25 
L 73.828125 47.265625 
L 29.296875 47.265625 
L 29.296875 31.25 
z
" id="SimHei-26376"/>
      <path d="M 54.296875 75.390625 
Q 67.96875 53.515625 95.703125 47.265625 
Q 92.1875 42.96875 91.015625 38.28125 
Q 83.203125 41.40625 77.734375 44.921875 
L 77.734375 38.671875 
Q 73.4375 39.0625 64.0625 39.0625 
L 54.6875 39.0625 
L 54.6875 23.4375 
L 69.53125 23.4375 
Q 77.734375 23.4375 82.8125 23.828125 
L 82.8125 16.796875 
Q 77.734375 17.1875 69.53125 17.1875 
L 54.6875 17.1875 
L 54.6875 -0.390625 
L 69.921875 -0.390625 
Q 81.640625 -0.390625 89.0625 0.390625 
L 89.0625 -7.8125 
Q 82.03125 -6.640625 70.703125 -6.640625 
L 27.734375 -6.640625 
Q 16.015625 -6.640625 10.15625 -7.03125 
L 10.15625 0 
Q 16.015625 -0.390625 27.734375 -0.390625 
L 46.875 -0.390625 
L 46.875 17.1875 
L 35.9375 17.1875 
Q 22.65625 17.1875 18.359375 16.796875 
L 18.359375 23.828125 
Q 22.65625 23.4375 35.546875 23.4375 
L 46.875 23.4375 
L 46.875 39.0625 
L 39.0625 39.0625 
Q 26.953125 39.0625 23.4375 38.671875 
L 23.4375 44.921875 
Q 19.921875 42.1875 10.15625 36.71875 
Q 7.8125 41.40625 4.6875 44.921875 
Q 14.0625 47.265625 26.5625 56.640625 
Q 39.0625 66.015625 46.484375 81.25 
Q 51.171875 79.296875 56.25 77.34375 
z
M 25.78125 46.09375 
Q 30.46875 45.703125 39.453125 45.703125 
L 62.890625 45.703125 
Q 70.703125 45.703125 75 46.09375 
Q 58.203125 54.6875 50 71.09375 
Q 39.453125 55.078125 25.78125 46.09375 
z
" id="SimHei-20840"/>
      <path d="M 93.75 42.96875 
Q 91.40625 41.015625 86.90625 36.515625 
Q 82.421875 32.03125 76.5625 26.953125 
Q 88.28125 10.9375 96.875 5.859375 
Q 92.96875 4.296875 89.453125 0 
Q 77.34375 11.328125 67.96875 30.46875 
L 67.96875 -0.390625 
Q 67.96875 -5.46875 65.234375 -7.21875 
Q 62.5 -8.984375 56.25 -10.15625 
Q 55.078125 -6.25 52.34375 -1.953125 
Q 60.9375 -1.953125 60.9375 0 
L 60.9375 24.609375 
Q 57.8125 20.3125 53.3125 14.453125 
Q 48.828125 8.59375 43.359375 1.953125 
Q 40.625 5.46875 36.328125 7.03125 
Q 42.96875 12.5 49.40625 20.109375 
Q 55.859375 27.734375 60.9375 36.71875 
L 60.9375 57.421875 
Q 45.703125 57.421875 40.625 57.03125 
L 40.625 63.671875 
Q 45.703125 63.28125 60.9375 63.28125 
Q 60.9375 76.171875 60.546875 81.25 
L 68.75 81.25 
Q 67.578125 76.171875 67.96875 63.28125 
L 80.46875 63.28125 
Q 86.328125 63.28125 91.40625 63.671875 
L 91.40625 57.03125 
Q 86.328125 57.421875 80.46875 57.421875 
L 67.96875 57.421875 
L 67.96875 44.140625 
Q 69.921875 37.5 73.4375 32.8125 
Q 80.078125 38.671875 86.71875 48.828125 
Q 89.453125 46.09375 93.75 42.96875 
z
M 27.734375 67.96875 
Q 32.03125 67.96875 36.71875 68.359375 
L 36.71875 61.328125 
Q 31.640625 61.71875 24.609375 61.71875 
L 24.609375 41.796875 
Q 29.6875 41.796875 34.765625 42.1875 
L 34.765625 35.15625 
Q 29.6875 35.546875 24.609375 35.546875 
L 24.609375 12.109375 
Q 31.640625 14.453125 36.328125 16.796875 
Q 37.109375 13.28125 37.890625 10.546875 
Q 30.859375 8.59375 22.0625 5.078125 
Q 13.28125 1.5625 8.203125 -1.5625 
Q 6.640625 1.953125 4.6875 6.25 
Q 9.765625 7.03125 17.578125 10.15625 
L 17.578125 35.546875 
Q 10.9375 35.546875 5.859375 35.15625 
L 5.859375 42.1875 
Q 11.328125 41.796875 17.578125 41.796875 
L 17.578125 61.71875 
Q 9.765625 61.71875 4.6875 61.328125 
L 4.6875 68.359375 
Q 9.765625 67.96875 13.28125 67.96875 
z
M 48.828125 32.421875 
Q 45.3125 39.84375 41.40625 44.921875 
Q 44.53125 47.265625 46.875 48.828125 
Q 51.5625 43.359375 55.46875 37.109375 
Q 52.734375 35.15625 48.828125 32.421875 
z
M 77.734375 81.640625 
Q 81.640625 76.953125 85.546875 71.09375 
L 79.6875 67.1875 
Q 75.78125 73.4375 71.875 77.734375 
Q 75 79.6875 77.734375 81.640625 
z
" id="SimHei-29699"/>
      <path d="M 51.953125 82.8125 
Q 51.171875 78.515625 51.171875 76.171875 
L 72.65625 76.171875 
Q 78.125 76.171875 85.15625 76.5625 
L 85.15625 69.921875 
Q 78.125 70.3125 72.65625 70.3125 
L 51.171875 70.3125 
L 51.171875 63.671875 
L 95.703125 63.671875 
Q 93.75 59.765625 92.765625 56.046875 
Q 91.796875 52.34375 91.015625 48.046875 
Q 86.328125 49.609375 83.203125 50 
Q 84.375 53.90625 85.546875 57.421875 
L 50.78125 57.421875 
L 50.78125 50 
Q 67.578125 51.5625 73.4375 52.34375 
L 74.609375 46.484375 
Q 67.96875 45.703125 50.390625 43.75 
L 50.390625 40.234375 
Q 50.390625 36.71875 55.078125 36.71875 
L 72.65625 36.71875 
Q 75.78125 36.71875 77.140625 38.078125 
Q 78.515625 39.453125 79.296875 45.703125 
Q 82.8125 43.359375 87.109375 42.1875 
Q 84.765625 33.984375 82.21875 32.609375 
Q 79.6875 31.25 76.5625 31.25 
L 51.953125 31.25 
Q 43.359375 31.25 43.359375 37.109375 
L 43.359375 42.96875 
Q 36.328125 42.578125 27.734375 41.015625 
L 26.171875 48.4375 
Q 34.765625 48.828125 43.359375 49.609375 
L 43.359375 57.421875 
L 22.265625 57.421875 
L 22.265625 39.0625 
Q 22.265625 30.859375 21.28125 23.046875 
Q 20.3125 15.234375 17.96875 7.21875 
Q 15.625 -0.78125 10.9375 -10.546875 
Q 8.203125 -7.421875 3.125 -5.078125 
Q 8.203125 1.171875 10.546875 8.390625 
Q 12.890625 15.625 13.671875 22.453125 
Q 14.453125 29.296875 14.640625 35.546875 
Q 14.84375 41.796875 14.84375 48.828125 
Q 14.84375 55.859375 14.453125 63.671875 
L 43.75 63.671875 
L 43.75 70.3125 
Q 43.75 75.78125 43.359375 82.8125 
L 51.953125 82.8125 
z
M 52.34375 26.171875 
Q 51.953125 20.3125 51.953125 13.28125 
L 51.953125 -1.171875 
L 62.5 -1.171875 
L 62.5 14.453125 
Q 62.5 20.703125 62.109375 26.5625 
L 70.3125 26.5625 
Q 69.921875 20.703125 69.921875 14.453125 
L 69.921875 -1.171875 
L 82.8125 -1.171875 
Q 88.28125 -1.171875 95.703125 -0.78125 
L 95.703125 -7.8125 
Q 88.28125 -7.421875 82.8125 -7.421875 
L 36.328125 -7.421875 
Q 28.515625 -7.421875 22.265625 -7.8125 
L 22.265625 -0.78125 
Q 29.296875 -1.171875 36.328125 -1.171875 
L 44.53125 -1.171875 
L 44.53125 14.84375 
Q 44.53125 20.703125 44.140625 26.171875 
L 52.34375 26.171875 
z
M 91.40625 19.53125 
Q 88.28125 14.453125 86.328125 10.9375 
Q 84.375 7.421875 81.640625 3.125 
Q 77.734375 4.6875 74.609375 5.859375 
Q 77.734375 10.9375 79.09375 13.859375 
Q 80.46875 16.796875 83.203125 23.046875 
Q 86.71875 21.484375 91.40625 19.53125 
z
M 32.421875 23.4375 
Q 34.765625 18.359375 36.328125 14.640625 
Q 37.890625 10.9375 39.84375 5.859375 
Q 36.328125 4.6875 32.421875 2.734375 
Q 30.859375 7.03125 29.875 9.5625 
Q 28.90625 12.109375 25.390625 19.921875 
Q 29.6875 21.484375 32.421875 23.4375 
z
" id="SimHei-34394"/>
      <path d="M 26.171875 1.953125 
Q 26.171875 -2.734375 23.4375 -4.296875 
Q 20.703125 -5.859375 12.5 -7.8125 
Q 11.71875 -3.515625 8.984375 0 
Q 19.140625 0.390625 19.140625 4.296875 
L 19.140625 29.296875 
Q 10.9375 25.390625 7.421875 23.4375 
Q 5.859375 28.125 3.90625 30.859375 
Q 8.203125 32.03125 19.140625 36.328125 
L 19.140625 55.46875 
Q 11.328125 55.46875 5.46875 55.078125 
L 5.46875 62.5 
Q 10.9375 61.71875 19.140625 61.71875 
Q 19.140625 72.265625 18.75 81.640625 
L 26.953125 81.640625 
Q 26.171875 71.09375 26.171875 61.71875 
Q 31.640625 61.71875 36.328125 62.109375 
L 36.328125 55.078125 
Q 30.859375 55.46875 26.171875 55.46875 
L 26.171875 38.671875 
Q 33.59375 41.796875 35.9375 43.75 
Q 35.9375 39.84375 36.328125 36.328125 
Q 33.203125 35.15625 26.171875 32.03125 
z
M 77.34375 78.90625 
Q 82.421875 78.515625 85.9375 78.125 
Q 84.765625 72.65625 85.15625 52.140625 
Q 85.546875 31.640625 82.03125 19.921875 
Q 91.40625 8.59375 96.875 -0.78125 
Q 93.359375 -3.515625 90.234375 -6.25 
Q 86.328125 1.5625 78.90625 12.5 
Q 75 7.03125 69.328125 1.75 
Q 63.671875 -3.515625 51.953125 -10.15625 
Q 49.609375 -7.03125 45.703125 -3.90625 
Q 53.515625 -0.390625 60.9375 5.078125 
Q 68.359375 10.546875 72.0625 16.40625 
Q 75.78125 22.265625 76.953125 33.59375 
Q 78.125 44.921875 77.34375 78.90625 
z
M 39.0625 10.9375 
Q 41.796875 13.671875 41.796875 18.75 
L 41.796875 54.296875 
Q 41.796875 61.328125 41.40625 68.75 
L 49.609375 68.75 
Q 48.828125 62.109375 48.828125 54.6875 
L 48.828125 18.359375 
Q 58.984375 28.90625 63.28125 34.375 
Q 64.84375 30.078125 67.1875 26.953125 
Q 62.890625 23.4375 45.3125 4.6875 
L 39.0625 10.9375 
z
M 59.375 79.6875 
Q 68.359375 62.890625 71.484375 55.46875 
Q 66.40625 53.125 64.0625 51.5625 
Q 60.15625 60.546875 52.734375 76.171875 
Q 55.859375 77.34375 59.375 79.6875 
z
" id="SimHei-25311"/>
      <path d="M 72.65625 60.15625 
Q 71.09375 55.859375 70.5 46.484375 
Q 69.921875 37.109375 67.96875 26.5625 
L 75.78125 26.5625 
Q 75.390625 22.65625 75.390625 16.015625 
L 75.390625 3.515625 
Q 75.390625 -2.34375 77.53125 -2.734375 
Q 79.6875 -3.125 82.421875 -2.921875 
Q 85.15625 -2.734375 86.328125 -0.1875 
Q 87.5 2.34375 87.890625 8.984375 
Q 91.796875 6.640625 96.484375 5.859375 
Q 94.53125 -2.34375 92.578125 -5.265625 
Q 90.625 -8.203125 84.375 -8.984375 
L 76.5625 -8.984375 
Q 67.96875 -8.984375 67.96875 -1.5625 
L 67.96875 25.78125 
Q 64.453125 13.28125 57.8125 4.875 
Q 51.171875 -3.515625 37.890625 -10.546875 
Q 35.9375 -7.421875 31.25 -5.078125 
Q 43.75 0 49.609375 6.046875 
Q 55.46875 12.109375 58.984375 21.484375 
Q 62.5 30.859375 63.078125 41.015625 
Q 63.671875 51.171875 63.28125 61.328125 
Q 68.359375 60.546875 72.65625 60.15625 
z
M 28.90625 72.265625 
Q 33.203125 72.265625 39.453125 72.65625 
L 39.453125 65.234375 
Q 33.203125 65.625 26.171875 65.625 
L 26.171875 44.140625 
Q 31.640625 44.140625 37.890625 44.53125 
L 37.890625 37.109375 
Q 31.640625 37.5 26.171875 37.5 
L 26.171875 13.671875 
Q 32.8125 15.234375 39.84375 17.578125 
Q 39.453125 13.28125 39.453125 10.15625 
Q 26.5625 7.03125 18.75 4.296875 
Q 10.9375 1.5625 7.03125 -0.390625 
Q 5.859375 5.078125 3.90625 8.984375 
Q 10.15625 9.765625 19.140625 11.71875 
L 19.140625 37.5 
Q 12.890625 37.5 7.03125 37.109375 
L 7.03125 44.53125 
Q 12.890625 44.140625 19.140625 44.140625 
L 19.140625 65.625 
Q 12.109375 65.625 6.640625 65.234375 
L 6.640625 72.65625 
Q 11.328125 72.265625 15.625 72.265625 
z
M 89.84375 76.171875 
Q 89.453125 69.921875 89.453125 63.671875 
L 89.453125 37.5 
Q 89.453125 30.078125 89.84375 24.609375 
L 82.421875 24.609375 
L 82.421875 69.921875 
L 52.734375 69.921875 
L 52.734375 24.21875 
L 45.3125 24.21875 
Q 45.703125 30.859375 45.703125 39.0625 
L 45.703125 60.546875 
Q 45.703125 69.140625 45.3125 76.171875 
L 89.84375 76.171875 
z
" id="SimHei-29616"/>
      <path d="M 64.453125 54.6875 
Q 63.28125 50 62.5 41.796875 
Q 61.71875 33.59375 60.15625 24.21875 
L 78.515625 24.21875 
Q 85.546875 24.21875 93.359375 24.609375 
L 93.359375 17.1875 
Q 85.15625 17.578125 78.125 17.578125 
L 58.203125 17.578125 
Q 54.6875 9.765625 47.65625 3.90625 
Q 40.625 -1.953125 31.25 -5.265625 
Q 21.875 -8.59375 14.453125 -10.546875 
Q 12.890625 -5.859375 7.8125 -3.125 
Q 19.140625 -1.953125 32.03125 3.3125 
Q 44.921875 8.59375 50 17.578125 
L 22.265625 17.578125 
Q 15.234375 17.578125 6.640625 17.1875 
L 6.640625 24.609375 
Q 15.625 24.21875 22.265625 24.21875 
L 52.734375 24.21875 
Q 53.90625 30.859375 54.484375 38.46875 
Q 55.078125 46.09375 54.6875 57.03125 
Q 59.375 55.46875 64.453125 54.6875 
z
M 50.78125 82.03125 
Q 53.90625 75.78125 56.25 68.359375 
L 90.234375 68.359375 
Q 89.84375 64.0625 89.84375 59.765625 
Q 89.84375 55.859375 90.234375 51.171875 
L 81.25 51.171875 
L 81.25 62.109375 
L 19.140625 62.109375 
L 19.140625 50.390625 
L 10.546875 50.390625 
Q 10.9375 55.078125 10.9375 59.375 
Q 10.9375 64.0625 10.546875 68.359375 
L 46.484375 68.359375 
Q 45.3125 73.046875 42.1875 79.296875 
Q 45.3125 80.46875 50.78125 82.03125 
z
M 62.5 12.890625 
Q 71.09375 8.203125 78.90625 4.09375 
Q 86.71875 0 92.578125 -3.515625 
Q 89.84375 -6.640625 86.71875 -10.15625 
Q 79.6875 -5.078125 71.484375 -0.578125 
Q 63.28125 3.90625 57.421875 6.25 
Q 60.546875 10.15625 62.5 12.890625 
z
M 18.359375 42.96875 
Q 25 39.84375 36.71875 32.03125 
Q 35.15625 29.6875 32.03125 25.78125 
Q 21.09375 33.984375 14.453125 36.71875 
Q 16.796875 39.0625 18.359375 42.96875 
z
M 49.21875 44.140625 
Q 46.484375 41.015625 44.53125 37.890625 
Q 32.03125 46.875 26.171875 48.828125 
Q 28.125 51.5625 30.46875 55.078125 
z
" id="SimHei-23454"/>
      <path d="M 82.8125 48.4375 
Q 90.234375 48.4375 96.484375 48.828125 
L 96.484375 41.015625 
Q 90.234375 41.40625 83.203125 41.40625 
L 77.734375 41.40625 
L 77.734375 -1.171875 
Q 78.125 -5.859375 74.796875 -7.609375 
Q 71.484375 -9.375 61.71875 -10.546875 
Q 60.9375 -5.859375 57.421875 -1.171875 
Q 64.0625 -1.953125 66.796875 -1.75 
Q 69.53125 -1.5625 69.921875 2.34375 
L 69.921875 41.40625 
L 54.296875 41.40625 
Q 46.875 41.40625 40.234375 41.015625 
L 40.234375 48.828125 
Q 47.265625 48.4375 54.296875 48.4375 
z
M 35.9375 53.125 
Q 32.421875 51.171875 30.65625 48.046875 
Q 28.90625 44.921875 25.78125 40.234375 
L 25.78125 5.078125 
Q 25.78125 0 26.171875 -10.546875 
L 17.96875 -10.546875 
Q 18.359375 1.171875 18.359375 7.03125 
L 18.359375 32.03125 
Q 14.84375 26.171875 8.984375 20.3125 
Q 6.25 24.21875 3.90625 26.953125 
Q 12.890625 35.546875 17.96875 43.359375 
Q 23.046875 51.171875 26.953125 58.203125 
Q 30.859375 55.859375 35.9375 53.125 
z
M 76.171875 75 
Q 82.8125 75 89.84375 75.390625 
L 89.84375 67.96875 
Q 82.8125 68.359375 75.390625 68.359375 
L 60.9375 68.359375 
Q 52.34375 68.359375 46.09375 67.96875 
L 46.09375 75.390625 
Q 52.34375 75 60.9375 75 
z
M 32.421875 76.953125 
Q 29.296875 76.5625 24.21875 68.546875 
Q 19.140625 60.546875 10.15625 50.78125 
Q 7.8125 53.90625 5.078125 56.640625 
Q 11.328125 62.890625 16.40625 70.109375 
Q 21.484375 77.34375 23.828125 82.8125 
Q 27.734375 80.46875 32.421875 76.953125 
z
" id="SimHei-34892"/>
      <path d="M 44.140625 78.515625 
Q 43.359375 67.578125 43.359375 59.765625 
L 43.359375 2.34375 
L 56.25 2.34375 
L 56.25 64.453125 
Q 56.25 70.703125 55.46875 78.515625 
L 65.234375 78.515625 
Q 64.453125 72.265625 64.453125 65.234375 
L 64.453125 2.34375 
L 79.6875 2.34375 
Q 85.9375 2.34375 94.921875 3.125 
L 94.921875 -5.46875 
Q 85.9375 -4.6875 80.078125 -4.6875 
L 20.703125 -4.6875 
Q 15.234375 -4.6875 5.078125 -5.46875 
L 5.078125 3.125 
Q 15.234375 2.34375 20.3125 2.34375 
L 34.765625 2.34375 
L 34.765625 60.15625 
Q 34.765625 68.359375 33.59375 78.515625 
z
M 16.015625 58.984375 
Q 20.703125 46.875 28.90625 23.4375 
Q 24.609375 22.65625 19.921875 20.3125 
Q 12.890625 42.96875 7.421875 55.46875 
Q 11.328125 57.03125 16.015625 58.984375 
z
M 91.40625 56.640625 
Q 86.328125 43.359375 77.34375 19.53125 
Q 73.4375 21.875 69.140625 23.046875 
Q 77.34375 38.28125 81.640625 59.765625 
Q 85.9375 58.203125 91.40625 56.640625 
z
" id="SimHei-19994"/>
      <path d="M 69.53125 -9.375 
Q 62.109375 -5.46875 30.859375 6.25 
Q 32.8125 10.9375 33.59375 13.671875 
Q 41.015625 10.9375 53.515625 6.25 
Q 59.765625 12.890625 67.578125 23.046875 
L 39.453125 23.046875 
Q 33.203125 22.65625 30.46875 21.875 
Q 30.46875 24.21875 27.34375 29.296875 
Q 31.25 31.25 34.375 41.015625 
L 19.140625 41.015625 
Q 11.71875 41.015625 5.859375 40.625 
L 5.859375 48.4375 
Q 11.71875 48.046875 19.140625 48.046875 
L 36.71875 48.046875 
L 40.234375 59.765625 
L 25.390625 59.765625 
Q 19.140625 59.765625 14.84375 59.375 
L 14.84375 66.796875 
Q 19.140625 66.40625 25.390625 66.40625 
L 41.796875 66.40625 
Q 44.53125 75.78125 45.3125 82.03125 
Q 52.734375 80.859375 53.90625 80.859375 
Q 51.953125 75 49.609375 66.40625 
L 70.703125 66.40625 
Q 76.171875 66.40625 83.984375 66.796875 
L 83.984375 59.375 
Q 78.515625 59.765625 70.703125 59.765625 
L 48.046875 59.765625 
L 44.53125 48.046875 
L 79.296875 48.046875 
Q 85.15625 48.046875 92.96875 48.4375 
L 92.96875 40.625 
Q 87.109375 41.015625 79.6875 41.015625 
L 42.578125 41.015625 
Q 39.84375 33.59375 38.671875 30.078125 
L 81.25 30.078125 
L 81.25 23.4375 
Q 78.515625 22.65625 71.671875 15.625 
Q 64.84375 8.59375 60.546875 3.125 
Q 70.703125 -0.78125 73.4375 -1.5625 
L 69.53125 -9.375 
z
" id="SimHei-19987"/>
      <path d="M 37.5 41.40625 
Q 46.09375 33.59375 54.6875 23.828125 
Q 51.953125 21.484375 48.828125 17.96875 
Q 43.359375 26.171875 37.5 32.421875 
L 37.5 3.515625 
Q 37.5 -5.859375 37.890625 -10.546875 
L 29.296875 -10.546875 
Q 29.6875 -5.46875 29.6875 3.515625 
L 29.6875 30.859375 
Q 25.390625 22.65625 21.484375 17.1875 
Q 17.578125 11.71875 11.328125 4.296875 
Q 8.984375 8.203125 4.6875 10.9375 
Q 13.28125 17.96875 20.109375 28.703125 
Q 26.953125 39.453125 28.90625 46.09375 
L 21.484375 46.09375 
Q 12.109375 46.09375 7.8125 45.703125 
L 7.8125 53.125 
Q 12.5 52.734375 21.484375 52.734375 
L 29.6875 52.734375 
L 29.6875 67.96875 
Q 21.875 66.40625 12.890625 64.84375 
Q 11.71875 68.75 9.765625 72.265625 
Q 16.40625 72.65625 28.125 75 
Q 39.84375 77.34375 50.390625 80.859375 
Q 52.34375 76.171875 55.46875 72.65625 
Q 47.65625 71.484375 37.5 69.53125 
L 37.5 52.734375 
L 44.140625 52.734375 
Q 52.34375 52.734375 58.59375 53.125 
L 58.59375 45.703125 
Q 52.34375 46.09375 44.53125 46.09375 
L 37.5 46.09375 
L 37.5 41.40625 
z
M 90.234375 80.078125 
Q 89.84375 76.171875 89.84375 66.796875 
L 89.84375 -1.5625 
Q 89.84375 -6.25 86.125 -7.609375 
Q 82.421875 -8.984375 73.046875 -10.546875 
Q 71.875 -4.6875 70.3125 -1.171875 
Q 78.515625 -1.5625 80.265625 -0.78125 
Q 82.03125 0 82.03125 2.34375 
L 82.03125 67.1875 
Q 82.03125 72.65625 81.640625 80.078125 
L 90.234375 80.078125 
z
M 72.265625 64.0625 
Q 71.875 59.375 71.875 51.5625 
L 71.875 26.953125 
Q 71.875 18.75 72.265625 12.890625 
L 63.671875 12.890625 
Q 64.0625 19.921875 64.0625 26.953125 
L 64.0625 51.5625 
Q 64.0625 57.8125 63.671875 64.0625 
L 72.265625 64.0625 
z
" id="SimHei-21033"/>
      <path d="M 45.703125 66.40625 
Q 45.703125 77.34375 45.3125 82.03125 
L 53.515625 82.03125 
Q 53.125 77.734375 53.125 66.40625 
L 87.5 66.40625 
Q 87.109375 61.328125 87.109375 55.46875 
L 87.109375 22.265625 
Q 87.109375 17.1875 87.5 10.546875 
L 79.296875 10.546875 
L 79.296875 16.015625 
L 53.125 16.015625 
L 53.125 1.953125 
Q 53.125 -2.34375 53.515625 -10.15625 
L 45.3125 -10.15625 
Q 45.703125 -2.34375 45.703125 1.953125 
L 45.703125 16.015625 
L 20.3125 16.015625 
L 20.3125 9.375 
L 12.109375 9.375 
Q 12.5 16.015625 12.5 22.65625 
L 12.5 55.078125 
Q 12.5 61.328125 12.109375 66.40625 
L 45.703125 66.40625 
z
M 79.296875 23.046875 
L 79.296875 38.28125 
L 53.125 38.28125 
L 53.125 23.046875 
z
M 45.703125 23.046875 
L 45.703125 38.28125 
L 20.3125 38.28125 
L 20.3125 23.046875 
z
M 79.296875 45.3125 
L 79.296875 59.375 
L 53.125 59.375 
L 53.125 45.3125 
z
M 45.703125 45.3125 
L 45.703125 59.375 
L 20.3125 59.375 
L 20.3125 45.3125 
z
" id="SimHei-30003"/>
      <path d="M 41.796875 22.65625 
Q 41.796875 29.296875 41.40625 38.28125 
L 86.71875 38.28125 
Q 86.328125 31.640625 86.328125 25 
L 86.328125 -3.125 
Q 86.328125 -6.640625 83.78125 -7.609375 
Q 81.25 -8.59375 75 -9.765625 
Q 74.21875 -6.25 71.875 -2.734375 
Q 78.90625 -2.734375 78.90625 -0.390625 
L 78.90625 7.421875 
L 49.21875 7.421875 
L 49.21875 -8.984375 
L 41.40625 -8.984375 
Q 41.796875 -1.171875 41.796875 6.25 
z
M 33.59375 49.21875 
Q 39.84375 48.828125 60.15625 48.828125 
L 60.15625 56.25 
Q 45.3125 56.25 39.0625 55.859375 
L 39.0625 61.71875 
Q 45.3125 61.328125 60.15625 61.328125 
L 60.15625 67.1875 
Q 43.359375 67.1875 36.71875 66.796875 
L 36.71875 73.046875 
Q 43.75 72.65625 60.15625 72.65625 
Q 60.15625 76.953125 59.765625 80.859375 
L 67.96875 80.859375 
Q 67.578125 76.5625 67.578125 72.65625 
Q 85.9375 72.65625 92.1875 73.046875 
L 92.1875 66.796875 
Q 85.9375 67.1875 67.578125 67.1875 
L 67.578125 61.328125 
Q 84.765625 61.328125 89.84375 61.71875 
L 89.84375 55.859375 
Q 83.984375 56.25 67.578125 56.25 
L 67.578125 48.828125 
Q 89.84375 48.828125 95.703125 49.21875 
L 95.703125 42.96875 
Q 90.625 43.359375 65.234375 43.359375 
Q 40.234375 43.359375 33.59375 42.96875 
z
M 37.5 12.890625 
Q 32.421875 8.984375 26.953125 4.09375 
Q 21.484375 -0.78125 17.96875 -4.6875 
Q 15.234375 -0.390625 12.5 2.34375 
Q 16.40625 5.078125 16.40625 9.765625 
L 16.40625 42.96875 
Q 10.546875 42.96875 4.296875 42.578125 
L 4.296875 49.609375 
Q 9.375 49.21875 12.5 49.21875 
L 23.828125 49.21875 
Q 23.4375 42.96875 23.4375 35.15625 
L 23.4375 9.765625 
Q 29.6875 15.234375 33.203125 19.53125 
Q 34.765625 15.625 37.5 12.890625 
z
M 78.90625 12.890625 
L 78.90625 20.3125 
L 49.21875 20.3125 
L 49.21875 12.890625 
z
M 78.90625 25.78125 
L 78.90625 32.421875 
L 49.21875 32.421875 
L 49.21875 25.78125 
z
M 24.609375 58.59375 
Q 18.75 67.1875 11.328125 73.828125 
Q 14.0625 75.78125 16.40625 78.125 
Q 25.390625 70.3125 30.46875 63.671875 
Q 26.953125 60.546875 24.609375 58.59375 
z
" id="SimHei-35831"/>
      <path d="M 80.46875 67.1875 
Q 86.328125 67.1875 92.96875 67.578125 
L 92.96875 60.546875 
Q 86.71875 60.9375 80.859375 60.9375 
L 58.984375 60.9375 
Q 62.109375 58.59375 66.40625 56.25 
Q 63.28125 53.90625 59.953125 49.40625 
Q 56.640625 44.921875 50.390625 37.109375 
Q 59.375 37.109375 78.515625 39.0625 
Q 76.953125 41.015625 72.265625 46.484375 
Q 75.78125 48.4375 78.515625 50.78125 
Q 85.15625 43.75 92.96875 32.8125 
Q 89.0625 30.46875 86.328125 27.734375 
Q 83.984375 30.859375 82.421875 33.203125 
Q 76.953125 32.8125 75.390625 32.421875 
L 75.390625 3.125 
Q 75.390625 -1.5625 79.296875 -1.5625 
L 83.203125 -1.5625 
Q 86.71875 -1.5625 87.890625 8.984375 
Q 91.40625 6.25 96.09375 5.078125 
Q 92.578125 -8.203125 86.328125 -8.203125 
L 75.78125 -8.203125 
Q 67.96875 -8.203125 67.96875 0 
L 67.96875 31.640625 
Q 62.5 31.25 60.546875 30.859375 
Q 60.9375 16.40625 56.828125 7.21875 
Q 52.734375 -1.953125 41.015625 -10.9375 
Q 39.0625 -7.8125 33.984375 -5.859375 
Q 40.234375 -1.953125 44.53125 2.734375 
Q 48.828125 7.421875 51.171875 13.28125 
Q 53.515625 19.140625 53.125 30.078125 
Q 47.265625 29.6875 42.578125 28.515625 
Q 41.40625 34.375 39.453125 38.671875 
Q 44.140625 39.0625 49.796875 46.484375 
Q 55.46875 53.90625 57.421875 60.9375 
L 51.171875 60.9375 
Q 46.09375 60.9375 38.671875 60.546875 
L 38.671875 67.578125 
Q 44.921875 67.1875 50.78125 67.1875 
z
M 29.296875 75.390625 
Q 26.5625 71.875 23.4375 66.40625 
Q 20.3125 60.9375 14.0625 50.78125 
Q 21.484375 51.171875 25.78125 51.171875 
Q 28.90625 56.640625 30.859375 62.109375 
Q 35.15625 59.375 39.84375 57.421875 
Q 37.109375 54.6875 32.421875 47.453125 
Q 27.734375 40.234375 19.140625 26.953125 
Q 30.46875 28.125 39.0625 29.6875 
Q 37.109375 25 37.109375 22.265625 
Q 33.59375 21.875 24.796875 20.703125 
Q 16.015625 19.53125 9.375 17.578125 
Q 8.203125 21.484375 6.640625 25.390625 
Q 10.9375 26.5625 14.84375 32.421875 
Q 18.75 38.28125 22.65625 45.3125 
Q 19.140625 44.921875 14.453125 44.328125 
Q 9.765625 43.75 6.640625 42.96875 
Q 5.078125 46.875 3.125 50.390625 
Q 7.8125 51.5625 13.46875 62.890625 
Q 19.140625 74.21875 19.921875 79.296875 
Q 24.609375 76.953125 29.296875 75.390625 
z
M 39.84375 12.890625 
Q 39.453125 8.984375 39.84375 5.46875 
Q 30.859375 3.125 22.0625 0.578125 
Q 13.28125 -1.953125 8.59375 -3.90625 
Q 7.03125 0 4.296875 4.296875 
Q 14.0625 5.859375 22.65625 7.8125 
Q 31.25 9.765625 39.84375 12.890625 
z
M 64.0625 82.421875 
Q 68.359375 75.390625 70.3125 71.484375 
Q 67.578125 70.3125 62.890625 67.96875 
Q 59.765625 75.390625 57.03125 79.296875 
Q 61.71875 80.859375 64.0625 82.421875 
z
" id="SimHei-32479"/>
      <path d="M 61.328125 48.4375 
L 61.328125 67.96875 
Q 61.328125 75.78125 60.9375 80.078125 
L 69.140625 80.078125 
Q 68.75 75 68.75 71.09375 
L 68.75 48.4375 
L 84.765625 48.4375 
Q 89.453125 48.4375 94.921875 48.828125 
L 94.921875 41.40625 
Q 89.0625 41.796875 85.15625 41.796875 
L 68.75 41.796875 
L 68.75 2.734375 
Q 68.75 -1.953125 69.140625 -8.59375 
L 60.9375 -8.59375 
Q 61.328125 -1.953125 61.328125 2.34375 
L 61.328125 41.796875 
L 46.09375 41.796875 
Q 40.234375 41.796875 34.375 41.40625 
L 34.375 48.828125 
Q 40.234375 48.4375 45.3125 48.4375 
z
M 27.734375 49.21875 
Q 27.34375 41.796875 27.34375 33.59375 
L 27.34375 9.765625 
Q 33.984375 16.40625 37.890625 21.875 
Q 40.234375 18.75 43.359375 15.625 
L 32.421875 4.6875 
Q 27.34375 -0.390625 22.65625 -5.46875 
Q 19.921875 -1.953125 17.578125 0.78125 
Q 20.3125 3.90625 19.921875 10.15625 
L 19.921875 42.578125 
Q 9.375 42.578125 4.296875 42.1875 
L 4.296875 49.609375 
Q 10.546875 49.21875 12.890625 49.21875 
z
M 17.96875 78.90625 
Q 23.046875 73.828125 33.984375 62.5 
Q 30.46875 59.375 27.34375 56.640625 
Q 22.265625 64.0625 12.109375 74.21875 
Q 14.84375 76.171875 17.96875 78.90625 
z
" id="SimHei-35745"/>
     </defs>
     <use xlink:href="#SimHei-50"/>
     <use x="50" xlink:href="#SimHei-48"/>
     <use x="100" xlink:href="#SimHei-50"/>
     <use x="150" xlink:href="#SimHei-49"/>
     <use x="200" xlink:href="#SimHei-24180"/>
     <use x="300" xlink:href="#SimHei-57"/>
     <use x="350" xlink:href="#SimHei-26376"/>
     <use x="450" xlink:href="#SimHei-20840"/>
     <use x="550" xlink:href="#SimHei-29699"/>
     <use x="650" xlink:href="#SimHei-34394"/>
     <use x="750" xlink:href="#SimHei-25311"/>
     <use x="850" xlink:href="#SimHei-29616"/>
     <use x="950" xlink:href="#SimHei-23454"/>
     <use x="1050" xlink:href="#SimHei-34892"/>
     <use x="1150" xlink:href="#SimHei-19994"/>
     <use x="1250" xlink:href="#SimHei-19987"/>
     <use x="1350" xlink:href="#SimHei-21033"/>
     <use x="1450" xlink:href="#SimHei-30003"/>
     <use x="1550" xlink:href="#SimHei-35831"/>
     <use x="1650" xlink:href="#SimHei-25968"/>
     <use x="1750" xlink:href="#SimHei-37327"/>
     <use x="1850" xlink:href="#SimHei-32479"/>
     <use x="1950" xlink:href="#SimHei-35745"/>
    </g>
   </g>
  </g>
 </g>
 <defs>
  <clipPath id="p0592097708">
   <rect height="266.112" width="357.12" x="57.6" y="41.472"/>
  </clipPath>
 </defs>
</svg>
