<?xml version="1.0" encoding="utf-8" standalone="no"?>
<!DOCTYPE svg PUBLIC "-//W3C//DTD SVG 1.1//EN"
  "http://www.w3.org/Graphics/SVG/1.1/DTD/svg11.dtd">
<!-- Created with matplotlib (https://matplotlib.org/) -->
<svg height="345.6pt" version="1.1" viewBox="0 0 460.8 345.6" width="460.8pt" xmlns="http://www.w3.org/2000/svg" xmlns:xlink="http://www.w3.org/1999/xlink">
 <metadata>
  <rdf:RDF xmlns:cc="http://creativecommons.org/ns#" xmlns:dc="http://purl.org/dc/elements/1.1/" xmlns:rdf="http://www.w3.org/1999/02/22-rdf-syntax-ns#">
   <cc:Work>
    <dc:type rdf:resource="http://purl.org/dc/dcmitype/StillImage"/>
    <dc:date>2022-07-26T15:36:12.352622</dc:date>
    <dc:format>image/svg+xml</dc:format>
    <dc:creator>
     <cc:Agent>
      <dc:title>Matplotlib v3.3.4, https://matplotlib.org/</dc:title>
     </cc:Agent>
    </dc:creator>
   </cc:Work>
  </rdf:RDF>
 </metadata>
 <defs>
  <style type="text/css">*{stroke-linecap:butt;stroke-linejoin:round;}</style>
 </defs>
 <g id="figure_1">
  <g id="patch_1">
   <path d="M 0 345.6 
L 460.8 345.6 
L 460.8 0 
L 0 0 
z
" style="fill:#ffffff;"/>
  </g>
  <g id="axes_1">
   <g id="patch_2">
    <path d="M 130.021784 176.634705 
C 130.021784 191.908239 133.309134 207.004373 139.65994 220.894949 
C 146.010747 234.785525 155.277483 247.147868 166.829016 257.140012 
C 178.380548 267.132156 191.948538 274.521986 206.608905 278.8062 
C 221.269272 283.090414 236.681459 284.16949 251.795784 281.969936 
C 266.910109 279.770383 281.375469 274.343294 294.206666 266.058294 
C 307.037864 257.773294 317.936833 246.822843 326.161275 233.952746 
C 334.385717 221.082648 339.744579 206.591875 341.872884 191.467352 
C 344.001188 176.34283 342.849495 160.935899 338.496243 146.295884 
L 236.466584 176.634705 
L 130.021784 176.634705 
z
" style="fill:#1f77b4;"/>
   </g>
   <g id="patch_3">
    <path d="M 340.433462 141.917001 
C 335.323539 124.732296 325.953892 109.113896 313.197238 96.516548 
C 300.440583 83.9192 284.705677 74.746554 267.458117 69.852979 
L 238.403803 172.255822 
L 340.433462 141.917001 
z
" style="fill:#ff7f0e;"/>
   </g>
   <g id="patch_4">
    <path d="M 265.281192 67.86789 
C 256.368015 65.338993 247.162687 63.984593 237.898839 63.839065 
C 228.634991 63.693537 219.391663 64.758123 210.403449 67.005802 
L 236.226878 170.270733 
L 265.281192 67.86789 
z
" style="fill:#2ca02c;"/>
   </g>
   <g id="patch_5">
    <path d="M 207.831371 66.567304 
C 199.386008 68.679233 191.23153 71.819246 183.550811 75.916923 
C 175.870093 80.0146 168.720982 85.03908 162.263805 90.877683 
L 233.654801 169.832234 
L 207.831371 66.567304 
z
" style="fill:#d62728;"/>
   </g>
   <g id="patch_6">
    <path d="M 159.747226 91.627372 
C 155.279776 95.666857 151.163221 100.078233 147.441903 104.813984 
C 143.720585 109.549736 140.407913 114.592797 137.53957 119.888848 
L 231.138221 170.581924 
L 159.747226 91.627372 
z
" style="fill:#9467bd;"/>
   </g>
   <g id="patch_7">
    <path d="M 135.607914 121.157393 
C 133.43065 125.177449 131.514637 129.333602 129.871783 133.600024 
C 128.228929 137.866446 126.862644 142.234281 125.781419 146.676384 
L 229.206565 171.850469 
L 135.607914 121.157393 
z
" style="fill:#8c564b;"/>
   </g>
   <g id="patch_8">
    <path d="M 101.506206 142.681874 
C 101.268942 143.656649 101.04547 144.63473 100.835858 145.615823 
C 100.626246 146.596916 100.430515 147.580924 100.248723 148.567551 
L 204.931352 167.855959 
L 101.506206 142.681874 
z
" style="fill:#e377c2;"/>
   </g>
   <g id="patch_9">
    <path d="M 120.877037 154.271155 
C 120.291171 157.450783 119.850477 160.655454 119.556324 163.875197 
C 119.262171 167.094941 119.114866 170.326415 119.114866 173.559567 
L 225.559666 173.559563 
L 120.877037 154.271155 
z
" style="fill:#7f7f7f;"/>
   </g>
   <g id="matplotlib.axis_1"/>
   <g id="matplotlib.axis_2"/>
   <g id="text_1">
    <!-- 娱乐 -->
    <g transform="translate(253.328704 295.804241)scale(0.1 -0.1)">
     <defs>
      <path d="M 29.296875 79.296875 
Q 26.953125 72.65625 26.171875 67.96875 
Q 25.390625 63.28125 24.609375 59.375 
L 40.625 59.375 
Q 38.671875 44.140625 36.125 33.59375 
Q 33.59375 23.046875 31.25 17.1875 
Q 38.28125 12.5 41.015625 10.15625 
Q 37.890625 6.640625 35.15625 3.125 
Q 29.296875 9.765625 27.34375 10.9375 
Q 23.828125 5.859375 19.140625 0.390625 
Q 14.453125 -5.078125 9.765625 -8.59375 
Q 6.640625 -5.078125 3.125 -1.953125 
Q 7.8125 0.390625 12.5 3.90625 
Q 17.1875 7.421875 21.875 15.234375 
Q 19.53125 17.96875 16.203125 20.5 
Q 12.890625 23.046875 8.203125 26.5625 
Q 9.765625 30.46875 12.296875 38.078125 
Q 14.84375 45.703125 16.40625 53.125 
Q 10.546875 53.125 4.6875 52.734375 
L 4.6875 59.765625 
Q 10.9375 59.375 17.1875 59.375 
Q 17.578125 62.5 18.359375 68.15625 
Q 19.140625 73.828125 19.53125 80.859375 
Q 23.046875 80.078125 29.296875 79.296875 
z
M 75.78125 42.578125 
Q 79.296875 42.578125 90.234375 42.96875 
L 90.234375 35.9375 
Q 78.90625 36.328125 75.78125 36.328125 
L 69.140625 36.328125 
Q 68.75 30.859375 67.96875 25.390625 
L 81.25 25.390625 
Q 88.28125 25.390625 95.3125 25.78125 
L 95.3125 18.75 
Q 89.453125 19.140625 86.328125 19.140625 
L 73.046875 19.140625 
Q 76.5625 9.375 83 5.078125 
Q 89.453125 0.78125 95.703125 -0.78125 
Q 92.578125 -4.6875 90.625 -9.375 
Q 79.6875 -2.734375 74.21875 3.90625 
Q 68.75 10.546875 66.796875 17.96875 
Q 60.9375 4.6875 54.09375 -0.390625 
Q 47.265625 -5.46875 39.453125 -9.765625 
Q 36.71875 -5.46875 33.203125 -2.734375 
Q 46.875 1.953125 51.75 6.640625 
Q 56.640625 11.328125 59.375 19.140625 
L 51.953125 19.140625 
Q 42.96875 19.140625 37.109375 18.75 
L 37.109375 25.78125 
Q 48.4375 25.390625 50.78125 25.390625 
L 60.15625 25.390625 
Q 60.9375 30.46875 61.328125 36.328125 
L 56.640625 36.328125 
Q 53.125 36.328125 42.96875 35.9375 
L 42.96875 42.96875 
Q 51.953125 42.578125 54.296875 42.578125 
z
M 88.671875 62.5 
Q 88.671875 60.15625 89.0625 51.5625 
L 43.75 51.5625 
Q 44.140625 57.421875 44.140625 61.328125 
L 44.140625 67.578125 
Q 44.140625 71.484375 43.75 78.125 
L 88.671875 78.125 
L 88.671875 62.5 
z
M 80.859375 57.03125 
L 80.859375 71.875 
L 51.171875 71.875 
L 51.171875 57.03125 
z
M 16.40625 29.296875 
Q 19.53125 26.953125 25.78125 21.875 
Q 28.90625 30.46875 30.46875 38.28125 
Q 32.03125 46.09375 32.8125 53.125 
L 23.4375 53.125 
Q 21.484375 44.53125 19.71875 39.0625 
Q 17.96875 33.59375 16.40625 29.296875 
z
" id="SimHei-23089"/>
      <path d="M 48.4375 42.1875 
L 48.4375 50 
Q 48.4375 53.125 48.046875 63.28125 
L 57.03125 63.28125 
Q 56.640625 55.078125 56.640625 50 
L 56.640625 42.1875 
L 76.953125 42.1875 
Q 84.765625 42.1875 91.796875 42.578125 
L 91.796875 34.765625 
Q 81.25 35.15625 76.171875 35.15625 
L 56.640625 35.15625 
L 56.640625 0.390625 
Q 56.640625 -6.25 51.5625 -7.8125 
Q 46.484375 -9.375 37.109375 -10.15625 
Q 35.9375 -4.6875 33.984375 -1.171875 
Q 41.40625 -1.5625 44.921875 -0.96875 
Q 48.4375 -0.390625 48.4375 2.734375 
L 48.4375 35.15625 
L 28.90625 35.15625 
Q 17.578125 34.765625 14.453125 32.8125 
Q 13.671875 35.546875 10.546875 39.453125 
Q 13.671875 41.796875 15.03125 45.5 
Q 16.40625 49.21875 18.359375 72.265625 
Q 37.109375 72.265625 54.484375 74.796875 
Q 71.875 77.34375 79.6875 79.6875 
Q 82.421875 73.4375 84.765625 71.09375 
Q 71.875 69.53125 55.65625 67.96875 
Q 39.453125 66.40625 26.171875 65.625 
Q 24.21875 49.21875 23.046875 42.1875 
z
M 37.890625 23.4375 
Q 34.765625 20.703125 26.953125 12.296875 
Q 19.140625 3.90625 14.0625 -1.171875 
Q 12.109375 1.171875 7.8125 4.6875 
Q 13.671875 9.375 19.328125 15.421875 
Q 25 21.484375 30.46875 29.6875 
Q 34.765625 25.390625 37.890625 23.4375 
z
M 70.703125 27.34375 
Q 76.5625 22.265625 82.03125 16.984375 
Q 87.5 11.71875 93.359375 5.859375 
Q 87.890625 1.953125 85.9375 -0.390625 
Q 80.46875 6.640625 65.234375 21.484375 
Q 67.578125 23.4375 70.703125 27.34375 
z
" id="SimHei-20048"/>
     </defs>
     <use xlink:href="#SimHei-23089"/>
     <use x="100" xlink:href="#SimHei-20048"/>
    </g>
   </g>
   <g id="text_2">
    <!-- 54.60% -->
    <g transform="translate(230.664104 242.648344)scale(0.1 -0.1)">
     <defs>
      <path d="M 8.59375 20.703125 
Q 11.328125 10.15625 17.96875 8.984375 
Q 24.609375 7.8125 28.703125 10.34375 
Q 32.8125 12.890625 34.5625 16.984375 
Q 36.328125 21.09375 36.125 26.171875 
Q 35.9375 31.25 33.390625 34.765625 
Q 30.859375 38.28125 26.953125 39.453125 
Q 23.046875 40.625 18.15625 39.453125 
Q 13.28125 38.28125 10.15625 33.984375 
L 3.515625 34.765625 
Q 4.296875 37.109375 10.9375 68.359375 
L 41.796875 68.359375 
L 41.796875 61.328125 
L 16.796875 61.328125 
Q 14.84375 50.78125 12.890625 44.53125 
Q 18.75 47.265625 23.828125 47.0625 
Q 28.90625 46.875 33.59375 44.71875 
Q 38.28125 42.578125 40.421875 38.859375 
Q 42.578125 35.15625 43.546875 31.4375 
Q 44.53125 27.734375 44.328125 23.4375 
Q 44.140625 19.140625 42.578125 14.640625 
Q 41.015625 10.15625 37.890625 7.21875 
Q 34.765625 4.296875 30.265625 2.53125 
Q 25.78125 0.78125 19.921875 1.171875 
Q 14.0625 1.5625 8.78125 5.46875 
Q 3.515625 9.375 1.5625 18.75 
z
" id="SimHei-53"/>
      <path d="M 31.25 17.1875 
L 1.171875 17.1875 
L 1.171875 23.828125 
L 32.8125 69.53125 
L 38.671875 69.53125 
L 38.671875 23.828125 
L 48.046875 23.828125 
L 48.046875 17.1875 
L 38.671875 17.1875 
L 38.671875 2.34375 
L 31.25 2.34375 
z
M 31.25 23.828125 
L 31.25 54.6875 
L 9.375 23.828125 
z
" id="SimHei-52"/>
      <path d="M 16.796875 1.953125 
L 7.8125 1.953125 
L 7.8125 10.546875 
L 16.796875 10.546875 
z
" id="SimHei-46"/>
      <path d="M 3.515625 19.53125 
Q 4.296875 30.859375 6.046875 34.765625 
Q 7.8125 38.671875 11.328125 44.53125 
L 27.34375 69.53125 
L 36.328125 69.53125 
L 19.921875 43.75 
Q 30.46875 46.484375 36.71875 42.96875 
Q 42.96875 39.453125 45.109375 34.953125 
Q 47.265625 30.46875 47.453125 25.1875 
Q 47.65625 19.921875 45.890625 14.84375 
Q 44.140625 9.765625 39.640625 5.65625 
Q 35.15625 1.5625 27.140625 1.171875 
Q 19.140625 0.78125 13.46875 4.09375 
Q 7.8125 7.421875 5.65625 13.46875 
Q 3.515625 19.53125 4.296875 30.859375 
z
M 12.5 16.015625 
Q 19.53125 8.59375 25.390625 8.203125 
Q 31.25 7.8125 35.15625 12.109375 
Q 39.0625 16.40625 39.0625 24.609375 
Q 39.0625 32.8125 34.171875 35.9375 
Q 29.296875 39.0625 23.234375 38.28125 
Q 17.1875 37.5 14.453125 32.421875 
Q 11.71875 27.34375 12.109375 21.671875 
Q 12.5 16.015625 19.53125 8.59375 
z
" id="SimHei-54"/>
      <path d="M 3.125 29.296875 
Q 3.90625 50 6.4375 56.046875 
Q 8.984375 62.109375 13.671875 66.015625 
Q 18.359375 69.921875 25.1875 69.921875 
Q 32.03125 69.921875 37.109375 64.25 
Q 42.1875 58.59375 43.75 50 
Q 45.3125 41.40625 44.71875 30.265625 
Q 44.140625 19.140625 40.8125 12.109375 
Q 37.5 5.078125 30.859375 2.34375 
Q 24.21875 -0.390625 17.578125 2.921875 
Q 10.9375 6.25 8.203125 11.71875 
Q 5.46875 17.1875 4.296875 23.234375 
Q 3.125 29.296875 3.90625 50 
z
M 12.890625 52.734375 
Q 10.546875 31.25 12.5 22.84375 
Q 14.453125 14.453125 18.9375 10.9375 
Q 23.4375 7.421875 28.125 9.5625 
Q 32.8125 11.71875 34.953125 18.15625 
Q 37.109375 24.609375 37.109375 32.21875 
Q 37.109375 39.84375 36.515625 46.09375 
Q 35.9375 52.34375 33 57.421875 
Q 30.078125 62.5 25.1875 62.6875 
Q 20.3125 62.890625 16.59375 57.8125 
Q 12.890625 52.734375 10.546875 31.25 
z
" id="SimHei-48"/>
      <path d="M 21.875 51.953125 
Q 21.875 40.625 18.546875 37.5 
Q 15.234375 34.375 12.109375 34.375 
Q 8.984375 34.375 5.65625 37.5 
Q 2.34375 40.625 2.34375 51.953125 
Q 2.34375 63.28125 5.65625 66.40625 
Q 8.984375 69.53125 12.109375 69.53125 
Q 15.234375 69.53125 18.546875 66.40625 
Q 21.875 63.28125 21.875 51.953125 
z
M 41.015625 68.359375 
L 10.9375 1.171875 
L 7.8125 2.34375 
L 37.890625 69.53125 
z
M 46.484375 18.75 
Q 46.484375 7.421875 43.15625 4.296875 
Q 39.84375 1.171875 36.71875 1.171875 
Q 33.59375 1.171875 30.265625 4.296875 
Q 26.953125 7.421875 26.953125 18.75 
Q 26.953125 30.078125 30.265625 33.203125 
Q 33.59375 36.328125 36.71875 36.328125 
Q 39.84375 36.328125 43.15625 33.203125 
Q 46.484375 30.078125 46.484375 18.75 
z
M 15.625 51.953125 
Q 15.625 58.984375 14.84375 61.328125 
Q 14.0625 63.671875 12.109375 63.671875 
Q 10.15625 63.671875 9.375 61.328125 
Q 8.59375 58.984375 8.59375 51.953125 
Q 8.59375 44.921875 9.375 42.578125 
Q 10.15625 40.234375 12.109375 40.234375 
Q 14.0625 40.234375 14.84375 42.578125 
Q 15.625 44.921875 15.625 51.953125 
z
M 40.234375 18.75 
Q 40.234375 25.78125 39.453125 28.125 
Q 38.671875 30.46875 36.71875 30.46875 
Q 34.765625 30.46875 33.984375 28.125 
Q 33.203125 25.78125 33.203125 18.75 
Q 33.203125 11.71875 33.984375 9.375 
Q 34.765625 7.03125 36.71875 7.03125 
Q 38.671875 7.03125 39.453125 9.375 
Q 40.234375 11.71875 40.234375 18.75 
z
" id="SimHei-37"/>
     </defs>
     <use xlink:href="#SimHei-53"/>
     <use x="50" xlink:href="#SimHei-52"/>
     <use x="100" xlink:href="#SimHei-46"/>
     <use x="150" xlink:href="#SimHei-54"/>
     <use x="200" xlink:href="#SimHei-48"/>
     <use x="250" xlink:href="#SimHei-37"/>
    </g>
   </g>
   <g id="text_3">
    <!-- 教育 -->
    <g transform="translate(320.676581 92.243402)scale(0.1 -0.1)">
     <defs>
      <path d="M 26.171875 69.921875 
Q 26.171875 76.5625 25.78125 81.25 
L 33.59375 81.25 
Q 33.203125 76.5625 33.203125 69.921875 
Q 37.5 69.921875 43.359375 70.3125 
L 43.359375 63.28125 
Q 38.28125 63.671875 33.203125 63.671875 
L 33.203125 53.125 
L 36.328125 53.125 
Q 39.84375 57.03125 43.359375 62.890625 
Q 46.875 68.75 48.828125 75 
Q 52.34375 72.65625 55.859375 70.703125 
Q 54.6875 69.53125 51.75 64.453125 
Q 48.828125 59.375 44.140625 53.125 
Q 50.390625 53.125 53.515625 53.515625 
L 53.515625 46.484375 
Q 47.65625 46.875 39.453125 46.875 
Q 34.375 42.1875 29.6875 37.890625 
L 48.4375 37.890625 
L 48.4375 32.03125 
Q 45.703125 30.859375 42.375 28.703125 
Q 39.0625 26.5625 35.9375 23.828125 
L 35.9375 19.140625 
Q 44.921875 20.3125 53.125 21.875 
L 53.125 15.625 
Q 51.5625 15.625 35.9375 12.890625 
L 35.9375 0.78125 
Q 36.328125 -7.421875 21.09375 -8.59375 
Q 20.703125 -4.296875 18.359375 -0.390625 
Q 28.90625 -1.171875 28.90625 3.515625 
L 28.90625 11.71875 
Q 14.453125 9.375 7.8125 7.03125 
L 4.6875 14.84375 
Q 10.15625 15.234375 28.90625 17.96875 
Q 28.90625 22.265625 28.125 25.78125 
Q 32.421875 28.515625 36.328125 31.640625 
L 21.484375 31.640625 
Q 15.234375 26.953125 8.59375 23.046875 
Q 6.25 26.171875 3.125 28.90625 
Q 9.375 31.640625 16.015625 35.546875 
L 16.015625 37.890625 
L 19.53125 37.890625 
Q 26.5625 43.359375 30.078125 46.875 
Q 12.109375 46.875 5.078125 46.484375 
L 5.078125 53.515625 
Q 12.109375 53.125 26.171875 53.125 
L 26.171875 63.671875 
Q 18.359375 63.671875 12.109375 63.28125 
L 12.109375 70.3125 
Q 17.96875 69.921875 26.171875 69.921875 
z
M 73.046875 77.734375 
Q 71.875 76.5625 67.578125 60.9375 
Q 88.671875 60.9375 95.3125 61.328125 
L 95.3125 54.296875 
Q 89.84375 54.6875 86.328125 54.6875 
Q 85.546875 46.875 84.375 39.84375 
Q 83.203125 32.8125 81.4375 26.171875 
Q 79.6875 19.53125 76.171875 12.890625 
Q 83.984375 3.515625 96.484375 -0.78125 
Q 92.1875 -4.6875 91.015625 -7.8125 
Q 80.859375 -2.734375 71.484375 7.421875 
Q 61.71875 -3.125 46.875 -9.375 
Q 45.3125 -6.25 42.1875 -3.125 
Q 57.8125 1.953125 67.578125 13.28125 
Q 61.71875 25 58.59375 38.28125 
L 54.296875 31.640625 
Q 52.34375 34.375 49.21875 37.109375 
Q 53.90625 43.359375 57.609375 53.3125 
Q 61.328125 63.28125 62.6875 70.3125 
Q 64.0625 77.34375 64.453125 80.859375 
Q 69.140625 78.90625 73.046875 77.734375 
z
M 62.890625 47.265625 
Q 66.796875 28.90625 71.875 19.921875 
Q 76.953125 30.46875 79.296875 54.6875 
L 65.625 54.6875 
Q 64.0625 50.390625 62.890625 47.265625 
z
" id="SimHei-25945"/>
      <path d="M 62.890625 -1.5625 
Q 69.921875 -1.953125 71.484375 -0.1875 
Q 73.046875 1.5625 72.65625 7.03125 
L 30.859375 7.03125 
L 30.859375 -8.59375 
L 23.4375 -8.59375 
Q 23.828125 1.5625 23.828125 7.421875 
L 23.828125 25.78125 
Q 23.828125 32.421875 23.4375 40.234375 
L 80.46875 40.234375 
Q 80.078125 33.203125 80.078125 26.953125 
L 80.078125 0.390625 
Q 80.078125 -6.640625 76.171875 -7.8125 
Q 72.265625 -8.984375 66.015625 -9.765625 
Q 64.84375 -5.078125 62.890625 -1.5625 
z
M 66.796875 62.109375 
Q 81.25 51.5625 85.546875 48.4375 
Q 82.421875 45.3125 80.46875 42.96875 
Q 76.953125 46.484375 74.21875 48.046875 
Q 66.015625 47.265625 49.609375 46.484375 
Q 33.203125 45.703125 23.046875 44.140625 
Q 21.875 48.4375 19.53125 51.5625 
Q 23.4375 52.734375 27.34375 56.046875 
Q 31.25 59.375 34.375 64.0625 
L 21.484375 64.0625 
Q 15.625 64.0625 8.59375 63.671875 
L 8.59375 70.3125 
Q 15.625 69.921875 21.484375 69.921875 
L 47.265625 69.921875 
Q 46.875 71.875 43.75 78.90625 
Q 48.046875 79.6875 51.5625 81.25 
Q 55.078125 72.265625 56.25 69.921875 
L 76.5625 69.921875 
Q 82.421875 69.921875 92.578125 70.3125 
L 92.578125 63.671875 
Q 82.421875 64.0625 76.5625 64.0625 
L 37.5 64.0625 
Q 39.84375 61.71875 42.1875 59.765625 
L 37.5 56.25 
Q 34.375 53.90625 30.46875 50.78125 
Q 41.015625 51.171875 49.40625 51.5625 
Q 57.8125 51.953125 67.578125 52.734375 
L 62.109375 56.640625 
Q 64.453125 58.984375 66.796875 62.109375 
z
M 72.65625 26.171875 
L 72.65625 33.984375 
L 30.859375 33.984375 
L 30.859375 26.171875 
z
M 72.65625 13.28125 
L 72.65625 20.3125 
L 30.859375 20.3125 
L 30.859375 13.28125 
z
" id="SimHei-32946"/>
     </defs>
     <use xlink:href="#SimHei-25945"/>
     <use x="100" xlink:href="#SimHei-32946"/>
    </g>
   </g>
   <g id="text_4">
    <!-- 16.00% -->
    <g transform="translate(268.279864 129.624758)scale(0.1 -0.1)">
     <defs>
      <path d="M 21.875 56.25 
Q 16.796875 51.171875 8.984375 46.484375 
L 8.984375 53.90625 
Q 18.75 60.546875 25 69.53125 
L 29.6875 69.53125 
L 29.6875 2.34375 
L 21.875 2.34375 
z
" id="SimHei-49"/>
     </defs>
     <use xlink:href="#SimHei-49"/>
     <use x="50" xlink:href="#SimHei-54"/>
     <use x="100" xlink:href="#SimHei-46"/>
     <use x="150" xlink:href="#SimHei-48"/>
     <use x="200" xlink:href="#SimHei-48"/>
     <use x="250" xlink:href="#SimHei-37"/>
    </g>
   </g>
   <g id="text_5">
    <!-- 直播 -->
    <g transform="translate(238.066035 56.477148)scale(0.1 -0.1)">
     <defs>
      <path d="M 55.46875 78.515625 
Q 54.296875 76.171875 53.125 70.703125 
L 75.390625 70.703125 
Q 81.640625 70.703125 90.234375 71.09375 
L 90.234375 64.0625 
Q 82.03125 64.453125 75.390625 64.453125 
L 52.34375 64.453125 
Q 51.5625 58.984375 51.171875 55.078125 
L 79.6875 55.078125 
Q 79.296875 48.046875 79.296875 39.453125 
L 79.296875 1.5625 
L 82.8125 1.5625 
Q 88.28125 1.5625 95.3125 1.953125 
L 95.3125 -5.46875 
Q 88.671875 -5.078125 82.8125 -5.078125 
L 19.140625 -5.078125 
Q 12.5 -5.078125 5.078125 -5.46875 
L 5.078125 1.953125 
Q 12.890625 1.5625 19.140625 1.5625 
L 21.484375 1.5625 
L 21.484375 39.453125 
Q 21.484375 49.609375 21.09375 55.078125 
L 43.359375 55.078125 
Q 44.140625 59.765625 44.53125 64.453125 
L 24.21875 64.453125 
Q 16.796875 64.453125 9.375 64.0625 
L 9.375 71.09375 
Q 16.796875 70.703125 23.828125 70.703125 
L 44.921875 70.703125 
Q 45.3125 75 44.921875 79.296875 
Q 51.171875 78.515625 55.46875 78.515625 
z
M 71.875 15.234375 
L 71.875 22.65625 
L 28.90625 22.65625 
L 28.90625 15.234375 
z
M 71.875 1.5625 
L 71.875 8.984375 
L 28.90625 8.984375 
L 28.90625 1.5625 
z
M 71.875 41.40625 
L 71.875 48.828125 
L 28.90625 48.828125 
L 28.90625 41.40625 
z
M 71.875 28.515625 
L 71.875 35.546875 
L 28.90625 35.546875 
L 28.90625 28.515625 
z
" id="SimHei-30452"/>
      <path d="M 90.234375 71.875 
Q 83.203125 71.09375 67.1875 69.921875 
L 67.1875 54.296875 
L 73.828125 54.296875 
Q 75.78125 59.375 78.90625 69.921875 
Q 82.03125 67.96875 87.109375 66.015625 
Q 84.375 62.5 83 59.5625 
Q 81.640625 56.640625 80.46875 54.296875 
L 84.375 54.296875 
Q 89.453125 54.296875 95.3125 54.6875 
L 95.3125 48.046875 
Q 89.453125 48.4375 84.765625 48.4375 
L 75.78125 48.4375 
Q 83.203125 37.890625 96.875 32.8125 
Q 93.359375 29.296875 92.578125 25.390625 
Q 87.5 27.34375 86.328125 28.515625 
L 86.328125 4.6875 
Q 86.328125 -0.78125 86.71875 -9.375 
L 79.296875 -9.375 
L 79.296875 -3.515625 
L 47.65625 -3.515625 
L 47.65625 -9.375 
L 40.234375 -9.375 
Q 40.625 -1.5625 40.625 3.90625 
L 40.625 26.953125 
Q 37.5 25 34.765625 23.046875 
Q 32.03125 26.953125 28.90625 29.296875 
Q 44.140625 37.109375 51.5625 48.4375 
Q 42.578125 48.4375 34.765625 48.046875 
L 34.765625 54.6875 
Q 41.40625 54.296875 44.53125 54.296875 
L 46.875 54.296875 
Q 43.75 61.328125 41.015625 64.0625 
Q 42.1875 64.84375 47.265625 67.578125 
Q 48.046875 66.015625 53.515625 58.203125 
Q 51.5625 57.03125 47.65625 54.296875 
L 59.765625 54.296875 
L 59.765625 69.140625 
Q 46.875 68.75 39.453125 67.578125 
Q 37.890625 71.875 35.9375 75 
Q 47.65625 74.609375 62.890625 76.171875 
Q 78.125 77.734375 84.765625 80.078125 
Q 86.71875 75.390625 90.234375 71.875 
z
M 18.359375 71.09375 
Q 18.359375 76.5625 17.96875 81.25 
L 25.78125 81.25 
Q 25.390625 78.125 25 72.65625 
L 25 59.765625 
Q 29.6875 59.765625 33.203125 60.15625 
L 33.203125 53.125 
Q 28.90625 53.515625 25 53.515625 
L 25 37.890625 
L 32.8125 41.796875 
Q 32.8125 38.671875 33.59375 34.375 
Q 29.6875 32.8125 25 30.46875 
L 25 0.78125 
Q 25 -5.46875 21.28125 -7.03125 
Q 17.578125 -8.59375 10.9375 -9.375 
Q 10.15625 -5.46875 7.421875 -1.171875 
Q 14.453125 -1.171875 16.40625 -0.578125 
Q 18.359375 0 18.359375 4.296875 
L 18.359375 28.125 
Q 15.625 27.34375 6.640625 21.875 
L 3.515625 29.6875 
Q 8.203125 31.25 18.359375 35.546875 
L 18.359375 53.515625 
Q 9.375 53.515625 4.6875 52.734375 
L 4.6875 60.15625 
Q 11.71875 59.765625 18.359375 59.765625 
z
M 82.8125 30.46875 
Q 74.21875 36.71875 68.359375 48.4375 
L 67.578125 48.4375 
Q 67.578125 39.84375 67.96875 32.03125 
L 59.765625 32.03125 
Q 60.15625 39.84375 60.15625 48.046875 
Q 54.296875 39.453125 44.140625 30.46875 
z
M 60.15625 2.34375 
L 60.15625 10.546875 
L 47.65625 10.546875 
L 47.65625 2.34375 
z
M 79.296875 2.34375 
L 79.296875 10.546875 
L 66.796875 10.546875 
L 66.796875 2.34375 
z
M 60.15625 16.796875 
L 60.15625 24.609375 
L 47.65625 24.609375 
L 47.65625 16.796875 
z
M 79.296875 16.796875 
L 79.296875 24.609375 
L 66.796875 24.609375 
L 66.796875 16.796875 
z
" id="SimHei-25773"/>
     </defs>
     <use xlink:href="#SimHei-30452"/>
     <use x="100" xlink:href="#SimHei-25773"/>
    </g>
   </g>
   <g id="text_6">
    <!-- 8.30% -->
    <g transform="translate(224.730055 109.224232)scale(0.1 -0.1)">
     <defs>
      <path d="M 2.734375 16.796875 
Q 2.734375 26.171875 5.078125 30.65625 
Q 7.421875 35.15625 12.890625 37.890625 
Q 8.203125 40.625 6.640625 43.9375 
Q 5.078125 47.265625 4.875 51.5625 
Q 4.6875 55.859375 6.046875 58.984375 
Q 7.421875 62.109375 10.15625 64.84375 
Q 12.890625 67.578125 16.203125 68.546875 
Q 19.53125 69.53125 23.4375 69.53125 
Q 27.34375 69.53125 30.46875 68.75 
Q 33.59375 67.96875 37.109375 65.421875 
Q 40.625 62.890625 42.1875 58.203125 
Q 43.75 53.515625 41.984375 47.265625 
Q 40.234375 41.015625 32.8125 37.5 
Q 39.453125 35.546875 42.1875 31.4375 
Q 44.921875 27.34375 44.921875 21.484375 
Q 44.921875 15.625 43.15625 12.109375 
Q 41.40625 8.59375 39.25 6.25 
Q 37.109375 3.90625 33.390625 2.53125 
Q 29.6875 1.171875 24.015625 1.171875 
Q 18.359375 1.171875 14.25 2.53125 
Q 10.15625 3.90625 7.421875 6.640625 
Q 4.6875 9.375 3.703125 13.078125 
Q 2.734375 16.796875 2.734375 26.171875 
z
M 10.9375 26.5625 
Q 10.546875 17.1875 12.296875 13.671875 
Q 14.0625 10.15625 18.75 9.171875 
Q 23.4375 8.203125 28.515625 9.375 
Q 33.59375 10.546875 35.546875 14.84375 
Q 37.5 19.140625 36.90625 23.4375 
Q 36.328125 27.734375 32.03125 30.65625 
Q 27.734375 33.59375 22.65625 33.203125 
Q 17.578125 32.8125 14.25 29.6875 
Q 10.9375 26.5625 10.546875 17.1875 
z
M 12.109375 56.25 
Q 12.109375 48.4375 14.84375 44.921875 
Q 17.578125 41.40625 23.4375 41.40625 
Q 29.296875 41.40625 32.21875 44.921875 
Q 35.15625 48.4375 34.953125 53.3125 
Q 34.765625 58.203125 31.4375 60.546875 
Q 28.125 62.890625 22.453125 62.5 
Q 16.796875 62.109375 14.453125 59.171875 
Q 12.109375 56.25 12.109375 48.4375 
z
" id="SimHei-56"/>
      <path d="M 3.90625 19.140625 
L 10.9375 20.3125 
Q 12.5 15.234375 16.015625 11.90625 
Q 19.53125 8.59375 24.796875 8.78125 
Q 30.078125 8.984375 33.203125 13.078125 
Q 36.328125 17.1875 35.9375 22.453125 
Q 35.546875 27.734375 31.828125 30.65625 
Q 28.125 33.59375 19.921875 34.765625 
L 19.921875 39.84375 
Q 28.125 40.625 31.828125 44.140625 
Q 35.546875 47.65625 35.15625 53.3125 
Q 34.765625 58.984375 30.078125 61.515625 
Q 25.390625 64.0625 20.109375 62.109375 
Q 14.84375 60.15625 11.71875 51.171875 
L 4.6875 52.34375 
Q 7.03125 59.375 11.125 64.0625 
Q 15.234375 68.75 22.265625 69.53125 
Q 29.296875 70.3125 34.5625 67.765625 
Q 39.84375 65.234375 41.984375 59.953125 
Q 44.140625 54.6875 42.578125 48.4375 
Q 41.015625 42.1875 33.59375 37.5 
Q 39.0625 35.15625 41.984375 30.46875 
Q 44.921875 25.78125 43.9375 18.15625 
Q 42.96875 10.546875 37.109375 5.859375 
Q 31.25 1.171875 23.828125 1.359375 
Q 16.40625 1.5625 10.9375 6.046875 
Q 5.46875 10.546875 3.90625 19.140625 
z
" id="SimHei-51"/>
     </defs>
     <use xlink:href="#SimHei-56"/>
     <use x="50" xlink:href="#SimHei-46"/>
     <use x="100" xlink:href="#SimHei-51"/>
     <use x="150" xlink:href="#SimHei-48"/>
     <use x="200" xlink:href="#SimHei-37"/>
    </g>
   </g>
   <g id="text_7">
    <!-- 房产家居 -->
    <g transform="translate(138.540413 69.962892)scale(0.1 -0.1)">
     <defs>
      <path d="M 49.609375 43.75 
Q 54.6875 44.53125 57.8125 46.484375 
Q 61.328125 38.671875 62.109375 35.9375 
L 79.6875 35.9375 
Q 86.328125 35.9375 94.140625 36.328125 
L 94.140625 29.296875 
Q 86.328125 29.6875 79.6875 29.6875 
L 50.390625 29.6875 
Q 50 24.21875 49.609375 20.703125 
L 86.328125 20.703125 
Q 85.546875 14.84375 84.5625 8.390625 
Q 83.59375 1.953125 82.609375 -1.75 
Q 81.640625 -5.46875 78.90625 -6.828125 
Q 76.171875 -8.203125 62.5 -9.375 
Q 61.328125 -4.296875 59.375 -0.78125 
Q 71.09375 -1.5625 73.234375 -0.390625 
Q 75.390625 0.78125 76.171875 3.90625 
Q 76.953125 7.8125 77.734375 14.0625 
L 48.4375 14.0625 
Q 46.484375 6.640625 40.8125 0 
Q 35.15625 -6.640625 27.34375 -11.328125 
Q 25.390625 -7.8125 21.09375 -5.078125 
Q 26.171875 -3.125 30.078125 0 
Q 33.984375 3.125 37.109375 7.609375 
Q 40.234375 12.109375 41.40625 17.765625 
Q 42.578125 23.4375 42.578125 29.6875 
L 23.4375 29.6875 
Q 23.046875 19.53125 19.71875 8.78125 
Q 16.40625 -1.953125 11.71875 -9.375 
Q 8.59375 -5.859375 4.296875 -4.296875 
Q 7.421875 -0.78125 10.734375 6.046875 
Q 14.0625 12.890625 15.234375 21.875 
Q 16.40625 30.859375 16.40625 44.53125 
Q 16.40625 58.59375 16.015625 70.3125 
L 48.4375 70.3125 
Q 47.265625 74.21875 44.921875 79.6875 
Q 49.21875 80.859375 53.125 82.421875 
Q 56.640625 73.4375 57.03125 70.3125 
L 87.109375 70.3125 
Q 86.71875 64.0625 86.71875 57.8125 
Q 86.71875 51.5625 87.109375 46.875 
L 23.828125 46.875 
L 23.828125 35.9375 
L 53.515625 35.9375 
Q 52.34375 40.625 49.609375 43.75 
z
M 79.6875 52.734375 
L 79.6875 64.0625 
L 23.828125 64.0625 
L 23.828125 52.734375 
z
" id="SimHei-25151"/>
      <path d="M 78.90625 57.8125 
Q 76.953125 55.46875 74.40625 50.96875 
Q 71.875 46.484375 69.921875 42.578125 
L 82.03125 42.578125 
Q 90.234375 42.578125 92.96875 42.96875 
L 92.96875 35.15625 
Q 89.84375 35.546875 82.8125 35.546875 
L 23.828125 35.546875 
Q 23.828125 4.6875 8.984375 -9.765625 
Q 7.421875 -6.640625 3.125 -3.90625 
Q 13.28125 7.421875 14.84375 19.71875 
Q 16.40625 32.03125 15.625 42.578125 
L 61.71875 42.578125 
Q 66.796875 53.125 69.140625 62.109375 
Q 74.21875 59.765625 78.90625 57.8125 
z
M 54.6875 82.421875 
Q 55.46875 79.6875 57.8125 69.921875 
L 77.34375 69.921875 
Q 84.375 69.921875 90.625 70.3125 
L 90.625 62.890625 
Q 84.375 63.28125 78.515625 63.28125 
L 31.25 63.28125 
Q 25.390625 63.28125 16.40625 62.890625 
L 16.40625 70.3125 
Q 25.78125 69.921875 28.515625 69.921875 
L 48.828125 69.921875 
Q 47.65625 75 45.703125 80.46875 
Q 50.390625 81.640625 54.6875 82.421875 
z
M 37.109375 61.71875 
Q 41.796875 55.46875 46.09375 47.265625 
Q 42.1875 45.703125 37.890625 43.359375 
Q 34.375 51.5625 29.6875 57.421875 
Q 33.59375 59.765625 37.109375 61.71875 
z
" id="SimHei-20135"/>
      <path d="M 53.515625 17.578125 
Q 40.625 7.421875 29.6875 1.5625 
Q 18.75 -4.296875 10.9375 -8.203125 
Q 7.8125 -4.296875 5.078125 -1.171875 
Q 24.21875 5.078125 35.34375 12.109375 
Q 46.484375 19.140625 51.171875 24.21875 
Q 49.609375 26.953125 48.046875 28.90625 
Q 35.9375 20.3125 26.5625 15.234375 
Q 17.1875 10.15625 11.71875 8.203125 
Q 8.984375 12.109375 5.859375 14.84375 
Q 21.484375 19.53125 30.65625 25 
Q 39.84375 30.46875 43.75 33.984375 
Q 42.1875 35.9375 40.234375 38.28125 
Q 33.984375 34.765625 26.75 31.4375 
Q 19.53125 28.125 11.328125 24.609375 
Q 8.984375 28.515625 5.859375 32.421875 
Q 21.875 36.328125 30.46875 40.625 
Q 39.0625 44.921875 42.96875 49.21875 
L 37.5 49.21875 
Q 32.03125 49.21875 24.609375 48.828125 
L 24.609375 55.859375 
Q 32.03125 55.46875 37.5 55.46875 
L 64.0625 55.46875 
Q 69.140625 55.46875 76.5625 55.859375 
L 76.5625 48.828125 
Q 69.140625 49.21875 64.0625 49.21875 
L 53.515625 49.21875 
Q 50 46.09375 45.703125 42.1875 
Q 48.828125 39.453125 51.5625 36.515625 
Q 54.296875 33.59375 57.421875 28.515625 
Q 62.109375 30.859375 67.96875 34.953125 
Q 73.828125 39.0625 78.515625 45.3125 
Q 84.375 39.84375 86.328125 37.890625 
Q 81.640625 35.9375 78.125 33.984375 
Q 74.609375 32.03125 72.265625 29.6875 
Q 75.78125 17.96875 81.25 12.890625 
Q 86.71875 7.8125 96.484375 3.125 
Q 92.578125 0.390625 89.453125 -4.296875 
Q 78.515625 2.734375 73.4375 10.34375 
Q 68.359375 17.96875 66.40625 26.171875 
Q 63.28125 24.21875 60.15625 22.65625 
Q 62.109375 12.109375 61.90625 5.078125 
Q 61.71875 -1.953125 56.046875 -5.65625 
Q 50.390625 -9.375 42.578125 -10.546875 
Q 41.015625 -5.46875 39.0625 -1.5625 
Q 45.703125 -1.5625 49.609375 -0.390625 
Q 53.515625 0.78125 54.09375 5.46875 
Q 54.6875 10.15625 53.515625 17.578125 
z
M 52.34375 82.421875 
Q 53.125 78.515625 55.859375 70.703125 
L 91.796875 70.703125 
Q 91.40625 64.453125 91.40625 60.546875 
Q 91.40625 57.03125 91.796875 51.5625 
L 83.59375 51.5625 
L 83.59375 64.453125 
L 15.625 64.453125 
L 15.625 49.609375 
L 7.421875 49.609375 
Q 7.8125 55.859375 7.8125 60.546875 
Q 7.8125 65.625 7.421875 70.703125 
L 46.484375 70.703125 
Q 44.921875 75.78125 42.96875 79.6875 
Q 48.046875 80.859375 52.34375 82.421875 
z
" id="SimHei-23478"/>
      <path d="M 85.9375 77.34375 
Q 85.546875 70.703125 85.546875 65.625 
Q 85.546875 60.546875 85.9375 54.296875 
L 60.546875 54.296875 
L 60.546875 42.1875 
L 77.34375 42.1875 
Q 85.9375 42.1875 94.140625 42.578125 
L 94.140625 35.15625 
Q 85.9375 35.546875 77.34375 35.546875 
L 60.546875 35.546875 
L 60.546875 23.046875 
L 85.9375 23.046875 
Q 85.546875 15.625 85.546875 7.421875 
Q 85.546875 -0.78125 85.9375 -8.59375 
L 78.125 -8.59375 
L 78.125 -1.953125 
L 37.109375 -1.953125 
L 37.109375 -8.984375 
L 29.6875 -8.984375 
Q 30.078125 -0.390625 30.078125 7.8125 
Q 30.078125 16.015625 29.6875 23.046875 
L 52.734375 23.046875 
L 52.734375 35.546875 
L 23.4375 35.546875 
Q 21.875 19.140625 18.15625 8.390625 
Q 14.453125 -2.34375 10.9375 -7.8125 
Q 7.8125 -4.296875 3.515625 -1.953125 
Q 8.59375 3.515625 10.9375 10.9375 
Q 13.28125 18.359375 14.25 26.5625 
Q 15.234375 34.765625 15.421875 48.4375 
Q 15.625 62.109375 15.234375 77.34375 
L 85.9375 77.34375 
z
M 78.125 60.9375 
L 78.125 70.703125 
L 23.4375 70.703125 
L 23.4375 60.9375 
z
M 78.125 4.296875 
L 78.125 16.796875 
L 37.109375 16.796875 
L 37.109375 4.296875 
z
M 52.734375 42.1875 
L 52.734375 54.296875 
L 23.4375 54.296875 
L 23.4375 42.1875 
z
" id="SimHei-23621"/>
     </defs>
     <use xlink:href="#SimHei-25151"/>
     <use x="100" xlink:href="#SimHei-20135"/>
     <use x="200" xlink:href="#SimHei-23478"/>
     <use x="300" xlink:href="#SimHei-23621"/>
    </g>
   </g>
   <g id="text_8">
    <!-- 7.80% -->
    <g transform="translate(191.092407 116.295548)scale(0.1 -0.1)">
     <defs>
      <path d="M 13.28125 2.34375 
Q 20.3125 32.03125 37.890625 61.328125 
L 4.296875 61.328125 
L 4.296875 68.359375 
L 46.09375 68.359375 
L 46.09375 61.71875 
Q 27.734375 32.03125 21.875 2.34375 
L 13.28125 2.34375 
z
" id="SimHei-55"/>
     </defs>
     <use xlink:href="#SimHei-55"/>
     <use x="50" xlink:href="#SimHei-46"/>
     <use x="100" xlink:href="#SimHei-56"/>
     <use x="150" xlink:href="#SimHei-48"/>
     <use x="200" xlink:href="#SimHei-37"/>
    </g>
   </g>
   <g id="text_9">
    <!-- 医疗健康 -->
    <g transform="translate(99.072271 101.635628)scale(0.1 -0.1)">
     <defs>
      <path d="M 74.609375 78.515625 
Q 85.9375 78.515625 91.40625 78.90625 
L 91.40625 71.875 
Q 85.546875 72.265625 75.390625 72.265625 
L 16.40625 72.265625 
L 16.40625 -0.78125 
L 81.640625 -0.78125 
Q 89.453125 -0.78125 94.53125 0 
L 94.53125 -7.03125 
Q 89.453125 -6.640625 80.46875 -6.640625 
L 8.203125 -6.640625 
Q 8.59375 2.34375 8.59375 6.640625 
L 8.59375 66.40625 
Q 8.59375 72.265625 8.203125 78.515625 
L 74.609375 78.515625 
z
M 48.046875 63.671875 
Q 44.53125 60.546875 42.1875 56.640625 
L 68.75 56.640625 
Q 76.171875 56.640625 83.203125 57.03125 
L 83.203125 50 
Q 76.5625 50.390625 68.75 50.390625 
L 59.375 50.390625 
Q 58.984375 42.578125 58.59375 35.546875 
L 72.65625 35.546875 
Q 81.640625 35.546875 87.890625 35.9375 
L 87.890625 28.90625 
Q 81.640625 29.296875 73.046875 29.296875 
L 57.421875 29.296875 
L 57.03125 27.34375 
Q 66.015625 23.4375 73.828125 18.75 
Q 81.640625 14.0625 86.71875 10.15625 
Q 82.8125 7.8125 80.078125 3.515625 
Q 73.828125 9.765625 66.59375 14.453125 
Q 59.375 19.140625 54.296875 21.09375 
Q 49.21875 14.84375 43.75 11.125 
Q 38.28125 7.421875 28.125 2.34375 
Q 25.390625 6.25 20.703125 9.765625 
Q 33.59375 12.890625 40.03125 17.375 
Q 46.484375 21.875 48.828125 29.296875 
L 37.890625 29.296875 
Q 29.296875 29.296875 23.046875 28.90625 
L 23.046875 35.9375 
Q 29.296875 35.546875 37.890625 35.546875 
L 50 35.546875 
Q 50.78125 42.578125 50.78125 50.390625 
L 37.890625 50.390625 
Q 36.328125 47.65625 34.765625 45.5 
Q 33.203125 43.359375 30.46875 41.40625 
Q 27.734375 43.359375 23.046875 45.703125 
Q 28.125 50 31.4375 54.6875 
Q 34.765625 59.375 37.890625 67.1875 
Q 42.1875 65.234375 48.046875 63.671875 
z
" id="SimHei-21307"/>
      <path d="M 62.109375 82.03125 
Q 64.0625 75.78125 64.84375 70.703125 
L 82.8125 70.703125 
Q 89.453125 70.703125 95.703125 71.09375 
L 95.703125 63.28125 
Q 88.671875 64.0625 82.8125 64.0625 
L 30.46875 64.0625 
Q 30.078125 57.421875 30.265625 47.0625 
Q 30.46875 36.71875 29.484375 25.96875 
Q 28.515625 15.234375 25.96875 5.46875 
Q 23.4375 -4.296875 17.578125 -10.546875 
Q 14.84375 -7.421875 10.546875 -4.6875 
Q 14.0625 -1.5625 16.59375 2.53125 
Q 19.140625 6.640625 20.703125 13.671875 
Q 22.265625 20.703125 23.046875 31.25 
Q 20.3125 29.6875 15.8125 26.75 
Q 11.328125 23.828125 8.203125 21.484375 
Q 6.25 26.171875 3.125 30.078125 
Q 7.421875 31.25 12.890625 33.59375 
Q 18.359375 35.9375 23.046875 38.28125 
L 23.046875 54.296875 
Q 23.046875 63.671875 22.265625 70.703125 
L 57.03125 70.703125 
Q 55.46875 75 53.515625 80.46875 
z
M 91.796875 51.5625 
L 91.796875 44.921875 
Q 86.328125 42.578125 80.859375 39.0625 
Q 75.390625 35.546875 69.53125 31.25 
L 69.53125 1.5625 
Q 69.53125 -3.90625 66.015625 -6.4375 
Q 62.5 -8.984375 53.125 -9.765625 
Q 52.734375 -4.6875 50 -0.390625 
Q 57.03125 -0.390625 59.375 0.1875 
Q 61.71875 0.78125 61.71875 5.859375 
L 61.71875 25.78125 
Q 61.71875 32.421875 60.546875 35.546875 
Q 68.359375 39.453125 77.734375 44.921875 
L 52.34375 44.921875 
Q 45.703125 44.921875 37.5 44.53125 
L 37.5 52.34375 
Q 44.53125 51.5625 52.34375 51.5625 
z
M 11.328125 62.5 
Q 14.84375 57.421875 20.703125 48.046875 
Q 17.578125 46.09375 13.671875 43.75 
Q 9.765625 51.5625 4.6875 58.203125 
Q 8.984375 60.15625 11.328125 62.5 
z
" id="SimHei-30103"/>
      <path d="M 87.890625 71.875 
Q 87.5 66.796875 87.5 58.203125 
Q 91.015625 58.203125 94.921875 58.984375 
L 94.921875 51.953125 
Q 91.015625 52.34375 87.5 52.34375 
Q 87.5 44.921875 87.890625 39.0625 
L 71.484375 39.0625 
L 71.484375 30.46875 
L 82.03125 30.46875 
Q 86.71875 30.859375 89.84375 30.859375 
L 89.84375 23.828125 
Q 87.109375 24.609375 82.03125 24.609375 
L 71.484375 24.609375 
L 71.484375 17.1875 
L 83.59375 17.1875 
Q 87.890625 17.1875 91.40625 17.578125 
L 91.40625 10.9375 
Q 88.28125 11.328125 83.59375 11.328125 
L 71.484375 11.328125 
L 71.484375 0.390625 
Q 81.640625 -0.390625 95.3125 1.5625 
Q 92.96875 -2.34375 92.1875 -6.640625 
Q 77.34375 -7.03125 64.25 -6.25 
Q 51.171875 -5.46875 38.28125 3.125 
Q 34.765625 -1.953125 28.90625 -8.984375 
Q 25.78125 -6.25 22.65625 -4.6875 
Q 29.296875 1.171875 33.59375 8.203125 
Q 28.515625 15.234375 25.78125 27.34375 
Q 28.90625 28.125 32.03125 29.296875 
Q 33.203125 21.484375 36.71875 15.234375 
Q 40.234375 23.828125 40.625 38.28125 
Q 32.8125 37.890625 30.46875 36.328125 
Q 29.296875 39.453125 27.34375 43.75 
Q 30.859375 44.140625 33.390625 51.75 
Q 35.9375 59.375 37.5 65.625 
Q 32.8125 65.625 28.125 65.234375 
L 28.125 71.875 
Q 33.203125 71.484375 36.71875 71.484375 
L 46.484375 71.484375 
Q 44.53125 67.1875 37.890625 44.53125 
L 47.265625 44.53125 
Q 46.09375 21.875 41.40625 8.984375 
Q 50.390625 1.171875 64.84375 0.390625 
L 64.84375 11.328125 
Q 57.8125 11.328125 50 10.9375 
L 50 17.578125 
Q 57.8125 17.1875 64.84375 17.1875 
L 64.84375 24.609375 
Q 58.984375 24.609375 51.171875 23.828125 
L 51.171875 30.859375 
Q 58.984375 30.46875 64.84375 30.46875 
L 64.84375 39.0625 
Q 58.203125 39.0625 51.5625 38.671875 
L 51.5625 45.3125 
Q 58.59375 44.921875 64.84375 44.921875 
L 64.84375 52.34375 
L 58.203125 52.34375 
Q 52.734375 52.34375 48.828125 51.953125 
L 48.828125 58.984375 
Q 53.125 58.203125 58.59375 58.203125 
L 64.84375 58.203125 
L 64.84375 66.015625 
Q 58.59375 66.015625 51.953125 65.625 
L 51.953125 72.265625 
Q 58.984375 71.875 64.84375 71.875 
Q 64.84375 76.5625 64.453125 81.640625 
L 71.875 81.640625 
Q 71.484375 75.78125 71.484375 71.875 
z
M 26.5625 77.734375 
Q 23.828125 74.21875 21.484375 64.0625 
L 21.484375 -8.203125 
L 14.453125 -8.203125 
Q 15.234375 -1.953125 15.234375 6.25 
L 15.234375 48.828125 
Q 12.890625 43.359375 9.375 37.109375 
Q 7.03125 39.453125 3.515625 42.1875 
Q 8.203125 48.4375 12.890625 61.125 
Q 17.578125 73.828125 17.96875 80.078125 
Q 21.09375 79.296875 26.5625 77.734375 
z
M 81.25 58.203125 
L 81.25 66.015625 
L 71.484375 66.015625 
L 71.484375 58.203125 
z
M 81.25 44.921875 
L 81.25 52.34375 
L 71.484375 52.34375 
L 71.484375 44.921875 
z
" id="SimHei-20581"/>
      <path d="M 55.46875 82.421875 
Q 58.203125 75.78125 58.984375 72.265625 
L 75.78125 72.265625 
Q 83.984375 72.265625 90.625 72.65625 
L 90.625 66.40625 
Q 83.984375 66.796875 75.78125 66.796875 
L 58.59375 66.796875 
L 58.59375 58.59375 
L 83.984375 58.59375 
Q 83.59375 53.125 83.59375 46.09375 
Q 87.5 46.09375 93.359375 46.484375 
L 93.359375 39.84375 
Q 87.890625 40.234375 83.59375 40.234375 
Q 83.59375 33.59375 83.984375 28.125 
L 61.328125 28.125 
Q 65.234375 20.703125 70.703125 15.234375 
Q 73.4375 16.40625 79.6875 25.78125 
Q 80.859375 24.609375 85.9375 20.703125 
Q 83.984375 19.140625 75 10.9375 
Q 77.734375 8.59375 82.609375 5.46875 
Q 87.5 2.34375 95.3125 0.390625 
Q 91.796875 -1.5625 89.0625 -7.03125 
Q 78.125 -2.34375 70.109375 5.65625 
Q 62.109375 13.671875 58.59375 21.875 
L 58.59375 2.34375 
Q 58.984375 -5.46875 53.90625 -7.21875 
Q 48.828125 -8.984375 42.1875 -9.375 
Q 41.796875 -5.859375 39.84375 -0.78125 
Q 47.265625 -1.171875 49.015625 -0.390625 
Q 50.78125 0.390625 51.171875 3.125 
L 51.171875 12.890625 
Q 35.546875 0.78125 28.125 -5.078125 
Q 24.609375 0.78125 23.046875 1.953125 
Q 28.90625 4.6875 35.734375 9.171875 
Q 42.578125 13.671875 51.171875 19.921875 
L 51.171875 28.125 
L 40.625 28.125 
Q 35.546875 28.125 29.296875 27.734375 
L 29.296875 33.984375 
Q 35.546875 33.59375 39.84375 33.59375 
L 51.171875 33.59375 
L 51.171875 40.234375 
L 37.5 40.234375 
Q 29.6875 40.234375 25 39.84375 
L 25 46.484375 
Q 30.078125 46.09375 36.71875 46.09375 
L 51.171875 46.09375 
L 51.171875 52.734375 
L 41.40625 52.734375 
Q 35.9375 52.734375 29.6875 52.34375 
L 29.6875 58.984375 
Q 36.71875 58.59375 40.625 58.59375 
L 51.171875 58.59375 
L 51.171875 66.796875 
L 23.828125 66.796875 
Q 23.828125 35.546875 22.84375 26.5625 
Q 21.875 17.578125 18.9375 8.984375 
Q 16.015625 0.390625 9.765625 -7.421875 
Q 7.8125 -5.078125 3.125 -1.5625 
Q 8.203125 3.90625 11.515625 11.515625 
Q 14.84375 19.140625 15.8125 32.609375 
Q 16.796875 46.09375 15.625 72.265625 
L 50 72.265625 
Q 49.21875 75 46.875 80.46875 
Q 49.21875 80.859375 55.46875 82.421875 
z
M 75.78125 33.59375 
L 75.78125 40.234375 
L 58.59375 40.234375 
L 58.59375 33.59375 
z
M 75.78125 46.09375 
L 75.78125 52.734375 
L 58.59375 52.734375 
L 58.59375 46.09375 
z
M 30.078125 25.78125 
Q 35.9375 21.875 42.1875 16.015625 
Q 40.625 15.234375 37.109375 10.9375 
Q 34.765625 13.671875 25.78125 20.3125 
Q 26.5625 21.09375 30.078125 25.78125 
z
" id="SimHei-24247"/>
     </defs>
     <use xlink:href="#SimHei-21307"/>
     <use x="100" xlink:href="#SimHei-30103"/>
     <use x="200" xlink:href="#SimHei-20581"/>
     <use x="300" xlink:href="#SimHei-24247"/>
    </g>
   </g>
   <g id="text_10">
    <!-- 5.40% -->
    <g transform="translate(168.42043 133.93366)scale(0.1 -0.1)">
     <use xlink:href="#SimHei-53"/>
     <use x="50" xlink:href="#SimHei-46"/>
     <use x="100" xlink:href="#SimHei-52"/>
     <use x="150" xlink:href="#SimHei-48"/>
     <use x="200" xlink:href="#SimHei-37"/>
    </g>
   </g>
   <g id="text_11">
    <!-- 工业制造 -->
    <g transform="translate(79.938305 133.056229)scale(0.1 -0.1)">
     <defs>
      <path d="M 69.921875 73.046875 
Q 79.296875 73.046875 87.109375 73.4375 
L 87.109375 65.625 
Q 79.296875 66.015625 69.921875 66.015625 
L 53.90625 66.015625 
L 53.90625 4.296875 
L 79.296875 4.296875 
Q 88.28125 4.296875 95.703125 4.6875 
L 95.703125 -3.125 
Q 88.28125 -2.734375 79.6875 -2.734375 
L 19.140625 -2.734375 
Q 10.546875 -2.734375 4.296875 -3.125 
L 4.296875 4.6875 
Q 10.9375 4.296875 19.53125 4.296875 
L 45.3125 4.296875 
L 45.3125 66.015625 
L 29.6875 66.015625 
Q 19.53125 66.015625 12.109375 65.625 
L 12.109375 73.4375 
Q 19.53125 73.046875 29.6875 73.046875 
z
" id="SimHei-24037"/>
      <path d="M 44.140625 78.515625 
Q 43.359375 67.578125 43.359375 59.765625 
L 43.359375 2.34375 
L 56.25 2.34375 
L 56.25 64.453125 
Q 56.25 70.703125 55.46875 78.515625 
L 65.234375 78.515625 
Q 64.453125 72.265625 64.453125 65.234375 
L 64.453125 2.34375 
L 79.6875 2.34375 
Q 85.9375 2.34375 94.921875 3.125 
L 94.921875 -5.46875 
Q 85.9375 -4.6875 80.078125 -4.6875 
L 20.703125 -4.6875 
Q 15.234375 -4.6875 5.078125 -5.46875 
L 5.078125 3.125 
Q 15.234375 2.34375 20.3125 2.34375 
L 34.765625 2.34375 
L 34.765625 60.15625 
Q 34.765625 68.359375 33.59375 78.515625 
z
M 16.015625 58.984375 
Q 20.703125 46.875 28.90625 23.4375 
Q 24.609375 22.65625 19.921875 20.3125 
Q 12.890625 42.96875 7.421875 55.46875 
Q 11.328125 57.03125 16.015625 58.984375 
z
M 91.40625 56.640625 
Q 86.328125 43.359375 77.34375 19.53125 
Q 73.4375 21.875 69.140625 23.046875 
Q 77.34375 38.28125 81.640625 59.765625 
Q 85.9375 58.203125 91.40625 56.640625 
z
" id="SimHei-19994"/>
      <path d="M 20.703125 72.265625 
Q 18.359375 68.359375 16.796875 64.84375 
L 28.125 64.84375 
Q 28.125 74.609375 27.734375 80.078125 
L 36.71875 80.078125 
Q 36.328125 75 36.328125 64.84375 
L 42.1875 64.84375 
Q 50 64.84375 56.25 65.234375 
L 56.25 58.203125 
Q 50.78125 58.59375 42.578125 58.59375 
L 36.328125 58.59375 
L 36.328125 47.265625 
L 46.09375 47.265625 
Q 51.953125 47.265625 58.59375 47.65625 
L 58.59375 41.015625 
L 36.328125 41.015625 
L 36.328125 30.46875 
L 57.421875 30.46875 
Q 57.03125 25.78125 56.828125 17.578125 
Q 56.640625 9.375 56.4375 6.4375 
Q 56.25 3.515625 53.125 2.140625 
Q 50 0.78125 44.140625 -0.390625 
Q 43.359375 3.90625 41.40625 8.59375 
Q 46.484375 8.59375 47.65625 9.171875 
Q 48.828125 9.765625 48.828125 15.234375 
L 48.828125 24.21875 
L 36.328125 24.21875 
L 36.328125 2.734375 
Q 36.328125 -3.90625 36.71875 -8.59375 
L 27.734375 -8.59375 
Q 28.125 -1.171875 28.125 2.734375 
L 28.125 24.21875 
L 16.015625 24.21875 
L 16.015625 -0.390625 
L 7.8125 -0.390625 
Q 8.203125 4.6875 8.203125 10.15625 
L 8.203125 18.75 
Q 8.203125 26.171875 7.8125 30.46875 
L 28.125 30.46875 
L 28.125 41.015625 
L 15.625 41.015625 
Q 8.59375 41.015625 3.515625 40.625 
L 3.515625 47.65625 
Q 8.59375 47.265625 15.625 47.265625 
L 28.125 47.265625 
L 28.125 58.59375 
L 14.453125 58.59375 
Q 12.5 53.90625 10.546875 50.78125 
Q 7.03125 53.125 3.515625 54.6875 
Q 6.25 58.59375 8.203125 63.671875 
Q 10.15625 68.75 11.71875 75 
Q 15.625 73.4375 20.703125 72.265625 
z
M 91.796875 79.296875 
Q 91.40625 75.390625 91.40625 67.96875 
L 91.40625 0.390625 
Q 91.40625 -5.078125 87.296875 -6.4375 
Q 83.203125 -7.8125 75.390625 -8.984375 
Q 74.21875 -3.90625 72.265625 0 
Q 78.90625 0 81.25 0.390625 
Q 83.59375 0.78125 83.59375 5.46875 
L 83.59375 67.96875 
Q 83.59375 74.609375 83.203125 79.296875 
L 91.796875 79.296875 
z
M 73.046875 67.578125 
Q 72.65625 62.109375 72.65625 57.8125 
L 72.65625 25.390625 
Q 72.65625 19.921875 73.046875 12.109375 
L 64.453125 12.109375 
Q 65.234375 18.75 65.234375 25.390625 
L 65.234375 57.8125 
Q 65.234375 61.71875 64.453125 67.578125 
L 73.046875 67.578125 
z
" id="SimHei-21046"/>
      <path d="M 86.328125 36.328125 
Q 85.9375 28.515625 85.9375 21.09375 
Q 85.9375 13.671875 86.328125 6.25 
L 78.125 6.25 
L 78.125 11.71875 
L 47.265625 11.71875 
L 47.265625 6.640625 
L 39.453125 6.640625 
Q 39.84375 14.0625 39.84375 21.484375 
Q 39.84375 28.90625 39.453125 36.328125 
L 86.328125 36.328125 
z
M 3.125 -1.5625 
Q 14.84375 7.421875 19.53125 9.765625 
L 19.53125 40.625 
Q 12.109375 40.625 5.46875 40.234375 
L 5.46875 47.265625 
Q 13.28125 46.875 27.34375 46.875 
Q 26.953125 39.453125 26.953125 35.15625 
L 26.953125 10.546875 
Q 32.03125 5.078125 40.625 2.734375 
Q 49.21875 0.390625 63.671875 0 
Q 78.125 -0.390625 96.875 0.78125 
Q 93.75 -3.125 93.359375 -8.203125 
Q 55.859375 -7.421875 48.828125 -6.25 
Q 41.796875 -5.078125 37.109375 -3.3125 
Q 32.421875 -1.5625 27.53125 1.75 
Q 22.65625 5.078125 17.578125 0.578125 
Q 12.5 -3.90625 9.375 -8.203125 
Q 6.640625 -4.6875 3.125 -1.5625 
z
M 49.21875 76.5625 
Q 46.875 72.265625 46.09375 68.75 
L 59.375 68.75 
Q 59.375 78.125 58.984375 81.640625 
L 66.796875 81.640625 
Q 66.40625 77.734375 66.40625 68.75 
Q 80.46875 68.75 87.890625 69.140625 
L 87.890625 62.5 
Q 80.859375 62.890625 66.40625 62.890625 
L 66.40625 50 
Q 87.109375 50 94.53125 50.390625 
L 94.53125 43.359375 
Q 87.109375 43.75 62.109375 43.75 
Q 37.5 43.75 30.46875 43.359375 
L 30.46875 50.390625 
Q 37.5 50 59.375 50 
L 59.375 62.890625 
L 44.140625 62.890625 
Q 41.796875 58.59375 39.84375 53.90625 
Q 36.328125 55.46875 32.8125 56.640625 
Q 37.5 65.234375 40.625 78.515625 
Q 44.53125 77.734375 49.21875 76.5625 
z
M 78.125 17.578125 
L 78.125 30.078125 
L 47.265625 30.078125 
L 47.265625 17.578125 
z
M 27.734375 62.5 
Q 24.609375 60.15625 21.09375 58.203125 
Q 15.625 66.40625 10.15625 73.828125 
Q 13.28125 76.171875 16.015625 78.515625 
Q 25.390625 66.015625 27.734375 62.5 
z
" id="SimHei-36896"/>
     </defs>
     <use xlink:href="#SimHei-24037"/>
     <use x="100" xlink:href="#SimHei-19994"/>
     <use x="200" xlink:href="#SimHei-21046"/>
     <use x="300" xlink:href="#SimHei-36896"/>
    </g>
   </g>
   <g id="text_12">
    <!-- 4.10% -->
    <g transform="translate(157.105696 151.712702)scale(0.1 -0.1)">
     <use xlink:href="#SimHei-52"/>
     <use x="50" xlink:href="#SimHei-46"/>
     <use x="100" xlink:href="#SimHei-49"/>
     <use x="150" xlink:href="#SimHei-48"/>
     <use x="200" xlink:href="#SimHei-37"/>
    </g>
   </g>
   <g id="text_13">
    <!-- 文旅 -->
    <g transform="translate(70.426309 146.809778)scale(0.1 -0.1)">
     <defs>
      <path d="M 19.53125 53.90625 
Q 11.328125 53.90625 5.46875 53.125 
L 5.46875 61.328125 
Q 14.453125 60.9375 21.875 60.9375 
L 77.34375 60.9375 
Q 84.375 60.9375 94.140625 61.328125 
L 94.140625 53.125 
Q 84.375 53.515625 72.265625 53.515625 
Q 70.3125 41.40625 65.234375 31.046875 
Q 60.15625 20.703125 54.296875 14.0625 
Q 61.71875 7.421875 73.828125 3.3125 
Q 85.9375 -0.78125 94.921875 -1.5625 
Q 91.40625 -4.296875 88.671875 -9.765625 
Q 82.03125 -8.203125 71.484375 -4.296875 
Q 60.9375 -0.390625 48.828125 8.984375 
Q 32.8125 -4.296875 10.546875 -10.546875 
Q 9.765625 -7.03125 5.078125 -2.734375 
Q 11.71875 -1.953125 23.234375 2.140625 
Q 34.765625 6.25 42.96875 13.671875 
Q 29.296875 27.734375 23.4375 53.90625 
L 19.53125 53.90625 
z
M 31.640625 53.515625 
Q 34.765625 32.421875 48.4375 18.75 
Q 60.9375 33.984375 64.0625 53.515625 
L 31.640625 53.515625 
z
M 44.53125 82.03125 
Q 48.828125 75.390625 54.6875 65.234375 
Q 51.5625 64.453125 47.65625 61.328125 
Q 42.1875 71.484375 37.890625 78.125 
Q 40.625 78.90625 44.53125 82.03125 
z
" id="SimHei-25991"/>
      <path d="M 73.4375 46.09375 
Q 73.046875 35.15625 74.609375 25.78125 
Q 84.765625 31.640625 89.453125 37.109375 
Q 92.578125 33.203125 95.703125 30.078125 
Q 89.0625 27.734375 76.171875 18.75 
Q 82.421875 3.515625 96.875 -1.5625 
Q 92.578125 -4.6875 90.234375 -9.375 
Q 74.21875 1.5625 69.921875 15.8125 
Q 65.625 30.078125 66.796875 45.3125 
L 57.03125 43.75 
L 57.03125 1.953125 
Q 62.890625 5.859375 65.625 8.203125 
Q 67.1875 4.296875 68.75 1.171875 
Q 55.859375 -6.25 51.5625 -10.546875 
Q 49.21875 -7.421875 47.265625 -4.296875 
Q 50.390625 -1.953125 50.390625 4.6875 
L 50.390625 36.328125 
Q 50.390625 41.796875 50 50 
Q 63.28125 50.78125 74.015625 52.734375 
Q 84.765625 54.6875 89.84375 57.03125 
Q 90.234375 55.078125 94.921875 48.4375 
Q 89.84375 48.4375 73.4375 46.09375 
z
M 23.4375 35.15625 
Q 23.4375 19.53125 20.5 9.171875 
Q 17.578125 -1.171875 12.890625 -7.8125 
Q 9.375 -4.6875 4.6875 -2.734375 
Q 9.375 1.953125 12.109375 9.5625 
Q 14.84375 17.1875 15.8125 24.796875 
Q 16.796875 32.421875 16.796875 55.46875 
Q 10.9375 55.46875 5.46875 55.078125 
L 5.46875 62.5 
Q 11.328125 62.109375 22.65625 62.109375 
Q 34.375 62.109375 41.40625 62.5 
L 41.40625 55.078125 
Q 34.765625 55.46875 23.828125 55.46875 
L 23.828125 41.015625 
L 41.40625 41.015625 
Q 40.625 33.984375 40.421875 22.0625 
Q 40.234375 10.15625 39.84375 4.296875 
Q 39.453125 -1.5625 35.9375 -3.90625 
Q 32.421875 -6.25 26.953125 -7.421875 
Q 25.78125 -2.34375 23.046875 1.953125 
Q 28.515625 1.953125 30.46875 2.734375 
Q 32.421875 3.515625 32.8125 8.78125 
Q 33.203125 14.0625 33.59375 35.15625 
z
M 65.625 79.296875 
Q 63.28125 76.5625 59.765625 69.140625 
L 81.25 69.140625 
Q 88.28125 69.140625 94.53125 69.53125 
L 94.53125 62.5 
Q 88.28125 62.890625 81.25 62.890625 
L 57.421875 62.890625 
Q 51.5625 52.734375 44.921875 44.921875 
Q 41.796875 48.046875 38.28125 50.390625 
Q 44.53125 55.859375 49.796875 65.625 
Q 55.078125 75.390625 56.25 82.8125 
Q 60.9375 80.859375 65.625 79.296875 
z
M 25.78125 82.03125 
Q 29.296875 74.609375 32.421875 67.96875 
Q 28.515625 66.40625 25 64.0625 
Q 22.265625 71.09375 18.359375 78.125 
Q 22.265625 80.078125 25.78125 82.03125 
z
" id="SimHei-26053"/>
     </defs>
     <use xlink:href="#SimHei-25991"/>
     <use x="100" xlink:href="#SimHei-26053"/>
    </g>
   </g>
   <g id="text_14">
    <!-- 0.90% -->
    <g transform="translate(129.974056 157.324378)scale(0.1 -0.1)">
     <defs>
      <path d="M 12.5 1.171875 
Q 21.09375 15.625 26.5625 27.34375 
Q 16.796875 25.78125 10.34375 29.875 
Q 3.90625 33.984375 2.53125 41.015625 
Q 1.171875 48.046875 2.734375 53.703125 
Q 4.296875 59.375 7.609375 63.078125 
Q 10.9375 66.796875 15.625 68.359375 
Q 20.3125 69.921875 24.015625 69.921875 
Q 27.734375 69.921875 31.640625 68.359375 
Q 35.546875 66.796875 38.671875 63.671875 
Q 41.796875 60.546875 42.96875 57.21875 
Q 44.140625 53.90625 44.140625 48.625 
Q 44.140625 43.359375 40.234375 35.15625 
Q 36.328125 26.953125 21.09375 1.171875 
z
M 9.765625 50 
Q 10.9375 39.84375 14.640625 36.515625 
Q 18.359375 33.203125 22.65625 33.59375 
Q 26.953125 33.984375 29.484375 35.9375 
Q 32.03125 37.890625 34.375 42.578125 
Q 35.9375 48.4375 35.15625 52.53125 
Q 34.375 56.640625 31.046875 59.375 
Q 27.734375 62.109375 23.828125 62.109375 
Q 21.484375 62.5 17.765625 60.9375 
Q 14.0625 59.375 11.90625 54.6875 
Q 9.765625 50 10.9375 39.84375 
z
" id="SimHei-57"/>
     </defs>
     <use xlink:href="#SimHei-48"/>
     <use x="50" xlink:href="#SimHei-46"/>
     <use x="100" xlink:href="#SimHei-57"/>
     <use x="150" xlink:href="#SimHei-48"/>
     <use x="200" xlink:href="#SimHei-37"/>
    </g>
   </g>
   <g id="text_15">
    <!-- 其他 -->
    <g transform="translate(88.95599 166.207542)scale(0.1 -0.1)">
     <defs>
      <path d="M 73.828125 21.484375 
Q 86.71875 21.484375 94.140625 21.875 
L 94.140625 15.625 
Q 87.109375 16.015625 82.03125 16.015625 
L 19.140625 16.015625 
Q 10.546875 16.015625 5.078125 15.625 
L 5.078125 21.875 
Q 8.203125 21.484375 25.78125 21.484375 
L 25.78125 61.71875 
Q 16.40625 61.71875 10.546875 61.328125 
L 10.546875 67.96875 
Q 13.671875 67.578125 25.78125 67.578125 
Q 25.78125 76.171875 25.390625 80.078125 
L 34.765625 80.078125 
Q 33.984375 75.78125 33.984375 67.578125 
L 65.625 67.578125 
Q 65.625 74.609375 65.234375 79.6875 
L 74.21875 79.6875 
Q 73.828125 74.609375 73.828125 67.578125 
Q 82.421875 67.578125 88.671875 67.96875 
L 88.671875 61.328125 
Q 82.03125 61.71875 73.828125 61.71875 
z
M 65.625 21.484375 
L 65.625 31.25 
L 33.984375 31.25 
L 33.984375 21.484375 
z
M 65.625 37.109375 
L 65.625 46.875 
L 33.984375 46.875 
L 33.984375 37.109375 
z
M 65.625 52.34375 
L 65.625 61.71875 
L 33.984375 61.71875 
L 33.984375 52.34375 
z
M 65.234375 13.671875 
Q 81.25 3.515625 89.84375 -3.515625 
Q 85.9375 -6.25 83.203125 -9.765625 
Q 78.515625 -3.90625 59.765625 7.8125 
Q 63.671875 10.9375 65.234375 13.671875 
z
M 8.203125 -4.296875 
Q 12.5 -1.953125 19.921875 3.3125 
Q 27.34375 8.59375 32.421875 13.671875 
Q 35.546875 10.546875 38.671875 7.8125 
Q 34.375 4.6875 14.0625 -10.15625 
Q 11.71875 -6.640625 8.203125 -4.296875 
z
" id="SimHei-20854"/>
      <path d="M 39.0625 44.921875 
Q 39.0625 60.15625 38.671875 66.015625 
L 46.875 66.015625 
Q 46.484375 60.9375 46.484375 47.265625 
L 58.984375 51.171875 
L 58.984375 67.1875 
Q 58.984375 75 58.203125 80.46875 
L 66.40625 80.46875 
Q 66.015625 75 66.015625 66.796875 
L 66.015625 53.90625 
L 87.109375 61.328125 
Q 86.71875 40.625 86.71875 32.421875 
Q 86.71875 24.21875 82.421875 22.265625 
Q 78.125 20.3125 71.484375 19.140625 
Q 70.703125 23.046875 68.359375 27.34375 
Q 75.78125 27.34375 77.34375 27.921875 
Q 78.90625 28.515625 78.90625 31.640625 
L 79.296875 51.171875 
L 66.015625 46.484375 
L 66.015625 21.484375 
Q 66.015625 14.84375 66.40625 10.15625 
L 58.59375 10.15625 
Q 58.984375 14.84375 58.984375 21.484375 
L 58.984375 44.53125 
L 46.484375 40.234375 
L 46.484375 6.640625 
Q 46.484375 1.171875 51.953125 1.5625 
L 79.6875 1.5625 
Q 82.8125 1.5625 84.375 3.3125 
Q 85.9375 5.078125 86.71875 14.453125 
Q 91.40625 10.9375 95.703125 10.15625 
Q 92.96875 0 89.84375 -2.734375 
Q 86.71875 -5.46875 80.859375 -5.078125 
L 50.390625 -5.078125 
Q 39.84375 -5.46875 39.0625 4.296875 
L 39.0625 37.890625 
Q 33.203125 35.9375 29.6875 33.984375 
L 26.5625 41.40625 
Q 31.640625 42.1875 39.0625 44.921875 
z
M 35.15625 76.953125 
Q 31.640625 72.265625 25.78125 58.984375 
L 25.78125 7.421875 
Q 25.78125 -2.34375 26.5625 -8.984375 
L 18.359375 -8.984375 
Q 18.75 -2.34375 18.75 7.421875 
L 18.75 45.703125 
Q 13.671875 36.328125 10.9375 32.03125 
Q 8.203125 35.546875 4.6875 37.5 
Q 9.765625 42.96875 16.59375 56.828125 
Q 23.4375 70.703125 25.78125 80.859375 
Q 32.03125 78.125 35.15625 76.953125 
z
" id="SimHei-20182"/>
     </defs>
     <use xlink:href="#SimHei-20854"/>
     <use x="100" xlink:href="#SimHei-20182"/>
    </g>
   </g>
   <g id="text_16">
    <!-- 2.90% -->
    <g transform="translate(149.457661 170.561444)scale(0.1 -0.1)">
     <defs>
      <path d="M 4.6875 3.90625 
Q 5.078125 9.765625 10.15625 14.453125 
Q 15.234375 19.140625 23.046875 29.09375 
Q 30.859375 39.0625 33.203125 44.53125 
Q 35.546875 50 34.953125 53.90625 
Q 34.375 57.8125 31.25 60.34375 
Q 28.125 62.890625 24.015625 62.5 
Q 19.921875 62.109375 16.203125 59.375 
Q 12.5 56.640625 10.546875 51.171875 
L 3.125 52.34375 
Q 6.25 61.328125 11.125 65.421875 
Q 16.015625 69.53125 22.65625 69.921875 
Q 26.5625 70.3125 29.6875 69.71875 
Q 32.8125 69.140625 36.125 66.984375 
Q 39.453125 64.84375 41.59375 60.546875 
Q 43.75 56.25 43.15625 50.1875 
Q 42.578125 44.140625 37.109375 35.734375 
Q 31.640625 27.34375 16.015625 9.375 
L 44.140625 9.375 
L 44.140625 2.34375 
L 4.6875 2.34375 
z
" id="SimHei-50"/>
     </defs>
     <use xlink:href="#SimHei-50"/>
     <use x="50" xlink:href="#SimHei-46"/>
     <use x="100" xlink:href="#SimHei-57"/>
     <use x="150" xlink:href="#SimHei-48"/>
     <use x="200" xlink:href="#SimHei-37"/>
    </g>
   </g>
   <g id="text_17">
    <!-- 中国AR/VR内容市场份额占比统计 -->
    <g transform="translate(149.16 35.472)scale(0.12 -0.12)">
     <defs>
      <path d="M 54.296875 81.25 
Q 53.90625 70.3125 53.90625 60.546875 
L 87.890625 60.546875 
Q 87.5 52.734375 87.5 39.0625 
Q 87.5 25.78125 87.890625 19.140625 
L 79.296875 19.140625 
L 79.296875 25 
L 53.90625 25 
L 53.90625 8.203125 
Q 53.90625 3.515625 54.296875 -9.375 
L 44.921875 -9.375 
Q 45.703125 -2.34375 45.703125 7.03125 
L 45.703125 25 
L 20.3125 25 
L 20.3125 19.140625 
L 11.71875 19.140625 
Q 12.109375 25 12.109375 39.0625 
Q 12.109375 53.515625 11.71875 60.546875 
L 45.703125 60.546875 
Q 45.703125 71.09375 45.3125 81.25 
z
M 79.296875 31.25 
L 79.296875 54.296875 
L 53.90625 54.296875 
L 53.90625 31.25 
z
M 45.703125 31.25 
L 45.703125 54.296875 
L 20.3125 54.296875 
L 20.3125 31.25 
z
" id="SimHei-20013"/>
      <path d="M 90.234375 77.734375 
Q 89.84375 67.96875 89.84375 55.859375 
L 89.84375 14.0625 
Q 89.84375 1.953125 90.234375 -9.765625 
L 82.421875 -9.765625 
L 82.421875 -4.296875 
L 17.578125 -4.296875 
L 17.578125 -10.15625 
L 9.765625 -10.15625 
Q 10.15625 1.953125 10.15625 14.84375 
L 10.15625 55.859375 
Q 10.15625 67.578125 9.765625 77.734375 
L 90.234375 77.734375 
z
M 82.421875 1.5625 
L 82.421875 71.875 
L 17.578125 71.875 
L 17.578125 1.5625 
z
M 62.109375 61.328125 
Q 67.96875 61.328125 74.609375 61.71875 
L 74.609375 54.6875 
Q 68.75 55.078125 62.109375 55.078125 
L 52.34375 55.078125 
L 52.34375 42.1875 
L 59.375 42.1875 
Q 66.40625 42.1875 72.65625 42.578125 
L 72.65625 35.546875 
Q 66.40625 35.9375 59.375 35.9375 
L 52.34375 35.9375 
L 52.34375 18.359375 
L 63.28125 18.359375 
Q 70.3125 18.359375 76.5625 18.75 
L 76.5625 11.71875 
Q 70.703125 12.109375 63.28125 12.109375 
L 36.71875 12.109375 
Q 30.078125 12.109375 23.4375 11.71875 
L 23.4375 18.75 
Q 30.078125 18.359375 36.71875 18.359375 
L 45.3125 18.359375 
L 45.3125 35.9375 
L 39.84375 35.9375 
Q 33.203125 35.9375 27.34375 35.546875 
L 27.34375 42.578125 
Q 33.203125 42.1875 39.84375 42.1875 
L 45.3125 42.1875 
L 45.3125 55.078125 
L 39.453125 55.078125 
Q 32.421875 55.078125 25.78125 54.6875 
L 25.78125 61.71875 
Q 32.421875 61.328125 39.453125 61.328125 
z
M 63.28125 33.203125 
Q 65.234375 31.25 71.09375 25 
Q 67.1875 22.65625 64.453125 20.703125 
Q 63.28125 22.265625 57.8125 28.90625 
Q 60.9375 31.25 63.28125 33.203125 
z
" id="SimHei-22269"/>
      <path d="M 48.046875 1.953125 
L 38.671875 1.953125 
L 33.203125 22.65625 
L 16.015625 22.65625 
L 10.546875 1.953125 
L 1.171875 1.953125 
L 20.703125 69.53125 
L 28.515625 69.53125 
z
M 31.25 30.078125 
L 25 53.90625 
L 24.21875 53.90625 
L 17.96875 30.078125 
z
" id="SimHei-65"/>
      <path d="M 46.875 1.953125 
L 37.5 1.953125 
L 23.4375 30.859375 
L 13.28125 30.859375 
L 13.28125 1.953125 
L 4.296875 1.953125 
L 4.296875 68.75 
L 23.828125 68.75 
Q 33.203125 68.75 39.0625 64.25 
Q 44.921875 59.765625 44.921875 49.609375 
Q 44.921875 41.796875 41.015625 37.5 
Q 37.109375 33.203125 32.03125 32.03125 
z
M 35.9375 49.609375 
Q 35.9375 55.078125 32.609375 58.203125 
Q 29.296875 61.328125 21.875 61.328125 
L 13.28125 61.328125 
L 13.28125 38.28125 
L 24.21875 38.28125 
Q 28.90625 38.28125 32.421875 40.8125 
Q 35.9375 43.359375 35.9375 49.609375 
z
" id="SimHei-82"/>
      <path d="M 46.875 71.09375 
L 5.46875 -2.734375 
L 1.5625 -0.390625 
L 42.96875 73.4375 
z
" id="SimHei-47"/>
      <path d="M 47.65625 68.75 
L 28.125 1.171875 
L 20.3125 1.171875 
L 0.78125 68.75 
L 10.15625 68.75 
L 23.828125 17.578125 
L 24.609375 17.578125 
L 38.28125 68.75 
z
" id="SimHei-86"/>
      <path d="M 22.265625 20.3125 
Q 33.984375 28.515625 39.640625 37.109375 
Q 45.3125 45.703125 45.703125 58.59375 
L 19.140625 58.59375 
L 19.140625 -7.8125 
L 10.15625 -7.8125 
Q 10.9375 0 10.9375 5.46875 
L 10.9375 48.828125 
Q 10.9375 56.640625 10.546875 65.234375 
L 46.09375 65.234375 
Q 46.09375 75.78125 45.703125 80.859375 
Q 51.953125 80.46875 55.46875 80.46875 
Q 53.515625 75.390625 53.515625 65.234375 
L 90.234375 65.234375 
Q 89.453125 57.03125 89.453125 48.828125 
L 89.453125 1.171875 
Q 89.453125 -4.6875 84.765625 -6.046875 
Q 80.078125 -7.421875 71.875 -8.59375 
Q 70.703125 -4.6875 66.40625 0 
Q 75.78125 0 78.515625 0.578125 
Q 81.25 1.171875 81.25 4.296875 
L 81.25 58.59375 
L 53.125 58.59375 
Q 53.125 51.5625 51.953125 44.921875 
Q 55.46875 42.1875 64.453125 35.34375 
Q 73.4375 28.515625 77.34375 24.609375 
Q 73.046875 21.09375 70.703125 18.359375 
Q 64.0625 26.171875 49.609375 37.890625 
Q 42.578125 25.78125 31.25 15.234375 
Q 26.5625 19.140625 22.265625 20.3125 
z
" id="SimHei-20869"/>
      <path d="M 52.34375 42.578125 
Q 62.890625 33.59375 73.234375 28.90625 
Q 83.59375 24.21875 95.3125 22.265625 
Q 91.796875 19.53125 90.625 14.84375 
Q 83.203125 16.796875 75.78125 19.921875 
Q 75.78125 -3.125 76.171875 -8.984375 
L 68.75 -8.984375 
L 68.75 -3.515625 
L 32.03125 -3.515625 
L 32.03125 -10.15625 
L 24.609375 -10.15625 
Q 25 -5.078125 25 19.921875 
Q 17.578125 16.40625 8.59375 12.890625 
Q 7.03125 16.015625 3.515625 19.53125 
Q 20.703125 23.4375 33.390625 33.390625 
Q 46.09375 43.359375 48.828125 51.171875 
Q 52.734375 48.828125 56.25 47.265625 
z
M 89.84375 67.96875 
Q 89.453125 64.453125 89.453125 60.546875 
Q 89.453125 56.640625 89.84375 53.125 
L 82.03125 53.125 
L 82.03125 62.5 
L 18.75 62.5 
L 18.75 52.734375 
L 10.9375 52.734375 
Q 11.328125 57.03125 11.328125 60.546875 
Q 11.328125 64.453125 10.9375 67.96875 
z
M 68.75 2.34375 
L 68.75 16.015625 
L 32.03125 16.015625 
L 32.03125 2.34375 
z
M 72.265625 21.875 
Q 60.546875 26.5625 48.4375 37.890625 
Q 39.453125 28.90625 27.34375 21.875 
z
M 62.5 58.203125 
Q 80.859375 48.046875 86.71875 44.53125 
Q 83.984375 41.40625 82.03125 38.28125 
Q 68.75 47.265625 58.203125 52.734375 
Q 61.328125 55.859375 62.5 58.203125 
z
M 12.109375 43.359375 
Q 29.296875 50.390625 36.328125 57.8125 
Q 37.5 55.859375 41.40625 51.953125 
Q 26.953125 42.1875 17.1875 37.890625 
Q 15.234375 41.015625 12.109375 43.359375 
z
M 41.40625 78.515625 
Q 44.53125 80.078125 48.828125 82.8125 
Q 53.125 77.34375 55.859375 71.875 
Q 50.390625 69.921875 48.046875 68.359375 
Q 47.65625 69.921875 41.40625 78.515625 
z
" id="SimHei-23481"/>
      <path d="M 74.21875 65.625 
Q 83.59375 65.625 94.53125 66.015625 
L 94.53125 58.203125 
Q 83.59375 58.59375 74.21875 58.59375 
L 53.90625 58.59375 
L 53.90625 45.3125 
L 83.984375 45.3125 
Q 83.59375 38.28125 83.59375 30.859375 
L 83.59375 11.71875 
Q 83.59375 5.078125 79.09375 2.734375 
Q 74.609375 0.390625 66.40625 -0.390625 
Q 65.625 4.296875 62.890625 8.984375 
Q 71.09375 8.984375 73.234375 9.375 
Q 75.390625 9.765625 75.390625 13.28125 
L 75.390625 38.28125 
L 53.90625 38.28125 
L 53.90625 7.421875 
Q 53.90625 -2.34375 54.296875 -9.375 
L 45.3125 -9.375 
Q 45.703125 -2.34375 45.703125 7.421875 
L 45.703125 38.28125 
L 23.828125 38.28125 
L 23.828125 0 
L 15.234375 0 
Q 15.625 6.25 15.625 14.84375 
L 15.625 29.296875 
Q 15.625 38.28125 15.234375 45.3125 
L 45.703125 45.3125 
L 45.703125 58.59375 
L 25.390625 58.59375 
Q 15.234375 58.59375 5.078125 58.203125 
L 5.078125 66.015625 
Q 15.234375 65.625 25.390625 65.625 
z
M 46.09375 82.421875 
Q 50.78125 77.734375 55.859375 69.921875 
Q 51.5625 67.96875 48.828125 66.015625 
Q 45.3125 72.265625 39.84375 78.125 
Q 42.96875 80.46875 46.09375 82.421875 
z
" id="SimHei-24066"/>
      <path d="M 87.890625 78.125 
L 87.890625 71.875 
Q 82.421875 70.703125 75.96875 64.84375 
Q 69.53125 58.984375 58.59375 48.4375 
L 93.75 48.4375 
Q 93.359375 45.703125 92.96875 35.9375 
L 91.40625 6.640625 
Q 91.015625 -3.125 87.296875 -5.46875 
Q 83.59375 -7.8125 74.21875 -8.59375 
Q 73.4375 -3.90625 70.703125 0.78125 
Q 78.90625 0 81.25 1.171875 
Q 83.59375 2.34375 83.984375 6.25 
L 85.546875 41.796875 
L 78.125 41.796875 
Q 76.171875 30.078125 73.4375 22.265625 
Q 70.703125 14.453125 66.984375 8.78125 
Q 63.28125 3.125 58.59375 -0.96875 
Q 53.90625 -5.078125 46.875 -9.375 
Q 44.921875 -5.46875 41.40625 -2.734375 
Q 48.046875 0.78125 53.515625 5.46875 
Q 58.984375 10.15625 62.5 16.40625 
Q 66.015625 22.65625 67.765625 29.6875 
Q 69.53125 36.71875 70.3125 41.796875 
L 62.5 41.796875 
Q 61.71875 35.9375 59.171875 29.875 
Q 56.640625 23.828125 51.953125 17.96875 
Q 47.265625 12.109375 39.84375 6.640625 
Q 38.28125 9.375 33.984375 12.5 
Q 43.359375 17.578125 48.625 26.171875 
Q 53.90625 34.765625 54.6875 41.796875 
Q 50.390625 41.40625 48.828125 41.015625 
Q 47.265625 40.625 43.75 39.453125 
Q 42.578125 44.140625 41.40625 47.265625 
Q 48.046875 48.046875 56.828125 56.046875 
Q 65.625 64.0625 72.65625 71.484375 
L 57.8125 71.484375 
Q 49.21875 71.484375 41.796875 71.09375 
L 41.796875 78.515625 
Q 48.828125 78.125 57.421875 78.125 
z
M 18.75 68.359375 
Q 18.75 72.65625 18.359375 79.296875 
L 26.5625 79.296875 
Q 26.171875 72.265625 26.171875 68.359375 
L 26.171875 53.90625 
Q 32.03125 53.90625 38.28125 54.296875 
L 38.28125 47.265625 
Q 31.25 47.65625 26.171875 47.65625 
L 26.171875 19.140625 
Q 30.46875 20.703125 39.0625 24.609375 
Q 39.0625 21.09375 39.453125 17.578125 
Q 32.8125 14.453125 23.4375 10.734375 
Q 14.0625 7.03125 7.8125 3.515625 
Q 6.25 7.03125 3.125 11.328125 
Q 10.15625 13.28125 18.75 16.40625 
L 18.75 47.65625 
Q 10.15625 47.65625 5.078125 47.265625 
L 5.078125 54.296875 
Q 11.71875 53.90625 18.75 53.90625 
z
" id="SimHei-22330"/>
      <path d="M 74.21875 79.6875 
Q 76.171875 68.359375 82.03125 57.03125 
Q 87.890625 45.703125 96.875 38.28125 
Q 94.140625 37.109375 90.234375 32.421875 
Q 87.5 35.546875 83.59375 40.234375 
Q 82.8125 35.546875 82.421875 20.5 
Q 82.03125 5.46875 81.046875 0.390625 
Q 80.078125 -4.6875 75.78125 -6.25 
Q 71.484375 -7.8125 63.671875 -8.59375 
Q 62.5 -3.90625 60.546875 0 
Q 68.75 -0.390625 71.484375 0.390625 
Q 74.21875 1.171875 74.609375 9.171875 
Q 75 17.1875 75.390625 35.15625 
L 57.8125 35.15625 
Q 57.421875 20.3125 53.515625 10.15625 
Q 49.609375 0 37.109375 -9.765625 
Q 33.984375 -5.46875 31.25 -3.515625 
Q 42.96875 3.515625 46.671875 12.5 
Q 50.390625 21.484375 50.390625 35.15625 
Q 46.875 35.15625 41.796875 34.765625 
L 41.796875 40.234375 
Q 38.671875 35.9375 33.59375 30.46875 
Q 31.25 33.59375 27.34375 35.9375 
Q 44.921875 51.171875 50.390625 76.171875 
Q 53.90625 74.609375 58.59375 73.046875 
Q 56.640625 68.75 53.515625 60.734375 
Q 50.390625 52.734375 43.359375 42.1875 
Q 47.65625 41.796875 53.125 41.796875 
L 82.8125 41.796875 
Q 71.484375 56.640625 66.796875 77.734375 
Q 71.484375 78.515625 74.21875 79.6875 
z
M 3.515625 39.453125 
Q 8.984375 44.921875 16.015625 57.609375 
Q 23.046875 70.3125 25.78125 81.640625 
Q 30.859375 79.296875 34.375 77.734375 
Q 32.03125 74.21875 25 58.984375 
L 25 9.765625 
Q 25 1.171875 25.390625 -8.984375 
L 17.1875 -8.984375 
Q 17.578125 0.78125 17.578125 9.765625 
L 17.578125 45.703125 
Q 12.109375 37.5 8.984375 33.984375 
Q 6.640625 36.71875 3.515625 39.453125 
z
" id="SimHei-20221"/>
      <path d="M 30.078125 57.8125 
Q 26.953125 55.46875 24.21875 52.34375 
L 46.09375 52.34375 
Q 44.921875 49.21875 42.1875 44.921875 
Q 39.453125 40.625 35.9375 35.9375 
Q 39.0625 34.375 42.375 32.421875 
Q 45.703125 30.46875 51.171875 26.953125 
Q 48.828125 24.609375 46.09375 20.703125 
Q 42.1875 23.828125 38.671875 25.96875 
Q 35.15625 28.125 30.46875 30.46875 
Q 24.609375 25.78125 17.96875 21.484375 
L 43.75 21.484375 
Q 43.359375 14.84375 43.359375 7.8125 
Q 43.359375 0.78125 43.75 -7.03125 
L 36.328125 -7.03125 
L 36.328125 -0.78125 
L 20.703125 -0.78125 
L 20.703125 -8.984375 
L 13.671875 -8.984375 
Q 14.0625 -1.171875 14.0625 4.296875 
L 14.0625 18.359375 
Q 10.546875 16.796875 8.59375 15.625 
Q 6.25 19.140625 3.515625 21.875 
Q 9.765625 24.21875 15.234375 27.53125 
Q 20.703125 30.859375 24.21875 34.375 
Q 20.3125 36.71875 16.796875 38.671875 
Q 18.359375 41.015625 21.09375 43.75 
Q 25.390625 41.40625 30.078125 39.0625 
Q 33.59375 42.96875 35.9375 46.875 
L 20.3125 46.875 
Q 18.75 44.921875 16.015625 41.984375 
Q 13.28125 39.0625 10.15625 35.546875 
Q 7.421875 37.890625 3.90625 40.234375 
Q 10.15625 44.921875 14.640625 50.578125 
Q 19.140625 56.25 21.484375 61.328125 
Q 25.78125 59.375 30.078125 57.8125 
z
M 64.84375 68.75 
Q 58.984375 68.75 52.734375 68.359375 
L 52.734375 75.390625 
Q 58.59375 75 65.625 75 
L 82.8125 75 
Q 87.5 75 93.75 75.390625 
L 93.75 68.359375 
Q 87.890625 68.75 82.8125 68.75 
L 77.34375 68.75 
Q 75.78125 62.109375 73.828125 55.078125 
L 89.84375 55.078125 
Q 89.453125 48.828125 89.453125 43.359375 
L 89.453125 25.390625 
Q 89.453125 20.3125 89.84375 12.890625 
L 82.8125 12.890625 
L 82.8125 49.609375 
L 61.328125 49.609375 
L 61.328125 12.5 
L 53.90625 12.5 
Q 54.296875 19.921875 54.296875 25.78125 
L 54.296875 43.75 
Q 54.296875 49.609375 53.90625 55.078125 
L 67.1875 55.078125 
Q 68.75 62.890625 69.53125 68.75 
z
M 32.03125 79.6875 
Q 32.8125 75.390625 34.375 69.921875 
L 50.390625 69.921875 
Q 50 66.796875 50 63.671875 
Q 50 60.546875 50.390625 57.421875 
L 43.359375 57.421875 
L 43.359375 64.0625 
L 13.671875 64.0625 
L 13.671875 54.6875 
L 6.25 54.6875 
Q 6.640625 58.984375 6.640625 62.5 
Q 6.640625 66.40625 6.25 69.921875 
L 25.78125 69.921875 
Q 24.21875 74.21875 23.046875 78.125 
Q 28.125 78.90625 32.03125 79.6875 
z
M 76.953125 42.578125 
Q 75.78125 37.890625 75.578125 31.640625 
Q 75.390625 25.390625 73.625 18.359375 
Q 71.875 11.328125 66.59375 3.90625 
Q 61.328125 -3.515625 50.78125 -10.546875 
Q 47.65625 -6.640625 44.53125 -3.90625 
Q 52.734375 -0.390625 57.609375 4.09375 
Q 62.5 8.59375 65.03125 14.640625 
Q 67.578125 20.703125 67.96875 27.34375 
Q 68.359375 33.984375 68.359375 43.359375 
Q 71.484375 42.96875 76.953125 42.578125 
z
M 36.328125 5.078125 
L 36.328125 16.015625 
L 20.703125 16.015625 
L 20.703125 5.078125 
z
M 79.296875 12.5 
Q 82.8125 8.984375 85.734375 6.25 
Q 88.671875 3.515625 94.140625 -1.5625 
Q 90.625 -4.296875 87.5 -7.8125 
Q 85.15625 -4.296875 82.421875 -1.359375 
Q 79.6875 1.5625 73.046875 6.25 
Q 76.171875 8.984375 79.296875 12.5 
z
" id="SimHei-39069"/>
      <path d="M 42.578125 68.75 
Q 42.578125 75 42.1875 79.296875 
L 52.734375 79.296875 
Q 52.34375 74.609375 52.34375 68.75 
L 52.34375 62.5 
L 82.03125 62.5 
Q 92.1875 62.5 96.09375 62.890625 
L 96.09375 55.078125 
Q 92.1875 55.46875 82.8125 55.46875 
L 52.34375 55.46875 
L 52.34375 36.328125 
L 85.15625 36.328125 
Q 84.375 31.25 84.375 23.828125 
L 84.375 5.078125 
Q 84.375 -3.90625 85.15625 -8.59375 
L 75.78125 -8.59375 
L 75.78125 -0.390625 
L 23.046875 -0.390625 
L 23.046875 -8.59375 
L 13.671875 -8.59375 
Q 14.0625 -2.34375 14.0625 2.734375 
L 14.0625 24.21875 
Q 14.0625 31.25 13.671875 36.328125 
L 42.578125 36.328125 
z
M 75.78125 6.640625 
L 75.78125 29.296875 
L 23.046875 29.296875 
L 23.046875 6.640625 
z
" id="SimHei-21344"/>
      <path d="M 58.984375 79.6875 
Q 58.59375 71.484375 58.59375 64.0625 
L 58.59375 47.65625 
Q 76.953125 56.25 85.546875 65.234375 
Q 88.671875 60.9375 92.1875 57.421875 
Q 87.5 54.6875 78.703125 49.796875 
Q 69.921875 44.921875 58.59375 39.84375 
L 58.59375 7.03125 
Q 58.59375 1.5625 63.28125 1.5625 
L 78.125 1.5625 
Q 80.859375 1.5625 82.21875 3.90625 
Q 83.59375 6.25 85.15625 14.0625 
Q 88.28125 12.109375 94.140625 10.546875 
Q 91.40625 0 88.28125 -2.734375 
Q 85.15625 -5.46875 81.640625 -5.46875 
L 60.9375 -5.46875 
Q 50.78125 -5.46875 50.78125 4.296875 
L 50.78125 62.5 
Q 50.78125 71.09375 50.390625 79.6875 
L 58.984375 79.6875 
z
M 19.921875 77.734375 
Q 19.53125 71.484375 19.53125 62.5 
L 19.53125 49.21875 
L 28.90625 49.21875 
Q 36.328125 49.21875 44.921875 49.609375 
L 44.921875 41.40625 
Q 36.328125 41.796875 28.90625 41.796875 
L 19.53125 41.796875 
L 19.53125 7.421875 
Q 25.78125 10.15625 30.65625 12.6875 
Q 35.546875 15.234375 44.53125 19.921875 
Q 45.3125 14.84375 46.09375 11.71875 
Q 37.109375 7.421875 27.53125 2.734375 
Q 17.96875 -1.953125 14.453125 -5.078125 
Q 11.71875 -1.5625 8.984375 3.125 
Q 10.9375 4.6875 11.71875 9.375 
L 11.71875 61.71875 
Q 11.71875 71.09375 11.328125 77.734375 
L 19.921875 77.734375 
z
" id="SimHei-27604"/>
      <path d="M 80.46875 67.1875 
Q 86.328125 67.1875 92.96875 67.578125 
L 92.96875 60.546875 
Q 86.71875 60.9375 80.859375 60.9375 
L 58.984375 60.9375 
Q 62.109375 58.59375 66.40625 56.25 
Q 63.28125 53.90625 59.953125 49.40625 
Q 56.640625 44.921875 50.390625 37.109375 
Q 59.375 37.109375 78.515625 39.0625 
Q 76.953125 41.015625 72.265625 46.484375 
Q 75.78125 48.4375 78.515625 50.78125 
Q 85.15625 43.75 92.96875 32.8125 
Q 89.0625 30.46875 86.328125 27.734375 
Q 83.984375 30.859375 82.421875 33.203125 
Q 76.953125 32.8125 75.390625 32.421875 
L 75.390625 3.125 
Q 75.390625 -1.5625 79.296875 -1.5625 
L 83.203125 -1.5625 
Q 86.71875 -1.5625 87.890625 8.984375 
Q 91.40625 6.25 96.09375 5.078125 
Q 92.578125 -8.203125 86.328125 -8.203125 
L 75.78125 -8.203125 
Q 67.96875 -8.203125 67.96875 0 
L 67.96875 31.640625 
Q 62.5 31.25 60.546875 30.859375 
Q 60.9375 16.40625 56.828125 7.21875 
Q 52.734375 -1.953125 41.015625 -10.9375 
Q 39.0625 -7.8125 33.984375 -5.859375 
Q 40.234375 -1.953125 44.53125 2.734375 
Q 48.828125 7.421875 51.171875 13.28125 
Q 53.515625 19.140625 53.125 30.078125 
Q 47.265625 29.6875 42.578125 28.515625 
Q 41.40625 34.375 39.453125 38.671875 
Q 44.140625 39.0625 49.796875 46.484375 
Q 55.46875 53.90625 57.421875 60.9375 
L 51.171875 60.9375 
Q 46.09375 60.9375 38.671875 60.546875 
L 38.671875 67.578125 
Q 44.921875 67.1875 50.78125 67.1875 
z
M 29.296875 75.390625 
Q 26.5625 71.875 23.4375 66.40625 
Q 20.3125 60.9375 14.0625 50.78125 
Q 21.484375 51.171875 25.78125 51.171875 
Q 28.90625 56.640625 30.859375 62.109375 
Q 35.15625 59.375 39.84375 57.421875 
Q 37.109375 54.6875 32.421875 47.453125 
Q 27.734375 40.234375 19.140625 26.953125 
Q 30.46875 28.125 39.0625 29.6875 
Q 37.109375 25 37.109375 22.265625 
Q 33.59375 21.875 24.796875 20.703125 
Q 16.015625 19.53125 9.375 17.578125 
Q 8.203125 21.484375 6.640625 25.390625 
Q 10.9375 26.5625 14.84375 32.421875 
Q 18.75 38.28125 22.65625 45.3125 
Q 19.140625 44.921875 14.453125 44.328125 
Q 9.765625 43.75 6.640625 42.96875 
Q 5.078125 46.875 3.125 50.390625 
Q 7.8125 51.5625 13.46875 62.890625 
Q 19.140625 74.21875 19.921875 79.296875 
Q 24.609375 76.953125 29.296875 75.390625 
z
M 39.84375 12.890625 
Q 39.453125 8.984375 39.84375 5.46875 
Q 30.859375 3.125 22.0625 0.578125 
Q 13.28125 -1.953125 8.59375 -3.90625 
Q 7.03125 0 4.296875 4.296875 
Q 14.0625 5.859375 22.65625 7.8125 
Q 31.25 9.765625 39.84375 12.890625 
z
M 64.0625 82.421875 
Q 68.359375 75.390625 70.3125 71.484375 
Q 67.578125 70.3125 62.890625 67.96875 
Q 59.765625 75.390625 57.03125 79.296875 
Q 61.71875 80.859375 64.0625 82.421875 
z
" id="SimHei-32479"/>
      <path d="M 61.328125 48.4375 
L 61.328125 67.96875 
Q 61.328125 75.78125 60.9375 80.078125 
L 69.140625 80.078125 
Q 68.75 75 68.75 71.09375 
L 68.75 48.4375 
L 84.765625 48.4375 
Q 89.453125 48.4375 94.921875 48.828125 
L 94.921875 41.40625 
Q 89.0625 41.796875 85.15625 41.796875 
L 68.75 41.796875 
L 68.75 2.734375 
Q 68.75 -1.953125 69.140625 -8.59375 
L 60.9375 -8.59375 
Q 61.328125 -1.953125 61.328125 2.34375 
L 61.328125 41.796875 
L 46.09375 41.796875 
Q 40.234375 41.796875 34.375 41.40625 
L 34.375 48.828125 
Q 40.234375 48.4375 45.3125 48.4375 
z
M 27.734375 49.21875 
Q 27.34375 41.796875 27.34375 33.59375 
L 27.34375 9.765625 
Q 33.984375 16.40625 37.890625 21.875 
Q 40.234375 18.75 43.359375 15.625 
L 32.421875 4.6875 
Q 27.34375 -0.390625 22.65625 -5.46875 
Q 19.921875 -1.953125 17.578125 0.78125 
Q 20.3125 3.90625 19.921875 10.15625 
L 19.921875 42.578125 
Q 9.375 42.578125 4.296875 42.1875 
L 4.296875 49.609375 
Q 10.546875 49.21875 12.890625 49.21875 
z
M 17.96875 78.90625 
Q 23.046875 73.828125 33.984375 62.5 
Q 30.46875 59.375 27.34375 56.640625 
Q 22.265625 64.0625 12.109375 74.21875 
Q 14.84375 76.171875 17.96875 78.90625 
z
" id="SimHei-35745"/>
     </defs>
     <use xlink:href="#SimHei-20013"/>
     <use x="100" xlink:href="#SimHei-22269"/>
     <use x="200" xlink:href="#SimHei-65"/>
     <use x="250" xlink:href="#SimHei-82"/>
     <use x="300" xlink:href="#SimHei-47"/>
     <use x="350" xlink:href="#SimHei-86"/>
     <use x="400" xlink:href="#SimHei-82"/>
     <use x="450" xlink:href="#SimHei-20869"/>
     <use x="550" xlink:href="#SimHei-23481"/>
     <use x="650" xlink:href="#SimHei-24066"/>
     <use x="750" xlink:href="#SimHei-22330"/>
     <use x="850" xlink:href="#SimHei-20221"/>
     <use x="950" xlink:href="#SimHei-39069"/>
     <use x="1050" xlink:href="#SimHei-21344"/>
     <use x="1150" xlink:href="#SimHei-27604"/>
     <use x="1250" xlink:href="#SimHei-32479"/>
     <use x="1350" xlink:href="#SimHei-35745"/>
    </g>
   </g>
  </g>
 </g>
</svg>
